<?xml version="1.0" encoding="utf-8"?>
<!-- Generator: Adobe Illustrator 16.0.4, SVG Export Plug-In . SVG Version: 6.00 Build 0)  -->
<!DOCTYPE svg PUBLIC "-//W3C//DTD SVG 1.1//EN" "http://www.w3.org/Graphics/SVG/1.1/DTD/svg11.dtd">
<svg version="1.1" id="Layer_1" xmlns="http://www.w3.org/2000/svg" xmlns:xlink="http://www.w3.org/1999/xlink" x="0px" y="0px"
	 width="82.608px" height="219.688px" viewBox="0 0 82.608 219.688" enable-background="new 0 0 82.608 219.688"
	 xml:space="preserve">
<g>
	<path fill="#F7941E" d="M60.686,209.363c-0.518,4.923-4.992,8.961-9.942,8.974l-20.869,0.053c-4.95,0.013-9.387-4.008-9.86-8.936
		L0.86,9.88C0.387,4.953,4.05,0.926,9,0.932l64.608,0.079c4.95,0.006,8.576,4.039,8.058,8.961L60.686,209.363z"/>
	<path fill="none" stroke="#000000" stroke-width="2" stroke-miterlimit="10" d="M60.686,209.363
		c-0.518,4.923-4.992,8.961-9.942,8.974l-20.869,0.053c-4.95,0.013-9.387-4.008-9.86-8.936L0.86,9.88
		C0.387,4.953,4.05,0.926,9,0.932l64.608,0.079c4.95,0.006,8.576,4.039,8.058,8.961L60.686,209.363z"/>
</g>
</svg>
