%
M48
M72
T01C0.01300
T02C0.02500
T03C0.03200
T04C0.03543
T05C0.04000
T06C0.11800
T07C0.12598
%
T01
X237732Y432166
X233357Y429041
X258357Y450291
X183357Y439041
X154607Y441541
X152107Y446541
X153982Y404666
X150232Y397166
X137732Y383416
X127732Y390916
X122732Y374666
X118982Y367166
X117732Y362166
X122732Y362166
X126482Y362166
X121482Y352166
X110857Y351541
X107732Y343416
X118982Y338416
X130232Y332166
X145232Y324666
X154607Y325291
X157107Y332166
X166482Y330916
X168982Y328416
X172107Y322166
X172107Y311541
X182107Y294666
X173357Y287791
X177107Y274041
X145232Y269041
X135232Y284041
X135232Y300291
X108357Y299041
X102107Y290916
X104607Y284041
X99607Y279666
X94607Y279041
X93982Y293416
X88357Y294041
X84607Y311541
X77732Y319041
X38982Y346541
X77107Y385291
X84607Y384666
X72732Y396541
X95232Y415291
X103982Y402166
X97732Y397166
X141482Y369666
X147732Y374666
X152107Y361541
X142732Y361541
X143982Y344666
X152107Y346541
X168982Y359041
X167107Y364041
X180857Y364041
X192107Y366541
X194607Y364041
X202107Y372166
X199607Y379666
X195857Y375291
X188357Y377791
X188357Y390916
X183357Y390916
X179607Y399666
X172107Y404666
X194607Y391541
X197107Y394041
X207107Y385291
X213357Y383416
X209607Y375916
X211482Y368416
X215232Y368416
X229607Y379666
X246482Y369041
X253982Y364666
X256482Y374666
X265857Y377791
X273982Y371541
X276482Y374041
X280232Y369041
X272107Y362166
X268357Y365291
X269607Y352166
X289607Y344666
X283982Y335916
X283982Y324666
X292107Y325291
X278982Y314041
X282732Y304041
X267107Y295291
X258357Y304041
X247732Y290291
X250232Y284666
X228982Y297791
X222732Y304041
X206482Y301541
X206482Y295291
X223982Y322166
X227107Y335916
X244607Y357166
X280857Y380916
X283982Y390916
X275857Y393416
X273357Y390916
X257732Y404666
X278982Y412166
X293357Y398416
X311482Y380916
X318982Y374666
X315232Y366541
X308982Y361541
X292107Y372166
X303357Y342166
X318357Y330916
X323357Y330916
X320857Y320291
X325857Y320291
X339607Y320291
X349607Y317166
X357107Y325291
X365232Y329666
X380232Y317166
X389607Y304041
X380232Y302791
X376482Y292791
X387107Y292791
X392732Y289041
X397107Y292791
X405857Y280916
X399607Y278416
X395232Y278416
X385232Y277791
X378982Y277791
X371482Y277791
X367732Y277791
X368357Y269666
X366482Y264666
X373982Y269666
X377107Y264666
X371482Y255291
X387107Y269666
X390857Y268416
X393357Y262166
X398357Y253416
X408357Y253416
X395857Y239041
X414607Y220291
X405232Y207166
X400232Y207166
X391482Y214041
X388982Y211541
X383982Y211541
X375857Y200291
X367107Y199666
X360857Y199041
X368357Y184041
X371482Y175916
X377107Y175916
X381482Y175916
X385232Y175916
X388357Y178416
X390857Y175916
X395857Y182166
X400857Y189041
X402732Y194666
X418982Y184666
X418982Y179666
X408357Y173416
X400232Y167166
X392732Y167166
X376482Y164666
X373982Y167166
X376482Y160916
X352107Y152166
X334607Y154666
X327107Y164666
X334607Y167791
X334607Y179041
X334607Y191541
X333982Y202791
X338357Y202166
X347107Y209666
X349607Y224666
X380232Y190291
X382732Y186541
X422107Y196541
X438982Y199666
X445232Y227166
X448982Y230291
X463982Y272166
X424607Y287791
X413357Y283416
X419607Y314041
X403982Y320291
X395232Y333416
X413357Y344666
X424607Y330916
X437107Y330291
X382732Y352166
X365857Y363416
X358357Y352166
X353357Y362166
X345857Y364041
X350857Y372166
X348357Y374666
X345857Y380916
X343357Y390916
X345857Y394041
X353357Y392791
X350857Y399041
X335232Y402791
X329607Y374666
X365232Y380916
X382732Y389041
X383357Y385291
X395232Y398416
X326482Y430916
X306482Y431541
X337107Y330916
X323357Y307166
X313357Y309666
X313357Y285916
X322107Y282166
X327107Y287166
X335232Y285916
X339607Y285916
X334607Y272791
X342107Y267166
X334607Y262166
X325232Y270291
X313357Y274041
X307107Y274041
X307107Y262166
X310857Y262166
X295857Y255291
X291482Y267166
X280232Y244041
X175232Y377166
X167107Y377791
X163357Y378416
X175232Y350291
X177107Y346541
X187107Y346541
X198982Y347791
X200857Y352166
X112107Y267166
X138982Y248416
X122732Y235916
X147732Y219666
X153982Y209041
X148982Y194666
X120232Y198416
X104607Y192166
X109607Y137166
X117107Y117166
X158982Y74041
X186482Y69666
X189607Y41541
X213982Y44666
X213982Y48416
X200857Y10916
X252107Y73416
X270232Y53416
X305857Y53416
X312107Y60916
X352107Y79041
X370857Y44041
X397732Y95291
X405232Y102791
X402732Y138416
X412107Y144041
X334607Y118416
X299607Y118416
X285232Y123416
X263982Y123416
X263982Y95291
X203357Y99041
X198982Y99041
X200857Y174041
X232107Y186541
X240232Y173416
X244607Y174041
X267732Y195291
X272732Y190916
X297107Y181541
X366482Y287791
X355857Y292791
X35857Y250916
X34607Y227166
X44607Y282166
X38982Y284666
X168357Y239041
X170857Y230291
X195857Y233416
X195857Y224666
X208982Y219666
X208982Y211541
X213982Y259041
X98982Y57791
T02
X157180Y257772
X162380Y257772
T03
X294792Y76694
X308792Y76694
T04
X69469Y244509
X69469Y232894
X99469Y232894
X99469Y244509
T05
X74569Y85822
X69006Y94132
X63443Y102441
X57880Y110751
X52317Y119061
X46755Y127371
X41192Y135681
X35629Y143991
X28788Y160689
X26828Y170495
X24869Y180301
X22910Y190107
X20950Y199913
X18991Y209719
X17031Y219526
X15072Y229332
X15033Y247450
X16976Y257259
X18918Y267069
X20861Y276878
X22803Y286688
X24745Y296497
X26688Y306307
X28630Y316116
X35679Y332814
X41228Y341134
X46776Y349453
X52325Y357773
X57873Y366092
X63422Y374412
X68970Y382731
X74518Y391051
X87430Y403784
X95740Y409347
X104050Y414910
X112360Y420473
X120670Y426036
X128979Y431599
X137289Y437162
X145599Y442724
X162297Y449565
X172103Y451525
X181909Y453484
X191716Y455444
X201522Y457403
X211328Y459362
X221134Y461322
X230940Y463281
X249058Y463320
X258867Y461377
X268677Y459435
X278487Y457493
X288296Y455550
X298106Y453608
X307915Y451666
X317725Y449723
X334425Y442667
X342745Y437119
X351064Y431570
X359384Y426022
X367703Y420473
X376023Y414925
X384343Y409376
X392662Y403828
X405400Y390916
X410963Y382607
X416526Y374297
X422089Y365987
X427652Y357677
X433215Y349367
X438778Y341057
X444341Y332748
X451181Y316049
X453141Y306243
X455100Y296437
X457060Y286631
X459019Y276825
X460979Y267019
X462938Y257213
X464898Y247406
X464936Y229289
X462994Y219479
X461051Y209670
X459109Y199860
X457166Y190050
X455224Y180241
X453282Y170431
X451339Y160622
X444283Y143921
X438735Y135602
X433186Y127282
X427638Y118963
X422090Y110643
X416541Y102324
X410993Y94004
X405444Y85685
X392532Y72955
X384223Y67392
X375913Y61829
X367603Y56266
X359293Y50703
X350983Y45140
X342673Y39577
X334364Y34014
X317666Y27173
X307860Y25213
X298054Y23254
X288248Y21295
X278442Y19335
X268636Y17376
X258829Y15416
X249023Y13457
X230906Y13418
X221096Y15361
X211286Y17303
X201477Y19245
X191667Y21188
X181858Y23130
X172048Y25073
X162239Y27015
X145538Y34071
X137219Y39619
X128899Y45168
X120580Y50716
X112260Y56265
X103941Y61813
X95621Y67362
X87301Y72910
X128780Y126772
X128780Y136772
X128780Y146772
X128780Y156772
X128780Y166772
X128780Y176772
X128780Y186772
X128780Y196772
X128780Y206772
X128780Y216772
X128780Y226772
X128780Y236772
X128780Y246772
X128780Y256772
X128780Y266772
X128780Y276772
X128780Y286772
X128780Y296772
X128780Y306772
X128780Y316772
X188780Y316772
X188780Y306772
X188780Y296772
X188780Y286772
X188780Y276772
X188780Y266772
X188780Y256772
X188780Y246772
X188780Y236772
X188780Y226772
X188780Y216772
X188780Y206772
X188780Y196772
X188780Y186772
X188780Y176772
X188780Y166772
X188780Y156772
X188780Y146772
X188780Y136772
X188780Y126772
X168780Y126772
X158780Y126772
X148780Y126772
X158780Y156772
X168780Y156772
X168780Y166772
X158780Y166772
X158780Y176772
X168780Y176772
X168780Y186772
X158780Y186772
X229646Y229646
X239646Y229646
X233564Y254646
X243564Y254646
X253564Y254646
X249646Y229646
X259646Y229646
X52481Y244283
X52481Y232883
T06
X255312Y89587
X240603Y73276
T07
X240276Y33583
X240503Y102098
X239587Y445591
X444902Y238898
X33583Y238898
M30
