G75*
%MOIN*%
%OFA0B0*%
%FSLAX25Y25*%
%IPPOS*%
%LPD*%
%AMOC8*
5,1,8,0,0,1.08239X$1,22.5*
%
%ADD10C,0.00600*%
%ADD11C,0.00000*%
D10*
X0237520Y0001300D02*
X0241457Y0001300D01*
X0477677Y0237520D02*
X0477608Y0243228D01*
X0477401Y0248933D01*
X0477056Y0254631D01*
X0476574Y0260319D01*
X0475955Y0265993D01*
X0475198Y0271651D01*
X0474305Y0277289D01*
X0473276Y0282904D01*
X0472112Y0288493D01*
X0470813Y0294051D01*
X0469380Y0299577D01*
X0467814Y0305066D01*
X0466116Y0310516D01*
X0464286Y0315923D01*
X0462327Y0321285D01*
X0460238Y0326597D01*
X0458022Y0331858D01*
X0455679Y0337063D01*
X0453211Y0342211D01*
X0450619Y0347297D01*
X0447906Y0352319D01*
X0445071Y0357274D01*
X0442118Y0362159D01*
X0439048Y0366972D01*
X0435862Y0371708D01*
X0432563Y0376367D01*
X0429152Y0380944D01*
X0425632Y0385437D01*
X0422004Y0389845D01*
X0418270Y0394163D01*
X0414434Y0398390D01*
X0410496Y0402522D01*
X0406459Y0406559D01*
X0402327Y0410497D01*
X0398100Y0414333D01*
X0393782Y0418067D01*
X0389374Y0421695D01*
X0384881Y0425215D01*
X0380304Y0428626D01*
X0375645Y0431925D01*
X0370909Y0435111D01*
X0366096Y0438181D01*
X0361211Y0441134D01*
X0356256Y0443969D01*
X0351234Y0446682D01*
X0346148Y0449274D01*
X0341000Y0451742D01*
X0335795Y0454085D01*
X0330534Y0456301D01*
X0325222Y0458390D01*
X0319860Y0460349D01*
X0314453Y0462179D01*
X0309003Y0463877D01*
X0303514Y0465443D01*
X0297988Y0466876D01*
X0292430Y0468175D01*
X0286841Y0469339D01*
X0281226Y0470368D01*
X0275588Y0471261D01*
X0269930Y0472018D01*
X0264256Y0472637D01*
X0258568Y0473119D01*
X0252870Y0473464D01*
X0247165Y0473671D01*
X0241457Y0473740D01*
X0241457Y0473741D02*
X0237520Y0473741D01*
X0001300Y0237520D02*
X0001369Y0231812D01*
X0001576Y0226107D01*
X0001921Y0220409D01*
X0002403Y0214721D01*
X0003022Y0209047D01*
X0003779Y0203389D01*
X0004672Y0197751D01*
X0005701Y0192136D01*
X0006865Y0186547D01*
X0008164Y0180989D01*
X0009597Y0175463D01*
X0011163Y0169974D01*
X0012861Y0164524D01*
X0014691Y0159117D01*
X0016650Y0153755D01*
X0018739Y0148443D01*
X0020955Y0143182D01*
X0023298Y0137977D01*
X0025766Y0132829D01*
X0028358Y0127743D01*
X0031071Y0122721D01*
X0033906Y0117766D01*
X0036859Y0112881D01*
X0039929Y0108068D01*
X0043115Y0103332D01*
X0046414Y0098673D01*
X0049825Y0094096D01*
X0053345Y0089603D01*
X0056973Y0085195D01*
X0060707Y0080877D01*
X0064543Y0076650D01*
X0068481Y0072518D01*
X0072518Y0068481D01*
X0076650Y0064543D01*
X0080877Y0060707D01*
X0085195Y0056973D01*
X0089603Y0053345D01*
X0094096Y0049825D01*
X0098673Y0046414D01*
X0103332Y0043115D01*
X0108068Y0039929D01*
X0112881Y0036859D01*
X0117766Y0033906D01*
X0122721Y0031071D01*
X0127743Y0028358D01*
X0132829Y0025766D01*
X0137977Y0023298D01*
X0143182Y0020955D01*
X0148443Y0018739D01*
X0153755Y0016650D01*
X0159117Y0014691D01*
X0164524Y0012861D01*
X0169974Y0011163D01*
X0175463Y0009597D01*
X0180989Y0008164D01*
X0186547Y0006865D01*
X0192136Y0005701D01*
X0197751Y0004672D01*
X0203389Y0003779D01*
X0209047Y0003022D01*
X0214721Y0002403D01*
X0220409Y0001921D01*
X0226107Y0001576D01*
X0231812Y0001369D01*
X0237520Y0001300D01*
X0001300Y0237520D02*
X0001369Y0243228D01*
X0001576Y0248933D01*
X0001921Y0254631D01*
X0002403Y0260319D01*
X0003022Y0265993D01*
X0003779Y0271651D01*
X0004672Y0277289D01*
X0005701Y0282904D01*
X0006865Y0288493D01*
X0008164Y0294051D01*
X0009597Y0299577D01*
X0011163Y0305066D01*
X0012861Y0310516D01*
X0014691Y0315923D01*
X0016650Y0321285D01*
X0018739Y0326597D01*
X0020955Y0331858D01*
X0023298Y0337063D01*
X0025766Y0342211D01*
X0028358Y0347297D01*
X0031071Y0352319D01*
X0033906Y0357274D01*
X0036859Y0362159D01*
X0039929Y0366972D01*
X0043115Y0371708D01*
X0046414Y0376367D01*
X0049825Y0380944D01*
X0053345Y0385437D01*
X0056973Y0389845D01*
X0060707Y0394163D01*
X0064543Y0398390D01*
X0068481Y0402522D01*
X0072518Y0406559D01*
X0076650Y0410497D01*
X0080877Y0414333D01*
X0085195Y0418067D01*
X0089603Y0421695D01*
X0094096Y0425215D01*
X0098673Y0428626D01*
X0103332Y0431925D01*
X0108068Y0435111D01*
X0112881Y0438181D01*
X0117766Y0441134D01*
X0122721Y0443969D01*
X0127743Y0446682D01*
X0132829Y0449274D01*
X0137977Y0451742D01*
X0143182Y0454085D01*
X0148443Y0456301D01*
X0153755Y0458390D01*
X0159117Y0460349D01*
X0164524Y0462179D01*
X0169974Y0463877D01*
X0175463Y0465443D01*
X0180989Y0466876D01*
X0186547Y0468175D01*
X0192136Y0469339D01*
X0197751Y0470368D01*
X0203389Y0471261D01*
X0209047Y0472018D01*
X0214721Y0472637D01*
X0220409Y0473119D01*
X0226107Y0473464D01*
X0231812Y0473671D01*
X0237520Y0473740D01*
X0477677Y0237520D02*
X0477608Y0231812D01*
X0477401Y0226107D01*
X0477056Y0220409D01*
X0476574Y0214721D01*
X0475955Y0209047D01*
X0475198Y0203389D01*
X0474305Y0197751D01*
X0473276Y0192136D01*
X0472112Y0186547D01*
X0470813Y0180989D01*
X0469380Y0175463D01*
X0467814Y0169974D01*
X0466116Y0164524D01*
X0464286Y0159117D01*
X0462327Y0153755D01*
X0460238Y0148443D01*
X0458022Y0143182D01*
X0455679Y0137977D01*
X0453211Y0132829D01*
X0450619Y0127743D01*
X0447906Y0122721D01*
X0445071Y0117766D01*
X0442118Y0112881D01*
X0439048Y0108068D01*
X0435862Y0103332D01*
X0432563Y0098673D01*
X0429152Y0094096D01*
X0425632Y0089603D01*
X0422004Y0085195D01*
X0418270Y0080877D01*
X0414434Y0076650D01*
X0410496Y0072518D01*
X0406459Y0068481D01*
X0402327Y0064543D01*
X0398100Y0060707D01*
X0393782Y0056973D01*
X0389374Y0053345D01*
X0384881Y0049825D01*
X0380304Y0046414D01*
X0375645Y0043115D01*
X0370909Y0039929D01*
X0366096Y0036859D01*
X0361211Y0033906D01*
X0356256Y0031071D01*
X0351234Y0028358D01*
X0346148Y0025766D01*
X0341000Y0023298D01*
X0335795Y0020955D01*
X0330534Y0018739D01*
X0325222Y0016650D01*
X0319860Y0014691D01*
X0314453Y0012861D01*
X0309003Y0011163D01*
X0303514Y0009597D01*
X0297988Y0008164D01*
X0292430Y0006865D01*
X0286841Y0005701D01*
X0281226Y0004672D01*
X0275588Y0003779D01*
X0269930Y0003022D01*
X0264256Y0002403D01*
X0258568Y0001921D01*
X0252870Y0001576D01*
X0247165Y0001369D01*
X0241457Y0001300D01*
D11*
X0233977Y0033583D02*
X0233979Y0033741D01*
X0233985Y0033899D01*
X0233995Y0034057D01*
X0234009Y0034215D01*
X0234027Y0034372D01*
X0234048Y0034529D01*
X0234074Y0034685D01*
X0234104Y0034841D01*
X0234137Y0034996D01*
X0234175Y0035149D01*
X0234216Y0035302D01*
X0234261Y0035454D01*
X0234310Y0035605D01*
X0234363Y0035754D01*
X0234419Y0035902D01*
X0234479Y0036048D01*
X0234543Y0036193D01*
X0234611Y0036336D01*
X0234682Y0036478D01*
X0234756Y0036618D01*
X0234834Y0036755D01*
X0234916Y0036891D01*
X0235000Y0037025D01*
X0235089Y0037156D01*
X0235180Y0037285D01*
X0235275Y0037412D01*
X0235372Y0037537D01*
X0235473Y0037659D01*
X0235577Y0037778D01*
X0235684Y0037895D01*
X0235794Y0038009D01*
X0235907Y0038120D01*
X0236022Y0038229D01*
X0236140Y0038334D01*
X0236261Y0038436D01*
X0236384Y0038536D01*
X0236510Y0038632D01*
X0236638Y0038725D01*
X0236768Y0038815D01*
X0236901Y0038901D01*
X0237036Y0038985D01*
X0237172Y0039064D01*
X0237311Y0039141D01*
X0237452Y0039213D01*
X0237594Y0039283D01*
X0237738Y0039348D01*
X0237884Y0039410D01*
X0238031Y0039468D01*
X0238180Y0039523D01*
X0238330Y0039574D01*
X0238481Y0039621D01*
X0238633Y0039664D01*
X0238786Y0039703D01*
X0238941Y0039739D01*
X0239096Y0039770D01*
X0239252Y0039798D01*
X0239408Y0039822D01*
X0239565Y0039842D01*
X0239723Y0039858D01*
X0239880Y0039870D01*
X0240039Y0039878D01*
X0240197Y0039882D01*
X0240355Y0039882D01*
X0240513Y0039878D01*
X0240672Y0039870D01*
X0240829Y0039858D01*
X0240987Y0039842D01*
X0241144Y0039822D01*
X0241300Y0039798D01*
X0241456Y0039770D01*
X0241611Y0039739D01*
X0241766Y0039703D01*
X0241919Y0039664D01*
X0242071Y0039621D01*
X0242222Y0039574D01*
X0242372Y0039523D01*
X0242521Y0039468D01*
X0242668Y0039410D01*
X0242814Y0039348D01*
X0242958Y0039283D01*
X0243100Y0039213D01*
X0243241Y0039141D01*
X0243380Y0039064D01*
X0243516Y0038985D01*
X0243651Y0038901D01*
X0243784Y0038815D01*
X0243914Y0038725D01*
X0244042Y0038632D01*
X0244168Y0038536D01*
X0244291Y0038436D01*
X0244412Y0038334D01*
X0244530Y0038229D01*
X0244645Y0038120D01*
X0244758Y0038009D01*
X0244868Y0037895D01*
X0244975Y0037778D01*
X0245079Y0037659D01*
X0245180Y0037537D01*
X0245277Y0037412D01*
X0245372Y0037285D01*
X0245463Y0037156D01*
X0245552Y0037025D01*
X0245636Y0036891D01*
X0245718Y0036755D01*
X0245796Y0036618D01*
X0245870Y0036478D01*
X0245941Y0036336D01*
X0246009Y0036193D01*
X0246073Y0036048D01*
X0246133Y0035902D01*
X0246189Y0035754D01*
X0246242Y0035605D01*
X0246291Y0035454D01*
X0246336Y0035302D01*
X0246377Y0035149D01*
X0246415Y0034996D01*
X0246448Y0034841D01*
X0246478Y0034685D01*
X0246504Y0034529D01*
X0246525Y0034372D01*
X0246543Y0034215D01*
X0246557Y0034057D01*
X0246567Y0033899D01*
X0246573Y0033741D01*
X0246575Y0033583D01*
X0246573Y0033425D01*
X0246567Y0033267D01*
X0246557Y0033109D01*
X0246543Y0032951D01*
X0246525Y0032794D01*
X0246504Y0032637D01*
X0246478Y0032481D01*
X0246448Y0032325D01*
X0246415Y0032170D01*
X0246377Y0032017D01*
X0246336Y0031864D01*
X0246291Y0031712D01*
X0246242Y0031561D01*
X0246189Y0031412D01*
X0246133Y0031264D01*
X0246073Y0031118D01*
X0246009Y0030973D01*
X0245941Y0030830D01*
X0245870Y0030688D01*
X0245796Y0030548D01*
X0245718Y0030411D01*
X0245636Y0030275D01*
X0245552Y0030141D01*
X0245463Y0030010D01*
X0245372Y0029881D01*
X0245277Y0029754D01*
X0245180Y0029629D01*
X0245079Y0029507D01*
X0244975Y0029388D01*
X0244868Y0029271D01*
X0244758Y0029157D01*
X0244645Y0029046D01*
X0244530Y0028937D01*
X0244412Y0028832D01*
X0244291Y0028730D01*
X0244168Y0028630D01*
X0244042Y0028534D01*
X0243914Y0028441D01*
X0243784Y0028351D01*
X0243651Y0028265D01*
X0243516Y0028181D01*
X0243380Y0028102D01*
X0243241Y0028025D01*
X0243100Y0027953D01*
X0242958Y0027883D01*
X0242814Y0027818D01*
X0242668Y0027756D01*
X0242521Y0027698D01*
X0242372Y0027643D01*
X0242222Y0027592D01*
X0242071Y0027545D01*
X0241919Y0027502D01*
X0241766Y0027463D01*
X0241611Y0027427D01*
X0241456Y0027396D01*
X0241300Y0027368D01*
X0241144Y0027344D01*
X0240987Y0027324D01*
X0240829Y0027308D01*
X0240672Y0027296D01*
X0240513Y0027288D01*
X0240355Y0027284D01*
X0240197Y0027284D01*
X0240039Y0027288D01*
X0239880Y0027296D01*
X0239723Y0027308D01*
X0239565Y0027324D01*
X0239408Y0027344D01*
X0239252Y0027368D01*
X0239096Y0027396D01*
X0238941Y0027427D01*
X0238786Y0027463D01*
X0238633Y0027502D01*
X0238481Y0027545D01*
X0238330Y0027592D01*
X0238180Y0027643D01*
X0238031Y0027698D01*
X0237884Y0027756D01*
X0237738Y0027818D01*
X0237594Y0027883D01*
X0237452Y0027953D01*
X0237311Y0028025D01*
X0237172Y0028102D01*
X0237036Y0028181D01*
X0236901Y0028265D01*
X0236768Y0028351D01*
X0236638Y0028441D01*
X0236510Y0028534D01*
X0236384Y0028630D01*
X0236261Y0028730D01*
X0236140Y0028832D01*
X0236022Y0028937D01*
X0235907Y0029046D01*
X0235794Y0029157D01*
X0235684Y0029271D01*
X0235577Y0029388D01*
X0235473Y0029507D01*
X0235372Y0029629D01*
X0235275Y0029754D01*
X0235180Y0029881D01*
X0235089Y0030010D01*
X0235000Y0030141D01*
X0234916Y0030275D01*
X0234834Y0030411D01*
X0234756Y0030548D01*
X0234682Y0030688D01*
X0234611Y0030830D01*
X0234543Y0030973D01*
X0234479Y0031118D01*
X0234419Y0031264D01*
X0234363Y0031412D01*
X0234310Y0031561D01*
X0234261Y0031712D01*
X0234216Y0031864D01*
X0234175Y0032017D01*
X0234137Y0032170D01*
X0234104Y0032325D01*
X0234074Y0032481D01*
X0234048Y0032637D01*
X0234027Y0032794D01*
X0234009Y0032951D01*
X0233995Y0033109D01*
X0233985Y0033267D01*
X0233979Y0033425D01*
X0233977Y0033583D01*
X0027284Y0238898D02*
X0027286Y0239056D01*
X0027292Y0239214D01*
X0027302Y0239372D01*
X0027316Y0239530D01*
X0027334Y0239687D01*
X0027355Y0239844D01*
X0027381Y0240000D01*
X0027411Y0240156D01*
X0027444Y0240311D01*
X0027482Y0240464D01*
X0027523Y0240617D01*
X0027568Y0240769D01*
X0027617Y0240920D01*
X0027670Y0241069D01*
X0027726Y0241217D01*
X0027786Y0241363D01*
X0027850Y0241508D01*
X0027918Y0241651D01*
X0027989Y0241793D01*
X0028063Y0241933D01*
X0028141Y0242070D01*
X0028223Y0242206D01*
X0028307Y0242340D01*
X0028396Y0242471D01*
X0028487Y0242600D01*
X0028582Y0242727D01*
X0028679Y0242852D01*
X0028780Y0242974D01*
X0028884Y0243093D01*
X0028991Y0243210D01*
X0029101Y0243324D01*
X0029214Y0243435D01*
X0029329Y0243544D01*
X0029447Y0243649D01*
X0029568Y0243751D01*
X0029691Y0243851D01*
X0029817Y0243947D01*
X0029945Y0244040D01*
X0030075Y0244130D01*
X0030208Y0244216D01*
X0030343Y0244300D01*
X0030479Y0244379D01*
X0030618Y0244456D01*
X0030759Y0244528D01*
X0030901Y0244598D01*
X0031045Y0244663D01*
X0031191Y0244725D01*
X0031338Y0244783D01*
X0031487Y0244838D01*
X0031637Y0244889D01*
X0031788Y0244936D01*
X0031940Y0244979D01*
X0032093Y0245018D01*
X0032248Y0245054D01*
X0032403Y0245085D01*
X0032559Y0245113D01*
X0032715Y0245137D01*
X0032872Y0245157D01*
X0033030Y0245173D01*
X0033187Y0245185D01*
X0033346Y0245193D01*
X0033504Y0245197D01*
X0033662Y0245197D01*
X0033820Y0245193D01*
X0033979Y0245185D01*
X0034136Y0245173D01*
X0034294Y0245157D01*
X0034451Y0245137D01*
X0034607Y0245113D01*
X0034763Y0245085D01*
X0034918Y0245054D01*
X0035073Y0245018D01*
X0035226Y0244979D01*
X0035378Y0244936D01*
X0035529Y0244889D01*
X0035679Y0244838D01*
X0035828Y0244783D01*
X0035975Y0244725D01*
X0036121Y0244663D01*
X0036265Y0244598D01*
X0036407Y0244528D01*
X0036548Y0244456D01*
X0036687Y0244379D01*
X0036823Y0244300D01*
X0036958Y0244216D01*
X0037091Y0244130D01*
X0037221Y0244040D01*
X0037349Y0243947D01*
X0037475Y0243851D01*
X0037598Y0243751D01*
X0037719Y0243649D01*
X0037837Y0243544D01*
X0037952Y0243435D01*
X0038065Y0243324D01*
X0038175Y0243210D01*
X0038282Y0243093D01*
X0038386Y0242974D01*
X0038487Y0242852D01*
X0038584Y0242727D01*
X0038679Y0242600D01*
X0038770Y0242471D01*
X0038859Y0242340D01*
X0038943Y0242206D01*
X0039025Y0242070D01*
X0039103Y0241933D01*
X0039177Y0241793D01*
X0039248Y0241651D01*
X0039316Y0241508D01*
X0039380Y0241363D01*
X0039440Y0241217D01*
X0039496Y0241069D01*
X0039549Y0240920D01*
X0039598Y0240769D01*
X0039643Y0240617D01*
X0039684Y0240464D01*
X0039722Y0240311D01*
X0039755Y0240156D01*
X0039785Y0240000D01*
X0039811Y0239844D01*
X0039832Y0239687D01*
X0039850Y0239530D01*
X0039864Y0239372D01*
X0039874Y0239214D01*
X0039880Y0239056D01*
X0039882Y0238898D01*
X0039880Y0238740D01*
X0039874Y0238582D01*
X0039864Y0238424D01*
X0039850Y0238266D01*
X0039832Y0238109D01*
X0039811Y0237952D01*
X0039785Y0237796D01*
X0039755Y0237640D01*
X0039722Y0237485D01*
X0039684Y0237332D01*
X0039643Y0237179D01*
X0039598Y0237027D01*
X0039549Y0236876D01*
X0039496Y0236727D01*
X0039440Y0236579D01*
X0039380Y0236433D01*
X0039316Y0236288D01*
X0039248Y0236145D01*
X0039177Y0236003D01*
X0039103Y0235863D01*
X0039025Y0235726D01*
X0038943Y0235590D01*
X0038859Y0235456D01*
X0038770Y0235325D01*
X0038679Y0235196D01*
X0038584Y0235069D01*
X0038487Y0234944D01*
X0038386Y0234822D01*
X0038282Y0234703D01*
X0038175Y0234586D01*
X0038065Y0234472D01*
X0037952Y0234361D01*
X0037837Y0234252D01*
X0037719Y0234147D01*
X0037598Y0234045D01*
X0037475Y0233945D01*
X0037349Y0233849D01*
X0037221Y0233756D01*
X0037091Y0233666D01*
X0036958Y0233580D01*
X0036823Y0233496D01*
X0036687Y0233417D01*
X0036548Y0233340D01*
X0036407Y0233268D01*
X0036265Y0233198D01*
X0036121Y0233133D01*
X0035975Y0233071D01*
X0035828Y0233013D01*
X0035679Y0232958D01*
X0035529Y0232907D01*
X0035378Y0232860D01*
X0035226Y0232817D01*
X0035073Y0232778D01*
X0034918Y0232742D01*
X0034763Y0232711D01*
X0034607Y0232683D01*
X0034451Y0232659D01*
X0034294Y0232639D01*
X0034136Y0232623D01*
X0033979Y0232611D01*
X0033820Y0232603D01*
X0033662Y0232599D01*
X0033504Y0232599D01*
X0033346Y0232603D01*
X0033187Y0232611D01*
X0033030Y0232623D01*
X0032872Y0232639D01*
X0032715Y0232659D01*
X0032559Y0232683D01*
X0032403Y0232711D01*
X0032248Y0232742D01*
X0032093Y0232778D01*
X0031940Y0232817D01*
X0031788Y0232860D01*
X0031637Y0232907D01*
X0031487Y0232958D01*
X0031338Y0233013D01*
X0031191Y0233071D01*
X0031045Y0233133D01*
X0030901Y0233198D01*
X0030759Y0233268D01*
X0030618Y0233340D01*
X0030479Y0233417D01*
X0030343Y0233496D01*
X0030208Y0233580D01*
X0030075Y0233666D01*
X0029945Y0233756D01*
X0029817Y0233849D01*
X0029691Y0233945D01*
X0029568Y0234045D01*
X0029447Y0234147D01*
X0029329Y0234252D01*
X0029214Y0234361D01*
X0029101Y0234472D01*
X0028991Y0234586D01*
X0028884Y0234703D01*
X0028780Y0234822D01*
X0028679Y0234944D01*
X0028582Y0235069D01*
X0028487Y0235196D01*
X0028396Y0235325D01*
X0028307Y0235456D01*
X0028223Y0235590D01*
X0028141Y0235726D01*
X0028063Y0235863D01*
X0027989Y0236003D01*
X0027918Y0236145D01*
X0027850Y0236288D01*
X0027786Y0236433D01*
X0027726Y0236579D01*
X0027670Y0236727D01*
X0027617Y0236876D01*
X0027568Y0237027D01*
X0027523Y0237179D01*
X0027482Y0237332D01*
X0027444Y0237485D01*
X0027411Y0237640D01*
X0027381Y0237796D01*
X0027355Y0237952D01*
X0027334Y0238109D01*
X0027316Y0238266D01*
X0027302Y0238424D01*
X0027292Y0238582D01*
X0027286Y0238740D01*
X0027284Y0238898D01*
X0233288Y0445591D02*
X0233290Y0445749D01*
X0233296Y0445907D01*
X0233306Y0446065D01*
X0233320Y0446223D01*
X0233338Y0446380D01*
X0233359Y0446537D01*
X0233385Y0446693D01*
X0233415Y0446849D01*
X0233448Y0447004D01*
X0233486Y0447157D01*
X0233527Y0447310D01*
X0233572Y0447462D01*
X0233621Y0447613D01*
X0233674Y0447762D01*
X0233730Y0447910D01*
X0233790Y0448056D01*
X0233854Y0448201D01*
X0233922Y0448344D01*
X0233993Y0448486D01*
X0234067Y0448626D01*
X0234145Y0448763D01*
X0234227Y0448899D01*
X0234311Y0449033D01*
X0234400Y0449164D01*
X0234491Y0449293D01*
X0234586Y0449420D01*
X0234683Y0449545D01*
X0234784Y0449667D01*
X0234888Y0449786D01*
X0234995Y0449903D01*
X0235105Y0450017D01*
X0235218Y0450128D01*
X0235333Y0450237D01*
X0235451Y0450342D01*
X0235572Y0450444D01*
X0235695Y0450544D01*
X0235821Y0450640D01*
X0235949Y0450733D01*
X0236079Y0450823D01*
X0236212Y0450909D01*
X0236347Y0450993D01*
X0236483Y0451072D01*
X0236622Y0451149D01*
X0236763Y0451221D01*
X0236905Y0451291D01*
X0237049Y0451356D01*
X0237195Y0451418D01*
X0237342Y0451476D01*
X0237491Y0451531D01*
X0237641Y0451582D01*
X0237792Y0451629D01*
X0237944Y0451672D01*
X0238097Y0451711D01*
X0238252Y0451747D01*
X0238407Y0451778D01*
X0238563Y0451806D01*
X0238719Y0451830D01*
X0238876Y0451850D01*
X0239034Y0451866D01*
X0239191Y0451878D01*
X0239350Y0451886D01*
X0239508Y0451890D01*
X0239666Y0451890D01*
X0239824Y0451886D01*
X0239983Y0451878D01*
X0240140Y0451866D01*
X0240298Y0451850D01*
X0240455Y0451830D01*
X0240611Y0451806D01*
X0240767Y0451778D01*
X0240922Y0451747D01*
X0241077Y0451711D01*
X0241230Y0451672D01*
X0241382Y0451629D01*
X0241533Y0451582D01*
X0241683Y0451531D01*
X0241832Y0451476D01*
X0241979Y0451418D01*
X0242125Y0451356D01*
X0242269Y0451291D01*
X0242411Y0451221D01*
X0242552Y0451149D01*
X0242691Y0451072D01*
X0242827Y0450993D01*
X0242962Y0450909D01*
X0243095Y0450823D01*
X0243225Y0450733D01*
X0243353Y0450640D01*
X0243479Y0450544D01*
X0243602Y0450444D01*
X0243723Y0450342D01*
X0243841Y0450237D01*
X0243956Y0450128D01*
X0244069Y0450017D01*
X0244179Y0449903D01*
X0244286Y0449786D01*
X0244390Y0449667D01*
X0244491Y0449545D01*
X0244588Y0449420D01*
X0244683Y0449293D01*
X0244774Y0449164D01*
X0244863Y0449033D01*
X0244947Y0448899D01*
X0245029Y0448763D01*
X0245107Y0448626D01*
X0245181Y0448486D01*
X0245252Y0448344D01*
X0245320Y0448201D01*
X0245384Y0448056D01*
X0245444Y0447910D01*
X0245500Y0447762D01*
X0245553Y0447613D01*
X0245602Y0447462D01*
X0245647Y0447310D01*
X0245688Y0447157D01*
X0245726Y0447004D01*
X0245759Y0446849D01*
X0245789Y0446693D01*
X0245815Y0446537D01*
X0245836Y0446380D01*
X0245854Y0446223D01*
X0245868Y0446065D01*
X0245878Y0445907D01*
X0245884Y0445749D01*
X0245886Y0445591D01*
X0245884Y0445433D01*
X0245878Y0445275D01*
X0245868Y0445117D01*
X0245854Y0444959D01*
X0245836Y0444802D01*
X0245815Y0444645D01*
X0245789Y0444489D01*
X0245759Y0444333D01*
X0245726Y0444178D01*
X0245688Y0444025D01*
X0245647Y0443872D01*
X0245602Y0443720D01*
X0245553Y0443569D01*
X0245500Y0443420D01*
X0245444Y0443272D01*
X0245384Y0443126D01*
X0245320Y0442981D01*
X0245252Y0442838D01*
X0245181Y0442696D01*
X0245107Y0442556D01*
X0245029Y0442419D01*
X0244947Y0442283D01*
X0244863Y0442149D01*
X0244774Y0442018D01*
X0244683Y0441889D01*
X0244588Y0441762D01*
X0244491Y0441637D01*
X0244390Y0441515D01*
X0244286Y0441396D01*
X0244179Y0441279D01*
X0244069Y0441165D01*
X0243956Y0441054D01*
X0243841Y0440945D01*
X0243723Y0440840D01*
X0243602Y0440738D01*
X0243479Y0440638D01*
X0243353Y0440542D01*
X0243225Y0440449D01*
X0243095Y0440359D01*
X0242962Y0440273D01*
X0242827Y0440189D01*
X0242691Y0440110D01*
X0242552Y0440033D01*
X0242411Y0439961D01*
X0242269Y0439891D01*
X0242125Y0439826D01*
X0241979Y0439764D01*
X0241832Y0439706D01*
X0241683Y0439651D01*
X0241533Y0439600D01*
X0241382Y0439553D01*
X0241230Y0439510D01*
X0241077Y0439471D01*
X0240922Y0439435D01*
X0240767Y0439404D01*
X0240611Y0439376D01*
X0240455Y0439352D01*
X0240298Y0439332D01*
X0240140Y0439316D01*
X0239983Y0439304D01*
X0239824Y0439296D01*
X0239666Y0439292D01*
X0239508Y0439292D01*
X0239350Y0439296D01*
X0239191Y0439304D01*
X0239034Y0439316D01*
X0238876Y0439332D01*
X0238719Y0439352D01*
X0238563Y0439376D01*
X0238407Y0439404D01*
X0238252Y0439435D01*
X0238097Y0439471D01*
X0237944Y0439510D01*
X0237792Y0439553D01*
X0237641Y0439600D01*
X0237491Y0439651D01*
X0237342Y0439706D01*
X0237195Y0439764D01*
X0237049Y0439826D01*
X0236905Y0439891D01*
X0236763Y0439961D01*
X0236622Y0440033D01*
X0236483Y0440110D01*
X0236347Y0440189D01*
X0236212Y0440273D01*
X0236079Y0440359D01*
X0235949Y0440449D01*
X0235821Y0440542D01*
X0235695Y0440638D01*
X0235572Y0440738D01*
X0235451Y0440840D01*
X0235333Y0440945D01*
X0235218Y0441054D01*
X0235105Y0441165D01*
X0234995Y0441279D01*
X0234888Y0441396D01*
X0234784Y0441515D01*
X0234683Y0441637D01*
X0234586Y0441762D01*
X0234491Y0441889D01*
X0234400Y0442018D01*
X0234311Y0442149D01*
X0234227Y0442283D01*
X0234145Y0442419D01*
X0234067Y0442556D01*
X0233993Y0442696D01*
X0233922Y0442838D01*
X0233854Y0442981D01*
X0233790Y0443126D01*
X0233730Y0443272D01*
X0233674Y0443420D01*
X0233621Y0443569D01*
X0233572Y0443720D01*
X0233527Y0443872D01*
X0233486Y0444025D01*
X0233448Y0444178D01*
X0233415Y0444333D01*
X0233385Y0444489D01*
X0233359Y0444645D01*
X0233338Y0444802D01*
X0233320Y0444959D01*
X0233306Y0445117D01*
X0233296Y0445275D01*
X0233290Y0445433D01*
X0233288Y0445591D01*
X0438603Y0238898D02*
X0438605Y0239056D01*
X0438611Y0239214D01*
X0438621Y0239372D01*
X0438635Y0239530D01*
X0438653Y0239687D01*
X0438674Y0239844D01*
X0438700Y0240000D01*
X0438730Y0240156D01*
X0438763Y0240311D01*
X0438801Y0240464D01*
X0438842Y0240617D01*
X0438887Y0240769D01*
X0438936Y0240920D01*
X0438989Y0241069D01*
X0439045Y0241217D01*
X0439105Y0241363D01*
X0439169Y0241508D01*
X0439237Y0241651D01*
X0439308Y0241793D01*
X0439382Y0241933D01*
X0439460Y0242070D01*
X0439542Y0242206D01*
X0439626Y0242340D01*
X0439715Y0242471D01*
X0439806Y0242600D01*
X0439901Y0242727D01*
X0439998Y0242852D01*
X0440099Y0242974D01*
X0440203Y0243093D01*
X0440310Y0243210D01*
X0440420Y0243324D01*
X0440533Y0243435D01*
X0440648Y0243544D01*
X0440766Y0243649D01*
X0440887Y0243751D01*
X0441010Y0243851D01*
X0441136Y0243947D01*
X0441264Y0244040D01*
X0441394Y0244130D01*
X0441527Y0244216D01*
X0441662Y0244300D01*
X0441798Y0244379D01*
X0441937Y0244456D01*
X0442078Y0244528D01*
X0442220Y0244598D01*
X0442364Y0244663D01*
X0442510Y0244725D01*
X0442657Y0244783D01*
X0442806Y0244838D01*
X0442956Y0244889D01*
X0443107Y0244936D01*
X0443259Y0244979D01*
X0443412Y0245018D01*
X0443567Y0245054D01*
X0443722Y0245085D01*
X0443878Y0245113D01*
X0444034Y0245137D01*
X0444191Y0245157D01*
X0444349Y0245173D01*
X0444506Y0245185D01*
X0444665Y0245193D01*
X0444823Y0245197D01*
X0444981Y0245197D01*
X0445139Y0245193D01*
X0445298Y0245185D01*
X0445455Y0245173D01*
X0445613Y0245157D01*
X0445770Y0245137D01*
X0445926Y0245113D01*
X0446082Y0245085D01*
X0446237Y0245054D01*
X0446392Y0245018D01*
X0446545Y0244979D01*
X0446697Y0244936D01*
X0446848Y0244889D01*
X0446998Y0244838D01*
X0447147Y0244783D01*
X0447294Y0244725D01*
X0447440Y0244663D01*
X0447584Y0244598D01*
X0447726Y0244528D01*
X0447867Y0244456D01*
X0448006Y0244379D01*
X0448142Y0244300D01*
X0448277Y0244216D01*
X0448410Y0244130D01*
X0448540Y0244040D01*
X0448668Y0243947D01*
X0448794Y0243851D01*
X0448917Y0243751D01*
X0449038Y0243649D01*
X0449156Y0243544D01*
X0449271Y0243435D01*
X0449384Y0243324D01*
X0449494Y0243210D01*
X0449601Y0243093D01*
X0449705Y0242974D01*
X0449806Y0242852D01*
X0449903Y0242727D01*
X0449998Y0242600D01*
X0450089Y0242471D01*
X0450178Y0242340D01*
X0450262Y0242206D01*
X0450344Y0242070D01*
X0450422Y0241933D01*
X0450496Y0241793D01*
X0450567Y0241651D01*
X0450635Y0241508D01*
X0450699Y0241363D01*
X0450759Y0241217D01*
X0450815Y0241069D01*
X0450868Y0240920D01*
X0450917Y0240769D01*
X0450962Y0240617D01*
X0451003Y0240464D01*
X0451041Y0240311D01*
X0451074Y0240156D01*
X0451104Y0240000D01*
X0451130Y0239844D01*
X0451151Y0239687D01*
X0451169Y0239530D01*
X0451183Y0239372D01*
X0451193Y0239214D01*
X0451199Y0239056D01*
X0451201Y0238898D01*
X0451199Y0238740D01*
X0451193Y0238582D01*
X0451183Y0238424D01*
X0451169Y0238266D01*
X0451151Y0238109D01*
X0451130Y0237952D01*
X0451104Y0237796D01*
X0451074Y0237640D01*
X0451041Y0237485D01*
X0451003Y0237332D01*
X0450962Y0237179D01*
X0450917Y0237027D01*
X0450868Y0236876D01*
X0450815Y0236727D01*
X0450759Y0236579D01*
X0450699Y0236433D01*
X0450635Y0236288D01*
X0450567Y0236145D01*
X0450496Y0236003D01*
X0450422Y0235863D01*
X0450344Y0235726D01*
X0450262Y0235590D01*
X0450178Y0235456D01*
X0450089Y0235325D01*
X0449998Y0235196D01*
X0449903Y0235069D01*
X0449806Y0234944D01*
X0449705Y0234822D01*
X0449601Y0234703D01*
X0449494Y0234586D01*
X0449384Y0234472D01*
X0449271Y0234361D01*
X0449156Y0234252D01*
X0449038Y0234147D01*
X0448917Y0234045D01*
X0448794Y0233945D01*
X0448668Y0233849D01*
X0448540Y0233756D01*
X0448410Y0233666D01*
X0448277Y0233580D01*
X0448142Y0233496D01*
X0448006Y0233417D01*
X0447867Y0233340D01*
X0447726Y0233268D01*
X0447584Y0233198D01*
X0447440Y0233133D01*
X0447294Y0233071D01*
X0447147Y0233013D01*
X0446998Y0232958D01*
X0446848Y0232907D01*
X0446697Y0232860D01*
X0446545Y0232817D01*
X0446392Y0232778D01*
X0446237Y0232742D01*
X0446082Y0232711D01*
X0445926Y0232683D01*
X0445770Y0232659D01*
X0445613Y0232639D01*
X0445455Y0232623D01*
X0445298Y0232611D01*
X0445139Y0232603D01*
X0444981Y0232599D01*
X0444823Y0232599D01*
X0444665Y0232603D01*
X0444506Y0232611D01*
X0444349Y0232623D01*
X0444191Y0232639D01*
X0444034Y0232659D01*
X0443878Y0232683D01*
X0443722Y0232711D01*
X0443567Y0232742D01*
X0443412Y0232778D01*
X0443259Y0232817D01*
X0443107Y0232860D01*
X0442956Y0232907D01*
X0442806Y0232958D01*
X0442657Y0233013D01*
X0442510Y0233071D01*
X0442364Y0233133D01*
X0442220Y0233198D01*
X0442078Y0233268D01*
X0441937Y0233340D01*
X0441798Y0233417D01*
X0441662Y0233496D01*
X0441527Y0233580D01*
X0441394Y0233666D01*
X0441264Y0233756D01*
X0441136Y0233849D01*
X0441010Y0233945D01*
X0440887Y0234045D01*
X0440766Y0234147D01*
X0440648Y0234252D01*
X0440533Y0234361D01*
X0440420Y0234472D01*
X0440310Y0234586D01*
X0440203Y0234703D01*
X0440099Y0234822D01*
X0439998Y0234944D01*
X0439901Y0235069D01*
X0439806Y0235196D01*
X0439715Y0235325D01*
X0439626Y0235456D01*
X0439542Y0235590D01*
X0439460Y0235726D01*
X0439382Y0235863D01*
X0439308Y0236003D01*
X0439237Y0236145D01*
X0439169Y0236288D01*
X0439105Y0236433D01*
X0439045Y0236579D01*
X0438989Y0236727D01*
X0438936Y0236876D01*
X0438887Y0237027D01*
X0438842Y0237179D01*
X0438801Y0237332D01*
X0438763Y0237485D01*
X0438730Y0237640D01*
X0438700Y0237796D01*
X0438674Y0237952D01*
X0438653Y0238109D01*
X0438635Y0238266D01*
X0438621Y0238424D01*
X0438611Y0238582D01*
X0438605Y0238740D01*
X0438603Y0238898D01*
M02*
