G75*
%MOIN*%
%OFA0B0*%
%FSLAX25Y25*%
%IPPOS*%
%LPD*%
%AMOC8*
5,1,8,0,0,1.08239X$1,22.5*
%
%ADD10C,0.00000*%
%ADD11R,0.01370X0.05500*%
%ADD12R,0.04331X0.03937*%
D10*
X0086433Y0068933D02*
X0086433Y0363894D01*
X0086436Y0364136D01*
X0086445Y0364377D01*
X0086459Y0364618D01*
X0086480Y0364859D01*
X0086506Y0365099D01*
X0086538Y0365339D01*
X0086576Y0365578D01*
X0086619Y0365815D01*
X0086669Y0366052D01*
X0086724Y0366287D01*
X0086784Y0366521D01*
X0086851Y0366753D01*
X0086922Y0366984D01*
X0087000Y0367213D01*
X0087083Y0367440D01*
X0087171Y0367665D01*
X0087265Y0367888D01*
X0087364Y0368108D01*
X0087469Y0368326D01*
X0087578Y0368541D01*
X0087693Y0368754D01*
X0087813Y0368964D01*
X0087938Y0369170D01*
X0088068Y0369374D01*
X0088203Y0369575D01*
X0088343Y0369772D01*
X0088487Y0369966D01*
X0088636Y0370156D01*
X0088790Y0370342D01*
X0088948Y0370525D01*
X0089110Y0370704D01*
X0089277Y0370879D01*
X0089448Y0371050D01*
X0089623Y0371217D01*
X0089802Y0371379D01*
X0089985Y0371537D01*
X0090171Y0371691D01*
X0090361Y0371840D01*
X0090555Y0371984D01*
X0090752Y0372124D01*
X0090953Y0372259D01*
X0091157Y0372389D01*
X0091363Y0372514D01*
X0091573Y0372634D01*
X0091786Y0372749D01*
X0092001Y0372858D01*
X0092219Y0372963D01*
X0092439Y0373062D01*
X0092662Y0373156D01*
X0092887Y0373244D01*
X0093114Y0373327D01*
X0093343Y0373405D01*
X0093574Y0373476D01*
X0093806Y0373543D01*
X0094040Y0373603D01*
X0094275Y0373658D01*
X0094512Y0373708D01*
X0094749Y0373751D01*
X0094988Y0373789D01*
X0095228Y0373821D01*
X0095468Y0373847D01*
X0095709Y0373868D01*
X0095950Y0373882D01*
X0096191Y0373891D01*
X0096433Y0373894D01*
X0437634Y0373894D01*
X0437876Y0373891D01*
X0438117Y0373882D01*
X0438358Y0373868D01*
X0438599Y0373847D01*
X0438839Y0373821D01*
X0439079Y0373789D01*
X0439318Y0373751D01*
X0439555Y0373708D01*
X0439792Y0373658D01*
X0440027Y0373603D01*
X0440261Y0373543D01*
X0440493Y0373476D01*
X0440724Y0373405D01*
X0440953Y0373327D01*
X0441180Y0373244D01*
X0441405Y0373156D01*
X0441628Y0373062D01*
X0441848Y0372963D01*
X0442066Y0372858D01*
X0442281Y0372749D01*
X0442494Y0372634D01*
X0442704Y0372514D01*
X0442910Y0372389D01*
X0443114Y0372259D01*
X0443315Y0372124D01*
X0443512Y0371984D01*
X0443706Y0371840D01*
X0443896Y0371691D01*
X0444082Y0371537D01*
X0444265Y0371379D01*
X0444444Y0371217D01*
X0444619Y0371050D01*
X0444790Y0370879D01*
X0444957Y0370704D01*
X0445119Y0370525D01*
X0445277Y0370342D01*
X0445431Y0370156D01*
X0445580Y0369966D01*
X0445724Y0369772D01*
X0445864Y0369575D01*
X0445999Y0369374D01*
X0446129Y0369170D01*
X0446254Y0368964D01*
X0446374Y0368754D01*
X0446489Y0368541D01*
X0446598Y0368326D01*
X0446703Y0368108D01*
X0446802Y0367888D01*
X0446896Y0367665D01*
X0446984Y0367440D01*
X0447067Y0367213D01*
X0447145Y0366984D01*
X0447216Y0366753D01*
X0447283Y0366521D01*
X0447343Y0366287D01*
X0447398Y0366052D01*
X0447448Y0365815D01*
X0447491Y0365578D01*
X0447529Y0365339D01*
X0447561Y0365099D01*
X0447587Y0364859D01*
X0447608Y0364618D01*
X0447622Y0364377D01*
X0447631Y0364136D01*
X0447634Y0363894D01*
X0447634Y0068933D01*
X0447631Y0068691D01*
X0447622Y0068450D01*
X0447608Y0068209D01*
X0447587Y0067968D01*
X0447561Y0067728D01*
X0447529Y0067488D01*
X0447491Y0067249D01*
X0447448Y0067012D01*
X0447398Y0066775D01*
X0447343Y0066540D01*
X0447283Y0066306D01*
X0447216Y0066074D01*
X0447145Y0065843D01*
X0447067Y0065614D01*
X0446984Y0065387D01*
X0446896Y0065162D01*
X0446802Y0064939D01*
X0446703Y0064719D01*
X0446598Y0064501D01*
X0446489Y0064286D01*
X0446374Y0064073D01*
X0446254Y0063863D01*
X0446129Y0063657D01*
X0445999Y0063453D01*
X0445864Y0063252D01*
X0445724Y0063055D01*
X0445580Y0062861D01*
X0445431Y0062671D01*
X0445277Y0062485D01*
X0445119Y0062302D01*
X0444957Y0062123D01*
X0444790Y0061948D01*
X0444619Y0061777D01*
X0444444Y0061610D01*
X0444265Y0061448D01*
X0444082Y0061290D01*
X0443896Y0061136D01*
X0443706Y0060987D01*
X0443512Y0060843D01*
X0443315Y0060703D01*
X0443114Y0060568D01*
X0442910Y0060438D01*
X0442704Y0060313D01*
X0442494Y0060193D01*
X0442281Y0060078D01*
X0442066Y0059969D01*
X0441848Y0059864D01*
X0441628Y0059765D01*
X0441405Y0059671D01*
X0441180Y0059583D01*
X0440953Y0059500D01*
X0440724Y0059422D01*
X0440493Y0059351D01*
X0440261Y0059284D01*
X0440027Y0059224D01*
X0439792Y0059169D01*
X0439555Y0059119D01*
X0439318Y0059076D01*
X0439079Y0059038D01*
X0438839Y0059006D01*
X0438599Y0058980D01*
X0438358Y0058959D01*
X0438117Y0058945D01*
X0437876Y0058936D01*
X0437634Y0058933D01*
X0096433Y0058933D01*
X0096191Y0058936D01*
X0095950Y0058945D01*
X0095709Y0058959D01*
X0095468Y0058980D01*
X0095228Y0059006D01*
X0094988Y0059038D01*
X0094749Y0059076D01*
X0094512Y0059119D01*
X0094275Y0059169D01*
X0094040Y0059224D01*
X0093806Y0059284D01*
X0093574Y0059351D01*
X0093343Y0059422D01*
X0093114Y0059500D01*
X0092887Y0059583D01*
X0092662Y0059671D01*
X0092439Y0059765D01*
X0092219Y0059864D01*
X0092001Y0059969D01*
X0091786Y0060078D01*
X0091573Y0060193D01*
X0091363Y0060313D01*
X0091157Y0060438D01*
X0090953Y0060568D01*
X0090752Y0060703D01*
X0090555Y0060843D01*
X0090361Y0060987D01*
X0090171Y0061136D01*
X0089985Y0061290D01*
X0089802Y0061448D01*
X0089623Y0061610D01*
X0089448Y0061777D01*
X0089277Y0061948D01*
X0089110Y0062123D01*
X0088948Y0062302D01*
X0088790Y0062485D01*
X0088636Y0062671D01*
X0088487Y0062861D01*
X0088343Y0063055D01*
X0088203Y0063252D01*
X0088068Y0063453D01*
X0087938Y0063657D01*
X0087813Y0063863D01*
X0087693Y0064073D01*
X0087578Y0064286D01*
X0087469Y0064501D01*
X0087364Y0064719D01*
X0087265Y0064939D01*
X0087171Y0065162D01*
X0087083Y0065387D01*
X0087000Y0065614D01*
X0086922Y0065843D01*
X0086851Y0066074D01*
X0086784Y0066306D01*
X0086724Y0066540D01*
X0086669Y0066775D01*
X0086619Y0067012D01*
X0086576Y0067249D01*
X0086538Y0067488D01*
X0086506Y0067728D01*
X0086480Y0067968D01*
X0086459Y0068209D01*
X0086445Y0068450D01*
X0086436Y0068691D01*
X0086433Y0068933D01*
X0095134Y0073933D02*
X0095136Y0074091D01*
X0095142Y0074249D01*
X0095152Y0074407D01*
X0095166Y0074565D01*
X0095184Y0074722D01*
X0095205Y0074879D01*
X0095231Y0075035D01*
X0095261Y0075191D01*
X0095294Y0075346D01*
X0095332Y0075499D01*
X0095373Y0075652D01*
X0095418Y0075804D01*
X0095467Y0075955D01*
X0095520Y0076104D01*
X0095576Y0076252D01*
X0095636Y0076398D01*
X0095700Y0076543D01*
X0095768Y0076686D01*
X0095839Y0076828D01*
X0095913Y0076968D01*
X0095991Y0077105D01*
X0096073Y0077241D01*
X0096157Y0077375D01*
X0096246Y0077506D01*
X0096337Y0077635D01*
X0096432Y0077762D01*
X0096529Y0077887D01*
X0096630Y0078009D01*
X0096734Y0078128D01*
X0096841Y0078245D01*
X0096951Y0078359D01*
X0097064Y0078470D01*
X0097179Y0078579D01*
X0097297Y0078684D01*
X0097418Y0078786D01*
X0097541Y0078886D01*
X0097667Y0078982D01*
X0097795Y0079075D01*
X0097925Y0079165D01*
X0098058Y0079251D01*
X0098193Y0079335D01*
X0098329Y0079414D01*
X0098468Y0079491D01*
X0098609Y0079563D01*
X0098751Y0079633D01*
X0098895Y0079698D01*
X0099041Y0079760D01*
X0099188Y0079818D01*
X0099337Y0079873D01*
X0099487Y0079924D01*
X0099638Y0079971D01*
X0099790Y0080014D01*
X0099943Y0080053D01*
X0100098Y0080089D01*
X0100253Y0080120D01*
X0100409Y0080148D01*
X0100565Y0080172D01*
X0100722Y0080192D01*
X0100880Y0080208D01*
X0101037Y0080220D01*
X0101196Y0080228D01*
X0101354Y0080232D01*
X0101512Y0080232D01*
X0101670Y0080228D01*
X0101829Y0080220D01*
X0101986Y0080208D01*
X0102144Y0080192D01*
X0102301Y0080172D01*
X0102457Y0080148D01*
X0102613Y0080120D01*
X0102768Y0080089D01*
X0102923Y0080053D01*
X0103076Y0080014D01*
X0103228Y0079971D01*
X0103379Y0079924D01*
X0103529Y0079873D01*
X0103678Y0079818D01*
X0103825Y0079760D01*
X0103971Y0079698D01*
X0104115Y0079633D01*
X0104257Y0079563D01*
X0104398Y0079491D01*
X0104537Y0079414D01*
X0104673Y0079335D01*
X0104808Y0079251D01*
X0104941Y0079165D01*
X0105071Y0079075D01*
X0105199Y0078982D01*
X0105325Y0078886D01*
X0105448Y0078786D01*
X0105569Y0078684D01*
X0105687Y0078579D01*
X0105802Y0078470D01*
X0105915Y0078359D01*
X0106025Y0078245D01*
X0106132Y0078128D01*
X0106236Y0078009D01*
X0106337Y0077887D01*
X0106434Y0077762D01*
X0106529Y0077635D01*
X0106620Y0077506D01*
X0106709Y0077375D01*
X0106793Y0077241D01*
X0106875Y0077105D01*
X0106953Y0076968D01*
X0107027Y0076828D01*
X0107098Y0076686D01*
X0107166Y0076543D01*
X0107230Y0076398D01*
X0107290Y0076252D01*
X0107346Y0076104D01*
X0107399Y0075955D01*
X0107448Y0075804D01*
X0107493Y0075652D01*
X0107534Y0075499D01*
X0107572Y0075346D01*
X0107605Y0075191D01*
X0107635Y0075035D01*
X0107661Y0074879D01*
X0107682Y0074722D01*
X0107700Y0074565D01*
X0107714Y0074407D01*
X0107724Y0074249D01*
X0107730Y0074091D01*
X0107732Y0073933D01*
X0107730Y0073775D01*
X0107724Y0073617D01*
X0107714Y0073459D01*
X0107700Y0073301D01*
X0107682Y0073144D01*
X0107661Y0072987D01*
X0107635Y0072831D01*
X0107605Y0072675D01*
X0107572Y0072520D01*
X0107534Y0072367D01*
X0107493Y0072214D01*
X0107448Y0072062D01*
X0107399Y0071911D01*
X0107346Y0071762D01*
X0107290Y0071614D01*
X0107230Y0071468D01*
X0107166Y0071323D01*
X0107098Y0071180D01*
X0107027Y0071038D01*
X0106953Y0070898D01*
X0106875Y0070761D01*
X0106793Y0070625D01*
X0106709Y0070491D01*
X0106620Y0070360D01*
X0106529Y0070231D01*
X0106434Y0070104D01*
X0106337Y0069979D01*
X0106236Y0069857D01*
X0106132Y0069738D01*
X0106025Y0069621D01*
X0105915Y0069507D01*
X0105802Y0069396D01*
X0105687Y0069287D01*
X0105569Y0069182D01*
X0105448Y0069080D01*
X0105325Y0068980D01*
X0105199Y0068884D01*
X0105071Y0068791D01*
X0104941Y0068701D01*
X0104808Y0068615D01*
X0104673Y0068531D01*
X0104537Y0068452D01*
X0104398Y0068375D01*
X0104257Y0068303D01*
X0104115Y0068233D01*
X0103971Y0068168D01*
X0103825Y0068106D01*
X0103678Y0068048D01*
X0103529Y0067993D01*
X0103379Y0067942D01*
X0103228Y0067895D01*
X0103076Y0067852D01*
X0102923Y0067813D01*
X0102768Y0067777D01*
X0102613Y0067746D01*
X0102457Y0067718D01*
X0102301Y0067694D01*
X0102144Y0067674D01*
X0101986Y0067658D01*
X0101829Y0067646D01*
X0101670Y0067638D01*
X0101512Y0067634D01*
X0101354Y0067634D01*
X0101196Y0067638D01*
X0101037Y0067646D01*
X0100880Y0067658D01*
X0100722Y0067674D01*
X0100565Y0067694D01*
X0100409Y0067718D01*
X0100253Y0067746D01*
X0100098Y0067777D01*
X0099943Y0067813D01*
X0099790Y0067852D01*
X0099638Y0067895D01*
X0099487Y0067942D01*
X0099337Y0067993D01*
X0099188Y0068048D01*
X0099041Y0068106D01*
X0098895Y0068168D01*
X0098751Y0068233D01*
X0098609Y0068303D01*
X0098468Y0068375D01*
X0098329Y0068452D01*
X0098193Y0068531D01*
X0098058Y0068615D01*
X0097925Y0068701D01*
X0097795Y0068791D01*
X0097667Y0068884D01*
X0097541Y0068980D01*
X0097418Y0069080D01*
X0097297Y0069182D01*
X0097179Y0069287D01*
X0097064Y0069396D01*
X0096951Y0069507D01*
X0096841Y0069621D01*
X0096734Y0069738D01*
X0096630Y0069857D01*
X0096529Y0069979D01*
X0096432Y0070104D01*
X0096337Y0070231D01*
X0096246Y0070360D01*
X0096157Y0070491D01*
X0096073Y0070625D01*
X0095991Y0070761D01*
X0095913Y0070898D01*
X0095839Y0071038D01*
X0095768Y0071180D01*
X0095700Y0071323D01*
X0095636Y0071468D01*
X0095576Y0071614D01*
X0095520Y0071762D01*
X0095467Y0071911D01*
X0095418Y0072062D01*
X0095373Y0072214D01*
X0095332Y0072367D01*
X0095294Y0072520D01*
X0095261Y0072675D01*
X0095231Y0072831D01*
X0095205Y0072987D01*
X0095184Y0073144D01*
X0095166Y0073301D01*
X0095152Y0073459D01*
X0095142Y0073617D01*
X0095136Y0073775D01*
X0095134Y0073933D01*
X0427634Y0073933D02*
X0427636Y0074091D01*
X0427642Y0074249D01*
X0427652Y0074407D01*
X0427666Y0074565D01*
X0427684Y0074722D01*
X0427705Y0074879D01*
X0427731Y0075035D01*
X0427761Y0075191D01*
X0427794Y0075346D01*
X0427832Y0075499D01*
X0427873Y0075652D01*
X0427918Y0075804D01*
X0427967Y0075955D01*
X0428020Y0076104D01*
X0428076Y0076252D01*
X0428136Y0076398D01*
X0428200Y0076543D01*
X0428268Y0076686D01*
X0428339Y0076828D01*
X0428413Y0076968D01*
X0428491Y0077105D01*
X0428573Y0077241D01*
X0428657Y0077375D01*
X0428746Y0077506D01*
X0428837Y0077635D01*
X0428932Y0077762D01*
X0429029Y0077887D01*
X0429130Y0078009D01*
X0429234Y0078128D01*
X0429341Y0078245D01*
X0429451Y0078359D01*
X0429564Y0078470D01*
X0429679Y0078579D01*
X0429797Y0078684D01*
X0429918Y0078786D01*
X0430041Y0078886D01*
X0430167Y0078982D01*
X0430295Y0079075D01*
X0430425Y0079165D01*
X0430558Y0079251D01*
X0430693Y0079335D01*
X0430829Y0079414D01*
X0430968Y0079491D01*
X0431109Y0079563D01*
X0431251Y0079633D01*
X0431395Y0079698D01*
X0431541Y0079760D01*
X0431688Y0079818D01*
X0431837Y0079873D01*
X0431987Y0079924D01*
X0432138Y0079971D01*
X0432290Y0080014D01*
X0432443Y0080053D01*
X0432598Y0080089D01*
X0432753Y0080120D01*
X0432909Y0080148D01*
X0433065Y0080172D01*
X0433222Y0080192D01*
X0433380Y0080208D01*
X0433537Y0080220D01*
X0433696Y0080228D01*
X0433854Y0080232D01*
X0434012Y0080232D01*
X0434170Y0080228D01*
X0434329Y0080220D01*
X0434486Y0080208D01*
X0434644Y0080192D01*
X0434801Y0080172D01*
X0434957Y0080148D01*
X0435113Y0080120D01*
X0435268Y0080089D01*
X0435423Y0080053D01*
X0435576Y0080014D01*
X0435728Y0079971D01*
X0435879Y0079924D01*
X0436029Y0079873D01*
X0436178Y0079818D01*
X0436325Y0079760D01*
X0436471Y0079698D01*
X0436615Y0079633D01*
X0436757Y0079563D01*
X0436898Y0079491D01*
X0437037Y0079414D01*
X0437173Y0079335D01*
X0437308Y0079251D01*
X0437441Y0079165D01*
X0437571Y0079075D01*
X0437699Y0078982D01*
X0437825Y0078886D01*
X0437948Y0078786D01*
X0438069Y0078684D01*
X0438187Y0078579D01*
X0438302Y0078470D01*
X0438415Y0078359D01*
X0438525Y0078245D01*
X0438632Y0078128D01*
X0438736Y0078009D01*
X0438837Y0077887D01*
X0438934Y0077762D01*
X0439029Y0077635D01*
X0439120Y0077506D01*
X0439209Y0077375D01*
X0439293Y0077241D01*
X0439375Y0077105D01*
X0439453Y0076968D01*
X0439527Y0076828D01*
X0439598Y0076686D01*
X0439666Y0076543D01*
X0439730Y0076398D01*
X0439790Y0076252D01*
X0439846Y0076104D01*
X0439899Y0075955D01*
X0439948Y0075804D01*
X0439993Y0075652D01*
X0440034Y0075499D01*
X0440072Y0075346D01*
X0440105Y0075191D01*
X0440135Y0075035D01*
X0440161Y0074879D01*
X0440182Y0074722D01*
X0440200Y0074565D01*
X0440214Y0074407D01*
X0440224Y0074249D01*
X0440230Y0074091D01*
X0440232Y0073933D01*
X0440230Y0073775D01*
X0440224Y0073617D01*
X0440214Y0073459D01*
X0440200Y0073301D01*
X0440182Y0073144D01*
X0440161Y0072987D01*
X0440135Y0072831D01*
X0440105Y0072675D01*
X0440072Y0072520D01*
X0440034Y0072367D01*
X0439993Y0072214D01*
X0439948Y0072062D01*
X0439899Y0071911D01*
X0439846Y0071762D01*
X0439790Y0071614D01*
X0439730Y0071468D01*
X0439666Y0071323D01*
X0439598Y0071180D01*
X0439527Y0071038D01*
X0439453Y0070898D01*
X0439375Y0070761D01*
X0439293Y0070625D01*
X0439209Y0070491D01*
X0439120Y0070360D01*
X0439029Y0070231D01*
X0438934Y0070104D01*
X0438837Y0069979D01*
X0438736Y0069857D01*
X0438632Y0069738D01*
X0438525Y0069621D01*
X0438415Y0069507D01*
X0438302Y0069396D01*
X0438187Y0069287D01*
X0438069Y0069182D01*
X0437948Y0069080D01*
X0437825Y0068980D01*
X0437699Y0068884D01*
X0437571Y0068791D01*
X0437441Y0068701D01*
X0437308Y0068615D01*
X0437173Y0068531D01*
X0437037Y0068452D01*
X0436898Y0068375D01*
X0436757Y0068303D01*
X0436615Y0068233D01*
X0436471Y0068168D01*
X0436325Y0068106D01*
X0436178Y0068048D01*
X0436029Y0067993D01*
X0435879Y0067942D01*
X0435728Y0067895D01*
X0435576Y0067852D01*
X0435423Y0067813D01*
X0435268Y0067777D01*
X0435113Y0067746D01*
X0434957Y0067718D01*
X0434801Y0067694D01*
X0434644Y0067674D01*
X0434486Y0067658D01*
X0434329Y0067646D01*
X0434170Y0067638D01*
X0434012Y0067634D01*
X0433854Y0067634D01*
X0433696Y0067638D01*
X0433537Y0067646D01*
X0433380Y0067658D01*
X0433222Y0067674D01*
X0433065Y0067694D01*
X0432909Y0067718D01*
X0432753Y0067746D01*
X0432598Y0067777D01*
X0432443Y0067813D01*
X0432290Y0067852D01*
X0432138Y0067895D01*
X0431987Y0067942D01*
X0431837Y0067993D01*
X0431688Y0068048D01*
X0431541Y0068106D01*
X0431395Y0068168D01*
X0431251Y0068233D01*
X0431109Y0068303D01*
X0430968Y0068375D01*
X0430829Y0068452D01*
X0430693Y0068531D01*
X0430558Y0068615D01*
X0430425Y0068701D01*
X0430295Y0068791D01*
X0430167Y0068884D01*
X0430041Y0068980D01*
X0429918Y0069080D01*
X0429797Y0069182D01*
X0429679Y0069287D01*
X0429564Y0069396D01*
X0429451Y0069507D01*
X0429341Y0069621D01*
X0429234Y0069738D01*
X0429130Y0069857D01*
X0429029Y0069979D01*
X0428932Y0070104D01*
X0428837Y0070231D01*
X0428746Y0070360D01*
X0428657Y0070491D01*
X0428573Y0070625D01*
X0428491Y0070761D01*
X0428413Y0070898D01*
X0428339Y0071038D01*
X0428268Y0071180D01*
X0428200Y0071323D01*
X0428136Y0071468D01*
X0428076Y0071614D01*
X0428020Y0071762D01*
X0427967Y0071911D01*
X0427918Y0072062D01*
X0427873Y0072214D01*
X0427832Y0072367D01*
X0427794Y0072520D01*
X0427761Y0072675D01*
X0427731Y0072831D01*
X0427705Y0072987D01*
X0427684Y0073144D01*
X0427666Y0073301D01*
X0427652Y0073459D01*
X0427642Y0073617D01*
X0427636Y0073775D01*
X0427634Y0073933D01*
X0427634Y0358933D02*
X0427636Y0359091D01*
X0427642Y0359249D01*
X0427652Y0359407D01*
X0427666Y0359565D01*
X0427684Y0359722D01*
X0427705Y0359879D01*
X0427731Y0360035D01*
X0427761Y0360191D01*
X0427794Y0360346D01*
X0427832Y0360499D01*
X0427873Y0360652D01*
X0427918Y0360804D01*
X0427967Y0360955D01*
X0428020Y0361104D01*
X0428076Y0361252D01*
X0428136Y0361398D01*
X0428200Y0361543D01*
X0428268Y0361686D01*
X0428339Y0361828D01*
X0428413Y0361968D01*
X0428491Y0362105D01*
X0428573Y0362241D01*
X0428657Y0362375D01*
X0428746Y0362506D01*
X0428837Y0362635D01*
X0428932Y0362762D01*
X0429029Y0362887D01*
X0429130Y0363009D01*
X0429234Y0363128D01*
X0429341Y0363245D01*
X0429451Y0363359D01*
X0429564Y0363470D01*
X0429679Y0363579D01*
X0429797Y0363684D01*
X0429918Y0363786D01*
X0430041Y0363886D01*
X0430167Y0363982D01*
X0430295Y0364075D01*
X0430425Y0364165D01*
X0430558Y0364251D01*
X0430693Y0364335D01*
X0430829Y0364414D01*
X0430968Y0364491D01*
X0431109Y0364563D01*
X0431251Y0364633D01*
X0431395Y0364698D01*
X0431541Y0364760D01*
X0431688Y0364818D01*
X0431837Y0364873D01*
X0431987Y0364924D01*
X0432138Y0364971D01*
X0432290Y0365014D01*
X0432443Y0365053D01*
X0432598Y0365089D01*
X0432753Y0365120D01*
X0432909Y0365148D01*
X0433065Y0365172D01*
X0433222Y0365192D01*
X0433380Y0365208D01*
X0433537Y0365220D01*
X0433696Y0365228D01*
X0433854Y0365232D01*
X0434012Y0365232D01*
X0434170Y0365228D01*
X0434329Y0365220D01*
X0434486Y0365208D01*
X0434644Y0365192D01*
X0434801Y0365172D01*
X0434957Y0365148D01*
X0435113Y0365120D01*
X0435268Y0365089D01*
X0435423Y0365053D01*
X0435576Y0365014D01*
X0435728Y0364971D01*
X0435879Y0364924D01*
X0436029Y0364873D01*
X0436178Y0364818D01*
X0436325Y0364760D01*
X0436471Y0364698D01*
X0436615Y0364633D01*
X0436757Y0364563D01*
X0436898Y0364491D01*
X0437037Y0364414D01*
X0437173Y0364335D01*
X0437308Y0364251D01*
X0437441Y0364165D01*
X0437571Y0364075D01*
X0437699Y0363982D01*
X0437825Y0363886D01*
X0437948Y0363786D01*
X0438069Y0363684D01*
X0438187Y0363579D01*
X0438302Y0363470D01*
X0438415Y0363359D01*
X0438525Y0363245D01*
X0438632Y0363128D01*
X0438736Y0363009D01*
X0438837Y0362887D01*
X0438934Y0362762D01*
X0439029Y0362635D01*
X0439120Y0362506D01*
X0439209Y0362375D01*
X0439293Y0362241D01*
X0439375Y0362105D01*
X0439453Y0361968D01*
X0439527Y0361828D01*
X0439598Y0361686D01*
X0439666Y0361543D01*
X0439730Y0361398D01*
X0439790Y0361252D01*
X0439846Y0361104D01*
X0439899Y0360955D01*
X0439948Y0360804D01*
X0439993Y0360652D01*
X0440034Y0360499D01*
X0440072Y0360346D01*
X0440105Y0360191D01*
X0440135Y0360035D01*
X0440161Y0359879D01*
X0440182Y0359722D01*
X0440200Y0359565D01*
X0440214Y0359407D01*
X0440224Y0359249D01*
X0440230Y0359091D01*
X0440232Y0358933D01*
X0440230Y0358775D01*
X0440224Y0358617D01*
X0440214Y0358459D01*
X0440200Y0358301D01*
X0440182Y0358144D01*
X0440161Y0357987D01*
X0440135Y0357831D01*
X0440105Y0357675D01*
X0440072Y0357520D01*
X0440034Y0357367D01*
X0439993Y0357214D01*
X0439948Y0357062D01*
X0439899Y0356911D01*
X0439846Y0356762D01*
X0439790Y0356614D01*
X0439730Y0356468D01*
X0439666Y0356323D01*
X0439598Y0356180D01*
X0439527Y0356038D01*
X0439453Y0355898D01*
X0439375Y0355761D01*
X0439293Y0355625D01*
X0439209Y0355491D01*
X0439120Y0355360D01*
X0439029Y0355231D01*
X0438934Y0355104D01*
X0438837Y0354979D01*
X0438736Y0354857D01*
X0438632Y0354738D01*
X0438525Y0354621D01*
X0438415Y0354507D01*
X0438302Y0354396D01*
X0438187Y0354287D01*
X0438069Y0354182D01*
X0437948Y0354080D01*
X0437825Y0353980D01*
X0437699Y0353884D01*
X0437571Y0353791D01*
X0437441Y0353701D01*
X0437308Y0353615D01*
X0437173Y0353531D01*
X0437037Y0353452D01*
X0436898Y0353375D01*
X0436757Y0353303D01*
X0436615Y0353233D01*
X0436471Y0353168D01*
X0436325Y0353106D01*
X0436178Y0353048D01*
X0436029Y0352993D01*
X0435879Y0352942D01*
X0435728Y0352895D01*
X0435576Y0352852D01*
X0435423Y0352813D01*
X0435268Y0352777D01*
X0435113Y0352746D01*
X0434957Y0352718D01*
X0434801Y0352694D01*
X0434644Y0352674D01*
X0434486Y0352658D01*
X0434329Y0352646D01*
X0434170Y0352638D01*
X0434012Y0352634D01*
X0433854Y0352634D01*
X0433696Y0352638D01*
X0433537Y0352646D01*
X0433380Y0352658D01*
X0433222Y0352674D01*
X0433065Y0352694D01*
X0432909Y0352718D01*
X0432753Y0352746D01*
X0432598Y0352777D01*
X0432443Y0352813D01*
X0432290Y0352852D01*
X0432138Y0352895D01*
X0431987Y0352942D01*
X0431837Y0352993D01*
X0431688Y0353048D01*
X0431541Y0353106D01*
X0431395Y0353168D01*
X0431251Y0353233D01*
X0431109Y0353303D01*
X0430968Y0353375D01*
X0430829Y0353452D01*
X0430693Y0353531D01*
X0430558Y0353615D01*
X0430425Y0353701D01*
X0430295Y0353791D01*
X0430167Y0353884D01*
X0430041Y0353980D01*
X0429918Y0354080D01*
X0429797Y0354182D01*
X0429679Y0354287D01*
X0429564Y0354396D01*
X0429451Y0354507D01*
X0429341Y0354621D01*
X0429234Y0354738D01*
X0429130Y0354857D01*
X0429029Y0354979D01*
X0428932Y0355104D01*
X0428837Y0355231D01*
X0428746Y0355360D01*
X0428657Y0355491D01*
X0428573Y0355625D01*
X0428491Y0355761D01*
X0428413Y0355898D01*
X0428339Y0356038D01*
X0428268Y0356180D01*
X0428200Y0356323D01*
X0428136Y0356468D01*
X0428076Y0356614D01*
X0428020Y0356762D01*
X0427967Y0356911D01*
X0427918Y0357062D01*
X0427873Y0357214D01*
X0427832Y0357367D01*
X0427794Y0357520D01*
X0427761Y0357675D01*
X0427731Y0357831D01*
X0427705Y0357987D01*
X0427684Y0358144D01*
X0427666Y0358301D01*
X0427652Y0358459D01*
X0427642Y0358617D01*
X0427636Y0358775D01*
X0427634Y0358933D01*
X0095134Y0358933D02*
X0095136Y0359091D01*
X0095142Y0359249D01*
X0095152Y0359407D01*
X0095166Y0359565D01*
X0095184Y0359722D01*
X0095205Y0359879D01*
X0095231Y0360035D01*
X0095261Y0360191D01*
X0095294Y0360346D01*
X0095332Y0360499D01*
X0095373Y0360652D01*
X0095418Y0360804D01*
X0095467Y0360955D01*
X0095520Y0361104D01*
X0095576Y0361252D01*
X0095636Y0361398D01*
X0095700Y0361543D01*
X0095768Y0361686D01*
X0095839Y0361828D01*
X0095913Y0361968D01*
X0095991Y0362105D01*
X0096073Y0362241D01*
X0096157Y0362375D01*
X0096246Y0362506D01*
X0096337Y0362635D01*
X0096432Y0362762D01*
X0096529Y0362887D01*
X0096630Y0363009D01*
X0096734Y0363128D01*
X0096841Y0363245D01*
X0096951Y0363359D01*
X0097064Y0363470D01*
X0097179Y0363579D01*
X0097297Y0363684D01*
X0097418Y0363786D01*
X0097541Y0363886D01*
X0097667Y0363982D01*
X0097795Y0364075D01*
X0097925Y0364165D01*
X0098058Y0364251D01*
X0098193Y0364335D01*
X0098329Y0364414D01*
X0098468Y0364491D01*
X0098609Y0364563D01*
X0098751Y0364633D01*
X0098895Y0364698D01*
X0099041Y0364760D01*
X0099188Y0364818D01*
X0099337Y0364873D01*
X0099487Y0364924D01*
X0099638Y0364971D01*
X0099790Y0365014D01*
X0099943Y0365053D01*
X0100098Y0365089D01*
X0100253Y0365120D01*
X0100409Y0365148D01*
X0100565Y0365172D01*
X0100722Y0365192D01*
X0100880Y0365208D01*
X0101037Y0365220D01*
X0101196Y0365228D01*
X0101354Y0365232D01*
X0101512Y0365232D01*
X0101670Y0365228D01*
X0101829Y0365220D01*
X0101986Y0365208D01*
X0102144Y0365192D01*
X0102301Y0365172D01*
X0102457Y0365148D01*
X0102613Y0365120D01*
X0102768Y0365089D01*
X0102923Y0365053D01*
X0103076Y0365014D01*
X0103228Y0364971D01*
X0103379Y0364924D01*
X0103529Y0364873D01*
X0103678Y0364818D01*
X0103825Y0364760D01*
X0103971Y0364698D01*
X0104115Y0364633D01*
X0104257Y0364563D01*
X0104398Y0364491D01*
X0104537Y0364414D01*
X0104673Y0364335D01*
X0104808Y0364251D01*
X0104941Y0364165D01*
X0105071Y0364075D01*
X0105199Y0363982D01*
X0105325Y0363886D01*
X0105448Y0363786D01*
X0105569Y0363684D01*
X0105687Y0363579D01*
X0105802Y0363470D01*
X0105915Y0363359D01*
X0106025Y0363245D01*
X0106132Y0363128D01*
X0106236Y0363009D01*
X0106337Y0362887D01*
X0106434Y0362762D01*
X0106529Y0362635D01*
X0106620Y0362506D01*
X0106709Y0362375D01*
X0106793Y0362241D01*
X0106875Y0362105D01*
X0106953Y0361968D01*
X0107027Y0361828D01*
X0107098Y0361686D01*
X0107166Y0361543D01*
X0107230Y0361398D01*
X0107290Y0361252D01*
X0107346Y0361104D01*
X0107399Y0360955D01*
X0107448Y0360804D01*
X0107493Y0360652D01*
X0107534Y0360499D01*
X0107572Y0360346D01*
X0107605Y0360191D01*
X0107635Y0360035D01*
X0107661Y0359879D01*
X0107682Y0359722D01*
X0107700Y0359565D01*
X0107714Y0359407D01*
X0107724Y0359249D01*
X0107730Y0359091D01*
X0107732Y0358933D01*
X0107730Y0358775D01*
X0107724Y0358617D01*
X0107714Y0358459D01*
X0107700Y0358301D01*
X0107682Y0358144D01*
X0107661Y0357987D01*
X0107635Y0357831D01*
X0107605Y0357675D01*
X0107572Y0357520D01*
X0107534Y0357367D01*
X0107493Y0357214D01*
X0107448Y0357062D01*
X0107399Y0356911D01*
X0107346Y0356762D01*
X0107290Y0356614D01*
X0107230Y0356468D01*
X0107166Y0356323D01*
X0107098Y0356180D01*
X0107027Y0356038D01*
X0106953Y0355898D01*
X0106875Y0355761D01*
X0106793Y0355625D01*
X0106709Y0355491D01*
X0106620Y0355360D01*
X0106529Y0355231D01*
X0106434Y0355104D01*
X0106337Y0354979D01*
X0106236Y0354857D01*
X0106132Y0354738D01*
X0106025Y0354621D01*
X0105915Y0354507D01*
X0105802Y0354396D01*
X0105687Y0354287D01*
X0105569Y0354182D01*
X0105448Y0354080D01*
X0105325Y0353980D01*
X0105199Y0353884D01*
X0105071Y0353791D01*
X0104941Y0353701D01*
X0104808Y0353615D01*
X0104673Y0353531D01*
X0104537Y0353452D01*
X0104398Y0353375D01*
X0104257Y0353303D01*
X0104115Y0353233D01*
X0103971Y0353168D01*
X0103825Y0353106D01*
X0103678Y0353048D01*
X0103529Y0352993D01*
X0103379Y0352942D01*
X0103228Y0352895D01*
X0103076Y0352852D01*
X0102923Y0352813D01*
X0102768Y0352777D01*
X0102613Y0352746D01*
X0102457Y0352718D01*
X0102301Y0352694D01*
X0102144Y0352674D01*
X0101986Y0352658D01*
X0101829Y0352646D01*
X0101670Y0352638D01*
X0101512Y0352634D01*
X0101354Y0352634D01*
X0101196Y0352638D01*
X0101037Y0352646D01*
X0100880Y0352658D01*
X0100722Y0352674D01*
X0100565Y0352694D01*
X0100409Y0352718D01*
X0100253Y0352746D01*
X0100098Y0352777D01*
X0099943Y0352813D01*
X0099790Y0352852D01*
X0099638Y0352895D01*
X0099487Y0352942D01*
X0099337Y0352993D01*
X0099188Y0353048D01*
X0099041Y0353106D01*
X0098895Y0353168D01*
X0098751Y0353233D01*
X0098609Y0353303D01*
X0098468Y0353375D01*
X0098329Y0353452D01*
X0098193Y0353531D01*
X0098058Y0353615D01*
X0097925Y0353701D01*
X0097795Y0353791D01*
X0097667Y0353884D01*
X0097541Y0353980D01*
X0097418Y0354080D01*
X0097297Y0354182D01*
X0097179Y0354287D01*
X0097064Y0354396D01*
X0096951Y0354507D01*
X0096841Y0354621D01*
X0096734Y0354738D01*
X0096630Y0354857D01*
X0096529Y0354979D01*
X0096432Y0355104D01*
X0096337Y0355231D01*
X0096246Y0355360D01*
X0096157Y0355491D01*
X0096073Y0355625D01*
X0095991Y0355761D01*
X0095913Y0355898D01*
X0095839Y0356038D01*
X0095768Y0356180D01*
X0095700Y0356323D01*
X0095636Y0356468D01*
X0095576Y0356614D01*
X0095520Y0356762D01*
X0095467Y0356911D01*
X0095418Y0357062D01*
X0095373Y0357214D01*
X0095332Y0357367D01*
X0095294Y0357520D01*
X0095261Y0357675D01*
X0095231Y0357831D01*
X0095205Y0357987D01*
X0095184Y0358144D01*
X0095166Y0358301D01*
X0095152Y0358459D01*
X0095142Y0358617D01*
X0095136Y0358775D01*
X0095134Y0358933D01*
D11*
X0152358Y0323327D03*
X0154917Y0323327D03*
X0157476Y0323327D03*
X0160035Y0323327D03*
X0162594Y0323327D03*
X0165154Y0323327D03*
X0167713Y0323327D03*
X0170272Y0323327D03*
X0172831Y0323327D03*
X0175390Y0323327D03*
X0177949Y0323327D03*
X0180508Y0323327D03*
X0180508Y0294539D03*
X0177949Y0294539D03*
X0175390Y0294539D03*
X0172831Y0294539D03*
X0170272Y0294539D03*
X0167713Y0294539D03*
X0165154Y0294539D03*
X0162594Y0294539D03*
X0160035Y0294539D03*
X0157476Y0294539D03*
X0154917Y0294539D03*
X0152358Y0294539D03*
X0256238Y0301108D03*
X0258797Y0301108D03*
X0261356Y0301108D03*
X0263915Y0301108D03*
X0266474Y0301108D03*
X0269033Y0301108D03*
X0271592Y0301108D03*
X0274151Y0301108D03*
X0276710Y0301108D03*
X0279269Y0301108D03*
X0281828Y0301108D03*
X0284388Y0301108D03*
X0284388Y0329896D03*
X0281828Y0329896D03*
X0279269Y0329896D03*
X0276710Y0329896D03*
X0274151Y0329896D03*
X0271592Y0329896D03*
X0269033Y0329896D03*
X0266474Y0329896D03*
X0263915Y0329896D03*
X0261356Y0329896D03*
X0258797Y0329896D03*
X0256238Y0329896D03*
X0359858Y0325827D03*
X0362417Y0325827D03*
X0364976Y0325827D03*
X0367535Y0325827D03*
X0370094Y0325827D03*
X0372654Y0325827D03*
X0375213Y0325827D03*
X0377772Y0325827D03*
X0380331Y0325827D03*
X0382890Y0325827D03*
X0385449Y0325827D03*
X0388008Y0325827D03*
X0388008Y0297039D03*
X0385449Y0297039D03*
X0382890Y0297039D03*
X0380331Y0297039D03*
X0377772Y0297039D03*
X0375213Y0297039D03*
X0372654Y0297039D03*
X0370094Y0297039D03*
X0367535Y0297039D03*
X0364976Y0297039D03*
X0362417Y0297039D03*
X0359858Y0297039D03*
X0293008Y0128327D03*
X0290449Y0128327D03*
X0287890Y0128327D03*
X0285331Y0128327D03*
X0282772Y0128327D03*
X0280213Y0128327D03*
X0277654Y0128327D03*
X0275094Y0128327D03*
X0272535Y0128327D03*
X0269976Y0128327D03*
X0267417Y0128327D03*
X0264858Y0128327D03*
X0264858Y0099539D03*
X0267417Y0099539D03*
X0269976Y0099539D03*
X0272535Y0099539D03*
X0275094Y0099539D03*
X0277654Y0099539D03*
X0280213Y0099539D03*
X0282772Y0099539D03*
X0285331Y0099539D03*
X0287890Y0099539D03*
X0290449Y0099539D03*
X0293008Y0099539D03*
D12*
X0257280Y0113933D03*
X0250587Y0113933D03*
X0194780Y0308933D03*
X0188087Y0308933D03*
X0291966Y0315502D03*
X0298659Y0315502D03*
X0395587Y0311433D03*
X0402280Y0311433D03*
M02*
