%
M48
M72
T01C0.01200
T02C0.02500
T03C0.03543
T04C0.04000
T05C0.12598
%
T01
X137683Y95183
X140183Y100183
X135183Y101433
X132683Y106433
X132683Y117683
X126433Y125183
X126433Y136433
X122683Y142683
X108933Y153933
X125183Y163933
X142683Y156433
X166433Y187683
X153933Y188933
X148933Y192683
X198933Y183933
X208933Y191433
X203933Y196433
X223933Y191433
X231433Y185183
X233933Y193933
X208933Y216433
X233933Y230183
X250183Y225183
X261433Y227683
X267683Y225183
X276433Y252683
X273933Y258933
X283933Y258933
X282683Y275183
X293933Y280183
X278933Y295183
X273933Y293933
X271433Y296433
X268933Y306433
X266433Y308933
X258933Y313933
X261433Y318933
X263933Y323933
X276433Y318933
X273933Y313933
X278933Y313933
X281433Y306433
X286433Y306433
X300183Y325183
X298933Y330183
X301433Y333933
X287683Y342683
X291433Y352683
X268933Y335183
X266433Y337683
X263933Y345183
X246433Y318933
X243933Y311433
X256433Y290183
X266433Y280183
X238933Y255183
X227683Y255183
X197683Y282683
X191433Y277683
X180183Y277683
X172683Y282683
X167683Y282683
X162683Y277683
X160183Y280183
X155183Y285183
X152683Y287683
X141433Y285183
X141433Y292683
X137683Y292683
X126433Y298933
X118933Y298933
X155183Y317683
X165183Y317683
X172683Y313933
X173933Y303933
X188933Y318933
X208933Y311433
X196433Y290183
X175183Y288933
X166433Y262683
X155183Y255183
X146433Y261433
X163933Y243933
X260183Y167683
X263933Y167683
X278933Y165183
X298933Y163933
X308933Y143933
X320183Y146433
X327683Y138933
X331433Y130183
X336433Y135183
X338933Y127683
X318933Y125183
X298933Y112683
X295183Y115183
X295183Y118933
X290183Y121433
X285183Y121433
X282683Y116433
X278933Y116433
X271433Y113933
X263933Y116433
X277683Y107683
X275183Y105183
X270183Y105183
X262683Y95183
X261433Y91433
X267683Y93933
X272683Y93933
X287683Y93933
X300183Y106433
X282683Y108933
X292683Y135183
X297683Y136433
X290183Y140183
X285183Y136433
X282683Y138933
X280183Y141433
X277683Y145183
X267683Y135183
X321433Y157683
X333933Y158933
X376433Y158933
X377683Y170183
X373933Y177683
X376433Y185183
X381433Y187683
X388933Y193933
X406433Y206433
X412683Y200183
X392683Y223933
X390183Y236433
X373933Y241433
X378933Y247683
X372683Y250183
X368933Y250183
X365183Y238933
X362683Y232683
X360183Y212683
X360183Y200183
X385183Y175183
X373933Y143933
X418933Y101433
X421433Y98933
X368933Y97683
X331433Y95183
X322683Y97683
X436433Y157683
X442683Y172683
X368933Y258933
X383933Y280183
X381433Y285183
X387683Y285183
X402683Y277683
X403933Y273933
X417683Y285183
X431433Y292683
X411433Y308933
X406433Y307683
X406433Y302683
X402683Y300183
X397683Y300183
X390183Y302683
X380183Y308933
X377683Y315183
X377683Y320183
X385183Y313933
X370183Y305183
X367683Y302683
X362683Y312683
X367683Y320183
X372683Y331433
X318933Y300183
X316433Y316433
X313933Y280183
X343933Y275183
X428933Y321433
X306433Y205183
X281433Y196433
X202683Y153933
X186433Y105183
X182683Y105183
X180183Y92683
X106433Y112683
X143933Y328933
X160183Y328933
X162683Y331433
X167683Y332683
X175183Y338933
X170183Y358933
X176433Y368933
X152683Y363933
T02
X220433Y242533
X220433Y237333
T03
X149761Y98266
X159761Y98266
X159761Y128266
X149761Y128266
T04
X120414Y324149
X116587Y314911
X112760Y305672
X108933Y296433
X116433Y278933
X116433Y268933
X116433Y258933
X116433Y248933
X96433Y248933
X96433Y258933
X96433Y268933
X96433Y278933
X161433Y268933
X171433Y268933
X181433Y268933
X191433Y268933
X201433Y268933
X211433Y268933
X221433Y268933
X231433Y268933
X241433Y268933
X251433Y268933
X261433Y268933
X271433Y268933
X281433Y268933
X291433Y268933
X301433Y268933
X311433Y268933
X321433Y268933
X331433Y268933
X341433Y268933
X351433Y268933
X351433Y248933
X351433Y238933
X351433Y228933
X351433Y208933
X341433Y208933
X331433Y208933
X321433Y208933
X311433Y208933
X301433Y208933
X291433Y208933
X281433Y208933
X271433Y208933
X261433Y208933
X251433Y208933
X241433Y208933
X231433Y208933
X221433Y208933
X211433Y208933
X201433Y208933
X191433Y208933
X181433Y208933
X171433Y208933
X161433Y208933
X161433Y181433
X151433Y181433
X171433Y181433
X166433Y151433
X156433Y151433
X146433Y151433
X118933Y161433
X118933Y171433
X118933Y181433
X118933Y191433
X96433Y191433
X96433Y181433
X96433Y171433
X96433Y161433
X106321Y142202
X110148Y132963
X113974Y123725
X117801Y114486
X118933Y86433
X128933Y86433
X148707Y78977
X160107Y78977
X173717Y87914
X182955Y84087
X192194Y80260
X201433Y76433
X221433Y68933
X231433Y68933
X241433Y68933
X251433Y68933
X274012Y76712
X284012Y76712
X306433Y68933
X316433Y68933
X326433Y68933
X336433Y68933
X357624Y77200
X366862Y81027
X376101Y84854
X385340Y88681
X408933Y81433
X418933Y81433
X409953Y116217
X413779Y125455
X417606Y134694
X421433Y143933
X410559Y162968
X410559Y172968
X410559Y182968
X410559Y192968
X433059Y192968
X433059Y182968
X433059Y172968
X433059Y162968
X366433Y151433
X356433Y151433
X346433Y151433
X336433Y151433
X326433Y151433
X316433Y151433
X306433Y151433
X296433Y151433
X286433Y151433
X276433Y151433
X266433Y151433
X256433Y151433
X246433Y151433
X236433Y151433
X226433Y151433
X216433Y151433
X176433Y151433
X216433Y181433
X226433Y181433
X236433Y181433
X246433Y181433
X256433Y181433
X266433Y181433
X276433Y181433
X286433Y181433
X296433Y181433
X306433Y181433
X316433Y181433
X326433Y181433
X336433Y181433
X346433Y181433
X356433Y181433
X366433Y181433
X423222Y215275
X423222Y225275
X433564Y249927
X433564Y259927
X433564Y269927
X433564Y279927
X423933Y298933
X420106Y308172
X416279Y317411
X412453Y326649
X378751Y341079
X369512Y344906
X360273Y348732
X351035Y352559
X328933Y343933
X318933Y343933
X308933Y343933
X298933Y343933
X276433Y353933
X266433Y353933
X243933Y343933
X233933Y343933
X223933Y343933
X213933Y343933
X191649Y352914
X182411Y349087
X173172Y345260
X163933Y341433
X213933Y363933
X223933Y363933
X233933Y363933
X243933Y363933
X298933Y363933
X308933Y363933
X318933Y363933
X328933Y363933
X411064Y279927
X411064Y269927
X411064Y259927
X411064Y249927
X321433Y248933
X321433Y238933
X311433Y238933
X301433Y238933
X291433Y238933
X291433Y248933
X301433Y248933
X311433Y248933
X111433Y223933
X111433Y213933
X221433Y88933
X231433Y88933
X241433Y88933
X251433Y88933
X306433Y88933
X316433Y88933
X326433Y88933
X336433Y88933
T05
X101433Y73933
X433933Y73933
X433933Y358933
X101433Y358933
M30
