G75*
%MOIN*%
%OFA0B0*%
%FSLAX25Y25*%
%IPPOS*%
%LPD*%
%AMOC8*
5,1,8,0,0,1.08239X$1,22.5*
%
%ADD10C,0.00000*%
%ADD11C,0.00300*%
%ADD12C,0.00200*%
%ADD13C,0.00400*%
%ADD14C,0.00600*%
%ADD15C,0.00500*%
%ADD16C,0.00800*%
%ADD17C,0.00100*%
D10*
X0086433Y0068933D02*
X0086433Y0363894D01*
X0086436Y0364136D01*
X0086445Y0364377D01*
X0086459Y0364618D01*
X0086480Y0364859D01*
X0086506Y0365099D01*
X0086538Y0365339D01*
X0086576Y0365578D01*
X0086619Y0365815D01*
X0086669Y0366052D01*
X0086724Y0366287D01*
X0086784Y0366521D01*
X0086851Y0366753D01*
X0086922Y0366984D01*
X0087000Y0367213D01*
X0087083Y0367440D01*
X0087171Y0367665D01*
X0087265Y0367888D01*
X0087364Y0368108D01*
X0087469Y0368326D01*
X0087578Y0368541D01*
X0087693Y0368754D01*
X0087813Y0368964D01*
X0087938Y0369170D01*
X0088068Y0369374D01*
X0088203Y0369575D01*
X0088343Y0369772D01*
X0088487Y0369966D01*
X0088636Y0370156D01*
X0088790Y0370342D01*
X0088948Y0370525D01*
X0089110Y0370704D01*
X0089277Y0370879D01*
X0089448Y0371050D01*
X0089623Y0371217D01*
X0089802Y0371379D01*
X0089985Y0371537D01*
X0090171Y0371691D01*
X0090361Y0371840D01*
X0090555Y0371984D01*
X0090752Y0372124D01*
X0090953Y0372259D01*
X0091157Y0372389D01*
X0091363Y0372514D01*
X0091573Y0372634D01*
X0091786Y0372749D01*
X0092001Y0372858D01*
X0092219Y0372963D01*
X0092439Y0373062D01*
X0092662Y0373156D01*
X0092887Y0373244D01*
X0093114Y0373327D01*
X0093343Y0373405D01*
X0093574Y0373476D01*
X0093806Y0373543D01*
X0094040Y0373603D01*
X0094275Y0373658D01*
X0094512Y0373708D01*
X0094749Y0373751D01*
X0094988Y0373789D01*
X0095228Y0373821D01*
X0095468Y0373847D01*
X0095709Y0373868D01*
X0095950Y0373882D01*
X0096191Y0373891D01*
X0096433Y0373894D01*
X0437634Y0373894D01*
X0437876Y0373891D01*
X0438117Y0373882D01*
X0438358Y0373868D01*
X0438599Y0373847D01*
X0438839Y0373821D01*
X0439079Y0373789D01*
X0439318Y0373751D01*
X0439555Y0373708D01*
X0439792Y0373658D01*
X0440027Y0373603D01*
X0440261Y0373543D01*
X0440493Y0373476D01*
X0440724Y0373405D01*
X0440953Y0373327D01*
X0441180Y0373244D01*
X0441405Y0373156D01*
X0441628Y0373062D01*
X0441848Y0372963D01*
X0442066Y0372858D01*
X0442281Y0372749D01*
X0442494Y0372634D01*
X0442704Y0372514D01*
X0442910Y0372389D01*
X0443114Y0372259D01*
X0443315Y0372124D01*
X0443512Y0371984D01*
X0443706Y0371840D01*
X0443896Y0371691D01*
X0444082Y0371537D01*
X0444265Y0371379D01*
X0444444Y0371217D01*
X0444619Y0371050D01*
X0444790Y0370879D01*
X0444957Y0370704D01*
X0445119Y0370525D01*
X0445277Y0370342D01*
X0445431Y0370156D01*
X0445580Y0369966D01*
X0445724Y0369772D01*
X0445864Y0369575D01*
X0445999Y0369374D01*
X0446129Y0369170D01*
X0446254Y0368964D01*
X0446374Y0368754D01*
X0446489Y0368541D01*
X0446598Y0368326D01*
X0446703Y0368108D01*
X0446802Y0367888D01*
X0446896Y0367665D01*
X0446984Y0367440D01*
X0447067Y0367213D01*
X0447145Y0366984D01*
X0447216Y0366753D01*
X0447283Y0366521D01*
X0447343Y0366287D01*
X0447398Y0366052D01*
X0447448Y0365815D01*
X0447491Y0365578D01*
X0447529Y0365339D01*
X0447561Y0365099D01*
X0447587Y0364859D01*
X0447608Y0364618D01*
X0447622Y0364377D01*
X0447631Y0364136D01*
X0447634Y0363894D01*
X0447634Y0068933D01*
X0447631Y0068691D01*
X0447622Y0068450D01*
X0447608Y0068209D01*
X0447587Y0067968D01*
X0447561Y0067728D01*
X0447529Y0067488D01*
X0447491Y0067249D01*
X0447448Y0067012D01*
X0447398Y0066775D01*
X0447343Y0066540D01*
X0447283Y0066306D01*
X0447216Y0066074D01*
X0447145Y0065843D01*
X0447067Y0065614D01*
X0446984Y0065387D01*
X0446896Y0065162D01*
X0446802Y0064939D01*
X0446703Y0064719D01*
X0446598Y0064501D01*
X0446489Y0064286D01*
X0446374Y0064073D01*
X0446254Y0063863D01*
X0446129Y0063657D01*
X0445999Y0063453D01*
X0445864Y0063252D01*
X0445724Y0063055D01*
X0445580Y0062861D01*
X0445431Y0062671D01*
X0445277Y0062485D01*
X0445119Y0062302D01*
X0444957Y0062123D01*
X0444790Y0061948D01*
X0444619Y0061777D01*
X0444444Y0061610D01*
X0444265Y0061448D01*
X0444082Y0061290D01*
X0443896Y0061136D01*
X0443706Y0060987D01*
X0443512Y0060843D01*
X0443315Y0060703D01*
X0443114Y0060568D01*
X0442910Y0060438D01*
X0442704Y0060313D01*
X0442494Y0060193D01*
X0442281Y0060078D01*
X0442066Y0059969D01*
X0441848Y0059864D01*
X0441628Y0059765D01*
X0441405Y0059671D01*
X0441180Y0059583D01*
X0440953Y0059500D01*
X0440724Y0059422D01*
X0440493Y0059351D01*
X0440261Y0059284D01*
X0440027Y0059224D01*
X0439792Y0059169D01*
X0439555Y0059119D01*
X0439318Y0059076D01*
X0439079Y0059038D01*
X0438839Y0059006D01*
X0438599Y0058980D01*
X0438358Y0058959D01*
X0438117Y0058945D01*
X0437876Y0058936D01*
X0437634Y0058933D01*
X0096433Y0058933D01*
X0096191Y0058936D01*
X0095950Y0058945D01*
X0095709Y0058959D01*
X0095468Y0058980D01*
X0095228Y0059006D01*
X0094988Y0059038D01*
X0094749Y0059076D01*
X0094512Y0059119D01*
X0094275Y0059169D01*
X0094040Y0059224D01*
X0093806Y0059284D01*
X0093574Y0059351D01*
X0093343Y0059422D01*
X0093114Y0059500D01*
X0092887Y0059583D01*
X0092662Y0059671D01*
X0092439Y0059765D01*
X0092219Y0059864D01*
X0092001Y0059969D01*
X0091786Y0060078D01*
X0091573Y0060193D01*
X0091363Y0060313D01*
X0091157Y0060438D01*
X0090953Y0060568D01*
X0090752Y0060703D01*
X0090555Y0060843D01*
X0090361Y0060987D01*
X0090171Y0061136D01*
X0089985Y0061290D01*
X0089802Y0061448D01*
X0089623Y0061610D01*
X0089448Y0061777D01*
X0089277Y0061948D01*
X0089110Y0062123D01*
X0088948Y0062302D01*
X0088790Y0062485D01*
X0088636Y0062671D01*
X0088487Y0062861D01*
X0088343Y0063055D01*
X0088203Y0063252D01*
X0088068Y0063453D01*
X0087938Y0063657D01*
X0087813Y0063863D01*
X0087693Y0064073D01*
X0087578Y0064286D01*
X0087469Y0064501D01*
X0087364Y0064719D01*
X0087265Y0064939D01*
X0087171Y0065162D01*
X0087083Y0065387D01*
X0087000Y0065614D01*
X0086922Y0065843D01*
X0086851Y0066074D01*
X0086784Y0066306D01*
X0086724Y0066540D01*
X0086669Y0066775D01*
X0086619Y0067012D01*
X0086576Y0067249D01*
X0086538Y0067488D01*
X0086506Y0067728D01*
X0086480Y0067968D01*
X0086459Y0068209D01*
X0086445Y0068450D01*
X0086436Y0068691D01*
X0086433Y0068933D01*
X0095134Y0073933D02*
X0095136Y0074091D01*
X0095142Y0074249D01*
X0095152Y0074407D01*
X0095166Y0074565D01*
X0095184Y0074722D01*
X0095205Y0074879D01*
X0095231Y0075035D01*
X0095261Y0075191D01*
X0095294Y0075346D01*
X0095332Y0075499D01*
X0095373Y0075652D01*
X0095418Y0075804D01*
X0095467Y0075955D01*
X0095520Y0076104D01*
X0095576Y0076252D01*
X0095636Y0076398D01*
X0095700Y0076543D01*
X0095768Y0076686D01*
X0095839Y0076828D01*
X0095913Y0076968D01*
X0095991Y0077105D01*
X0096073Y0077241D01*
X0096157Y0077375D01*
X0096246Y0077506D01*
X0096337Y0077635D01*
X0096432Y0077762D01*
X0096529Y0077887D01*
X0096630Y0078009D01*
X0096734Y0078128D01*
X0096841Y0078245D01*
X0096951Y0078359D01*
X0097064Y0078470D01*
X0097179Y0078579D01*
X0097297Y0078684D01*
X0097418Y0078786D01*
X0097541Y0078886D01*
X0097667Y0078982D01*
X0097795Y0079075D01*
X0097925Y0079165D01*
X0098058Y0079251D01*
X0098193Y0079335D01*
X0098329Y0079414D01*
X0098468Y0079491D01*
X0098609Y0079563D01*
X0098751Y0079633D01*
X0098895Y0079698D01*
X0099041Y0079760D01*
X0099188Y0079818D01*
X0099337Y0079873D01*
X0099487Y0079924D01*
X0099638Y0079971D01*
X0099790Y0080014D01*
X0099943Y0080053D01*
X0100098Y0080089D01*
X0100253Y0080120D01*
X0100409Y0080148D01*
X0100565Y0080172D01*
X0100722Y0080192D01*
X0100880Y0080208D01*
X0101037Y0080220D01*
X0101196Y0080228D01*
X0101354Y0080232D01*
X0101512Y0080232D01*
X0101670Y0080228D01*
X0101829Y0080220D01*
X0101986Y0080208D01*
X0102144Y0080192D01*
X0102301Y0080172D01*
X0102457Y0080148D01*
X0102613Y0080120D01*
X0102768Y0080089D01*
X0102923Y0080053D01*
X0103076Y0080014D01*
X0103228Y0079971D01*
X0103379Y0079924D01*
X0103529Y0079873D01*
X0103678Y0079818D01*
X0103825Y0079760D01*
X0103971Y0079698D01*
X0104115Y0079633D01*
X0104257Y0079563D01*
X0104398Y0079491D01*
X0104537Y0079414D01*
X0104673Y0079335D01*
X0104808Y0079251D01*
X0104941Y0079165D01*
X0105071Y0079075D01*
X0105199Y0078982D01*
X0105325Y0078886D01*
X0105448Y0078786D01*
X0105569Y0078684D01*
X0105687Y0078579D01*
X0105802Y0078470D01*
X0105915Y0078359D01*
X0106025Y0078245D01*
X0106132Y0078128D01*
X0106236Y0078009D01*
X0106337Y0077887D01*
X0106434Y0077762D01*
X0106529Y0077635D01*
X0106620Y0077506D01*
X0106709Y0077375D01*
X0106793Y0077241D01*
X0106875Y0077105D01*
X0106953Y0076968D01*
X0107027Y0076828D01*
X0107098Y0076686D01*
X0107166Y0076543D01*
X0107230Y0076398D01*
X0107290Y0076252D01*
X0107346Y0076104D01*
X0107399Y0075955D01*
X0107448Y0075804D01*
X0107493Y0075652D01*
X0107534Y0075499D01*
X0107572Y0075346D01*
X0107605Y0075191D01*
X0107635Y0075035D01*
X0107661Y0074879D01*
X0107682Y0074722D01*
X0107700Y0074565D01*
X0107714Y0074407D01*
X0107724Y0074249D01*
X0107730Y0074091D01*
X0107732Y0073933D01*
X0107730Y0073775D01*
X0107724Y0073617D01*
X0107714Y0073459D01*
X0107700Y0073301D01*
X0107682Y0073144D01*
X0107661Y0072987D01*
X0107635Y0072831D01*
X0107605Y0072675D01*
X0107572Y0072520D01*
X0107534Y0072367D01*
X0107493Y0072214D01*
X0107448Y0072062D01*
X0107399Y0071911D01*
X0107346Y0071762D01*
X0107290Y0071614D01*
X0107230Y0071468D01*
X0107166Y0071323D01*
X0107098Y0071180D01*
X0107027Y0071038D01*
X0106953Y0070898D01*
X0106875Y0070761D01*
X0106793Y0070625D01*
X0106709Y0070491D01*
X0106620Y0070360D01*
X0106529Y0070231D01*
X0106434Y0070104D01*
X0106337Y0069979D01*
X0106236Y0069857D01*
X0106132Y0069738D01*
X0106025Y0069621D01*
X0105915Y0069507D01*
X0105802Y0069396D01*
X0105687Y0069287D01*
X0105569Y0069182D01*
X0105448Y0069080D01*
X0105325Y0068980D01*
X0105199Y0068884D01*
X0105071Y0068791D01*
X0104941Y0068701D01*
X0104808Y0068615D01*
X0104673Y0068531D01*
X0104537Y0068452D01*
X0104398Y0068375D01*
X0104257Y0068303D01*
X0104115Y0068233D01*
X0103971Y0068168D01*
X0103825Y0068106D01*
X0103678Y0068048D01*
X0103529Y0067993D01*
X0103379Y0067942D01*
X0103228Y0067895D01*
X0103076Y0067852D01*
X0102923Y0067813D01*
X0102768Y0067777D01*
X0102613Y0067746D01*
X0102457Y0067718D01*
X0102301Y0067694D01*
X0102144Y0067674D01*
X0101986Y0067658D01*
X0101829Y0067646D01*
X0101670Y0067638D01*
X0101512Y0067634D01*
X0101354Y0067634D01*
X0101196Y0067638D01*
X0101037Y0067646D01*
X0100880Y0067658D01*
X0100722Y0067674D01*
X0100565Y0067694D01*
X0100409Y0067718D01*
X0100253Y0067746D01*
X0100098Y0067777D01*
X0099943Y0067813D01*
X0099790Y0067852D01*
X0099638Y0067895D01*
X0099487Y0067942D01*
X0099337Y0067993D01*
X0099188Y0068048D01*
X0099041Y0068106D01*
X0098895Y0068168D01*
X0098751Y0068233D01*
X0098609Y0068303D01*
X0098468Y0068375D01*
X0098329Y0068452D01*
X0098193Y0068531D01*
X0098058Y0068615D01*
X0097925Y0068701D01*
X0097795Y0068791D01*
X0097667Y0068884D01*
X0097541Y0068980D01*
X0097418Y0069080D01*
X0097297Y0069182D01*
X0097179Y0069287D01*
X0097064Y0069396D01*
X0096951Y0069507D01*
X0096841Y0069621D01*
X0096734Y0069738D01*
X0096630Y0069857D01*
X0096529Y0069979D01*
X0096432Y0070104D01*
X0096337Y0070231D01*
X0096246Y0070360D01*
X0096157Y0070491D01*
X0096073Y0070625D01*
X0095991Y0070761D01*
X0095913Y0070898D01*
X0095839Y0071038D01*
X0095768Y0071180D01*
X0095700Y0071323D01*
X0095636Y0071468D01*
X0095576Y0071614D01*
X0095520Y0071762D01*
X0095467Y0071911D01*
X0095418Y0072062D01*
X0095373Y0072214D01*
X0095332Y0072367D01*
X0095294Y0072520D01*
X0095261Y0072675D01*
X0095231Y0072831D01*
X0095205Y0072987D01*
X0095184Y0073144D01*
X0095166Y0073301D01*
X0095152Y0073459D01*
X0095142Y0073617D01*
X0095136Y0073775D01*
X0095134Y0073933D01*
X0427634Y0073933D02*
X0427636Y0074091D01*
X0427642Y0074249D01*
X0427652Y0074407D01*
X0427666Y0074565D01*
X0427684Y0074722D01*
X0427705Y0074879D01*
X0427731Y0075035D01*
X0427761Y0075191D01*
X0427794Y0075346D01*
X0427832Y0075499D01*
X0427873Y0075652D01*
X0427918Y0075804D01*
X0427967Y0075955D01*
X0428020Y0076104D01*
X0428076Y0076252D01*
X0428136Y0076398D01*
X0428200Y0076543D01*
X0428268Y0076686D01*
X0428339Y0076828D01*
X0428413Y0076968D01*
X0428491Y0077105D01*
X0428573Y0077241D01*
X0428657Y0077375D01*
X0428746Y0077506D01*
X0428837Y0077635D01*
X0428932Y0077762D01*
X0429029Y0077887D01*
X0429130Y0078009D01*
X0429234Y0078128D01*
X0429341Y0078245D01*
X0429451Y0078359D01*
X0429564Y0078470D01*
X0429679Y0078579D01*
X0429797Y0078684D01*
X0429918Y0078786D01*
X0430041Y0078886D01*
X0430167Y0078982D01*
X0430295Y0079075D01*
X0430425Y0079165D01*
X0430558Y0079251D01*
X0430693Y0079335D01*
X0430829Y0079414D01*
X0430968Y0079491D01*
X0431109Y0079563D01*
X0431251Y0079633D01*
X0431395Y0079698D01*
X0431541Y0079760D01*
X0431688Y0079818D01*
X0431837Y0079873D01*
X0431987Y0079924D01*
X0432138Y0079971D01*
X0432290Y0080014D01*
X0432443Y0080053D01*
X0432598Y0080089D01*
X0432753Y0080120D01*
X0432909Y0080148D01*
X0433065Y0080172D01*
X0433222Y0080192D01*
X0433380Y0080208D01*
X0433537Y0080220D01*
X0433696Y0080228D01*
X0433854Y0080232D01*
X0434012Y0080232D01*
X0434170Y0080228D01*
X0434329Y0080220D01*
X0434486Y0080208D01*
X0434644Y0080192D01*
X0434801Y0080172D01*
X0434957Y0080148D01*
X0435113Y0080120D01*
X0435268Y0080089D01*
X0435423Y0080053D01*
X0435576Y0080014D01*
X0435728Y0079971D01*
X0435879Y0079924D01*
X0436029Y0079873D01*
X0436178Y0079818D01*
X0436325Y0079760D01*
X0436471Y0079698D01*
X0436615Y0079633D01*
X0436757Y0079563D01*
X0436898Y0079491D01*
X0437037Y0079414D01*
X0437173Y0079335D01*
X0437308Y0079251D01*
X0437441Y0079165D01*
X0437571Y0079075D01*
X0437699Y0078982D01*
X0437825Y0078886D01*
X0437948Y0078786D01*
X0438069Y0078684D01*
X0438187Y0078579D01*
X0438302Y0078470D01*
X0438415Y0078359D01*
X0438525Y0078245D01*
X0438632Y0078128D01*
X0438736Y0078009D01*
X0438837Y0077887D01*
X0438934Y0077762D01*
X0439029Y0077635D01*
X0439120Y0077506D01*
X0439209Y0077375D01*
X0439293Y0077241D01*
X0439375Y0077105D01*
X0439453Y0076968D01*
X0439527Y0076828D01*
X0439598Y0076686D01*
X0439666Y0076543D01*
X0439730Y0076398D01*
X0439790Y0076252D01*
X0439846Y0076104D01*
X0439899Y0075955D01*
X0439948Y0075804D01*
X0439993Y0075652D01*
X0440034Y0075499D01*
X0440072Y0075346D01*
X0440105Y0075191D01*
X0440135Y0075035D01*
X0440161Y0074879D01*
X0440182Y0074722D01*
X0440200Y0074565D01*
X0440214Y0074407D01*
X0440224Y0074249D01*
X0440230Y0074091D01*
X0440232Y0073933D01*
X0440230Y0073775D01*
X0440224Y0073617D01*
X0440214Y0073459D01*
X0440200Y0073301D01*
X0440182Y0073144D01*
X0440161Y0072987D01*
X0440135Y0072831D01*
X0440105Y0072675D01*
X0440072Y0072520D01*
X0440034Y0072367D01*
X0439993Y0072214D01*
X0439948Y0072062D01*
X0439899Y0071911D01*
X0439846Y0071762D01*
X0439790Y0071614D01*
X0439730Y0071468D01*
X0439666Y0071323D01*
X0439598Y0071180D01*
X0439527Y0071038D01*
X0439453Y0070898D01*
X0439375Y0070761D01*
X0439293Y0070625D01*
X0439209Y0070491D01*
X0439120Y0070360D01*
X0439029Y0070231D01*
X0438934Y0070104D01*
X0438837Y0069979D01*
X0438736Y0069857D01*
X0438632Y0069738D01*
X0438525Y0069621D01*
X0438415Y0069507D01*
X0438302Y0069396D01*
X0438187Y0069287D01*
X0438069Y0069182D01*
X0437948Y0069080D01*
X0437825Y0068980D01*
X0437699Y0068884D01*
X0437571Y0068791D01*
X0437441Y0068701D01*
X0437308Y0068615D01*
X0437173Y0068531D01*
X0437037Y0068452D01*
X0436898Y0068375D01*
X0436757Y0068303D01*
X0436615Y0068233D01*
X0436471Y0068168D01*
X0436325Y0068106D01*
X0436178Y0068048D01*
X0436029Y0067993D01*
X0435879Y0067942D01*
X0435728Y0067895D01*
X0435576Y0067852D01*
X0435423Y0067813D01*
X0435268Y0067777D01*
X0435113Y0067746D01*
X0434957Y0067718D01*
X0434801Y0067694D01*
X0434644Y0067674D01*
X0434486Y0067658D01*
X0434329Y0067646D01*
X0434170Y0067638D01*
X0434012Y0067634D01*
X0433854Y0067634D01*
X0433696Y0067638D01*
X0433537Y0067646D01*
X0433380Y0067658D01*
X0433222Y0067674D01*
X0433065Y0067694D01*
X0432909Y0067718D01*
X0432753Y0067746D01*
X0432598Y0067777D01*
X0432443Y0067813D01*
X0432290Y0067852D01*
X0432138Y0067895D01*
X0431987Y0067942D01*
X0431837Y0067993D01*
X0431688Y0068048D01*
X0431541Y0068106D01*
X0431395Y0068168D01*
X0431251Y0068233D01*
X0431109Y0068303D01*
X0430968Y0068375D01*
X0430829Y0068452D01*
X0430693Y0068531D01*
X0430558Y0068615D01*
X0430425Y0068701D01*
X0430295Y0068791D01*
X0430167Y0068884D01*
X0430041Y0068980D01*
X0429918Y0069080D01*
X0429797Y0069182D01*
X0429679Y0069287D01*
X0429564Y0069396D01*
X0429451Y0069507D01*
X0429341Y0069621D01*
X0429234Y0069738D01*
X0429130Y0069857D01*
X0429029Y0069979D01*
X0428932Y0070104D01*
X0428837Y0070231D01*
X0428746Y0070360D01*
X0428657Y0070491D01*
X0428573Y0070625D01*
X0428491Y0070761D01*
X0428413Y0070898D01*
X0428339Y0071038D01*
X0428268Y0071180D01*
X0428200Y0071323D01*
X0428136Y0071468D01*
X0428076Y0071614D01*
X0428020Y0071762D01*
X0427967Y0071911D01*
X0427918Y0072062D01*
X0427873Y0072214D01*
X0427832Y0072367D01*
X0427794Y0072520D01*
X0427761Y0072675D01*
X0427731Y0072831D01*
X0427705Y0072987D01*
X0427684Y0073144D01*
X0427666Y0073301D01*
X0427652Y0073459D01*
X0427642Y0073617D01*
X0427636Y0073775D01*
X0427634Y0073933D01*
X0427634Y0358933D02*
X0427636Y0359091D01*
X0427642Y0359249D01*
X0427652Y0359407D01*
X0427666Y0359565D01*
X0427684Y0359722D01*
X0427705Y0359879D01*
X0427731Y0360035D01*
X0427761Y0360191D01*
X0427794Y0360346D01*
X0427832Y0360499D01*
X0427873Y0360652D01*
X0427918Y0360804D01*
X0427967Y0360955D01*
X0428020Y0361104D01*
X0428076Y0361252D01*
X0428136Y0361398D01*
X0428200Y0361543D01*
X0428268Y0361686D01*
X0428339Y0361828D01*
X0428413Y0361968D01*
X0428491Y0362105D01*
X0428573Y0362241D01*
X0428657Y0362375D01*
X0428746Y0362506D01*
X0428837Y0362635D01*
X0428932Y0362762D01*
X0429029Y0362887D01*
X0429130Y0363009D01*
X0429234Y0363128D01*
X0429341Y0363245D01*
X0429451Y0363359D01*
X0429564Y0363470D01*
X0429679Y0363579D01*
X0429797Y0363684D01*
X0429918Y0363786D01*
X0430041Y0363886D01*
X0430167Y0363982D01*
X0430295Y0364075D01*
X0430425Y0364165D01*
X0430558Y0364251D01*
X0430693Y0364335D01*
X0430829Y0364414D01*
X0430968Y0364491D01*
X0431109Y0364563D01*
X0431251Y0364633D01*
X0431395Y0364698D01*
X0431541Y0364760D01*
X0431688Y0364818D01*
X0431837Y0364873D01*
X0431987Y0364924D01*
X0432138Y0364971D01*
X0432290Y0365014D01*
X0432443Y0365053D01*
X0432598Y0365089D01*
X0432753Y0365120D01*
X0432909Y0365148D01*
X0433065Y0365172D01*
X0433222Y0365192D01*
X0433380Y0365208D01*
X0433537Y0365220D01*
X0433696Y0365228D01*
X0433854Y0365232D01*
X0434012Y0365232D01*
X0434170Y0365228D01*
X0434329Y0365220D01*
X0434486Y0365208D01*
X0434644Y0365192D01*
X0434801Y0365172D01*
X0434957Y0365148D01*
X0435113Y0365120D01*
X0435268Y0365089D01*
X0435423Y0365053D01*
X0435576Y0365014D01*
X0435728Y0364971D01*
X0435879Y0364924D01*
X0436029Y0364873D01*
X0436178Y0364818D01*
X0436325Y0364760D01*
X0436471Y0364698D01*
X0436615Y0364633D01*
X0436757Y0364563D01*
X0436898Y0364491D01*
X0437037Y0364414D01*
X0437173Y0364335D01*
X0437308Y0364251D01*
X0437441Y0364165D01*
X0437571Y0364075D01*
X0437699Y0363982D01*
X0437825Y0363886D01*
X0437948Y0363786D01*
X0438069Y0363684D01*
X0438187Y0363579D01*
X0438302Y0363470D01*
X0438415Y0363359D01*
X0438525Y0363245D01*
X0438632Y0363128D01*
X0438736Y0363009D01*
X0438837Y0362887D01*
X0438934Y0362762D01*
X0439029Y0362635D01*
X0439120Y0362506D01*
X0439209Y0362375D01*
X0439293Y0362241D01*
X0439375Y0362105D01*
X0439453Y0361968D01*
X0439527Y0361828D01*
X0439598Y0361686D01*
X0439666Y0361543D01*
X0439730Y0361398D01*
X0439790Y0361252D01*
X0439846Y0361104D01*
X0439899Y0360955D01*
X0439948Y0360804D01*
X0439993Y0360652D01*
X0440034Y0360499D01*
X0440072Y0360346D01*
X0440105Y0360191D01*
X0440135Y0360035D01*
X0440161Y0359879D01*
X0440182Y0359722D01*
X0440200Y0359565D01*
X0440214Y0359407D01*
X0440224Y0359249D01*
X0440230Y0359091D01*
X0440232Y0358933D01*
X0440230Y0358775D01*
X0440224Y0358617D01*
X0440214Y0358459D01*
X0440200Y0358301D01*
X0440182Y0358144D01*
X0440161Y0357987D01*
X0440135Y0357831D01*
X0440105Y0357675D01*
X0440072Y0357520D01*
X0440034Y0357367D01*
X0439993Y0357214D01*
X0439948Y0357062D01*
X0439899Y0356911D01*
X0439846Y0356762D01*
X0439790Y0356614D01*
X0439730Y0356468D01*
X0439666Y0356323D01*
X0439598Y0356180D01*
X0439527Y0356038D01*
X0439453Y0355898D01*
X0439375Y0355761D01*
X0439293Y0355625D01*
X0439209Y0355491D01*
X0439120Y0355360D01*
X0439029Y0355231D01*
X0438934Y0355104D01*
X0438837Y0354979D01*
X0438736Y0354857D01*
X0438632Y0354738D01*
X0438525Y0354621D01*
X0438415Y0354507D01*
X0438302Y0354396D01*
X0438187Y0354287D01*
X0438069Y0354182D01*
X0437948Y0354080D01*
X0437825Y0353980D01*
X0437699Y0353884D01*
X0437571Y0353791D01*
X0437441Y0353701D01*
X0437308Y0353615D01*
X0437173Y0353531D01*
X0437037Y0353452D01*
X0436898Y0353375D01*
X0436757Y0353303D01*
X0436615Y0353233D01*
X0436471Y0353168D01*
X0436325Y0353106D01*
X0436178Y0353048D01*
X0436029Y0352993D01*
X0435879Y0352942D01*
X0435728Y0352895D01*
X0435576Y0352852D01*
X0435423Y0352813D01*
X0435268Y0352777D01*
X0435113Y0352746D01*
X0434957Y0352718D01*
X0434801Y0352694D01*
X0434644Y0352674D01*
X0434486Y0352658D01*
X0434329Y0352646D01*
X0434170Y0352638D01*
X0434012Y0352634D01*
X0433854Y0352634D01*
X0433696Y0352638D01*
X0433537Y0352646D01*
X0433380Y0352658D01*
X0433222Y0352674D01*
X0433065Y0352694D01*
X0432909Y0352718D01*
X0432753Y0352746D01*
X0432598Y0352777D01*
X0432443Y0352813D01*
X0432290Y0352852D01*
X0432138Y0352895D01*
X0431987Y0352942D01*
X0431837Y0352993D01*
X0431688Y0353048D01*
X0431541Y0353106D01*
X0431395Y0353168D01*
X0431251Y0353233D01*
X0431109Y0353303D01*
X0430968Y0353375D01*
X0430829Y0353452D01*
X0430693Y0353531D01*
X0430558Y0353615D01*
X0430425Y0353701D01*
X0430295Y0353791D01*
X0430167Y0353884D01*
X0430041Y0353980D01*
X0429918Y0354080D01*
X0429797Y0354182D01*
X0429679Y0354287D01*
X0429564Y0354396D01*
X0429451Y0354507D01*
X0429341Y0354621D01*
X0429234Y0354738D01*
X0429130Y0354857D01*
X0429029Y0354979D01*
X0428932Y0355104D01*
X0428837Y0355231D01*
X0428746Y0355360D01*
X0428657Y0355491D01*
X0428573Y0355625D01*
X0428491Y0355761D01*
X0428413Y0355898D01*
X0428339Y0356038D01*
X0428268Y0356180D01*
X0428200Y0356323D01*
X0428136Y0356468D01*
X0428076Y0356614D01*
X0428020Y0356762D01*
X0427967Y0356911D01*
X0427918Y0357062D01*
X0427873Y0357214D01*
X0427832Y0357367D01*
X0427794Y0357520D01*
X0427761Y0357675D01*
X0427731Y0357831D01*
X0427705Y0357987D01*
X0427684Y0358144D01*
X0427666Y0358301D01*
X0427652Y0358459D01*
X0427642Y0358617D01*
X0427636Y0358775D01*
X0427634Y0358933D01*
X0095134Y0358933D02*
X0095136Y0359091D01*
X0095142Y0359249D01*
X0095152Y0359407D01*
X0095166Y0359565D01*
X0095184Y0359722D01*
X0095205Y0359879D01*
X0095231Y0360035D01*
X0095261Y0360191D01*
X0095294Y0360346D01*
X0095332Y0360499D01*
X0095373Y0360652D01*
X0095418Y0360804D01*
X0095467Y0360955D01*
X0095520Y0361104D01*
X0095576Y0361252D01*
X0095636Y0361398D01*
X0095700Y0361543D01*
X0095768Y0361686D01*
X0095839Y0361828D01*
X0095913Y0361968D01*
X0095991Y0362105D01*
X0096073Y0362241D01*
X0096157Y0362375D01*
X0096246Y0362506D01*
X0096337Y0362635D01*
X0096432Y0362762D01*
X0096529Y0362887D01*
X0096630Y0363009D01*
X0096734Y0363128D01*
X0096841Y0363245D01*
X0096951Y0363359D01*
X0097064Y0363470D01*
X0097179Y0363579D01*
X0097297Y0363684D01*
X0097418Y0363786D01*
X0097541Y0363886D01*
X0097667Y0363982D01*
X0097795Y0364075D01*
X0097925Y0364165D01*
X0098058Y0364251D01*
X0098193Y0364335D01*
X0098329Y0364414D01*
X0098468Y0364491D01*
X0098609Y0364563D01*
X0098751Y0364633D01*
X0098895Y0364698D01*
X0099041Y0364760D01*
X0099188Y0364818D01*
X0099337Y0364873D01*
X0099487Y0364924D01*
X0099638Y0364971D01*
X0099790Y0365014D01*
X0099943Y0365053D01*
X0100098Y0365089D01*
X0100253Y0365120D01*
X0100409Y0365148D01*
X0100565Y0365172D01*
X0100722Y0365192D01*
X0100880Y0365208D01*
X0101037Y0365220D01*
X0101196Y0365228D01*
X0101354Y0365232D01*
X0101512Y0365232D01*
X0101670Y0365228D01*
X0101829Y0365220D01*
X0101986Y0365208D01*
X0102144Y0365192D01*
X0102301Y0365172D01*
X0102457Y0365148D01*
X0102613Y0365120D01*
X0102768Y0365089D01*
X0102923Y0365053D01*
X0103076Y0365014D01*
X0103228Y0364971D01*
X0103379Y0364924D01*
X0103529Y0364873D01*
X0103678Y0364818D01*
X0103825Y0364760D01*
X0103971Y0364698D01*
X0104115Y0364633D01*
X0104257Y0364563D01*
X0104398Y0364491D01*
X0104537Y0364414D01*
X0104673Y0364335D01*
X0104808Y0364251D01*
X0104941Y0364165D01*
X0105071Y0364075D01*
X0105199Y0363982D01*
X0105325Y0363886D01*
X0105448Y0363786D01*
X0105569Y0363684D01*
X0105687Y0363579D01*
X0105802Y0363470D01*
X0105915Y0363359D01*
X0106025Y0363245D01*
X0106132Y0363128D01*
X0106236Y0363009D01*
X0106337Y0362887D01*
X0106434Y0362762D01*
X0106529Y0362635D01*
X0106620Y0362506D01*
X0106709Y0362375D01*
X0106793Y0362241D01*
X0106875Y0362105D01*
X0106953Y0361968D01*
X0107027Y0361828D01*
X0107098Y0361686D01*
X0107166Y0361543D01*
X0107230Y0361398D01*
X0107290Y0361252D01*
X0107346Y0361104D01*
X0107399Y0360955D01*
X0107448Y0360804D01*
X0107493Y0360652D01*
X0107534Y0360499D01*
X0107572Y0360346D01*
X0107605Y0360191D01*
X0107635Y0360035D01*
X0107661Y0359879D01*
X0107682Y0359722D01*
X0107700Y0359565D01*
X0107714Y0359407D01*
X0107724Y0359249D01*
X0107730Y0359091D01*
X0107732Y0358933D01*
X0107730Y0358775D01*
X0107724Y0358617D01*
X0107714Y0358459D01*
X0107700Y0358301D01*
X0107682Y0358144D01*
X0107661Y0357987D01*
X0107635Y0357831D01*
X0107605Y0357675D01*
X0107572Y0357520D01*
X0107534Y0357367D01*
X0107493Y0357214D01*
X0107448Y0357062D01*
X0107399Y0356911D01*
X0107346Y0356762D01*
X0107290Y0356614D01*
X0107230Y0356468D01*
X0107166Y0356323D01*
X0107098Y0356180D01*
X0107027Y0356038D01*
X0106953Y0355898D01*
X0106875Y0355761D01*
X0106793Y0355625D01*
X0106709Y0355491D01*
X0106620Y0355360D01*
X0106529Y0355231D01*
X0106434Y0355104D01*
X0106337Y0354979D01*
X0106236Y0354857D01*
X0106132Y0354738D01*
X0106025Y0354621D01*
X0105915Y0354507D01*
X0105802Y0354396D01*
X0105687Y0354287D01*
X0105569Y0354182D01*
X0105448Y0354080D01*
X0105325Y0353980D01*
X0105199Y0353884D01*
X0105071Y0353791D01*
X0104941Y0353701D01*
X0104808Y0353615D01*
X0104673Y0353531D01*
X0104537Y0353452D01*
X0104398Y0353375D01*
X0104257Y0353303D01*
X0104115Y0353233D01*
X0103971Y0353168D01*
X0103825Y0353106D01*
X0103678Y0353048D01*
X0103529Y0352993D01*
X0103379Y0352942D01*
X0103228Y0352895D01*
X0103076Y0352852D01*
X0102923Y0352813D01*
X0102768Y0352777D01*
X0102613Y0352746D01*
X0102457Y0352718D01*
X0102301Y0352694D01*
X0102144Y0352674D01*
X0101986Y0352658D01*
X0101829Y0352646D01*
X0101670Y0352638D01*
X0101512Y0352634D01*
X0101354Y0352634D01*
X0101196Y0352638D01*
X0101037Y0352646D01*
X0100880Y0352658D01*
X0100722Y0352674D01*
X0100565Y0352694D01*
X0100409Y0352718D01*
X0100253Y0352746D01*
X0100098Y0352777D01*
X0099943Y0352813D01*
X0099790Y0352852D01*
X0099638Y0352895D01*
X0099487Y0352942D01*
X0099337Y0352993D01*
X0099188Y0353048D01*
X0099041Y0353106D01*
X0098895Y0353168D01*
X0098751Y0353233D01*
X0098609Y0353303D01*
X0098468Y0353375D01*
X0098329Y0353452D01*
X0098193Y0353531D01*
X0098058Y0353615D01*
X0097925Y0353701D01*
X0097795Y0353791D01*
X0097667Y0353884D01*
X0097541Y0353980D01*
X0097418Y0354080D01*
X0097297Y0354182D01*
X0097179Y0354287D01*
X0097064Y0354396D01*
X0096951Y0354507D01*
X0096841Y0354621D01*
X0096734Y0354738D01*
X0096630Y0354857D01*
X0096529Y0354979D01*
X0096432Y0355104D01*
X0096337Y0355231D01*
X0096246Y0355360D01*
X0096157Y0355491D01*
X0096073Y0355625D01*
X0095991Y0355761D01*
X0095913Y0355898D01*
X0095839Y0356038D01*
X0095768Y0356180D01*
X0095700Y0356323D01*
X0095636Y0356468D01*
X0095576Y0356614D01*
X0095520Y0356762D01*
X0095467Y0356911D01*
X0095418Y0357062D01*
X0095373Y0357214D01*
X0095332Y0357367D01*
X0095294Y0357520D01*
X0095261Y0357675D01*
X0095231Y0357831D01*
X0095205Y0357987D01*
X0095184Y0358144D01*
X0095166Y0358301D01*
X0095152Y0358459D01*
X0095142Y0358617D01*
X0095136Y0358775D01*
X0095134Y0358933D01*
D11*
X0127130Y0325191D02*
X0126063Y0324123D01*
X0126063Y0323056D01*
X0127130Y0321988D01*
X0128211Y0321988D02*
X0130346Y0321988D01*
X0129279Y0321988D02*
X0129279Y0325191D01*
X0128211Y0324123D01*
X0131434Y0323589D02*
X0131434Y0325191D01*
X0133569Y0325191D01*
X0134657Y0325191D02*
X0135724Y0324123D01*
X0135724Y0323056D01*
X0134657Y0321988D01*
X0133569Y0322522D02*
X0133035Y0321988D01*
X0131968Y0321988D01*
X0131434Y0322522D01*
X0131434Y0323589D02*
X0132501Y0324123D01*
X0133035Y0324123D01*
X0133569Y0323589D01*
X0133569Y0322522D01*
X0130838Y0315973D02*
X0131906Y0314905D01*
X0131906Y0313838D01*
X0130838Y0312770D01*
X0129217Y0312770D02*
X0129217Y0315973D01*
X0127616Y0314371D01*
X0129751Y0314371D01*
X0126528Y0312770D02*
X0124393Y0312770D01*
X0125460Y0312770D02*
X0125460Y0315973D01*
X0124393Y0314905D01*
X0123312Y0315973D02*
X0122244Y0314905D01*
X0122244Y0313838D01*
X0123312Y0312770D01*
X0124341Y0306618D02*
X0125408Y0306618D01*
X0125942Y0306084D01*
X0125942Y0305551D01*
X0125408Y0305017D01*
X0125942Y0304483D01*
X0125942Y0303949D01*
X0125408Y0303416D01*
X0124341Y0303416D01*
X0123807Y0303949D01*
X0122719Y0303416D02*
X0120584Y0303416D01*
X0121652Y0303416D02*
X0121652Y0306618D01*
X0120584Y0305551D01*
X0119503Y0306618D02*
X0118436Y0305551D01*
X0118436Y0304483D01*
X0119503Y0303416D01*
X0123807Y0306084D02*
X0124341Y0306618D01*
X0124875Y0305017D02*
X0125408Y0305017D01*
X0127030Y0306618D02*
X0128097Y0305551D01*
X0128097Y0304483D01*
X0127030Y0303416D01*
X0122991Y0297028D02*
X0124059Y0295960D01*
X0124059Y0294893D01*
X0122991Y0293825D01*
X0121903Y0293825D02*
X0119768Y0293825D01*
X0121903Y0295960D01*
X0121903Y0296494D01*
X0121370Y0297028D01*
X0120302Y0297028D01*
X0119768Y0296494D01*
X0117613Y0297028D02*
X0117613Y0293825D01*
X0116545Y0293825D02*
X0118681Y0293825D01*
X0116545Y0295960D02*
X0117613Y0297028D01*
X0115465Y0297028D02*
X0114397Y0295960D01*
X0114397Y0294893D01*
X0115465Y0293825D01*
X0109564Y0280870D02*
X0110632Y0279802D01*
X0110632Y0278734D01*
X0109564Y0277667D01*
X0108477Y0278201D02*
X0107943Y0277667D01*
X0106875Y0277667D01*
X0106342Y0278201D01*
X0106342Y0279268D02*
X0107409Y0279802D01*
X0107943Y0279802D01*
X0108477Y0279268D01*
X0108477Y0278201D01*
X0106342Y0279268D02*
X0106342Y0280870D01*
X0108477Y0280870D01*
X0104187Y0280870D02*
X0104187Y0277667D01*
X0105254Y0277667D02*
X0103119Y0277667D01*
X0102038Y0277667D02*
X0100970Y0278734D01*
X0100970Y0279802D01*
X0102038Y0280870D01*
X0103119Y0279802D02*
X0104187Y0280870D01*
X0104187Y0270892D02*
X0104187Y0267689D01*
X0105254Y0267689D02*
X0103119Y0267689D01*
X0102038Y0267689D02*
X0100970Y0268757D01*
X0100970Y0269824D01*
X0102038Y0270892D01*
X0103119Y0269824D02*
X0104187Y0270892D01*
X0106342Y0269291D02*
X0108477Y0269291D01*
X0107943Y0270892D02*
X0106342Y0269291D01*
X0107943Y0267689D02*
X0107943Y0270892D01*
X0109564Y0270892D02*
X0110632Y0269824D01*
X0110632Y0268757D01*
X0109564Y0267689D01*
X0109626Y0260792D02*
X0110693Y0259725D01*
X0110693Y0258657D01*
X0109626Y0257589D01*
X0108538Y0258123D02*
X0108004Y0257589D01*
X0106937Y0257589D01*
X0106403Y0258123D01*
X0105315Y0257589D02*
X0103180Y0257589D01*
X0104248Y0257589D02*
X0104248Y0260792D01*
X0103180Y0259725D01*
X0102099Y0260792D02*
X0101032Y0259725D01*
X0101032Y0258657D01*
X0102099Y0257589D01*
X0106403Y0260258D02*
X0106937Y0260792D01*
X0108004Y0260792D01*
X0108538Y0260258D01*
X0108538Y0259725D01*
X0108004Y0259191D01*
X0108538Y0258657D01*
X0108538Y0258123D01*
X0108004Y0259191D02*
X0107470Y0259191D01*
X0107943Y0250386D02*
X0106875Y0250386D01*
X0106342Y0249852D01*
X0107943Y0250386D02*
X0108477Y0249852D01*
X0108477Y0249319D01*
X0106342Y0247183D01*
X0108477Y0247183D01*
X0109564Y0247183D02*
X0110632Y0248251D01*
X0110632Y0249319D01*
X0109564Y0250386D01*
X0105254Y0247183D02*
X0103119Y0247183D01*
X0104187Y0247183D02*
X0104187Y0250386D01*
X0103119Y0249319D01*
X0102038Y0250386D02*
X0100970Y0249319D01*
X0100970Y0248251D01*
X0102038Y0247183D01*
X0122001Y0248173D02*
X0122001Y0249241D01*
X0123069Y0250309D01*
X0124150Y0249241D02*
X0125218Y0250309D01*
X0125218Y0247106D01*
X0126285Y0247106D02*
X0124150Y0247106D01*
X0123069Y0247106D02*
X0122001Y0248173D01*
X0127373Y0247106D02*
X0129508Y0249241D01*
X0129508Y0249775D01*
X0128974Y0250309D01*
X0127906Y0250309D01*
X0127373Y0249775D01*
X0127373Y0247106D02*
X0129508Y0247106D01*
X0130595Y0247106D02*
X0131663Y0248173D01*
X0131663Y0249241D01*
X0130595Y0250309D01*
X0130657Y0257512D02*
X0131724Y0258579D01*
X0131724Y0259647D01*
X0130657Y0260715D01*
X0129569Y0260181D02*
X0129569Y0259647D01*
X0129035Y0259113D01*
X0129569Y0258579D01*
X0129569Y0258046D01*
X0129035Y0257512D01*
X0127968Y0257512D01*
X0127434Y0258046D01*
X0126346Y0257512D02*
X0124211Y0257512D01*
X0125279Y0257512D02*
X0125279Y0260715D01*
X0124211Y0259647D01*
X0123130Y0260715D02*
X0122063Y0259647D01*
X0122063Y0258579D01*
X0123130Y0257512D01*
X0127434Y0260181D02*
X0127968Y0260715D01*
X0129035Y0260715D01*
X0129569Y0260181D01*
X0129035Y0259113D02*
X0128501Y0259113D01*
X0128974Y0267612D02*
X0128974Y0270814D01*
X0127373Y0269213D01*
X0129508Y0269213D01*
X0130595Y0267612D02*
X0131663Y0268679D01*
X0131663Y0269747D01*
X0130595Y0270814D01*
X0126285Y0267612D02*
X0124150Y0267612D01*
X0125218Y0267612D02*
X0125218Y0270814D01*
X0124150Y0269747D01*
X0123069Y0270814D02*
X0122001Y0269747D01*
X0122001Y0268679D01*
X0123069Y0267612D01*
X0123069Y0277589D02*
X0122001Y0278657D01*
X0122001Y0279724D01*
X0123069Y0280792D01*
X0124150Y0279724D02*
X0125218Y0280792D01*
X0125218Y0277589D01*
X0126285Y0277589D02*
X0124150Y0277589D01*
X0127373Y0278123D02*
X0127906Y0277589D01*
X0128974Y0277589D01*
X0129508Y0278123D01*
X0129508Y0279191D01*
X0128974Y0279724D01*
X0128440Y0279724D01*
X0127373Y0279191D01*
X0127373Y0280792D01*
X0129508Y0280792D01*
X0130595Y0280792D02*
X0131663Y0279724D01*
X0131663Y0278657D01*
X0130595Y0277589D01*
X0158691Y0277799D02*
X0159309Y0277182D01*
X0160543Y0277182D01*
X0161160Y0277799D01*
X0161160Y0279034D01*
X0160543Y0279651D01*
X0159926Y0279651D01*
X0158691Y0279034D01*
X0158691Y0280885D01*
X0161160Y0280885D01*
X0162374Y0280885D02*
X0162374Y0278416D01*
X0163609Y0277182D01*
X0164843Y0278416D01*
X0164843Y0280885D01*
X0169683Y0281163D02*
X0169683Y0277460D01*
X0169683Y0278695D02*
X0171535Y0278695D01*
X0172152Y0279312D01*
X0172152Y0280546D01*
X0171535Y0281163D01*
X0169683Y0281163D01*
X0170918Y0278695D02*
X0172152Y0277460D01*
X0179056Y0278204D02*
X0179673Y0277587D01*
X0180908Y0277587D01*
X0181525Y0278204D01*
X0181525Y0279439D01*
X0180291Y0279439D01*
X0181525Y0280673D02*
X0180908Y0281290D01*
X0179673Y0281290D01*
X0179056Y0280673D01*
X0179056Y0278204D01*
X0164886Y0330538D02*
X0163491Y0331116D01*
X0163083Y0332102D01*
X0163661Y0333497D01*
X0164863Y0333417D02*
X0165152Y0334115D01*
X0166139Y0334523D01*
X0166836Y0334234D01*
X0165681Y0331445D01*
X0166378Y0331156D01*
X0167364Y0331564D01*
X0167653Y0332262D01*
X0166836Y0334234D01*
X0167637Y0335144D02*
X0169031Y0334566D01*
X0169440Y0333580D01*
X0168862Y0332185D01*
X0165681Y0331445D02*
X0164863Y0333417D01*
X0172322Y0335929D02*
X0172899Y0337324D01*
X0172322Y0335929D02*
X0172730Y0334942D01*
X0174125Y0334365D01*
X0175124Y0334778D02*
X0177096Y0335595D01*
X0176110Y0335187D02*
X0174884Y0338146D01*
X0174307Y0336751D01*
X0176875Y0338971D02*
X0178270Y0338393D01*
X0178679Y0337406D01*
X0178101Y0336012D01*
X0181969Y0338769D02*
X0181560Y0339756D01*
X0182138Y0341150D01*
X0183341Y0341071D02*
X0183630Y0341768D01*
X0184616Y0342177D01*
X0185314Y0341888D01*
X0185518Y0341395D01*
X0184362Y0338605D01*
X0186335Y0339422D01*
X0187340Y0339838D02*
X0187918Y0341233D01*
X0187509Y0342220D01*
X0186114Y0342797D01*
X0190799Y0343582D02*
X0191377Y0344977D01*
X0192580Y0344898D02*
X0192869Y0345595D01*
X0193855Y0346004D01*
X0194552Y0345715D01*
X0194757Y0345222D01*
X0194468Y0344524D01*
X0195165Y0344235D01*
X0195370Y0343742D01*
X0195081Y0343045D01*
X0194094Y0342636D01*
X0193397Y0342925D01*
X0192603Y0342018D02*
X0191208Y0342596D01*
X0190799Y0343582D01*
X0193975Y0344320D02*
X0194468Y0344524D01*
X0196579Y0343665D02*
X0197156Y0345060D01*
X0196748Y0346046D01*
X0195353Y0346624D01*
X0209429Y0356406D02*
X0209429Y0357473D01*
X0210497Y0358541D01*
X0211578Y0358007D02*
X0212112Y0358541D01*
X0213179Y0358541D01*
X0213713Y0358007D01*
X0211578Y0355872D01*
X0212112Y0355338D01*
X0213179Y0355338D01*
X0213713Y0355872D01*
X0213713Y0358007D01*
X0214800Y0358541D02*
X0215868Y0357473D01*
X0215868Y0356406D01*
X0214800Y0355338D01*
X0211578Y0355872D02*
X0211578Y0358007D01*
X0209429Y0356406D02*
X0210497Y0355338D01*
X0219429Y0356406D02*
X0219429Y0357473D01*
X0220497Y0358541D01*
X0221578Y0357473D02*
X0222645Y0358541D01*
X0222645Y0355338D01*
X0221578Y0355338D02*
X0223713Y0355338D01*
X0224800Y0355338D02*
X0225868Y0356406D01*
X0225868Y0357473D01*
X0224800Y0358541D01*
X0229429Y0357473D02*
X0229429Y0356406D01*
X0230497Y0355338D01*
X0231578Y0355338D02*
X0233713Y0357473D01*
X0233713Y0358007D01*
X0233179Y0358541D01*
X0232112Y0358541D01*
X0231578Y0358007D01*
X0230497Y0358541D02*
X0229429Y0357473D01*
X0231578Y0355338D02*
X0233713Y0355338D01*
X0234800Y0355338D02*
X0235868Y0356406D01*
X0235868Y0357473D01*
X0234800Y0358541D01*
X0239429Y0357473D02*
X0240497Y0358541D01*
X0241578Y0358007D02*
X0242112Y0358541D01*
X0243179Y0358541D01*
X0243713Y0358007D01*
X0243713Y0357473D01*
X0243179Y0356939D01*
X0243713Y0356406D01*
X0243713Y0355872D01*
X0243179Y0355338D01*
X0242112Y0355338D01*
X0241578Y0355872D01*
X0240497Y0355338D02*
X0239429Y0356406D01*
X0239429Y0357473D01*
X0242645Y0356939D02*
X0243179Y0356939D01*
X0244800Y0355338D02*
X0245868Y0356406D01*
X0245868Y0357473D01*
X0244800Y0358541D01*
X0263093Y0347316D02*
X0264327Y0348550D01*
X0263093Y0347316D02*
X0263093Y0346081D01*
X0264327Y0344847D01*
X0265548Y0346699D02*
X0268017Y0346699D01*
X0266782Y0347933D02*
X0266782Y0345464D01*
X0269231Y0344847D02*
X0270466Y0346081D01*
X0270466Y0347316D01*
X0269231Y0348550D01*
X0273811Y0347428D02*
X0275045Y0348662D01*
X0273811Y0347428D02*
X0273811Y0346193D01*
X0275045Y0344959D01*
X0276266Y0346811D02*
X0278735Y0346811D01*
X0279949Y0348662D02*
X0281183Y0347428D01*
X0281183Y0346193D01*
X0279949Y0344959D01*
X0294716Y0337153D02*
X0295784Y0338221D01*
X0296864Y0337687D02*
X0297398Y0338221D01*
X0298466Y0338221D01*
X0299000Y0337687D01*
X0296864Y0335552D01*
X0297398Y0335018D01*
X0298466Y0335018D01*
X0299000Y0335552D01*
X0299000Y0337687D01*
X0300087Y0338221D02*
X0301155Y0337153D01*
X0301155Y0336086D01*
X0300087Y0335018D01*
X0296864Y0335552D02*
X0296864Y0337687D01*
X0294716Y0337153D02*
X0294716Y0336086D01*
X0295784Y0335018D01*
X0304716Y0336086D02*
X0304716Y0337153D01*
X0305784Y0338221D01*
X0306864Y0337153D02*
X0307932Y0338221D01*
X0307932Y0335018D01*
X0306864Y0335018D02*
X0309000Y0335018D01*
X0310087Y0335018D02*
X0311155Y0336086D01*
X0311155Y0337153D01*
X0310087Y0338221D01*
X0314716Y0337153D02*
X0314716Y0336086D01*
X0315784Y0335018D01*
X0316864Y0335018D02*
X0319000Y0337153D01*
X0319000Y0337687D01*
X0318466Y0338221D01*
X0317398Y0338221D01*
X0316864Y0337687D01*
X0315784Y0338221D02*
X0314716Y0337153D01*
X0316864Y0335018D02*
X0319000Y0335018D01*
X0320087Y0335018D02*
X0321155Y0336086D01*
X0321155Y0337153D01*
X0320087Y0338221D01*
X0324716Y0337153D02*
X0324716Y0336086D01*
X0325784Y0335018D01*
X0326864Y0335552D02*
X0327398Y0335018D01*
X0328466Y0335018D01*
X0329000Y0335552D01*
X0329000Y0336086D01*
X0328466Y0336620D01*
X0327932Y0336620D01*
X0328466Y0336620D02*
X0329000Y0337153D01*
X0329000Y0337687D01*
X0328466Y0338221D01*
X0327398Y0338221D01*
X0326864Y0337687D01*
X0325784Y0338221D02*
X0324716Y0337153D01*
X0330087Y0338221D02*
X0331155Y0337153D01*
X0331155Y0336086D01*
X0330087Y0335018D01*
X0344576Y0345620D02*
X0343998Y0347015D01*
X0344407Y0348001D01*
X0345802Y0348579D01*
X0346596Y0347672D02*
X0345779Y0345700D01*
X0348569Y0346855D01*
X0347752Y0344882D01*
X0347054Y0344594D01*
X0346068Y0345002D01*
X0345779Y0345700D01*
X0346596Y0347672D02*
X0347293Y0347961D01*
X0348280Y0347552D01*
X0348569Y0346855D01*
X0349778Y0346932D02*
X0350355Y0345537D01*
X0349947Y0344551D01*
X0348552Y0343973D01*
X0353237Y0343188D02*
X0353646Y0344174D01*
X0355040Y0344752D01*
X0355630Y0343352D02*
X0357025Y0343930D01*
X0355800Y0340971D01*
X0356786Y0340562D02*
X0354813Y0341380D01*
X0353815Y0341793D02*
X0353237Y0343188D01*
X0357791Y0340146D02*
X0359186Y0340724D01*
X0359594Y0341710D01*
X0359016Y0343105D01*
X0362884Y0340348D02*
X0362476Y0339361D01*
X0363054Y0337966D01*
X0364052Y0337553D02*
X0366842Y0338708D01*
X0367046Y0339201D01*
X0366757Y0339899D01*
X0365771Y0340307D01*
X0365074Y0340019D01*
X0364279Y0340925D02*
X0362884Y0340348D01*
X0364052Y0337553D02*
X0366025Y0336736D01*
X0367030Y0336319D02*
X0368424Y0336897D01*
X0368833Y0337883D01*
X0368255Y0339278D01*
X0372123Y0336521D02*
X0373518Y0337098D01*
X0374312Y0336192D02*
X0375010Y0336481D01*
X0375996Y0336072D01*
X0376285Y0335375D01*
X0376081Y0334881D01*
X0375383Y0334593D01*
X0375672Y0333895D01*
X0375468Y0333402D01*
X0374770Y0333113D01*
X0373784Y0333522D01*
X0373495Y0334219D01*
X0372292Y0334140D02*
X0371715Y0335534D01*
X0372123Y0336521D01*
X0374890Y0334797D02*
X0375383Y0334593D01*
X0377494Y0335452D02*
X0378072Y0334057D01*
X0377663Y0333070D01*
X0376268Y0332493D01*
X0418193Y0328467D02*
X0418193Y0327399D01*
X0419261Y0326331D01*
X0420341Y0327933D02*
X0422477Y0327933D01*
X0421943Y0329534D02*
X0420341Y0327933D01*
X0419261Y0329534D02*
X0418193Y0328467D01*
X0421943Y0329534D02*
X0421943Y0326331D01*
X0423564Y0326331D02*
X0424632Y0327399D01*
X0424632Y0328467D01*
X0423564Y0329534D01*
X0423079Y0320316D02*
X0422011Y0319248D01*
X0422011Y0318181D01*
X0423079Y0317113D01*
X0424160Y0317647D02*
X0424693Y0317113D01*
X0425761Y0317113D01*
X0426295Y0317647D01*
X0426295Y0318715D01*
X0425761Y0319248D01*
X0425227Y0319248D01*
X0424160Y0318715D01*
X0424160Y0320316D01*
X0426295Y0320316D01*
X0427382Y0320316D02*
X0428450Y0319248D01*
X0428450Y0318181D01*
X0427382Y0317113D01*
X0427000Y0311008D02*
X0425933Y0309941D01*
X0425933Y0308873D01*
X0427000Y0307806D01*
X0428081Y0308339D02*
X0428615Y0307806D01*
X0429683Y0307806D01*
X0430216Y0308339D01*
X0430216Y0308873D01*
X0429683Y0309407D01*
X0428081Y0309407D01*
X0428081Y0308339D01*
X0428081Y0309407D02*
X0429149Y0310475D01*
X0430216Y0311008D01*
X0431304Y0311008D02*
X0432372Y0309941D01*
X0432372Y0308873D01*
X0431304Y0307806D01*
X0430926Y0301371D02*
X0429858Y0300303D01*
X0429858Y0299236D01*
X0430926Y0298168D01*
X0432007Y0298168D02*
X0432007Y0298702D01*
X0434142Y0300837D01*
X0434142Y0301371D01*
X0432007Y0301371D01*
X0435230Y0301371D02*
X0436297Y0300303D01*
X0436297Y0299236D01*
X0435230Y0298168D01*
X0439448Y0281844D02*
X0438380Y0280776D01*
X0438380Y0279709D01*
X0439448Y0278641D01*
X0440529Y0280242D02*
X0442664Y0280242D01*
X0442130Y0278641D02*
X0442130Y0281844D01*
X0440529Y0280242D01*
X0443752Y0278641D02*
X0444819Y0279709D01*
X0444819Y0280776D01*
X0443752Y0281844D01*
X0443752Y0271866D02*
X0444819Y0270799D01*
X0444819Y0269731D01*
X0443752Y0268663D01*
X0442664Y0269197D02*
X0442130Y0268663D01*
X0441063Y0268663D01*
X0440529Y0269197D01*
X0440529Y0270265D02*
X0441596Y0270799D01*
X0442130Y0270799D01*
X0442664Y0270265D01*
X0442664Y0269197D01*
X0440529Y0270265D02*
X0440529Y0271866D01*
X0442664Y0271866D01*
X0439448Y0271866D02*
X0438380Y0270799D01*
X0438380Y0269731D01*
X0439448Y0268663D01*
X0439509Y0261766D02*
X0438442Y0260699D01*
X0438442Y0259631D01*
X0439509Y0258563D01*
X0440590Y0259097D02*
X0441124Y0258563D01*
X0442191Y0258563D01*
X0442725Y0259097D01*
X0442725Y0259631D01*
X0442191Y0260165D01*
X0440590Y0260165D01*
X0440590Y0259097D01*
X0440590Y0260165D02*
X0441658Y0261232D01*
X0442725Y0261766D01*
X0443813Y0261766D02*
X0444880Y0260699D01*
X0444880Y0259631D01*
X0443813Y0258563D01*
X0443752Y0251360D02*
X0444819Y0250293D01*
X0444819Y0249225D01*
X0443752Y0248157D01*
X0442664Y0250826D02*
X0440529Y0248691D01*
X0440529Y0248157D01*
X0439448Y0248157D02*
X0438380Y0249225D01*
X0438380Y0250293D01*
X0439448Y0251360D01*
X0440529Y0251360D02*
X0442664Y0251360D01*
X0442664Y0250826D01*
X0423218Y0250181D02*
X0422150Y0251249D01*
X0421063Y0251249D02*
X0421063Y0250715D01*
X0418928Y0248580D01*
X0418928Y0248046D01*
X0417847Y0248046D02*
X0416779Y0249114D01*
X0416779Y0250181D01*
X0417847Y0251249D01*
X0418928Y0251249D02*
X0421063Y0251249D01*
X0423218Y0250181D02*
X0423218Y0249114D01*
X0422150Y0248046D01*
X0422212Y0258452D02*
X0423279Y0259520D01*
X0423279Y0260587D01*
X0422212Y0261655D01*
X0421124Y0261655D02*
X0420056Y0261121D01*
X0418989Y0260053D01*
X0420590Y0260053D01*
X0421124Y0259520D01*
X0421124Y0258986D01*
X0420590Y0258452D01*
X0419523Y0258452D01*
X0418989Y0258986D01*
X0418989Y0260053D01*
X0417908Y0258452D02*
X0416840Y0259520D01*
X0416840Y0260587D01*
X0417908Y0261655D01*
X0417847Y0268552D02*
X0416779Y0269620D01*
X0416779Y0270687D01*
X0417847Y0271755D01*
X0418928Y0271755D02*
X0418928Y0270153D01*
X0419995Y0270687D01*
X0420529Y0270687D01*
X0421063Y0270153D01*
X0421063Y0269086D01*
X0420529Y0268552D01*
X0419461Y0268552D01*
X0418928Y0269086D01*
X0418928Y0271755D02*
X0421063Y0271755D01*
X0422150Y0271755D02*
X0423218Y0270687D01*
X0423218Y0269620D01*
X0422150Y0268552D01*
X0422150Y0278530D02*
X0423218Y0279597D01*
X0423218Y0280665D01*
X0422150Y0281732D01*
X0420529Y0281732D02*
X0418928Y0280131D01*
X0421063Y0280131D01*
X0420529Y0278530D02*
X0420529Y0281732D01*
X0417847Y0281732D02*
X0416779Y0280665D01*
X0416779Y0279597D01*
X0417847Y0278530D01*
X0429906Y0230402D02*
X0428671Y0229167D01*
X0429906Y0230402D02*
X0431140Y0230402D01*
X0432374Y0229167D01*
X0430523Y0227953D02*
X0430523Y0225484D01*
X0432374Y0224263D02*
X0431140Y0223029D01*
X0429906Y0223029D01*
X0428671Y0224263D01*
X0429812Y0219868D02*
X0428578Y0218633D01*
X0429812Y0219868D02*
X0431047Y0219868D01*
X0432281Y0218633D01*
X0430429Y0217419D02*
X0430429Y0214950D01*
X0429195Y0216185D02*
X0431664Y0216185D01*
X0432281Y0213729D02*
X0431047Y0212495D01*
X0429812Y0212495D01*
X0428578Y0213729D01*
X0420866Y0195045D02*
X0421934Y0193977D01*
X0421934Y0192910D01*
X0420866Y0191842D01*
X0419245Y0191842D02*
X0419245Y0195045D01*
X0417643Y0193444D01*
X0419779Y0193444D01*
X0416563Y0195045D02*
X0415495Y0193977D01*
X0415495Y0192910D01*
X0416563Y0191842D01*
X0416563Y0185067D02*
X0415495Y0184000D01*
X0415495Y0182932D01*
X0416563Y0181865D01*
X0417643Y0182398D02*
X0418177Y0181865D01*
X0419245Y0181865D01*
X0419779Y0182398D01*
X0419779Y0183466D01*
X0419245Y0184000D01*
X0418711Y0184000D01*
X0417643Y0183466D01*
X0417643Y0185067D01*
X0419779Y0185067D01*
X0420866Y0185067D02*
X0421934Y0184000D01*
X0421934Y0182932D01*
X0420866Y0181865D01*
X0420927Y0174967D02*
X0421995Y0173900D01*
X0421995Y0172832D01*
X0420927Y0171765D01*
X0419840Y0172298D02*
X0419840Y0172832D01*
X0419306Y0173366D01*
X0417705Y0173366D01*
X0417705Y0172298D01*
X0418238Y0171765D01*
X0419306Y0171765D01*
X0419840Y0172298D01*
X0417705Y0173366D02*
X0418772Y0174434D01*
X0419840Y0174967D01*
X0416624Y0174967D02*
X0415556Y0173900D01*
X0415556Y0172832D01*
X0416624Y0171765D01*
X0416563Y0164561D02*
X0415495Y0163494D01*
X0415495Y0162426D01*
X0416563Y0161359D01*
X0417643Y0161359D02*
X0417643Y0161892D01*
X0419779Y0164028D01*
X0419779Y0164561D01*
X0417643Y0164561D01*
X0420866Y0164561D02*
X0421934Y0163494D01*
X0421934Y0162426D01*
X0420866Y0161359D01*
X0438321Y0162092D02*
X0438321Y0163160D01*
X0439389Y0164227D01*
X0440470Y0164227D02*
X0442605Y0164227D01*
X0442605Y0163694D01*
X0440470Y0161558D01*
X0440470Y0161025D01*
X0439389Y0161025D02*
X0438321Y0162092D01*
X0443692Y0161025D02*
X0444760Y0162092D01*
X0444760Y0163160D01*
X0443692Y0164227D01*
X0443753Y0171431D02*
X0444821Y0172498D01*
X0444821Y0173566D01*
X0443753Y0174633D01*
X0442666Y0174633D02*
X0441598Y0174100D01*
X0440531Y0173032D01*
X0442132Y0173032D01*
X0442666Y0172498D01*
X0442666Y0171964D01*
X0442132Y0171431D01*
X0441064Y0171431D01*
X0440531Y0171964D01*
X0440531Y0173032D01*
X0439450Y0174633D02*
X0438382Y0173566D01*
X0438382Y0172498D01*
X0439450Y0171431D01*
X0439389Y0181531D02*
X0438321Y0182598D01*
X0438321Y0183666D01*
X0439389Y0184733D01*
X0440470Y0184733D02*
X0440470Y0183132D01*
X0441537Y0183666D01*
X0442071Y0183666D01*
X0442605Y0183132D01*
X0442605Y0182064D01*
X0442071Y0181531D01*
X0441003Y0181531D01*
X0440470Y0182064D01*
X0440470Y0184733D02*
X0442605Y0184733D01*
X0443692Y0184733D02*
X0444760Y0183666D01*
X0444760Y0182598D01*
X0443692Y0181531D01*
X0443692Y0191508D02*
X0444760Y0192576D01*
X0444760Y0193643D01*
X0443692Y0194711D01*
X0442071Y0194711D02*
X0440470Y0193109D01*
X0442605Y0193109D01*
X0442071Y0191508D02*
X0442071Y0194711D01*
X0439389Y0194711D02*
X0438321Y0193643D01*
X0438321Y0192576D01*
X0439389Y0191508D01*
X0432299Y0145222D02*
X0433366Y0144155D01*
X0433366Y0143087D01*
X0432299Y0142019D01*
X0430677Y0142019D02*
X0430677Y0145222D01*
X0429076Y0143621D01*
X0431211Y0143621D01*
X0427995Y0145222D02*
X0426928Y0144155D01*
X0426928Y0143087D01*
X0427995Y0142019D01*
X0428481Y0136004D02*
X0429548Y0134937D01*
X0429548Y0133869D01*
X0428481Y0132801D01*
X0427393Y0133335D02*
X0426859Y0132801D01*
X0425792Y0132801D01*
X0425258Y0133335D01*
X0425258Y0134403D02*
X0426325Y0134937D01*
X0426859Y0134937D01*
X0427393Y0134403D01*
X0427393Y0133335D01*
X0425258Y0134403D02*
X0425258Y0136004D01*
X0427393Y0136004D01*
X0424177Y0136004D02*
X0423109Y0134937D01*
X0423109Y0133869D01*
X0424177Y0132801D01*
X0424672Y0126650D02*
X0425740Y0125582D01*
X0425740Y0124514D01*
X0424672Y0123447D01*
X0423584Y0123981D02*
X0423584Y0124514D01*
X0423051Y0125048D01*
X0421449Y0125048D01*
X0421449Y0123981D01*
X0421983Y0123447D01*
X0423051Y0123447D01*
X0423584Y0123981D01*
X0422517Y0126116D02*
X0421449Y0125048D01*
X0422517Y0126116D02*
X0423584Y0126650D01*
X0420368Y0126650D02*
X0419301Y0125582D01*
X0419301Y0124514D01*
X0420368Y0123447D01*
X0420633Y0117059D02*
X0421701Y0115992D01*
X0421701Y0114924D01*
X0420633Y0113856D01*
X0419546Y0116525D02*
X0417411Y0114390D01*
X0417411Y0113856D01*
X0416330Y0113856D02*
X0415262Y0114924D01*
X0415262Y0115992D01*
X0416330Y0117059D01*
X0417411Y0117059D02*
X0419546Y0117059D01*
X0419546Y0116525D01*
X0421657Y0091536D02*
X0422891Y0090302D01*
X0422891Y0089067D01*
X0421657Y0087833D01*
X0420442Y0089685D02*
X0417973Y0089685D01*
X0419208Y0090919D02*
X0419208Y0088450D01*
X0416752Y0087833D02*
X0415518Y0089067D01*
X0415518Y0090302D01*
X0416752Y0091536D01*
X0413487Y0090302D02*
X0412253Y0091536D01*
X0413487Y0090302D02*
X0413487Y0089067D01*
X0412253Y0087833D01*
X0411038Y0089685D02*
X0408570Y0089685D01*
X0407349Y0091536D02*
X0406114Y0090302D01*
X0406114Y0089067D01*
X0407349Y0087833D01*
X0391590Y0082147D02*
X0391012Y0080752D01*
X0389803Y0080829D02*
X0389514Y0080131D01*
X0388528Y0079723D01*
X0387831Y0080012D01*
X0387626Y0080505D01*
X0387915Y0081202D01*
X0388902Y0081611D01*
X0389599Y0081322D01*
X0389803Y0080829D01*
X0388902Y0081611D02*
X0389190Y0082308D01*
X0388986Y0082801D01*
X0388289Y0083090D01*
X0387302Y0082682D01*
X0387014Y0081984D01*
X0387218Y0081491D01*
X0387915Y0081202D01*
X0387036Y0079105D02*
X0385641Y0079683D01*
X0385233Y0080669D01*
X0385811Y0082064D01*
X0389787Y0083711D02*
X0391182Y0083133D01*
X0391590Y0082147D01*
X0382377Y0078565D02*
X0381799Y0077170D01*
X0380590Y0077247D02*
X0379773Y0079220D01*
X0379076Y0079509D01*
X0378089Y0079100D01*
X0377800Y0078403D01*
X0378005Y0077910D01*
X0378702Y0077621D01*
X0380182Y0078234D01*
X0380590Y0077247D02*
X0380301Y0076550D01*
X0379315Y0076141D01*
X0378618Y0076430D01*
X0377823Y0075523D02*
X0376428Y0076101D01*
X0376020Y0077088D01*
X0376598Y0078482D01*
X0374277Y0076323D02*
X0372882Y0076901D01*
X0372082Y0075991D02*
X0370926Y0073202D01*
X0371624Y0072913D01*
X0372610Y0073321D01*
X0372899Y0074019D01*
X0372082Y0075991D01*
X0371384Y0076280D01*
X0370398Y0075872D01*
X0370109Y0075174D01*
X0370926Y0073202D01*
X0370126Y0072292D02*
X0368153Y0071475D01*
X0369139Y0071884D02*
X0367914Y0074843D01*
X0367336Y0073448D01*
X0365929Y0074021D02*
X0365351Y0072626D01*
X0365759Y0071639D01*
X0367154Y0071062D01*
X0364856Y0071081D02*
X0364447Y0072067D01*
X0363052Y0072645D01*
X0361061Y0071820D02*
X0362287Y0068861D01*
X0363273Y0069270D02*
X0361300Y0068452D01*
X0360296Y0068036D02*
X0358323Y0067219D01*
X0359309Y0067628D02*
X0358084Y0070587D01*
X0357506Y0069192D01*
X0356099Y0069764D02*
X0355521Y0068370D01*
X0355929Y0067383D01*
X0357324Y0066806D01*
X0360483Y0070425D02*
X0361061Y0071820D01*
X0364278Y0069686D02*
X0364856Y0071081D01*
X0374108Y0073942D02*
X0374686Y0075337D01*
X0374277Y0076323D01*
X0380574Y0080129D02*
X0381968Y0079552D01*
X0382377Y0078565D01*
X0339347Y0081136D02*
X0339347Y0082204D01*
X0338279Y0083272D01*
X0337192Y0082738D02*
X0337192Y0082204D01*
X0336658Y0081670D01*
X0335590Y0081670D01*
X0335057Y0082204D01*
X0335057Y0082738D01*
X0335590Y0083272D01*
X0336658Y0083272D01*
X0337192Y0082738D01*
X0336658Y0081670D02*
X0337192Y0081136D01*
X0337192Y0080603D01*
X0336658Y0080069D01*
X0335590Y0080069D01*
X0335057Y0080603D01*
X0335057Y0081136D01*
X0335590Y0081670D01*
X0333976Y0080069D02*
X0332908Y0081136D01*
X0332908Y0082204D01*
X0333976Y0083272D01*
X0329465Y0082421D02*
X0328397Y0083489D01*
X0327310Y0082955D02*
X0326776Y0083489D01*
X0325708Y0083489D01*
X0325174Y0082955D01*
X0325174Y0082421D01*
X0325708Y0081887D01*
X0327310Y0081887D01*
X0327310Y0080820D02*
X0327310Y0082955D01*
X0327310Y0080820D02*
X0326776Y0080286D01*
X0325708Y0080286D01*
X0325174Y0080820D01*
X0324093Y0080286D02*
X0323026Y0081353D01*
X0323026Y0082421D01*
X0324093Y0083489D01*
X0320921Y0082246D02*
X0320921Y0081179D01*
X0319854Y0080111D01*
X0318766Y0080645D02*
X0318233Y0080111D01*
X0317165Y0080111D01*
X0316631Y0080645D01*
X0318766Y0082780D01*
X0318766Y0080645D01*
X0316631Y0080645D02*
X0316631Y0082780D01*
X0317165Y0083314D01*
X0318233Y0083314D01*
X0318766Y0082780D01*
X0319854Y0083314D02*
X0320921Y0082246D01*
X0315544Y0080111D02*
X0313408Y0080111D01*
X0314476Y0080111D02*
X0314476Y0083314D01*
X0313408Y0082246D01*
X0312327Y0083314D02*
X0311260Y0082246D01*
X0311260Y0081179D01*
X0312327Y0080111D01*
X0310490Y0081264D02*
X0310490Y0082331D01*
X0309423Y0083399D01*
X0307267Y0083399D02*
X0307267Y0080196D01*
X0306200Y0080196D02*
X0308335Y0080196D01*
X0309423Y0080196D02*
X0310490Y0081264D01*
X0307267Y0083399D02*
X0306200Y0082331D01*
X0305112Y0080196D02*
X0302977Y0080196D01*
X0304045Y0080196D02*
X0304045Y0083399D01*
X0302977Y0082331D01*
X0301896Y0083399D02*
X0300829Y0082331D01*
X0300829Y0081264D01*
X0301896Y0080196D01*
X0287973Y0084018D02*
X0287973Y0085252D01*
X0286738Y0086487D01*
X0285524Y0084635D02*
X0283055Y0084635D01*
X0284290Y0083401D02*
X0284290Y0085870D01*
X0281834Y0086487D02*
X0280600Y0085252D01*
X0280600Y0084018D01*
X0281834Y0082784D01*
X0278627Y0084152D02*
X0278627Y0085387D01*
X0277392Y0086621D01*
X0276178Y0084769D02*
X0273709Y0084769D01*
X0272488Y0082918D02*
X0271254Y0084152D01*
X0271254Y0085387D01*
X0272488Y0086621D01*
X0277392Y0082918D02*
X0278627Y0084152D01*
X0286738Y0082784D02*
X0287973Y0084018D01*
X0301666Y0064080D02*
X0300598Y0063013D01*
X0300598Y0061945D01*
X0301666Y0060877D01*
X0302747Y0060877D02*
X0304882Y0060877D01*
X0303814Y0060877D02*
X0303814Y0064080D01*
X0302747Y0063013D01*
X0305970Y0063013D02*
X0307037Y0064080D01*
X0307037Y0060877D01*
X0305970Y0060877D02*
X0308105Y0060877D01*
X0309192Y0060877D02*
X0310260Y0061945D01*
X0310260Y0063013D01*
X0309192Y0064080D01*
X0311030Y0062928D02*
X0312097Y0063995D01*
X0311030Y0062928D02*
X0311030Y0061860D01*
X0312097Y0060793D01*
X0313178Y0060793D02*
X0315313Y0060793D01*
X0314246Y0060793D02*
X0314246Y0063995D01*
X0313178Y0062928D01*
X0316401Y0063461D02*
X0316935Y0063995D01*
X0318002Y0063995D01*
X0318536Y0063461D01*
X0316401Y0061326D01*
X0316935Y0060793D01*
X0318002Y0060793D01*
X0318536Y0061326D01*
X0318536Y0063461D01*
X0319624Y0063995D02*
X0320691Y0062928D01*
X0320691Y0061860D01*
X0319624Y0060793D01*
X0316401Y0061326D02*
X0316401Y0063461D01*
X0322796Y0063102D02*
X0323863Y0064170D01*
X0324944Y0063636D02*
X0324944Y0063102D01*
X0325478Y0062568D01*
X0327079Y0062568D01*
X0327079Y0061501D02*
X0327079Y0063636D01*
X0326546Y0064170D01*
X0325478Y0064170D01*
X0324944Y0063636D01*
X0324944Y0061501D02*
X0325478Y0060967D01*
X0326546Y0060967D01*
X0327079Y0061501D01*
X0328167Y0060967D02*
X0329234Y0062035D01*
X0329234Y0063102D01*
X0328167Y0064170D01*
X0332678Y0062885D02*
X0333745Y0063953D01*
X0334826Y0063419D02*
X0334826Y0062885D01*
X0335360Y0062351D01*
X0336428Y0062351D01*
X0336962Y0061818D01*
X0336962Y0061284D01*
X0336428Y0060750D01*
X0335360Y0060750D01*
X0334826Y0061284D01*
X0334826Y0061818D01*
X0335360Y0062351D01*
X0336428Y0062351D02*
X0336962Y0062885D01*
X0336962Y0063419D01*
X0336428Y0063953D01*
X0335360Y0063953D01*
X0334826Y0063419D01*
X0332678Y0062885D02*
X0332678Y0061818D01*
X0333745Y0060750D01*
X0338049Y0060750D02*
X0339117Y0061818D01*
X0339117Y0062885D01*
X0338049Y0063953D01*
X0323863Y0060967D02*
X0322796Y0062035D01*
X0322796Y0063102D01*
X0328397Y0080286D02*
X0329465Y0081353D01*
X0329465Y0082421D01*
X0338279Y0080069D02*
X0339347Y0081136D01*
X0339052Y0142083D02*
X0336583Y0142083D01*
X0339052Y0144552D01*
X0339052Y0145169D01*
X0338435Y0145786D01*
X0337200Y0145786D01*
X0336583Y0145169D01*
X0334134Y0145786D02*
X0334134Y0142083D01*
X0332900Y0142083D02*
X0335369Y0142083D01*
X0332900Y0144552D02*
X0334134Y0145786D01*
X0329052Y0142083D02*
X0326583Y0142083D01*
X0325369Y0142083D02*
X0322900Y0142083D01*
X0324134Y0142083D02*
X0324134Y0145786D01*
X0322900Y0144552D01*
X0326583Y0144552D02*
X0327817Y0145786D01*
X0327817Y0142083D01*
X0319052Y0142700D02*
X0319052Y0145169D01*
X0316583Y0142700D01*
X0317200Y0142083D01*
X0318435Y0142083D01*
X0319052Y0142700D01*
X0316583Y0142700D02*
X0316583Y0145169D01*
X0317200Y0145786D01*
X0318435Y0145786D01*
X0319052Y0145169D01*
X0315369Y0142083D02*
X0312900Y0142083D01*
X0314134Y0142083D02*
X0314134Y0145786D01*
X0312900Y0144552D01*
X0307210Y0145169D02*
X0307210Y0142700D01*
X0306593Y0142083D01*
X0305359Y0142083D01*
X0304741Y0142700D01*
X0305359Y0143935D02*
X0307210Y0143935D01*
X0307210Y0145169D02*
X0306593Y0145786D01*
X0305359Y0145786D01*
X0304741Y0145169D01*
X0304741Y0144552D01*
X0305359Y0143935D01*
X0297210Y0144552D02*
X0296593Y0143935D01*
X0295359Y0143935D01*
X0294741Y0144552D01*
X0294741Y0145169D01*
X0295359Y0145786D01*
X0296593Y0145786D01*
X0297210Y0145169D01*
X0297210Y0144552D01*
X0296593Y0143935D02*
X0297210Y0143317D01*
X0297210Y0142700D01*
X0296593Y0142083D01*
X0295359Y0142083D01*
X0294741Y0142700D01*
X0294741Y0143317D01*
X0295359Y0143935D01*
X0287210Y0145169D02*
X0284741Y0142700D01*
X0284741Y0142083D01*
X0284741Y0145786D02*
X0287210Y0145786D01*
X0287210Y0145169D01*
X0277210Y0145786D02*
X0275976Y0145169D01*
X0274741Y0143935D01*
X0276593Y0143935D01*
X0277210Y0143317D01*
X0277210Y0142700D01*
X0276593Y0142083D01*
X0275359Y0142083D01*
X0274741Y0142700D01*
X0274741Y0143935D01*
X0267210Y0143935D02*
X0267210Y0142700D01*
X0266593Y0142083D01*
X0265359Y0142083D01*
X0264741Y0142700D01*
X0264741Y0143935D02*
X0265976Y0144552D01*
X0266593Y0144552D01*
X0267210Y0143935D01*
X0267210Y0145786D02*
X0264741Y0145786D01*
X0264741Y0143935D01*
X0257210Y0143935D02*
X0254741Y0143935D01*
X0256593Y0145786D01*
X0256593Y0142083D01*
X0247210Y0142700D02*
X0246593Y0142083D01*
X0245359Y0142083D01*
X0244741Y0142700D01*
X0245976Y0143935D02*
X0246593Y0143935D01*
X0247210Y0143317D01*
X0247210Y0142700D01*
X0246593Y0143935D02*
X0247210Y0144552D01*
X0247210Y0145169D01*
X0246593Y0145786D01*
X0245359Y0145786D01*
X0244741Y0145169D01*
X0237210Y0145169D02*
X0236593Y0145786D01*
X0235359Y0145786D01*
X0234741Y0145169D01*
X0237210Y0145169D02*
X0237210Y0144552D01*
X0234741Y0142083D01*
X0237210Y0142083D01*
X0227210Y0142083D02*
X0224741Y0142083D01*
X0225976Y0142083D02*
X0225976Y0145786D01*
X0224741Y0144552D01*
X0217210Y0145169D02*
X0214741Y0142700D01*
X0215359Y0142083D01*
X0216593Y0142083D01*
X0217210Y0142700D01*
X0217210Y0145169D01*
X0216593Y0145786D01*
X0215359Y0145786D01*
X0214741Y0145169D01*
X0214741Y0142700D01*
X0179659Y0158317D02*
X0179659Y0159552D01*
X0178425Y0160786D01*
X0177210Y0158935D02*
X0174741Y0158935D01*
X0173520Y0160786D02*
X0172286Y0159552D01*
X0172286Y0158317D01*
X0173520Y0157083D01*
X0169052Y0157700D02*
X0169052Y0160786D01*
X0166583Y0160786D02*
X0166583Y0157700D01*
X0167200Y0157083D01*
X0168435Y0157083D01*
X0169052Y0157700D01*
X0165369Y0157700D02*
X0164752Y0157083D01*
X0162900Y0157083D01*
X0162900Y0160786D01*
X0164752Y0160786D01*
X0165369Y0160169D01*
X0165369Y0159552D01*
X0164752Y0158935D01*
X0162900Y0158935D01*
X0164752Y0158935D02*
X0165369Y0158317D01*
X0165369Y0157700D01*
X0157210Y0157700D02*
X0157210Y0158935D01*
X0155976Y0158935D01*
X0157210Y0160169D02*
X0156593Y0160786D01*
X0155359Y0160786D01*
X0154741Y0160169D01*
X0154741Y0157700D01*
X0155359Y0157083D01*
X0156593Y0157083D01*
X0157210Y0157700D01*
X0147210Y0157083D02*
X0145976Y0158317D01*
X0146593Y0158317D02*
X0144741Y0158317D01*
X0144741Y0157083D02*
X0144741Y0160786D01*
X0146593Y0160786D01*
X0147210Y0160169D01*
X0147210Y0158935D01*
X0146593Y0158317D01*
X0134906Y0160563D02*
X0134906Y0161630D01*
X0133838Y0162698D01*
X0132750Y0162164D02*
X0132217Y0162698D01*
X0131149Y0162698D01*
X0130615Y0162164D01*
X0132750Y0162164D02*
X0132750Y0161630D01*
X0130615Y0159495D01*
X0132750Y0159495D01*
X0133838Y0159495D02*
X0134906Y0160563D01*
X0129528Y0159495D02*
X0127392Y0159495D01*
X0128460Y0159495D02*
X0128460Y0162698D01*
X0127392Y0161630D01*
X0126312Y0162698D02*
X0125244Y0161630D01*
X0125244Y0160563D01*
X0126312Y0159495D01*
X0126373Y0169901D02*
X0125305Y0170969D01*
X0125305Y0172036D01*
X0126373Y0173104D01*
X0127454Y0172036D02*
X0128521Y0173104D01*
X0128521Y0169901D01*
X0127454Y0169901D02*
X0129589Y0169901D01*
X0130676Y0170435D02*
X0131210Y0169901D01*
X0132278Y0169901D01*
X0132812Y0170435D01*
X0132812Y0170969D01*
X0132278Y0171502D01*
X0131744Y0171502D01*
X0132278Y0171502D02*
X0132812Y0172036D01*
X0132812Y0172570D01*
X0132278Y0173104D01*
X0131210Y0173104D01*
X0130676Y0172570D01*
X0133899Y0173104D02*
X0134967Y0172036D01*
X0134967Y0170969D01*
X0133899Y0169901D01*
X0133838Y0180001D02*
X0134906Y0181069D01*
X0134906Y0182136D01*
X0133838Y0183204D01*
X0132217Y0183204D02*
X0130615Y0181602D01*
X0132750Y0181602D01*
X0132217Y0180001D02*
X0132217Y0183204D01*
X0128460Y0183204D02*
X0128460Y0180001D01*
X0127392Y0180001D02*
X0129528Y0180001D01*
X0127392Y0182136D02*
X0128460Y0183204D01*
X0126312Y0183204D02*
X0125244Y0182136D01*
X0125244Y0181069D01*
X0126312Y0180001D01*
X0126312Y0189979D02*
X0125244Y0191046D01*
X0125244Y0192114D01*
X0126312Y0193181D01*
X0127392Y0192114D02*
X0128460Y0193181D01*
X0128460Y0189979D01*
X0127392Y0189979D02*
X0129528Y0189979D01*
X0130615Y0190512D02*
X0131149Y0189979D01*
X0132217Y0189979D01*
X0132750Y0190512D01*
X0132750Y0191580D01*
X0132217Y0192114D01*
X0131683Y0192114D01*
X0130615Y0191580D01*
X0130615Y0193181D01*
X0132750Y0193181D01*
X0133838Y0193181D02*
X0134906Y0192114D01*
X0134906Y0191046D01*
X0133838Y0189979D01*
X0149741Y0175786D02*
X0151593Y0175786D01*
X0152210Y0175169D01*
X0152210Y0174552D01*
X0151593Y0173935D01*
X0149741Y0173935D01*
X0149741Y0175786D02*
X0149741Y0172083D01*
X0151593Y0172083D01*
X0152210Y0172700D01*
X0152210Y0173317D01*
X0151593Y0173935D01*
X0159741Y0175169D02*
X0159741Y0172700D01*
X0160359Y0172083D01*
X0161593Y0172083D01*
X0162210Y0172700D01*
X0162210Y0175169D02*
X0161593Y0175786D01*
X0160359Y0175786D01*
X0159741Y0175169D01*
X0169741Y0174552D02*
X0169741Y0172083D01*
X0169741Y0173935D02*
X0172210Y0173935D01*
X0172210Y0174552D02*
X0172210Y0172083D01*
X0172210Y0174552D02*
X0170976Y0175786D01*
X0169741Y0174552D01*
X0179659Y0158317D02*
X0178425Y0157083D01*
X0214741Y0172700D02*
X0215359Y0172083D01*
X0216593Y0172083D01*
X0217210Y0172700D01*
X0217210Y0175169D01*
X0214741Y0172700D01*
X0214741Y0175169D01*
X0215359Y0175786D01*
X0216593Y0175786D01*
X0217210Y0175169D01*
X0224741Y0174552D02*
X0225976Y0175786D01*
X0225976Y0172083D01*
X0227210Y0172083D02*
X0224741Y0172083D01*
X0234741Y0172083D02*
X0237210Y0174552D01*
X0237210Y0175169D01*
X0236593Y0175786D01*
X0235359Y0175786D01*
X0234741Y0175169D01*
X0234741Y0172083D02*
X0237210Y0172083D01*
X0244741Y0172700D02*
X0245359Y0172083D01*
X0246593Y0172083D01*
X0247210Y0172700D01*
X0247210Y0173317D01*
X0246593Y0173935D01*
X0245976Y0173935D01*
X0246593Y0173935D02*
X0247210Y0174552D01*
X0247210Y0175169D01*
X0246593Y0175786D01*
X0245359Y0175786D01*
X0244741Y0175169D01*
X0254741Y0173935D02*
X0257210Y0173935D01*
X0256593Y0175786D02*
X0256593Y0172083D01*
X0254741Y0173935D02*
X0256593Y0175786D01*
X0264741Y0175786D02*
X0264741Y0173935D01*
X0265976Y0174552D01*
X0266593Y0174552D01*
X0267210Y0173935D01*
X0267210Y0172700D01*
X0266593Y0172083D01*
X0265359Y0172083D01*
X0264741Y0172700D01*
X0264741Y0175786D02*
X0267210Y0175786D01*
X0274741Y0173935D02*
X0276593Y0173935D01*
X0277210Y0173317D01*
X0277210Y0172700D01*
X0276593Y0172083D01*
X0275359Y0172083D01*
X0274741Y0172700D01*
X0274741Y0173935D01*
X0275976Y0175169D01*
X0277210Y0175786D01*
X0284741Y0175786D02*
X0287210Y0175786D01*
X0287210Y0175169D01*
X0284741Y0172700D01*
X0284741Y0172083D01*
X0294741Y0172700D02*
X0294741Y0173317D01*
X0295359Y0173935D01*
X0296593Y0173935D01*
X0297210Y0173317D01*
X0297210Y0172700D01*
X0296593Y0172083D01*
X0295359Y0172083D01*
X0294741Y0172700D01*
X0295359Y0173935D02*
X0294741Y0174552D01*
X0294741Y0175169D01*
X0295359Y0175786D01*
X0296593Y0175786D01*
X0297210Y0175169D01*
X0297210Y0174552D01*
X0296593Y0173935D01*
X0304741Y0174552D02*
X0305359Y0173935D01*
X0307210Y0173935D01*
X0307210Y0175169D02*
X0306593Y0175786D01*
X0305359Y0175786D01*
X0304741Y0175169D01*
X0304741Y0174552D01*
X0304741Y0172700D02*
X0305359Y0172083D01*
X0306593Y0172083D01*
X0307210Y0172700D01*
X0307210Y0175169D01*
X0312900Y0174552D02*
X0314134Y0175786D01*
X0314134Y0172083D01*
X0312900Y0172083D02*
X0315369Y0172083D01*
X0316583Y0172700D02*
X0317200Y0172083D01*
X0318435Y0172083D01*
X0319052Y0172700D01*
X0319052Y0175169D01*
X0316583Y0172700D01*
X0316583Y0175169D01*
X0317200Y0175786D01*
X0318435Y0175786D01*
X0319052Y0175169D01*
X0322900Y0174552D02*
X0324134Y0175786D01*
X0324134Y0172083D01*
X0322900Y0172083D02*
X0325369Y0172083D01*
X0326583Y0172083D02*
X0329052Y0172083D01*
X0327817Y0172083D02*
X0327817Y0175786D01*
X0326583Y0174552D01*
X0332900Y0174552D02*
X0334134Y0175786D01*
X0334134Y0172083D01*
X0332900Y0172083D02*
X0335369Y0172083D01*
X0336583Y0172083D02*
X0339052Y0174552D01*
X0339052Y0175169D01*
X0338435Y0175786D01*
X0337200Y0175786D01*
X0336583Y0175169D01*
X0336583Y0172083D02*
X0339052Y0172083D01*
X0342900Y0172083D02*
X0345369Y0172083D01*
X0344134Y0172083D02*
X0344134Y0175786D01*
X0342900Y0174552D01*
X0346583Y0175169D02*
X0347200Y0175786D01*
X0348435Y0175786D01*
X0349052Y0175169D01*
X0349052Y0174552D01*
X0348435Y0173935D01*
X0349052Y0173317D01*
X0349052Y0172700D01*
X0348435Y0172083D01*
X0347200Y0172083D01*
X0346583Y0172700D01*
X0347817Y0173935D02*
X0348435Y0173935D01*
X0352900Y0174552D02*
X0354134Y0175786D01*
X0354134Y0172083D01*
X0352900Y0172083D02*
X0355369Y0172083D01*
X0356583Y0173935D02*
X0359052Y0173935D01*
X0358435Y0175786D02*
X0356583Y0173935D01*
X0358435Y0175786D02*
X0358435Y0172083D01*
X0362900Y0172083D02*
X0365369Y0172083D01*
X0364134Y0172083D02*
X0364134Y0175786D01*
X0362900Y0174552D01*
X0366583Y0173935D02*
X0367817Y0174552D01*
X0368435Y0174552D01*
X0369052Y0173935D01*
X0369052Y0172700D01*
X0368435Y0172083D01*
X0367200Y0172083D01*
X0366583Y0172700D01*
X0366583Y0173935D02*
X0366583Y0175786D01*
X0369052Y0175786D01*
X0369052Y0145786D02*
X0366583Y0145786D01*
X0366583Y0143935D01*
X0367817Y0144552D01*
X0368435Y0144552D01*
X0369052Y0143935D01*
X0369052Y0142700D01*
X0368435Y0142083D01*
X0367200Y0142083D01*
X0366583Y0142700D01*
X0365369Y0142083D02*
X0362900Y0142083D01*
X0364134Y0142083D02*
X0364134Y0145786D01*
X0362900Y0144552D01*
X0359052Y0143935D02*
X0356583Y0143935D01*
X0358435Y0145786D01*
X0358435Y0142083D01*
X0355369Y0142083D02*
X0352900Y0142083D01*
X0354134Y0142083D02*
X0354134Y0145786D01*
X0352900Y0144552D01*
X0349052Y0144552D02*
X0348435Y0143935D01*
X0349052Y0143317D01*
X0349052Y0142700D01*
X0348435Y0142083D01*
X0347200Y0142083D01*
X0346583Y0142700D01*
X0345369Y0142083D02*
X0342900Y0142083D01*
X0344134Y0142083D02*
X0344134Y0145786D01*
X0342900Y0144552D01*
X0346583Y0145169D02*
X0347200Y0145786D01*
X0348435Y0145786D01*
X0349052Y0145169D01*
X0349052Y0144552D01*
X0348435Y0143935D02*
X0347817Y0143935D01*
X0254347Y0082204D02*
X0254347Y0081136D01*
X0253279Y0080069D01*
X0252192Y0080603D02*
X0251658Y0080069D01*
X0250590Y0080069D01*
X0250057Y0080603D01*
X0250057Y0081136D01*
X0250590Y0081670D01*
X0251658Y0081670D01*
X0252192Y0081136D01*
X0252192Y0080603D01*
X0251658Y0081670D02*
X0252192Y0082204D01*
X0252192Y0082738D01*
X0251658Y0083272D01*
X0250590Y0083272D01*
X0250057Y0082738D01*
X0250057Y0082204D01*
X0250590Y0081670D01*
X0248976Y0080069D02*
X0247908Y0081136D01*
X0247908Y0082204D01*
X0248976Y0083272D01*
X0253279Y0083272D02*
X0254347Y0082204D01*
X0244465Y0082421D02*
X0244465Y0081353D01*
X0243397Y0080286D01*
X0242310Y0080820D02*
X0242310Y0082955D01*
X0241776Y0083489D01*
X0240708Y0083489D01*
X0240174Y0082955D01*
X0240174Y0082421D01*
X0240708Y0081887D01*
X0242310Y0081887D01*
X0242310Y0080820D02*
X0241776Y0080286D01*
X0240708Y0080286D01*
X0240174Y0080820D01*
X0239093Y0080286D02*
X0238026Y0081353D01*
X0238026Y0082421D01*
X0239093Y0083489D01*
X0236056Y0082246D02*
X0234989Y0083314D01*
X0233901Y0082780D02*
X0231766Y0080645D01*
X0232300Y0080111D01*
X0233367Y0080111D01*
X0233901Y0080645D01*
X0233901Y0082780D01*
X0233367Y0083314D01*
X0232300Y0083314D01*
X0231766Y0082780D01*
X0231766Y0080645D01*
X0230678Y0080111D02*
X0228543Y0080111D01*
X0229611Y0080111D02*
X0229611Y0083314D01*
X0228543Y0082246D01*
X0227462Y0083314D02*
X0226395Y0082246D01*
X0226395Y0081179D01*
X0227462Y0080111D01*
X0225153Y0081264D02*
X0225153Y0082331D01*
X0224086Y0083399D01*
X0221931Y0083399D02*
X0221931Y0080196D01*
X0222998Y0080196D02*
X0220863Y0080196D01*
X0219775Y0080196D02*
X0217640Y0080196D01*
X0218708Y0080196D02*
X0218708Y0083399D01*
X0217640Y0082331D01*
X0216559Y0083399D02*
X0215492Y0082331D01*
X0215492Y0081264D01*
X0216559Y0080196D01*
X0220863Y0082331D02*
X0221931Y0083399D01*
X0224086Y0080196D02*
X0225153Y0081264D01*
X0234989Y0080111D02*
X0236056Y0081179D01*
X0236056Y0082246D01*
X0243397Y0083489D02*
X0244465Y0082421D01*
X0243470Y0063867D02*
X0244538Y0062799D01*
X0244538Y0061732D01*
X0243470Y0060664D01*
X0242382Y0061198D02*
X0242382Y0063333D01*
X0241849Y0063867D01*
X0240781Y0063867D01*
X0240247Y0063333D01*
X0240247Y0062799D01*
X0240781Y0062265D01*
X0242382Y0062265D01*
X0242382Y0061198D02*
X0241849Y0060664D01*
X0240781Y0060664D01*
X0240247Y0061198D01*
X0239166Y0060664D02*
X0238099Y0061732D01*
X0238099Y0062799D01*
X0239166Y0063867D01*
X0236129Y0062625D02*
X0235061Y0063692D01*
X0233974Y0063158D02*
X0231839Y0061023D01*
X0232373Y0060489D01*
X0233440Y0060489D01*
X0233974Y0061023D01*
X0233974Y0063158D01*
X0233440Y0063692D01*
X0232373Y0063692D01*
X0231839Y0063158D01*
X0231839Y0061023D01*
X0230751Y0060489D02*
X0228616Y0060489D01*
X0229684Y0060489D02*
X0229684Y0063692D01*
X0228616Y0062625D01*
X0227535Y0063692D02*
X0226467Y0062625D01*
X0226467Y0061557D01*
X0227535Y0060489D01*
X0225361Y0061642D02*
X0224293Y0060574D01*
X0223206Y0060574D02*
X0221071Y0060574D01*
X0222138Y0060574D02*
X0222138Y0063777D01*
X0221071Y0062709D01*
X0219983Y0060574D02*
X0217848Y0060574D01*
X0218915Y0060574D02*
X0218915Y0063777D01*
X0217848Y0062709D01*
X0216767Y0063777D02*
X0215699Y0062709D01*
X0215699Y0061642D01*
X0216767Y0060574D01*
X0224293Y0063777D02*
X0225361Y0062709D01*
X0225361Y0061642D01*
X0235061Y0060489D02*
X0236129Y0061557D01*
X0236129Y0062625D01*
X0247981Y0062582D02*
X0247981Y0061515D01*
X0249049Y0060447D01*
X0250129Y0060981D02*
X0250129Y0061515D01*
X0250663Y0062048D01*
X0251731Y0062048D01*
X0252265Y0061515D01*
X0252265Y0060981D01*
X0251731Y0060447D01*
X0250663Y0060447D01*
X0250129Y0060981D01*
X0250663Y0062048D02*
X0250129Y0062582D01*
X0250129Y0063116D01*
X0250663Y0063650D01*
X0251731Y0063650D01*
X0252265Y0063116D01*
X0252265Y0062582D01*
X0251731Y0062048D01*
X0253352Y0060447D02*
X0254420Y0061515D01*
X0254420Y0062582D01*
X0253352Y0063650D01*
X0249049Y0063650D02*
X0247981Y0062582D01*
X0200839Y0068470D02*
X0200262Y0069865D01*
X0199053Y0069788D02*
X0198848Y0069295D01*
X0198151Y0069006D01*
X0197165Y0069415D01*
X0196876Y0070112D01*
X0197080Y0070605D01*
X0197777Y0070894D01*
X0198764Y0070486D01*
X0199053Y0069788D01*
X0198151Y0069006D02*
X0198440Y0068309D01*
X0198235Y0067816D01*
X0197538Y0067527D01*
X0196552Y0067935D01*
X0196263Y0068633D01*
X0196467Y0069126D01*
X0197165Y0069415D01*
X0196286Y0071512D02*
X0194891Y0070934D01*
X0194482Y0069948D01*
X0195060Y0068553D01*
X0199036Y0066906D02*
X0200431Y0067484D01*
X0200839Y0068470D01*
X0191792Y0072453D02*
X0191215Y0073847D01*
X0190006Y0073771D02*
X0189717Y0074468D01*
X0188730Y0074876D01*
X0188033Y0074588D01*
X0187829Y0074094D01*
X0188118Y0073397D01*
X0189597Y0072784D01*
X0189189Y0071798D02*
X0190006Y0073771D01*
X0189189Y0071798D02*
X0188491Y0071509D01*
X0187505Y0071918D01*
X0187216Y0072615D01*
X0186013Y0072535D02*
X0185435Y0073930D01*
X0185844Y0074917D01*
X0187239Y0075494D01*
X0183967Y0075359D02*
X0183390Y0076753D01*
X0182181Y0076676D02*
X0179391Y0075521D01*
X0179680Y0074823D01*
X0180666Y0074415D01*
X0181363Y0074704D01*
X0182181Y0076676D01*
X0181892Y0077374D01*
X0180905Y0077782D01*
X0180208Y0077494D01*
X0179391Y0075521D01*
X0178182Y0075444D02*
X0176209Y0076261D01*
X0177195Y0075853D02*
X0178421Y0078811D01*
X0177026Y0078234D01*
X0176436Y0079634D02*
X0175041Y0079056D01*
X0174633Y0078070D01*
X0175211Y0076675D01*
X0173726Y0078853D02*
X0172332Y0078275D01*
X0171327Y0078691D02*
X0169354Y0079508D01*
X0170340Y0079100D02*
X0171566Y0082059D01*
X0170171Y0081481D01*
X0168349Y0079924D02*
X0166377Y0080741D01*
X0167363Y0080333D02*
X0168589Y0083292D01*
X0167194Y0082714D01*
X0166604Y0084114D02*
X0165209Y0083536D01*
X0164800Y0082550D01*
X0165378Y0081155D01*
X0173557Y0081234D02*
X0174135Y0079839D01*
X0173726Y0078853D01*
X0182164Y0073794D02*
X0183559Y0074372D01*
X0183967Y0075359D01*
X0189989Y0070889D02*
X0191384Y0071466D01*
X0191792Y0072453D01*
X0166887Y0108490D02*
X0165186Y0108490D01*
X0165186Y0109340D01*
X0165469Y0109624D01*
X0166036Y0109624D01*
X0166320Y0109340D01*
X0166320Y0108490D01*
X0166603Y0110331D02*
X0166887Y0110615D01*
X0166887Y0111466D01*
X0165753Y0111466D01*
X0165186Y0112173D02*
X0165186Y0112456D01*
X0166887Y0112456D01*
X0166887Y0112173D02*
X0166887Y0112740D01*
X0166887Y0113400D02*
X0166887Y0113968D01*
X0166887Y0113684D02*
X0165186Y0113684D01*
X0165186Y0113400D01*
X0165186Y0114628D02*
X0166603Y0114628D01*
X0166887Y0114912D01*
X0166887Y0115479D01*
X0166603Y0115762D01*
X0165186Y0115762D01*
X0165753Y0116470D02*
X0165753Y0117320D01*
X0166036Y0117604D01*
X0166603Y0117604D01*
X0166887Y0117320D01*
X0166887Y0116470D01*
X0167454Y0116470D02*
X0165753Y0116470D01*
X0165753Y0110331D02*
X0166603Y0110331D01*
X0143639Y0110374D02*
X0143639Y0111224D01*
X0142504Y0111224D01*
X0141937Y0111932D02*
X0141937Y0112215D01*
X0143639Y0112215D01*
X0143639Y0111932D02*
X0143639Y0112499D01*
X0143639Y0113159D02*
X0143639Y0113727D01*
X0143639Y0113443D02*
X0141937Y0113443D01*
X0141937Y0113159D01*
X0141937Y0114387D02*
X0143355Y0114387D01*
X0143639Y0114671D01*
X0143639Y0115238D01*
X0143355Y0115521D01*
X0141937Y0115521D01*
X0142504Y0116229D02*
X0142504Y0117079D01*
X0142788Y0117363D01*
X0143355Y0117363D01*
X0143639Y0117079D01*
X0143639Y0116229D01*
X0144206Y0116229D02*
X0142504Y0116229D01*
X0143639Y0110374D02*
X0143355Y0110090D01*
X0142504Y0110090D01*
X0142221Y0109383D02*
X0142788Y0109383D01*
X0143071Y0109099D01*
X0143071Y0108248D01*
X0143639Y0108248D02*
X0141937Y0108248D01*
X0141937Y0109099D01*
X0142221Y0109383D01*
X0133012Y0114471D02*
X0133012Y0115538D01*
X0131945Y0116606D01*
X0130857Y0116072D02*
X0130323Y0116606D01*
X0129256Y0116606D01*
X0128722Y0116072D01*
X0130857Y0116072D02*
X0130857Y0115538D01*
X0128722Y0113403D01*
X0130857Y0113403D01*
X0131945Y0113403D02*
X0133012Y0114471D01*
X0127634Y0113403D02*
X0125499Y0113403D01*
X0126567Y0113403D02*
X0126567Y0116606D01*
X0125499Y0115538D01*
X0124418Y0116606D02*
X0123351Y0115538D01*
X0123351Y0114471D01*
X0124418Y0113403D01*
X0123709Y0123040D02*
X0121574Y0123040D01*
X0122641Y0123040D02*
X0122641Y0126243D01*
X0121574Y0125175D01*
X0120493Y0126243D02*
X0119425Y0125175D01*
X0119425Y0124108D01*
X0120493Y0123040D01*
X0124796Y0123574D02*
X0125330Y0123040D01*
X0126398Y0123040D01*
X0126932Y0123574D01*
X0126932Y0124108D01*
X0126398Y0124642D01*
X0125864Y0124642D01*
X0126398Y0124642D02*
X0126932Y0125175D01*
X0126932Y0125709D01*
X0126398Y0126243D01*
X0125330Y0126243D01*
X0124796Y0125709D01*
X0128019Y0126243D02*
X0129087Y0125175D01*
X0129087Y0124108D01*
X0128019Y0123040D01*
X0124098Y0132348D02*
X0125165Y0133416D01*
X0125165Y0134483D01*
X0124098Y0135551D01*
X0122476Y0135551D02*
X0120875Y0133949D01*
X0123010Y0133949D01*
X0122476Y0132348D02*
X0122476Y0135551D01*
X0118720Y0135551D02*
X0118720Y0132348D01*
X0119787Y0132348D02*
X0117652Y0132348D01*
X0116571Y0132348D02*
X0115504Y0133416D01*
X0115504Y0134483D01*
X0116571Y0135551D01*
X0117652Y0134483D02*
X0118720Y0135551D01*
X0118658Y0141566D02*
X0117590Y0141566D01*
X0117057Y0142100D01*
X0117057Y0143167D02*
X0118124Y0143701D01*
X0118658Y0143701D01*
X0119192Y0143167D01*
X0119192Y0142100D01*
X0118658Y0141566D01*
X0120279Y0141566D02*
X0121347Y0142634D01*
X0121347Y0143701D01*
X0120279Y0144769D01*
X0119192Y0144769D02*
X0117057Y0144769D01*
X0117057Y0143167D01*
X0115969Y0141566D02*
X0113834Y0141566D01*
X0114901Y0141566D02*
X0114901Y0144769D01*
X0113834Y0143701D01*
X0112753Y0144769D02*
X0111685Y0143701D01*
X0111685Y0142634D01*
X0112753Y0141566D01*
X0109375Y0160038D02*
X0110443Y0161106D01*
X0110443Y0162174D01*
X0109375Y0163241D01*
X0108288Y0162707D02*
X0107754Y0163241D01*
X0106687Y0163241D01*
X0106153Y0162707D01*
X0108288Y0162707D02*
X0108288Y0162174D01*
X0106153Y0160038D01*
X0108288Y0160038D01*
X0105065Y0160038D02*
X0102930Y0160038D01*
X0103998Y0160038D02*
X0103998Y0163241D01*
X0102930Y0162174D01*
X0101849Y0163241D02*
X0100781Y0162174D01*
X0100781Y0161106D01*
X0101849Y0160038D01*
X0101910Y0170444D02*
X0100843Y0171512D01*
X0100843Y0172580D01*
X0101910Y0173647D01*
X0102991Y0172580D02*
X0104059Y0173647D01*
X0104059Y0170444D01*
X0105126Y0170444D02*
X0102991Y0170444D01*
X0106214Y0170978D02*
X0106748Y0170444D01*
X0107815Y0170444D01*
X0108349Y0170978D01*
X0108349Y0171512D01*
X0107815Y0172046D01*
X0107282Y0172046D01*
X0107815Y0172046D02*
X0108349Y0172580D01*
X0108349Y0173113D01*
X0107815Y0173647D01*
X0106748Y0173647D01*
X0106214Y0173113D01*
X0109437Y0173647D02*
X0110504Y0172580D01*
X0110504Y0171512D01*
X0109437Y0170444D01*
X0109375Y0180544D02*
X0110443Y0181612D01*
X0110443Y0182680D01*
X0109375Y0183747D01*
X0107754Y0183747D02*
X0106153Y0182146D01*
X0108288Y0182146D01*
X0107754Y0183747D02*
X0107754Y0180544D01*
X0105065Y0180544D02*
X0102930Y0180544D01*
X0103998Y0180544D02*
X0103998Y0183747D01*
X0102930Y0182680D01*
X0101849Y0183747D02*
X0100781Y0182680D01*
X0100781Y0181612D01*
X0101849Y0180544D01*
X0101849Y0190522D02*
X0100781Y0191589D01*
X0100781Y0192657D01*
X0101849Y0193725D01*
X0102930Y0192657D02*
X0103998Y0193725D01*
X0103998Y0190522D01*
X0105065Y0190522D02*
X0102930Y0190522D01*
X0106153Y0191056D02*
X0106687Y0190522D01*
X0107754Y0190522D01*
X0108288Y0191056D01*
X0108288Y0192123D01*
X0107754Y0192657D01*
X0107220Y0192657D01*
X0106153Y0192123D01*
X0106153Y0193725D01*
X0108288Y0193725D01*
X0109375Y0193725D02*
X0110443Y0192657D01*
X0110443Y0191589D01*
X0109375Y0190522D01*
X0103242Y0211580D02*
X0102007Y0211580D01*
X0100773Y0212814D01*
X0102624Y0214035D02*
X0102624Y0216504D01*
X0100773Y0217718D02*
X0102007Y0218953D01*
X0103242Y0218953D01*
X0104476Y0217718D01*
X0103470Y0220775D02*
X0102236Y0220775D01*
X0101002Y0222009D01*
X0102853Y0223231D02*
X0102853Y0225699D01*
X0101619Y0224465D02*
X0104088Y0224465D01*
X0104705Y0226914D02*
X0103470Y0228148D01*
X0102236Y0228148D01*
X0101002Y0226914D01*
X0104705Y0222009D02*
X0103470Y0220775D01*
X0104476Y0212814D02*
X0103242Y0211580D01*
X0179061Y0200560D02*
X0182264Y0200560D01*
X0182264Y0202695D01*
X0181730Y0199473D02*
X0182264Y0198939D01*
X0182264Y0197871D01*
X0181730Y0197338D01*
X0179595Y0197338D01*
X0179061Y0197871D01*
X0179061Y0198939D01*
X0179595Y0199473D01*
X0179595Y0196250D02*
X0179061Y0195716D01*
X0179061Y0194649D01*
X0179595Y0194115D01*
X0180129Y0194115D01*
X0180663Y0194649D01*
X0180663Y0195716D01*
X0181197Y0196250D01*
X0181730Y0196250D01*
X0182264Y0195716D01*
X0182264Y0194649D01*
X0181730Y0194115D01*
X0189681Y0194057D02*
X0190215Y0193523D01*
X0190749Y0193523D01*
X0191283Y0194057D01*
X0191283Y0195125D01*
X0191816Y0195658D01*
X0192350Y0195658D01*
X0192884Y0195125D01*
X0192884Y0194057D01*
X0192350Y0193523D01*
X0189681Y0194057D02*
X0189681Y0195125D01*
X0190215Y0195658D01*
X0189681Y0196746D02*
X0189681Y0198347D01*
X0190215Y0198881D01*
X0192350Y0198881D01*
X0192884Y0198347D01*
X0192884Y0196746D01*
X0189681Y0196746D01*
X0190749Y0199969D02*
X0189681Y0201036D01*
X0190749Y0202104D01*
X0192884Y0202104D01*
X0191283Y0202104D02*
X0191283Y0199969D01*
X0190749Y0199969D02*
X0192884Y0199969D01*
X0289730Y0276329D02*
X0289730Y0278180D01*
X0290347Y0278798D01*
X0291581Y0278798D01*
X0292198Y0278180D01*
X0292198Y0276329D01*
X0293433Y0276329D02*
X0289730Y0276329D01*
X0290347Y0283695D02*
X0289730Y0284312D01*
X0289730Y0285547D01*
X0290347Y0286164D01*
X0290964Y0287378D02*
X0290964Y0287995D01*
X0293433Y0287995D01*
X0293433Y0287378D02*
X0293433Y0288613D01*
X0292816Y0289834D02*
X0293433Y0290451D01*
X0293433Y0292302D01*
X0294050Y0292302D02*
X0290964Y0292302D01*
X0290964Y0290451D01*
X0291581Y0289834D01*
X0292816Y0289834D01*
X0294667Y0291068D02*
X0294667Y0291685D01*
X0294050Y0292302D01*
X0289730Y0287995D02*
X0289112Y0287995D01*
X0291581Y0285547D02*
X0292198Y0286164D01*
X0292816Y0286164D01*
X0293433Y0285547D01*
X0293433Y0284312D01*
X0292816Y0283695D01*
X0291581Y0284312D02*
X0291581Y0285547D01*
X0291581Y0284312D02*
X0290964Y0283695D01*
X0290347Y0283695D01*
X0299730Y0284312D02*
X0300347Y0283695D01*
X0300964Y0283695D01*
X0301581Y0284312D01*
X0301581Y0285547D01*
X0302198Y0286164D01*
X0302816Y0286164D01*
X0303433Y0285547D01*
X0303433Y0284312D01*
X0302816Y0283695D01*
X0299730Y0284312D02*
X0299730Y0285547D01*
X0300347Y0286164D01*
X0300964Y0287378D02*
X0300964Y0287995D01*
X0303433Y0287995D01*
X0303433Y0287378D02*
X0303433Y0288613D01*
X0302816Y0289834D02*
X0303433Y0290451D01*
X0303433Y0292302D01*
X0304050Y0292302D02*
X0300964Y0292302D01*
X0300964Y0290451D01*
X0301581Y0289834D01*
X0302816Y0289834D01*
X0304667Y0291068D02*
X0304667Y0291685D01*
X0304050Y0292302D01*
X0299730Y0287995D02*
X0299112Y0287995D01*
X0309112Y0287995D02*
X0309730Y0287995D01*
X0310964Y0287995D02*
X0313433Y0287995D01*
X0313433Y0287378D02*
X0313433Y0288613D01*
X0312816Y0289834D02*
X0313433Y0290451D01*
X0313433Y0292302D01*
X0314050Y0292302D02*
X0310964Y0292302D01*
X0310964Y0290451D01*
X0311581Y0289834D01*
X0312816Y0289834D01*
X0314667Y0291068D02*
X0314667Y0291685D01*
X0314050Y0292302D01*
X0310964Y0287995D02*
X0310964Y0287378D01*
X0310347Y0286164D02*
X0309730Y0285547D01*
X0309730Y0284312D01*
X0310347Y0283695D01*
X0310964Y0283695D01*
X0311581Y0284312D01*
X0311581Y0285547D01*
X0312198Y0286164D01*
X0312816Y0286164D01*
X0313433Y0285547D01*
X0313433Y0284312D01*
X0312816Y0283695D01*
X0320347Y0284312D02*
X0322816Y0284312D01*
X0323433Y0284929D01*
X0322816Y0286768D02*
X0323433Y0287385D01*
X0322816Y0286768D02*
X0320347Y0286768D01*
X0320964Y0287385D02*
X0320964Y0286150D01*
X0320964Y0284929D02*
X0320964Y0283695D01*
X0320964Y0282481D02*
X0323433Y0282481D01*
X0323433Y0280629D01*
X0322816Y0280012D01*
X0320964Y0280012D01*
X0320964Y0278798D02*
X0321581Y0278180D01*
X0321581Y0276329D01*
X0321581Y0278180D02*
X0322198Y0278798D01*
X0322816Y0278798D01*
X0323433Y0278180D01*
X0323433Y0276329D01*
X0319730Y0276329D01*
X0319730Y0278180D01*
X0320347Y0278798D01*
X0320964Y0278798D01*
X0313433Y0277563D02*
X0311581Y0277563D01*
X0310347Y0278798D01*
X0309730Y0278798D01*
X0311581Y0277563D02*
X0310347Y0276329D01*
X0309730Y0276329D01*
X0303433Y0276329D02*
X0299730Y0278798D01*
X0299730Y0276329D02*
X0303433Y0278798D01*
X0320964Y0289223D02*
X0321581Y0288606D01*
X0322816Y0288606D01*
X0323433Y0289223D01*
X0323433Y0290457D01*
X0322816Y0291075D01*
X0321581Y0291075D01*
X0320964Y0290457D01*
X0320964Y0289223D01*
X0320964Y0292289D02*
X0320964Y0294141D01*
X0321581Y0294758D01*
X0323433Y0294758D01*
X0323433Y0292289D02*
X0320964Y0292289D01*
X0320964Y0299655D02*
X0321581Y0300273D01*
X0321581Y0301507D01*
X0322198Y0302124D01*
X0322816Y0302124D01*
X0323433Y0301507D01*
X0323433Y0300273D01*
X0322816Y0299655D01*
X0320964Y0299655D02*
X0320347Y0299655D01*
X0319730Y0300273D01*
X0319730Y0301507D01*
X0320347Y0302124D01*
X0320964Y0303338D02*
X0320964Y0303956D01*
X0323433Y0303956D01*
X0323433Y0304573D02*
X0323433Y0303338D01*
X0322816Y0305794D02*
X0323433Y0306411D01*
X0323433Y0308263D01*
X0324050Y0308263D02*
X0320964Y0308263D01*
X0320964Y0306411D01*
X0321581Y0305794D01*
X0322816Y0305794D01*
X0324667Y0307028D02*
X0324667Y0307645D01*
X0324050Y0308263D01*
X0319730Y0303956D02*
X0319112Y0303956D01*
X0305784Y0335018D02*
X0304716Y0336086D01*
X0305784Y0355112D02*
X0304716Y0356180D01*
X0304716Y0357247D01*
X0305784Y0358315D01*
X0306864Y0357247D02*
X0307932Y0358315D01*
X0307932Y0355112D01*
X0306864Y0355112D02*
X0309000Y0355112D01*
X0310087Y0355112D02*
X0311155Y0356180D01*
X0311155Y0357247D01*
X0310087Y0358315D01*
X0314716Y0357247D02*
X0314716Y0356180D01*
X0315784Y0355112D01*
X0316864Y0355112D02*
X0319000Y0357247D01*
X0319000Y0357781D01*
X0318466Y0358315D01*
X0317398Y0358315D01*
X0316864Y0357781D01*
X0315784Y0358315D02*
X0314716Y0357247D01*
X0316864Y0355112D02*
X0319000Y0355112D01*
X0320087Y0355112D02*
X0321155Y0356180D01*
X0321155Y0357247D01*
X0320087Y0358315D01*
X0324716Y0357247D02*
X0324716Y0356180D01*
X0325784Y0355112D01*
X0326864Y0355646D02*
X0327398Y0355112D01*
X0328466Y0355112D01*
X0329000Y0355646D01*
X0329000Y0356180D01*
X0328466Y0356714D01*
X0327932Y0356714D01*
X0328466Y0356714D02*
X0329000Y0357247D01*
X0329000Y0357781D01*
X0328466Y0358315D01*
X0327398Y0358315D01*
X0326864Y0357781D01*
X0325784Y0358315D02*
X0324716Y0357247D01*
X0330087Y0358315D02*
X0331155Y0357247D01*
X0331155Y0356180D01*
X0330087Y0355112D01*
X0301155Y0356180D02*
X0301155Y0357247D01*
X0300087Y0358315D01*
X0299000Y0357781D02*
X0296864Y0355646D01*
X0297398Y0355112D01*
X0298466Y0355112D01*
X0299000Y0355646D01*
X0299000Y0357781D01*
X0298466Y0358315D01*
X0297398Y0358315D01*
X0296864Y0357781D01*
X0296864Y0355646D01*
X0295784Y0355112D02*
X0294716Y0356180D01*
X0294716Y0357247D01*
X0295784Y0358315D01*
X0300087Y0355112D02*
X0301155Y0356180D01*
X0246368Y0336919D02*
X0246368Y0335851D01*
X0245301Y0334784D01*
X0244213Y0335317D02*
X0243679Y0334784D01*
X0242612Y0334784D01*
X0242078Y0335317D01*
X0240997Y0334784D02*
X0239930Y0335851D01*
X0239930Y0336919D01*
X0240997Y0337986D01*
X0242078Y0337453D02*
X0242612Y0337986D01*
X0243679Y0337986D01*
X0244213Y0337453D01*
X0244213Y0336919D01*
X0243679Y0336385D01*
X0244213Y0335851D01*
X0244213Y0335317D01*
X0243679Y0336385D02*
X0243146Y0336385D01*
X0245301Y0337986D02*
X0246368Y0336919D01*
X0236368Y0336919D02*
X0236368Y0335851D01*
X0235301Y0334784D01*
X0234213Y0334784D02*
X0232078Y0334784D01*
X0234213Y0336919D01*
X0234213Y0337453D01*
X0233679Y0337986D01*
X0232612Y0337986D01*
X0232078Y0337453D01*
X0230997Y0337986D02*
X0229930Y0336919D01*
X0229930Y0335851D01*
X0230997Y0334784D01*
X0226368Y0335851D02*
X0226368Y0336919D01*
X0225301Y0337986D01*
X0223146Y0337986D02*
X0223146Y0334784D01*
X0224213Y0334784D02*
X0222078Y0334784D01*
X0220997Y0334784D02*
X0219930Y0335851D01*
X0219930Y0336919D01*
X0220997Y0337986D01*
X0222078Y0336919D02*
X0223146Y0337986D01*
X0225301Y0334784D02*
X0226368Y0335851D01*
X0235301Y0337986D02*
X0236368Y0336919D01*
X0216368Y0336919D02*
X0216368Y0335851D01*
X0215301Y0334784D01*
X0214213Y0335317D02*
X0213679Y0334784D01*
X0212612Y0334784D01*
X0212078Y0335317D01*
X0214213Y0337453D01*
X0214213Y0335317D01*
X0212078Y0335317D02*
X0212078Y0337453D01*
X0212612Y0337986D01*
X0213679Y0337986D01*
X0214213Y0337453D01*
X0215301Y0337986D02*
X0216368Y0336919D01*
X0210997Y0337986D02*
X0209930Y0336919D01*
X0209930Y0335851D01*
X0210997Y0334784D01*
X0220497Y0355338D02*
X0219429Y0356406D01*
X0183364Y0338191D02*
X0181969Y0338769D01*
X0131657Y0096536D02*
X0132891Y0095302D01*
X0132891Y0094067D01*
X0131657Y0092833D01*
X0130442Y0094685D02*
X0127973Y0094685D01*
X0129208Y0095919D02*
X0129208Y0093450D01*
X0126752Y0092833D02*
X0125518Y0094067D01*
X0125518Y0095302D01*
X0126752Y0096536D01*
X0123487Y0095302D02*
X0122253Y0096536D01*
X0123487Y0095302D02*
X0123487Y0094067D01*
X0122253Y0092833D01*
X0121038Y0094685D02*
X0118570Y0094685D01*
X0117349Y0096536D02*
X0116114Y0095302D01*
X0116114Y0094067D01*
X0117349Y0092833D01*
D12*
X0116768Y0105343D02*
X0118236Y0105343D01*
X0118978Y0105710D02*
X0120079Y0105710D01*
X0120446Y0106077D01*
X0120446Y0106444D01*
X0120079Y0106811D01*
X0118978Y0106811D01*
X0118978Y0105710D02*
X0118978Y0107912D01*
X0120079Y0107912D01*
X0120446Y0107545D01*
X0120446Y0107178D01*
X0120079Y0106811D01*
X0121188Y0105343D02*
X0122656Y0105343D01*
X0123398Y0106811D02*
X0124866Y0106811D01*
X0124499Y0105710D02*
X0124499Y0107912D01*
X0123398Y0106811D01*
X0116026Y0106077D02*
X0116026Y0107545D01*
X0115659Y0107912D01*
X0114559Y0107912D01*
X0114559Y0105710D01*
X0115659Y0105710D01*
X0116026Y0106077D01*
X0113817Y0105710D02*
X0112349Y0105710D01*
X0112349Y0107912D01*
X0113817Y0107912D01*
X0113083Y0106811D02*
X0112349Y0106811D01*
X0111607Y0105710D02*
X0110139Y0105710D01*
X0110139Y0107912D01*
X0147929Y0090952D02*
X0150731Y0090952D01*
X0150731Y0092820D01*
X0150264Y0090058D02*
X0150731Y0089591D01*
X0150731Y0088657D01*
X0150264Y0088190D01*
X0148396Y0088190D01*
X0147929Y0088657D01*
X0147929Y0089591D01*
X0148396Y0090058D01*
X0148396Y0087296D02*
X0147929Y0086829D01*
X0147929Y0085894D01*
X0148396Y0085427D01*
X0148863Y0085427D01*
X0149330Y0085894D01*
X0149330Y0086829D01*
X0149797Y0087296D01*
X0150264Y0087296D01*
X0150731Y0086829D01*
X0150731Y0085894D01*
X0150264Y0085427D01*
X0158094Y0085983D02*
X0158561Y0085516D01*
X0159028Y0085516D01*
X0159495Y0085983D01*
X0159495Y0086917D01*
X0159962Y0087384D01*
X0160429Y0087384D01*
X0160896Y0086917D01*
X0160896Y0085983D01*
X0160429Y0085516D01*
X0158094Y0085983D02*
X0158094Y0086917D01*
X0158561Y0087384D01*
X0158094Y0088279D02*
X0158094Y0089680D01*
X0158561Y0090147D01*
X0160429Y0090147D01*
X0160896Y0089680D01*
X0160896Y0088279D01*
X0158094Y0088279D01*
X0159028Y0091041D02*
X0158094Y0091975D01*
X0159028Y0092909D01*
X0160896Y0092909D01*
X0159495Y0092909D02*
X0159495Y0091041D01*
X0159028Y0091041D02*
X0160896Y0091041D01*
X0185716Y0090570D02*
X0186559Y0092605D01*
X0187576Y0092183D01*
X0187774Y0091704D01*
X0187493Y0091026D01*
X0187014Y0090827D01*
X0185997Y0091248D01*
X0187898Y0090064D02*
X0188460Y0091420D01*
X0188939Y0091619D01*
X0189617Y0091338D01*
X0189816Y0090858D01*
X0189254Y0089502D01*
X0188775Y0089303D01*
X0188097Y0089584D01*
X0187898Y0090064D01*
X0190642Y0090913D02*
X0191998Y0090352D01*
X0191320Y0090632D02*
X0190477Y0088598D01*
X0191701Y0087694D02*
X0193057Y0087133D01*
X0194023Y0087527D02*
X0194222Y0087047D01*
X0194900Y0086766D01*
X0195379Y0086965D01*
X0195520Y0087304D01*
X0195321Y0087783D01*
X0194982Y0087924D01*
X0195321Y0087783D02*
X0195801Y0087982D01*
X0195941Y0088321D01*
X0195742Y0088801D01*
X0195064Y0089081D01*
X0194585Y0088883D01*
X0232111Y0095338D02*
X0233212Y0095338D01*
X0233579Y0095705D01*
X0233579Y0096072D01*
X0233212Y0096439D01*
X0232111Y0096439D01*
X0232111Y0097540D02*
X0233212Y0097540D01*
X0233579Y0097173D01*
X0233579Y0096806D01*
X0233212Y0096439D01*
X0234321Y0095705D02*
X0234688Y0095338D01*
X0235422Y0095338D01*
X0235789Y0095705D01*
X0235789Y0097540D01*
X0234321Y0097540D02*
X0234321Y0095705D01*
X0232111Y0095338D02*
X0232111Y0097540D01*
X0236531Y0094971D02*
X0237999Y0094971D01*
X0238741Y0095705D02*
X0239108Y0095338D01*
X0239842Y0095338D01*
X0240209Y0095705D01*
X0240209Y0096072D01*
X0239842Y0096439D01*
X0239475Y0096439D01*
X0239842Y0096439D02*
X0240209Y0096806D01*
X0240209Y0097173D01*
X0239842Y0097540D01*
X0239108Y0097540D01*
X0238741Y0097173D01*
X0238819Y0076718D02*
X0239186Y0076351D01*
X0239186Y0075984D01*
X0238819Y0075617D01*
X0239186Y0075250D01*
X0239186Y0074883D01*
X0238819Y0074516D01*
X0238085Y0074516D01*
X0237718Y0074883D01*
X0238452Y0075617D02*
X0238819Y0075617D01*
X0238819Y0076718D02*
X0238085Y0076718D01*
X0237718Y0076351D01*
X0236976Y0074149D02*
X0235508Y0074149D01*
X0234767Y0074516D02*
X0233299Y0076718D01*
X0234767Y0076718D02*
X0233299Y0074516D01*
X0313872Y0097167D02*
X0315340Y0097167D01*
X0316082Y0097167D02*
X0317550Y0097167D01*
X0318292Y0097167D02*
X0318292Y0099369D01*
X0319393Y0099369D01*
X0319760Y0099002D01*
X0319760Y0097534D01*
X0319393Y0097167D01*
X0318292Y0097167D01*
X0316816Y0098268D02*
X0316082Y0098268D01*
X0316082Y0099369D02*
X0316082Y0097167D01*
X0316082Y0099369D02*
X0317550Y0099369D01*
X0313872Y0099369D02*
X0313872Y0097167D01*
X0320502Y0096800D02*
X0321970Y0096800D01*
X0322711Y0097534D02*
X0323078Y0097167D01*
X0323812Y0097167D01*
X0324179Y0097534D01*
X0324179Y0099002D01*
X0323812Y0099369D01*
X0323078Y0099369D01*
X0322711Y0099002D01*
X0322711Y0097534D01*
X0324921Y0096800D02*
X0326389Y0096800D01*
X0327131Y0097534D02*
X0327498Y0097167D01*
X0328232Y0097167D01*
X0328599Y0097534D01*
X0328599Y0097901D01*
X0328232Y0098268D01*
X0327865Y0098268D01*
X0328232Y0098268D02*
X0328599Y0098635D01*
X0328599Y0099002D01*
X0328232Y0099369D01*
X0327498Y0099369D01*
X0327131Y0099002D01*
X0323475Y0077058D02*
X0323842Y0076691D01*
X0323842Y0076324D01*
X0323475Y0075957D01*
X0323842Y0075590D01*
X0323842Y0075223D01*
X0323475Y0074857D01*
X0322741Y0074857D01*
X0322374Y0075223D01*
X0323108Y0075957D02*
X0323475Y0075957D01*
X0323475Y0077058D02*
X0322741Y0077058D01*
X0322374Y0076691D01*
X0321632Y0074490D02*
X0320164Y0074490D01*
X0318688Y0074857D02*
X0318688Y0075957D01*
X0319422Y0076691D01*
X0319422Y0077058D01*
X0318688Y0075957D02*
X0317954Y0076691D01*
X0317954Y0077058D01*
X0359995Y0090296D02*
X0360837Y0088262D01*
X0362194Y0088824D01*
X0362879Y0089108D02*
X0362036Y0091142D01*
X0363393Y0091704D01*
X0364078Y0091988D02*
X0365095Y0092409D01*
X0365575Y0092210D01*
X0366136Y0090854D01*
X0365938Y0090375D01*
X0364921Y0089953D01*
X0364078Y0091988D01*
X0363136Y0090406D02*
X0362458Y0090125D01*
X0362879Y0089108D02*
X0364235Y0089669D01*
X0367103Y0090460D02*
X0368459Y0091022D01*
X0369004Y0091645D02*
X0370021Y0092066D01*
X0370220Y0092545D01*
X0370079Y0092884D01*
X0369600Y0093083D01*
X0368583Y0092662D01*
X0369600Y0093083D02*
X0369798Y0093563D01*
X0369658Y0093902D01*
X0369179Y0094100D01*
X0368161Y0093679D01*
X0369004Y0091645D01*
X0371186Y0092151D02*
X0372542Y0092713D01*
X0372947Y0093675D02*
X0373426Y0093476D01*
X0374105Y0093757D01*
X0374303Y0094237D01*
X0374163Y0094576D01*
X0373683Y0094774D01*
X0373344Y0094634D01*
X0373683Y0094774D02*
X0373882Y0095254D01*
X0373741Y0095593D01*
X0373262Y0095792D01*
X0372584Y0095511D01*
X0372385Y0095031D01*
X0404869Y0107745D02*
X0404869Y0109947D01*
X0405970Y0109947D01*
X0406337Y0109580D01*
X0406337Y0108846D01*
X0405970Y0108479D01*
X0404869Y0108479D01*
X0407079Y0108112D02*
X0407446Y0107745D01*
X0408180Y0107745D01*
X0408547Y0108112D01*
X0408547Y0109580D01*
X0408180Y0109947D01*
X0407446Y0109947D01*
X0407079Y0109580D01*
X0407079Y0108112D01*
X0409289Y0109947D02*
X0410757Y0109947D01*
X0410023Y0109947D02*
X0410023Y0107745D01*
X0411499Y0107378D02*
X0412967Y0107378D01*
X0413709Y0107745D02*
X0415177Y0109213D01*
X0415177Y0109580D01*
X0414810Y0109947D01*
X0414076Y0109947D01*
X0413709Y0109580D01*
X0413709Y0107745D02*
X0415177Y0107745D01*
X0412052Y0153331D02*
X0410585Y0153331D01*
X0409843Y0154065D02*
X0409843Y0155900D01*
X0408375Y0155900D02*
X0408375Y0154065D01*
X0408742Y0153698D01*
X0409476Y0153698D01*
X0409843Y0154065D01*
X0407633Y0154065D02*
X0407266Y0153698D01*
X0406165Y0153698D01*
X0406165Y0155900D01*
X0407266Y0155900D01*
X0407633Y0155533D01*
X0407633Y0155166D01*
X0407266Y0154799D01*
X0406165Y0154799D01*
X0407266Y0154799D02*
X0407633Y0154432D01*
X0407633Y0154065D01*
X0412794Y0153698D02*
X0414262Y0155166D01*
X0414262Y0155533D01*
X0413895Y0155900D01*
X0413161Y0155900D01*
X0412794Y0155533D01*
X0412794Y0153698D02*
X0414262Y0153698D01*
X0429919Y0153861D02*
X0431387Y0156063D01*
X0429919Y0156063D02*
X0431387Y0153861D01*
X0432128Y0153494D02*
X0433596Y0153494D01*
X0434338Y0153861D02*
X0435806Y0155329D01*
X0435806Y0155696D01*
X0435439Y0156063D01*
X0434705Y0156063D01*
X0434338Y0155696D01*
X0434338Y0153861D02*
X0435806Y0153861D01*
X0433959Y0240105D02*
X0432491Y0240105D01*
X0431015Y0240472D02*
X0431015Y0241573D01*
X0431749Y0242307D01*
X0431749Y0242674D01*
X0431015Y0241573D02*
X0430281Y0242307D01*
X0430281Y0242674D01*
X0434701Y0242307D02*
X0435068Y0242674D01*
X0435802Y0242674D01*
X0436169Y0242307D01*
X0436169Y0241940D01*
X0434701Y0240472D01*
X0436169Y0240472D01*
X0418088Y0240428D02*
X0416620Y0240428D01*
X0418088Y0241896D01*
X0418088Y0242263D01*
X0417721Y0242630D01*
X0416987Y0242630D01*
X0416620Y0242263D01*
X0415878Y0240061D02*
X0414410Y0240061D01*
X0413668Y0240795D02*
X0413668Y0242263D01*
X0413301Y0242630D01*
X0412567Y0242630D01*
X0412200Y0242263D01*
X0412200Y0240795D01*
X0412567Y0240428D01*
X0413301Y0240428D01*
X0413668Y0240795D01*
X0411458Y0240061D02*
X0409990Y0240061D01*
X0409248Y0240795D02*
X0409248Y0242263D01*
X0408881Y0242630D01*
X0407780Y0242630D01*
X0407780Y0240428D01*
X0408881Y0240428D01*
X0409248Y0240795D01*
X0407038Y0240428D02*
X0405570Y0240428D01*
X0405570Y0242630D01*
X0407038Y0242630D01*
X0406304Y0241529D02*
X0405570Y0241529D01*
X0404828Y0240428D02*
X0403360Y0240428D01*
X0403360Y0242630D01*
X0416429Y0290617D02*
X0417897Y0290617D01*
X0418639Y0290617D02*
X0418639Y0292819D01*
X0420107Y0292819D01*
X0420849Y0292819D02*
X0421950Y0292819D01*
X0422317Y0292452D01*
X0422317Y0290984D01*
X0421950Y0290617D01*
X0420849Y0290617D01*
X0420849Y0292819D01*
X0419373Y0291718D02*
X0418639Y0291718D01*
X0418639Y0290617D02*
X0420107Y0290617D01*
X0423059Y0290250D02*
X0424526Y0290250D01*
X0425268Y0290617D02*
X0426369Y0290617D01*
X0426736Y0290984D01*
X0426736Y0291351D01*
X0426369Y0291718D01*
X0425268Y0291718D01*
X0425268Y0292819D02*
X0426369Y0292819D01*
X0426736Y0292452D01*
X0426736Y0292085D01*
X0426369Y0291718D01*
X0425268Y0290617D02*
X0425268Y0292819D01*
X0427478Y0290250D02*
X0428946Y0290250D01*
X0429688Y0290617D02*
X0431156Y0292085D01*
X0431156Y0292452D01*
X0430789Y0292819D01*
X0430055Y0292819D01*
X0429688Y0292452D01*
X0429688Y0290617D02*
X0431156Y0290617D01*
X0416429Y0290617D02*
X0416429Y0292819D01*
X0372050Y0351518D02*
X0370694Y0352080D01*
X0371372Y0351799D02*
X0372215Y0353833D01*
X0371256Y0353436D01*
X0369868Y0352025D02*
X0368512Y0352587D01*
X0367289Y0353491D02*
X0368132Y0355525D01*
X0367454Y0355806D02*
X0368810Y0355244D01*
X0366628Y0355751D02*
X0366429Y0356230D01*
X0365751Y0356511D01*
X0365271Y0356312D01*
X0364710Y0354956D01*
X0364908Y0354477D01*
X0365586Y0354196D01*
X0366066Y0354394D01*
X0366628Y0355751D01*
X0364586Y0356596D02*
X0364305Y0355918D01*
X0363826Y0355720D01*
X0362808Y0356141D01*
X0362528Y0355463D02*
X0363370Y0357497D01*
X0364387Y0357076D01*
X0364586Y0356596D01*
X0317541Y0349812D02*
X0316073Y0349812D01*
X0316807Y0349812D02*
X0316807Y0352014D01*
X0316073Y0351280D01*
X0315331Y0349445D02*
X0313863Y0349445D01*
X0313121Y0350179D02*
X0313121Y0352014D01*
X0311653Y0352014D02*
X0311653Y0350179D01*
X0312020Y0349812D01*
X0312754Y0349812D01*
X0313121Y0350179D01*
X0310911Y0350179D02*
X0310544Y0349812D01*
X0309444Y0349812D01*
X0309444Y0352014D01*
X0310544Y0352014D01*
X0310911Y0351647D01*
X0310911Y0351280D01*
X0310544Y0350913D01*
X0309444Y0350913D01*
X0310544Y0350913D02*
X0310911Y0350546D01*
X0310911Y0350179D01*
X0313002Y0369213D02*
X0314470Y0369213D01*
X0315212Y0369580D02*
X0316680Y0369580D01*
X0315946Y0369580D02*
X0315946Y0371782D01*
X0315212Y0371048D01*
X0312260Y0371782D02*
X0310793Y0369580D01*
X0312260Y0369580D02*
X0310793Y0371782D01*
X0236371Y0350126D02*
X0234903Y0350126D01*
X0235637Y0350126D02*
X0235637Y0352328D01*
X0234903Y0351594D01*
X0234161Y0349759D02*
X0232693Y0349759D01*
X0231951Y0350493D02*
X0231951Y0351961D01*
X0231584Y0352328D01*
X0230850Y0352328D01*
X0230483Y0351961D01*
X0230483Y0350493D01*
X0230850Y0350126D01*
X0231584Y0350126D01*
X0231951Y0350493D01*
X0229741Y0349759D02*
X0228273Y0349759D01*
X0227531Y0350493D02*
X0227531Y0351961D01*
X0227165Y0352328D01*
X0226064Y0352328D01*
X0226064Y0350126D01*
X0227165Y0350126D01*
X0227531Y0350493D01*
X0225322Y0350126D02*
X0223854Y0350126D01*
X0223854Y0352328D01*
X0225322Y0352328D01*
X0224588Y0351227D02*
X0223854Y0351227D01*
X0223112Y0350126D02*
X0221644Y0350126D01*
X0221644Y0352328D01*
X0226473Y0369747D02*
X0226473Y0370848D01*
X0227207Y0371582D01*
X0227207Y0371949D01*
X0226473Y0370848D02*
X0225739Y0371582D01*
X0225739Y0371949D01*
X0227949Y0369380D02*
X0229417Y0369380D01*
X0230159Y0369747D02*
X0231627Y0369747D01*
X0230893Y0369747D02*
X0230893Y0371949D01*
X0230159Y0371215D01*
X0181089Y0357302D02*
X0179733Y0356740D01*
X0180411Y0357021D02*
X0179568Y0359055D01*
X0179171Y0358097D01*
X0179188Y0356117D02*
X0177831Y0355556D01*
X0176865Y0355950D02*
X0176666Y0355470D01*
X0175649Y0355049D01*
X0174807Y0357083D01*
X0175824Y0357505D01*
X0176303Y0357306D01*
X0176444Y0356967D01*
X0176245Y0356487D01*
X0175228Y0356066D01*
X0176245Y0356487D02*
X0176725Y0356289D01*
X0176865Y0355950D01*
X0175104Y0354426D02*
X0173748Y0353864D01*
X0172782Y0354258D02*
X0172220Y0355615D01*
X0171740Y0355813D01*
X0170723Y0355392D01*
X0171566Y0353358D01*
X0172583Y0353779D01*
X0172782Y0354258D01*
X0170880Y0353074D02*
X0169524Y0352512D01*
X0168682Y0354546D01*
X0170038Y0355108D01*
X0169781Y0353810D02*
X0169103Y0353529D01*
X0168839Y0352228D02*
X0167483Y0351666D01*
X0166640Y0353701D01*
X0113462Y0289361D02*
X0112361Y0288260D01*
X0113829Y0288260D01*
X0113462Y0287159D02*
X0113462Y0289361D01*
X0111619Y0286792D02*
X0110151Y0286792D01*
X0108675Y0287159D02*
X0108675Y0289361D01*
X0107941Y0289361D02*
X0109409Y0289361D01*
X0107199Y0288994D02*
X0106832Y0289361D01*
X0106098Y0289361D01*
X0105731Y0288994D01*
X0105731Y0287526D01*
X0106098Y0287159D01*
X0106832Y0287159D01*
X0107199Y0287526D01*
X0107199Y0288994D01*
X0104989Y0288994D02*
X0104989Y0288260D01*
X0104622Y0287893D01*
X0103521Y0287893D01*
X0103521Y0287159D02*
X0103521Y0289361D01*
X0104622Y0289361D01*
X0104989Y0288994D01*
X0098622Y0241813D02*
X0097522Y0240712D01*
X0098989Y0240712D01*
X0098622Y0239611D02*
X0098622Y0241813D01*
X0096780Y0239244D02*
X0095312Y0239244D01*
X0094570Y0239611D02*
X0093102Y0241813D01*
X0094570Y0241813D02*
X0093102Y0239611D01*
X0112223Y0239380D02*
X0113324Y0239380D01*
X0113691Y0239747D01*
X0113691Y0240114D01*
X0113324Y0240481D01*
X0112223Y0240481D01*
X0113324Y0240481D02*
X0113691Y0240848D01*
X0113691Y0241215D01*
X0113324Y0241582D01*
X0112223Y0241582D01*
X0112223Y0239380D01*
X0114433Y0239747D02*
X0114800Y0239380D01*
X0115534Y0239380D01*
X0115901Y0239747D01*
X0115901Y0241582D01*
X0114433Y0241582D02*
X0114433Y0239747D01*
X0116643Y0239013D02*
X0118111Y0239013D01*
X0118853Y0240481D02*
X0120320Y0240481D01*
X0119954Y0239380D02*
X0119954Y0241582D01*
X0118853Y0240481D01*
X0120490Y0154057D02*
X0120123Y0153690D01*
X0120123Y0152222D01*
X0120490Y0151855D01*
X0121224Y0151855D01*
X0121591Y0152222D01*
X0121591Y0153690D01*
X0121224Y0154057D01*
X0120490Y0154057D01*
X0119381Y0151488D02*
X0117913Y0151488D01*
X0117171Y0152222D02*
X0116804Y0151855D01*
X0115703Y0151855D01*
X0115703Y0154057D01*
X0116804Y0154057D01*
X0117171Y0153690D01*
X0117171Y0152222D01*
X0114962Y0151855D02*
X0113494Y0151855D01*
X0113494Y0154057D01*
X0114962Y0154057D01*
X0114228Y0152956D02*
X0113494Y0152956D01*
X0112752Y0151855D02*
X0111284Y0151855D01*
X0111284Y0154057D01*
X0122333Y0151488D02*
X0123801Y0151488D01*
X0124543Y0152956D02*
X0126011Y0152956D01*
X0125644Y0151855D02*
X0125644Y0154057D01*
X0124543Y0152956D01*
X0099199Y0153408D02*
X0097731Y0153408D01*
X0098832Y0154509D01*
X0098832Y0152307D01*
X0096989Y0151940D02*
X0095521Y0151940D01*
X0094045Y0152307D02*
X0094045Y0153408D01*
X0094779Y0154142D01*
X0094779Y0154509D01*
X0094045Y0153408D02*
X0093311Y0154142D01*
X0093311Y0154509D01*
D13*
X0111078Y0074155D02*
X0111078Y0071853D01*
X0112612Y0072620D01*
X0113380Y0072620D01*
X0114147Y0071853D01*
X0114147Y0070318D01*
X0113380Y0069551D01*
X0111845Y0069551D01*
X0111078Y0070318D01*
X0111078Y0074155D02*
X0114147Y0074155D01*
X0115682Y0074155D02*
X0115682Y0071086D01*
X0117216Y0069551D01*
X0118751Y0071086D01*
X0118751Y0074155D01*
X0124889Y0074155D02*
X0126424Y0074155D01*
X0125657Y0074155D02*
X0125657Y0069551D01*
X0126424Y0069551D02*
X0124889Y0069551D01*
X0127959Y0069551D02*
X0127959Y0074155D01*
X0131028Y0069551D01*
X0131028Y0074155D01*
X0299133Y0117970D02*
X0300668Y0116435D01*
X0300668Y0114133D01*
X0300668Y0116435D02*
X0302202Y0117970D01*
X0302202Y0118737D01*
X0299133Y0118737D02*
X0299133Y0117970D01*
X0401166Y0069205D02*
X0401166Y0066903D01*
X0402701Y0067670D01*
X0403468Y0067670D01*
X0404236Y0066903D01*
X0404236Y0065368D01*
X0403468Y0064601D01*
X0401934Y0064601D01*
X0401166Y0065368D01*
X0401166Y0069205D02*
X0404236Y0069205D01*
X0405770Y0069205D02*
X0405770Y0066136D01*
X0407305Y0064601D01*
X0408840Y0066136D01*
X0408840Y0069205D01*
X0414978Y0068438D02*
X0414978Y0065368D01*
X0415745Y0064601D01*
X0417280Y0064601D01*
X0418047Y0065368D01*
X0418047Y0068438D01*
X0417280Y0069205D01*
X0415745Y0069205D01*
X0414978Y0068438D01*
X0419582Y0069205D02*
X0419582Y0065368D01*
X0420349Y0064601D01*
X0421884Y0064601D01*
X0422651Y0065368D01*
X0422651Y0069205D01*
X0424186Y0069205D02*
X0427255Y0069205D01*
X0425721Y0069205D02*
X0425721Y0064601D01*
X0146978Y0292516D02*
X0142374Y0292516D01*
X0142374Y0294818D01*
X0143142Y0295586D01*
X0143909Y0295586D01*
X0144676Y0294818D01*
X0144676Y0292516D01*
X0146978Y0292516D02*
X0146978Y0294818D01*
X0146211Y0295586D01*
X0145444Y0295586D01*
X0144676Y0294818D01*
X0146211Y0297120D02*
X0142374Y0297120D01*
X0142374Y0300190D02*
X0146211Y0300190D01*
X0146978Y0299422D01*
X0146978Y0297888D01*
X0146211Y0297120D01*
X0142374Y0301724D02*
X0142374Y0304794D01*
X0142374Y0306328D02*
X0142374Y0309398D01*
X0142374Y0307863D02*
X0146978Y0307863D01*
X0146211Y0310932D02*
X0146978Y0311699D01*
X0146978Y0313234D01*
X0146211Y0314001D01*
X0143142Y0314001D01*
X0142374Y0313234D01*
X0142374Y0311699D01*
X0143142Y0310932D01*
X0146211Y0310932D01*
X0146978Y0315536D02*
X0142374Y0315536D01*
X0146978Y0318605D01*
X0142374Y0318605D01*
X0143142Y0320140D02*
X0143909Y0320140D01*
X0144676Y0320907D01*
X0144676Y0322442D01*
X0145444Y0323209D01*
X0146211Y0323209D01*
X0146978Y0322442D01*
X0146978Y0320907D01*
X0146211Y0320140D01*
X0143142Y0320140D02*
X0142374Y0320907D01*
X0142374Y0322442D01*
X0143142Y0323209D01*
X0142374Y0303259D02*
X0146978Y0303259D01*
X0231699Y0312556D02*
X0231699Y0317160D01*
X0234001Y0317160D01*
X0234768Y0316393D01*
X0234768Y0314858D01*
X0234001Y0314091D01*
X0231699Y0314091D01*
X0236303Y0313323D02*
X0236303Y0316393D01*
X0237070Y0317160D01*
X0238605Y0317160D01*
X0239372Y0316393D01*
X0239372Y0313323D01*
X0238605Y0312556D01*
X0237070Y0312556D01*
X0236303Y0313323D01*
X0240907Y0317160D02*
X0243976Y0317160D01*
X0242441Y0317160D02*
X0242441Y0312556D01*
X0245511Y0313323D02*
X0246278Y0312556D01*
X0247812Y0312556D01*
X0248580Y0313323D01*
X0248580Y0314091D01*
X0247812Y0314858D01*
X0246278Y0314858D01*
X0245511Y0315625D01*
X0245511Y0316393D01*
X0246278Y0317160D01*
X0247812Y0317160D01*
X0248580Y0316393D01*
X0349129Y0314702D02*
X0353733Y0311633D01*
X0353733Y0314702D02*
X0349129Y0311633D01*
D14*
X0356433Y0273933D02*
X0356433Y0263933D01*
X0156433Y0263933D01*
X0156433Y0242933D01*
X0156559Y0242931D01*
X0156684Y0242925D01*
X0156809Y0242915D01*
X0156934Y0242901D01*
X0157059Y0242884D01*
X0157183Y0242862D01*
X0157306Y0242837D01*
X0157428Y0242807D01*
X0157549Y0242774D01*
X0157669Y0242737D01*
X0157788Y0242697D01*
X0157905Y0242652D01*
X0158022Y0242604D01*
X0158136Y0242552D01*
X0158249Y0242497D01*
X0158360Y0242438D01*
X0158469Y0242376D01*
X0158576Y0242310D01*
X0158681Y0242241D01*
X0158784Y0242169D01*
X0158885Y0242094D01*
X0158983Y0242015D01*
X0159078Y0241933D01*
X0159171Y0241849D01*
X0159261Y0241761D01*
X0159349Y0241671D01*
X0159433Y0241578D01*
X0159515Y0241483D01*
X0159594Y0241385D01*
X0159669Y0241284D01*
X0159741Y0241181D01*
X0159810Y0241076D01*
X0159876Y0240969D01*
X0159938Y0240860D01*
X0159997Y0240749D01*
X0160052Y0240636D01*
X0160104Y0240522D01*
X0160152Y0240405D01*
X0160197Y0240288D01*
X0160237Y0240169D01*
X0160274Y0240049D01*
X0160307Y0239928D01*
X0160337Y0239806D01*
X0160362Y0239683D01*
X0160384Y0239559D01*
X0160401Y0239434D01*
X0160415Y0239309D01*
X0160425Y0239184D01*
X0160431Y0239059D01*
X0160433Y0238933D01*
X0160431Y0238807D01*
X0160425Y0238682D01*
X0160415Y0238557D01*
X0160401Y0238432D01*
X0160384Y0238307D01*
X0160362Y0238183D01*
X0160337Y0238060D01*
X0160307Y0237938D01*
X0160274Y0237817D01*
X0160237Y0237697D01*
X0160197Y0237578D01*
X0160152Y0237461D01*
X0160104Y0237344D01*
X0160052Y0237230D01*
X0159997Y0237117D01*
X0159938Y0237006D01*
X0159876Y0236897D01*
X0159810Y0236790D01*
X0159741Y0236685D01*
X0159669Y0236582D01*
X0159594Y0236481D01*
X0159515Y0236383D01*
X0159433Y0236288D01*
X0159349Y0236195D01*
X0159261Y0236105D01*
X0159171Y0236017D01*
X0159078Y0235933D01*
X0158983Y0235851D01*
X0158885Y0235772D01*
X0158784Y0235697D01*
X0158681Y0235625D01*
X0158576Y0235556D01*
X0158469Y0235490D01*
X0158360Y0235428D01*
X0158249Y0235369D01*
X0158136Y0235314D01*
X0158022Y0235262D01*
X0157905Y0235214D01*
X0157788Y0235169D01*
X0157669Y0235129D01*
X0157549Y0235092D01*
X0157428Y0235059D01*
X0157306Y0235029D01*
X0157183Y0235004D01*
X0157059Y0234982D01*
X0156934Y0234965D01*
X0156809Y0234951D01*
X0156684Y0234941D01*
X0156559Y0234935D01*
X0156433Y0234933D01*
X0156433Y0213933D01*
X0356433Y0213933D01*
X0356433Y0203933D01*
X0156433Y0203933D01*
X0156433Y0213933D01*
X0156433Y0263933D02*
X0156433Y0273933D01*
X0356433Y0273933D01*
X0356433Y0263933D02*
X0356433Y0213933D01*
D15*
X0413222Y0215275D02*
X0413222Y0210275D01*
X0435222Y0210275D01*
X0435222Y0230275D01*
X0413222Y0230275D01*
X0413222Y0225275D01*
X0418222Y0225275D01*
X0418222Y0215275D01*
X0413222Y0215275D01*
X0413222Y0225275D01*
X0281433Y0341933D02*
X0261433Y0341933D01*
X0261433Y0363933D01*
X0266433Y0363933D01*
X0266433Y0358933D01*
X0276433Y0358933D01*
X0276433Y0363933D01*
X0281433Y0363933D01*
X0281433Y0341933D01*
X0276433Y0363933D02*
X0266433Y0363933D01*
X0151931Y0241913D02*
X0151931Y0238911D01*
X0151931Y0237309D02*
X0151931Y0234307D01*
X0150430Y0235808D02*
X0153432Y0235808D01*
X0150430Y0232705D02*
X0149679Y0232705D01*
X0150430Y0232705D02*
X0151931Y0231204D01*
X0154183Y0231204D01*
X0151931Y0231204D02*
X0150430Y0229703D01*
X0149679Y0229703D01*
X0150430Y0228101D02*
X0149679Y0227351D01*
X0149679Y0225849D01*
X0150430Y0225099D01*
X0151181Y0225099D01*
X0151931Y0225849D01*
X0151931Y0227351D01*
X0152682Y0228101D01*
X0153432Y0228101D01*
X0154183Y0227351D01*
X0154183Y0225849D01*
X0153432Y0225099D01*
X0154183Y0223497D02*
X0149679Y0223497D01*
X0149679Y0220495D02*
X0154183Y0223497D01*
X0154183Y0220495D02*
X0149679Y0220495D01*
X0149679Y0218893D02*
X0149679Y0215891D01*
X0154183Y0215891D01*
X0154183Y0218893D01*
X0151931Y0217392D02*
X0151931Y0215891D01*
X0149679Y0214290D02*
X0149679Y0211287D01*
X0154183Y0211287D01*
X0154183Y0214290D01*
X0151931Y0212788D02*
X0151931Y0211287D01*
X0149679Y0209686D02*
X0149679Y0206683D01*
X0149679Y0208184D02*
X0154183Y0208184D01*
X0153990Y0193387D02*
X0153990Y0188883D01*
X0150987Y0193387D01*
X0150987Y0188883D01*
X0149386Y0188883D02*
X0146383Y0188883D01*
X0146383Y0193387D01*
X0149386Y0193387D01*
X0147884Y0191135D02*
X0146383Y0191135D01*
X0155591Y0189634D02*
X0156342Y0188883D01*
X0157843Y0188883D01*
X0158593Y0189634D01*
X0160195Y0189634D02*
X0160945Y0188883D01*
X0162447Y0188883D01*
X0163197Y0189634D01*
X0163197Y0192636D01*
X0162447Y0193387D01*
X0160945Y0193387D01*
X0160195Y0192636D01*
X0160195Y0189634D01*
X0158593Y0192636D02*
X0157843Y0193387D01*
X0156342Y0193387D01*
X0155591Y0192636D01*
X0155591Y0189634D01*
X0164799Y0188883D02*
X0167051Y0188883D01*
X0167801Y0189634D01*
X0167801Y0192636D01*
X0167051Y0193387D01*
X0164799Y0193387D01*
X0164799Y0188883D01*
X0169403Y0188883D02*
X0169403Y0193387D01*
X0172405Y0193387D01*
X0174007Y0193387D02*
X0174007Y0188883D01*
X0174007Y0190384D02*
X0176259Y0190384D01*
X0177009Y0191135D01*
X0177009Y0192636D01*
X0176259Y0193387D01*
X0174007Y0193387D01*
X0175508Y0190384D02*
X0177009Y0188883D01*
X0172405Y0188883D02*
X0169403Y0188883D01*
X0169403Y0191135D02*
X0170904Y0191135D01*
X0211383Y0191135D02*
X0213635Y0191135D01*
X0214386Y0190384D01*
X0214386Y0189634D01*
X0213635Y0188883D01*
X0211383Y0188883D01*
X0211383Y0193387D01*
X0213635Y0193387D01*
X0214386Y0192636D01*
X0214386Y0191886D01*
X0213635Y0191135D01*
X0215987Y0193387D02*
X0215987Y0188883D01*
X0218990Y0188883D01*
X0220591Y0189634D02*
X0221342Y0188883D01*
X0222843Y0188883D01*
X0223593Y0189634D01*
X0223593Y0193387D01*
X0225195Y0193387D02*
X0225195Y0188883D01*
X0228197Y0188883D01*
X0229799Y0188132D02*
X0232801Y0188132D01*
X0234403Y0189634D02*
X0235153Y0188883D01*
X0236655Y0188883D01*
X0237405Y0189634D01*
X0237405Y0192636D01*
X0236655Y0193387D01*
X0235153Y0193387D01*
X0234403Y0192636D01*
X0234403Y0189634D01*
X0239007Y0189634D02*
X0239757Y0188883D01*
X0241259Y0188883D01*
X0242009Y0189634D01*
X0242009Y0193387D01*
X0243611Y0193387D02*
X0246613Y0193387D01*
X0245112Y0193387D02*
X0245112Y0188883D01*
X0239007Y0189634D02*
X0239007Y0193387D01*
X0228197Y0193387D02*
X0225195Y0193387D01*
X0225195Y0191135D02*
X0226696Y0191135D01*
X0220591Y0189634D02*
X0220591Y0193387D01*
X0221342Y0163387D02*
X0220591Y0162636D01*
X0220591Y0159634D01*
X0221342Y0158883D01*
X0222843Y0158883D01*
X0223593Y0159634D01*
X0223593Y0161135D01*
X0222092Y0161135D01*
X0223593Y0162636D02*
X0222843Y0163387D01*
X0221342Y0163387D01*
X0218990Y0162636D02*
X0218990Y0161135D01*
X0218239Y0160384D01*
X0215987Y0160384D01*
X0215987Y0158883D02*
X0215987Y0163387D01*
X0218239Y0163387D01*
X0218990Y0162636D01*
X0217488Y0160384D02*
X0218990Y0158883D01*
X0214386Y0159634D02*
X0214386Y0162636D01*
X0213635Y0163387D01*
X0212134Y0163387D01*
X0211383Y0162636D01*
X0211383Y0159634D01*
X0212134Y0158883D01*
X0213635Y0158883D01*
X0214386Y0159634D01*
X0225195Y0158132D02*
X0228197Y0158132D01*
X0229799Y0159634D02*
X0229799Y0162636D01*
X0230549Y0163387D01*
X0232051Y0163387D01*
X0232801Y0162636D01*
X0232801Y0159634D01*
X0232051Y0158883D01*
X0230549Y0158883D01*
X0229799Y0159634D01*
X0234403Y0159634D02*
X0234403Y0163387D01*
X0237405Y0163387D02*
X0237405Y0159634D01*
X0236655Y0158883D01*
X0235153Y0158883D01*
X0234403Y0159634D01*
X0239007Y0163387D02*
X0242009Y0163387D01*
X0240508Y0163387D02*
X0240508Y0158883D01*
X0180382Y0139483D02*
X0177379Y0139483D01*
X0177379Y0143987D01*
X0175778Y0143236D02*
X0175027Y0143987D01*
X0172775Y0143987D01*
X0172775Y0139483D01*
X0172775Y0140984D02*
X0175027Y0140984D01*
X0175778Y0141735D01*
X0175778Y0143236D01*
X0174276Y0140984D02*
X0175778Y0139483D01*
X0169673Y0139483D02*
X0169673Y0143987D01*
X0171174Y0143987D02*
X0168171Y0143987D01*
X0166570Y0143236D02*
X0165819Y0143987D01*
X0164318Y0143987D01*
X0163567Y0143236D01*
X0163567Y0140234D01*
X0164318Y0139483D01*
X0165819Y0139483D01*
X0166570Y0140234D01*
X0161966Y0138732D02*
X0158963Y0138732D01*
X0157362Y0140234D02*
X0156611Y0139483D01*
X0155110Y0139483D01*
X0154359Y0140234D01*
X0154359Y0143236D01*
X0155110Y0143987D01*
X0156611Y0143987D01*
X0157362Y0143236D01*
X0152758Y0143987D02*
X0152758Y0139483D01*
X0149756Y0143987D01*
X0149756Y0139483D01*
X0148154Y0139483D02*
X0145152Y0139483D01*
X0145152Y0143987D01*
X0148154Y0143987D01*
X0146653Y0141735D02*
X0145152Y0141735D01*
X0133933Y0098433D02*
X0113933Y0098433D01*
X0113933Y0076433D01*
X0118933Y0076433D01*
X0118933Y0081433D01*
X0128933Y0081433D01*
X0128933Y0076433D01*
X0118933Y0076433D01*
X0128933Y0076433D02*
X0133933Y0076433D01*
X0133933Y0098433D01*
X0147338Y0071270D02*
X0148839Y0071270D01*
X0148089Y0071270D02*
X0148089Y0066766D01*
X0148839Y0066766D02*
X0147338Y0066766D01*
X0150407Y0066766D02*
X0153410Y0069769D01*
X0153410Y0070520D01*
X0152659Y0071270D01*
X0151158Y0071270D01*
X0150407Y0070520D01*
X0150407Y0066766D02*
X0153410Y0066766D01*
X0155011Y0067517D02*
X0155762Y0066766D01*
X0157263Y0066766D01*
X0158014Y0067517D01*
X0158014Y0070520D02*
X0157263Y0071270D01*
X0155762Y0071270D01*
X0155011Y0070520D01*
X0155011Y0067517D01*
X0269012Y0066712D02*
X0274012Y0066712D01*
X0274012Y0071712D01*
X0284012Y0071712D01*
X0284012Y0066712D01*
X0274012Y0066712D01*
X0269012Y0066712D02*
X0269012Y0088712D01*
X0289012Y0088712D01*
X0289012Y0066712D01*
X0284012Y0066712D01*
X0403933Y0071433D02*
X0408933Y0071433D01*
X0408933Y0076433D01*
X0418933Y0076433D01*
X0418933Y0071433D01*
X0408933Y0071433D01*
X0403933Y0071433D02*
X0403933Y0093433D01*
X0423933Y0093433D01*
X0423933Y0071433D01*
X0418933Y0071433D01*
X0153432Y0240412D02*
X0150430Y0240412D01*
X0121433Y0228933D02*
X0121433Y0223933D01*
X0116433Y0223933D01*
X0116433Y0213933D01*
X0121433Y0213933D01*
X0121433Y0208933D01*
X0099433Y0208933D01*
X0099433Y0228933D01*
X0121433Y0228933D01*
X0121433Y0223933D02*
X0121433Y0213933D01*
D16*
X0149701Y0299091D02*
X0149701Y0318776D01*
X0183165Y0318776D01*
X0183165Y0299091D01*
X0149701Y0299091D01*
X0179555Y0315933D02*
X0179557Y0315992D01*
X0179563Y0316050D01*
X0179573Y0316108D01*
X0179586Y0316165D01*
X0179604Y0316221D01*
X0179625Y0316276D01*
X0179649Y0316329D01*
X0179678Y0316380D01*
X0179709Y0316430D01*
X0179744Y0316477D01*
X0179782Y0316522D01*
X0179823Y0316564D01*
X0179866Y0316603D01*
X0179912Y0316640D01*
X0179961Y0316673D01*
X0180011Y0316703D01*
X0180063Y0316729D01*
X0180117Y0316752D01*
X0180173Y0316772D01*
X0180229Y0316787D01*
X0180287Y0316799D01*
X0180345Y0316807D01*
X0180404Y0316811D01*
X0180462Y0316811D01*
X0180521Y0316807D01*
X0180579Y0316799D01*
X0180637Y0316787D01*
X0180693Y0316772D01*
X0180749Y0316752D01*
X0180803Y0316729D01*
X0180855Y0316703D01*
X0180905Y0316673D01*
X0180954Y0316640D01*
X0181000Y0316603D01*
X0181043Y0316564D01*
X0181084Y0316522D01*
X0181122Y0316477D01*
X0181157Y0316430D01*
X0181188Y0316380D01*
X0181217Y0316329D01*
X0181241Y0316276D01*
X0181262Y0316221D01*
X0181280Y0316165D01*
X0181293Y0316108D01*
X0181303Y0316050D01*
X0181309Y0315992D01*
X0181311Y0315933D01*
X0181309Y0315874D01*
X0181303Y0315816D01*
X0181293Y0315758D01*
X0181280Y0315701D01*
X0181262Y0315645D01*
X0181241Y0315590D01*
X0181217Y0315537D01*
X0181188Y0315486D01*
X0181157Y0315436D01*
X0181122Y0315389D01*
X0181084Y0315344D01*
X0181043Y0315302D01*
X0181000Y0315263D01*
X0180954Y0315226D01*
X0180905Y0315193D01*
X0180855Y0315163D01*
X0180803Y0315137D01*
X0180749Y0315114D01*
X0180693Y0315094D01*
X0180637Y0315079D01*
X0180579Y0315067D01*
X0180521Y0315059D01*
X0180462Y0315055D01*
X0180404Y0315055D01*
X0180345Y0315059D01*
X0180287Y0315067D01*
X0180229Y0315079D01*
X0180173Y0315094D01*
X0180117Y0315114D01*
X0180063Y0315137D01*
X0180011Y0315163D01*
X0179961Y0315193D01*
X0179912Y0315226D01*
X0179866Y0315263D01*
X0179823Y0315302D01*
X0179782Y0315344D01*
X0179744Y0315389D01*
X0179709Y0315436D01*
X0179678Y0315486D01*
X0179649Y0315537D01*
X0179625Y0315590D01*
X0179604Y0315645D01*
X0179586Y0315701D01*
X0179573Y0315758D01*
X0179563Y0315816D01*
X0179557Y0315874D01*
X0179555Y0315933D01*
X0253580Y0325344D02*
X0253580Y0305659D01*
X0287045Y0305659D01*
X0287045Y0325344D01*
X0253580Y0325344D01*
X0283435Y0322502D02*
X0283437Y0322561D01*
X0283443Y0322619D01*
X0283453Y0322677D01*
X0283466Y0322734D01*
X0283484Y0322790D01*
X0283505Y0322845D01*
X0283529Y0322898D01*
X0283558Y0322949D01*
X0283589Y0322999D01*
X0283624Y0323046D01*
X0283662Y0323091D01*
X0283703Y0323133D01*
X0283746Y0323172D01*
X0283792Y0323209D01*
X0283841Y0323242D01*
X0283891Y0323272D01*
X0283943Y0323298D01*
X0283997Y0323321D01*
X0284053Y0323341D01*
X0284109Y0323356D01*
X0284167Y0323368D01*
X0284225Y0323376D01*
X0284284Y0323380D01*
X0284342Y0323380D01*
X0284401Y0323376D01*
X0284459Y0323368D01*
X0284517Y0323356D01*
X0284573Y0323341D01*
X0284629Y0323321D01*
X0284683Y0323298D01*
X0284735Y0323272D01*
X0284785Y0323242D01*
X0284834Y0323209D01*
X0284880Y0323172D01*
X0284923Y0323133D01*
X0284964Y0323091D01*
X0285002Y0323046D01*
X0285037Y0322999D01*
X0285068Y0322949D01*
X0285097Y0322898D01*
X0285121Y0322845D01*
X0285142Y0322790D01*
X0285160Y0322734D01*
X0285173Y0322677D01*
X0285183Y0322619D01*
X0285189Y0322561D01*
X0285191Y0322502D01*
X0285189Y0322443D01*
X0285183Y0322385D01*
X0285173Y0322327D01*
X0285160Y0322270D01*
X0285142Y0322214D01*
X0285121Y0322159D01*
X0285097Y0322106D01*
X0285068Y0322055D01*
X0285037Y0322005D01*
X0285002Y0321958D01*
X0284964Y0321913D01*
X0284923Y0321871D01*
X0284880Y0321832D01*
X0284834Y0321795D01*
X0284785Y0321762D01*
X0284735Y0321732D01*
X0284683Y0321706D01*
X0284629Y0321683D01*
X0284573Y0321663D01*
X0284517Y0321648D01*
X0284459Y0321636D01*
X0284401Y0321628D01*
X0284342Y0321624D01*
X0284284Y0321624D01*
X0284225Y0321628D01*
X0284167Y0321636D01*
X0284109Y0321648D01*
X0284053Y0321663D01*
X0283997Y0321683D01*
X0283943Y0321706D01*
X0283891Y0321732D01*
X0283841Y0321762D01*
X0283792Y0321795D01*
X0283746Y0321832D01*
X0283703Y0321871D01*
X0283662Y0321913D01*
X0283624Y0321958D01*
X0283589Y0322005D01*
X0283558Y0322055D01*
X0283529Y0322106D01*
X0283505Y0322159D01*
X0283484Y0322214D01*
X0283466Y0322270D01*
X0283453Y0322327D01*
X0283443Y0322385D01*
X0283437Y0322443D01*
X0283435Y0322502D01*
X0357201Y0321276D02*
X0357201Y0301591D01*
X0390665Y0301591D01*
X0390665Y0321276D01*
X0357201Y0321276D01*
X0387055Y0318433D02*
X0387057Y0318492D01*
X0387063Y0318550D01*
X0387073Y0318608D01*
X0387086Y0318665D01*
X0387104Y0318721D01*
X0387125Y0318776D01*
X0387149Y0318829D01*
X0387178Y0318880D01*
X0387209Y0318930D01*
X0387244Y0318977D01*
X0387282Y0319022D01*
X0387323Y0319064D01*
X0387366Y0319103D01*
X0387412Y0319140D01*
X0387461Y0319173D01*
X0387511Y0319203D01*
X0387563Y0319229D01*
X0387617Y0319252D01*
X0387673Y0319272D01*
X0387729Y0319287D01*
X0387787Y0319299D01*
X0387845Y0319307D01*
X0387904Y0319311D01*
X0387962Y0319311D01*
X0388021Y0319307D01*
X0388079Y0319299D01*
X0388137Y0319287D01*
X0388193Y0319272D01*
X0388249Y0319252D01*
X0388303Y0319229D01*
X0388355Y0319203D01*
X0388405Y0319173D01*
X0388454Y0319140D01*
X0388500Y0319103D01*
X0388543Y0319064D01*
X0388584Y0319022D01*
X0388622Y0318977D01*
X0388657Y0318930D01*
X0388688Y0318880D01*
X0388717Y0318829D01*
X0388741Y0318776D01*
X0388762Y0318721D01*
X0388780Y0318665D01*
X0388793Y0318608D01*
X0388803Y0318550D01*
X0388809Y0318492D01*
X0388811Y0318433D01*
X0388809Y0318374D01*
X0388803Y0318316D01*
X0388793Y0318258D01*
X0388780Y0318201D01*
X0388762Y0318145D01*
X0388741Y0318090D01*
X0388717Y0318037D01*
X0388688Y0317986D01*
X0388657Y0317936D01*
X0388622Y0317889D01*
X0388584Y0317844D01*
X0388543Y0317802D01*
X0388500Y0317763D01*
X0388454Y0317726D01*
X0388405Y0317693D01*
X0388355Y0317663D01*
X0388303Y0317637D01*
X0388249Y0317614D01*
X0388193Y0317594D01*
X0388137Y0317579D01*
X0388079Y0317567D01*
X0388021Y0317559D01*
X0387962Y0317555D01*
X0387904Y0317555D01*
X0387845Y0317559D01*
X0387787Y0317567D01*
X0387729Y0317579D01*
X0387673Y0317594D01*
X0387617Y0317614D01*
X0387563Y0317637D01*
X0387511Y0317663D01*
X0387461Y0317693D01*
X0387412Y0317726D01*
X0387366Y0317763D01*
X0387323Y0317802D01*
X0387282Y0317844D01*
X0387244Y0317889D01*
X0387209Y0317936D01*
X0387178Y0317986D01*
X0387149Y0318037D01*
X0387125Y0318090D01*
X0387104Y0318145D01*
X0387086Y0318201D01*
X0387073Y0318258D01*
X0387063Y0318316D01*
X0387057Y0318374D01*
X0387055Y0318433D01*
X0295665Y0123776D02*
X0262201Y0123776D01*
X0262201Y0104091D01*
X0295665Y0104091D01*
X0295665Y0123776D01*
X0264055Y0106933D02*
X0264057Y0106992D01*
X0264063Y0107050D01*
X0264073Y0107108D01*
X0264086Y0107165D01*
X0264104Y0107221D01*
X0264125Y0107276D01*
X0264149Y0107329D01*
X0264178Y0107380D01*
X0264209Y0107430D01*
X0264244Y0107477D01*
X0264282Y0107522D01*
X0264323Y0107564D01*
X0264366Y0107603D01*
X0264412Y0107640D01*
X0264461Y0107673D01*
X0264511Y0107703D01*
X0264563Y0107729D01*
X0264617Y0107752D01*
X0264673Y0107772D01*
X0264729Y0107787D01*
X0264787Y0107799D01*
X0264845Y0107807D01*
X0264904Y0107811D01*
X0264962Y0107811D01*
X0265021Y0107807D01*
X0265079Y0107799D01*
X0265137Y0107787D01*
X0265193Y0107772D01*
X0265249Y0107752D01*
X0265303Y0107729D01*
X0265355Y0107703D01*
X0265405Y0107673D01*
X0265454Y0107640D01*
X0265500Y0107603D01*
X0265543Y0107564D01*
X0265584Y0107522D01*
X0265622Y0107477D01*
X0265657Y0107430D01*
X0265688Y0107380D01*
X0265717Y0107329D01*
X0265741Y0107276D01*
X0265762Y0107221D01*
X0265780Y0107165D01*
X0265793Y0107108D01*
X0265803Y0107050D01*
X0265809Y0106992D01*
X0265811Y0106933D01*
X0265809Y0106874D01*
X0265803Y0106816D01*
X0265793Y0106758D01*
X0265780Y0106701D01*
X0265762Y0106645D01*
X0265741Y0106590D01*
X0265717Y0106537D01*
X0265688Y0106486D01*
X0265657Y0106436D01*
X0265622Y0106389D01*
X0265584Y0106344D01*
X0265543Y0106302D01*
X0265500Y0106263D01*
X0265454Y0106226D01*
X0265405Y0106193D01*
X0265355Y0106163D01*
X0265303Y0106137D01*
X0265249Y0106114D01*
X0265193Y0106094D01*
X0265137Y0106079D01*
X0265079Y0106067D01*
X0265021Y0106059D01*
X0264962Y0106055D01*
X0264904Y0106055D01*
X0264845Y0106059D01*
X0264787Y0106067D01*
X0264729Y0106079D01*
X0264673Y0106094D01*
X0264617Y0106114D01*
X0264563Y0106137D01*
X0264511Y0106163D01*
X0264461Y0106193D01*
X0264412Y0106226D01*
X0264366Y0106263D01*
X0264323Y0106302D01*
X0264282Y0106344D01*
X0264244Y0106389D01*
X0264209Y0106436D01*
X0264178Y0106486D01*
X0264149Y0106537D01*
X0264125Y0106590D01*
X0264104Y0106645D01*
X0264086Y0106701D01*
X0264073Y0106758D01*
X0264063Y0106816D01*
X0264057Y0106874D01*
X0264055Y0106933D01*
X0162761Y0103266D02*
X0159761Y0103266D01*
X0159761Y0102266D01*
X0159761Y0103266D02*
X0156761Y0103266D01*
X0156761Y0123266D01*
X0159761Y0123266D01*
X0159761Y0124266D01*
X0159761Y0123266D02*
X0162761Y0123266D01*
X0162761Y0103266D01*
X0152761Y0103266D02*
X0149761Y0103266D01*
X0149761Y0102266D01*
X0149761Y0103266D02*
X0146761Y0103266D01*
X0146761Y0123266D01*
X0149761Y0123266D01*
X0149761Y0124266D01*
X0149761Y0123266D02*
X0152761Y0123266D01*
X0152761Y0103266D01*
X0151907Y0083977D02*
X0146907Y0083977D01*
X0144407Y0081477D01*
X0144407Y0076477D01*
X0146907Y0073977D01*
X0151907Y0073977D01*
X0154407Y0076477D01*
X0156907Y0073977D01*
X0161907Y0073977D01*
X0164407Y0076477D01*
X0164407Y0081477D01*
X0161907Y0083977D01*
X0156907Y0083977D01*
X0154407Y0081477D01*
X0151907Y0083977D01*
D17*
X0144785Y0120816D02*
X0143784Y0120816D01*
X0143311Y0120816D02*
X0142811Y0121316D01*
X0143061Y0121316D02*
X0142311Y0121316D01*
X0142311Y0120816D02*
X0142311Y0122317D01*
X0143061Y0122317D01*
X0143311Y0122067D01*
X0143311Y0121566D01*
X0143061Y0121316D01*
X0143784Y0121817D02*
X0144284Y0122317D01*
X0144284Y0120816D01*
X0164811Y0120816D02*
X0164811Y0122317D01*
X0165561Y0122317D01*
X0165811Y0122067D01*
X0165811Y0121566D01*
X0165561Y0121316D01*
X0164811Y0121316D01*
X0165311Y0121316D02*
X0165811Y0120816D01*
X0166284Y0120816D02*
X0167285Y0121817D01*
X0167285Y0122067D01*
X0167035Y0122317D01*
X0166534Y0122317D01*
X0166284Y0122067D01*
X0166284Y0120816D02*
X0167285Y0120816D01*
X0254537Y0110634D02*
X0254537Y0109633D01*
X0254787Y0109383D01*
X0255287Y0109383D01*
X0255537Y0109633D01*
X0256010Y0109633D02*
X0256260Y0109383D01*
X0256760Y0109383D01*
X0257011Y0109633D01*
X0257011Y0109883D01*
X0256760Y0110134D01*
X0256510Y0110134D01*
X0256760Y0110134D02*
X0257011Y0110384D01*
X0257011Y0110634D01*
X0256760Y0110884D01*
X0256260Y0110884D01*
X0256010Y0110634D01*
X0255537Y0110634D02*
X0255287Y0110884D01*
X0254787Y0110884D01*
X0254537Y0110634D01*
X0190207Y0311983D02*
X0190207Y0313484D01*
X0189456Y0312734D01*
X0190457Y0312734D01*
X0188984Y0313234D02*
X0188734Y0313484D01*
X0188233Y0313484D01*
X0187983Y0313234D01*
X0187983Y0312233D01*
X0188233Y0311983D01*
X0188734Y0311983D01*
X0188984Y0312233D01*
X0291863Y0318802D02*
X0292113Y0318552D01*
X0292613Y0318552D01*
X0292864Y0318802D01*
X0293336Y0318552D02*
X0294337Y0318552D01*
X0293836Y0318552D02*
X0293836Y0320053D01*
X0293336Y0319553D01*
X0292864Y0319803D02*
X0292613Y0320053D01*
X0292113Y0320053D01*
X0291863Y0319803D01*
X0291863Y0318802D01*
X0395483Y0315734D02*
X0395483Y0314733D01*
X0395733Y0314483D01*
X0396234Y0314483D01*
X0396484Y0314733D01*
X0396956Y0314483D02*
X0397957Y0315484D01*
X0397957Y0315734D01*
X0397707Y0315984D01*
X0397207Y0315984D01*
X0396956Y0315734D01*
X0396484Y0315734D02*
X0396234Y0315984D01*
X0395733Y0315984D01*
X0395483Y0315734D01*
X0396956Y0314483D02*
X0397957Y0314483D01*
M02*
