%
M48
M72
T01C0.01300
T02C0.02500
T03C0.03543
T04C0.04000
T05C0.12598
%
T01
X129558Y62683
X162058Y106433
X205183Y102058
X216433Y84558
X263308Y75183
X266433Y73308
X283933Y65183
X296433Y73933
X297058Y97058
X295808Y111433
X301433Y119558
X306433Y122058
X303933Y124558
X309558Y114558
X333933Y98933
X345183Y95808
X350183Y112058
X363933Y108933
X373933Y110808
X373933Y114558
X391433Y148308
X383933Y172058
X373933Y170183
X361433Y184558
X366433Y193308
X388308Y199558
X405808Y202058
X412058Y202058
X415808Y212058
X420808Y217058
X423308Y219558
X423308Y223308
X417058Y220808
X407058Y218308
X404558Y220808
X409558Y228308
X415808Y236433
X430808Y233308
X439558Y230808
X433308Y218933
X440808Y214558
X433308Y205808
X427058Y199558
X422058Y192058
X419558Y183933
X443933Y165808
X454558Y165183
X467683Y146433
X470183Y141433
X459558Y117683
X428308Y155808
X428308Y159558
X449558Y197058
X423308Y209558
X390808Y215183
X385808Y215183
X394558Y229558
X385808Y242683
X394558Y256433
X375183Y257683
X388308Y272683
X391433Y298308
X393933Y321433
X402683Y338308
X400183Y340808
X383308Y357683
X383308Y361433
X422058Y326433
X458933Y319558
X470183Y298308
X419558Y259558
X462058Y227683
X372058Y228933
X340808Y202683
X332683Y190808
X308933Y197058
X301433Y202683
X298933Y199558
X283933Y194558
X271433Y193308
X251433Y202058
X247683Y213308
X223933Y220808
X217683Y223308
X210183Y235183
X198933Y225183
X205183Y213308
X207683Y198308
X218933Y192058
X228308Y175183
X236433Y163308
X240183Y163308
X243933Y163308
X242683Y147058
X220183Y123308
X208933Y130808
X202683Y175183
X187683Y192058
X180183Y194558
X172683Y190808
X172683Y180808
X157683Y203308
X153933Y213308
X153933Y217058
X160808Y222683
X160808Y226433
X170808Y222683
X170808Y218933
X170808Y215183
X170808Y208933
X178933Y216433
X182683Y213933
X150183Y225183
X142058Y220183
X142058Y215183
X123308Y217683
X138308Y232683
X143308Y247683
X152058Y250808
X155808Y256433
X166433Y257683
X177058Y255183
X178933Y258933
X181433Y261433
X195183Y253933
X195183Y245808
X210808Y262683
X237683Y256433
X256433Y238308
X266433Y250808
X276433Y250808
X286433Y250808
X293933Y255183
X274558Y273933
X274558Y280183
X277058Y285183
X282683Y290183
X279558Y292058
X286433Y290808
X295808Y292058
X303308Y290808
X295808Y302058
X289558Y302058
X285808Y302058
X275183Y302058
X290808Y314558
X288308Y320808
X284558Y320808
X280808Y330808
X295808Y320808
X301433Y328308
X300183Y345808
X295808Y349558
X223933Y304558
X197683Y336433
X129558Y307058
X127058Y309558
X91433Y313308
X124558Y271433
X143308Y263308
X172058Y277683
X173933Y280808
X182683Y282683
X158308Y241433
X240183Y188308
X287058Y140808
X284558Y138308
X282058Y135808
X280808Y125808
X278308Y123308
X275808Y120808
X280808Y117058
X278308Y114558
X283308Y111433
X275808Y97058
X278308Y94558
X272058Y97058
X380808Y74558
X318933Y216433
X333933Y223308
X306433Y227683
X305183Y218308
X266433Y275183
X262683Y275183
X268933Y280183
X256433Y277683
X346433Y284558
X126433Y170808
X122683Y167058
X121433Y147058
X117683Y147058
X120183Y140808
X123933Y135808
T02
X250433Y242533
X250433Y237333
T03
X149761Y128266
X159761Y128266
X159761Y98266
X149761Y98266
T04
X120414Y324149
X116587Y314911
X112760Y305672
X108933Y296433
X116433Y278933
X116433Y268933
X116433Y258933
X116433Y248933
X96433Y248933
X96433Y258933
X96433Y268933
X96433Y278933
X111433Y223933
X111433Y213933
X118933Y191433
X118933Y181433
X118933Y171433
X118933Y161433
X96433Y161433
X96433Y171433
X96433Y181433
X96433Y191433
X106321Y142202
X110148Y132963
X113974Y123725
X117801Y114486
X118933Y86433
X128933Y86433
X148707Y78977
X160107Y78977
X178717Y90414
X187955Y86587
X197194Y82760
X206433Y78933
X226433Y71433
X236433Y71433
X246433Y71433
X256433Y71433
X256433Y91433
X246433Y91433
X236433Y91433
X226433Y91433
X279012Y79212
X289012Y79212
X311433Y71433
X321433Y71433
X331433Y71433
X341433Y71433
X362624Y79700
X371862Y83527
X381101Y87354
X390340Y91181
X413933Y88933
X423933Y88933
X439953Y113717
X443779Y122955
X447606Y132194
X451433Y141433
X440559Y160468
X440559Y170468
X440559Y180468
X440559Y190468
X463059Y190468
X463059Y180468
X463059Y170468
X463059Y160468
X453222Y212775
X453222Y222775
X463564Y247427
X463564Y257427
X463564Y267427
X463564Y277427
X441064Y277427
X441064Y267427
X441064Y257427
X441064Y247427
X381433Y248933
X381433Y238933
X381433Y228933
X381433Y208933
X371433Y208933
X361433Y208933
X351433Y208933
X341433Y208933
X331433Y208933
X321433Y208933
X311433Y208933
X301433Y208933
X291433Y208933
X281433Y208933
X271433Y208933
X261433Y208933
X251433Y208933
X241433Y208933
X231433Y208933
X221433Y208933
X211433Y208933
X201433Y208933
X191433Y208933
X191433Y181433
X181433Y181433
X201433Y181433
X196433Y151433
X186433Y151433
X176433Y151433
X206433Y151433
X246433Y151433
X256433Y151433
X266433Y151433
X276433Y151433
X286433Y151433
X296433Y151433
X306433Y151433
X316433Y151433
X326433Y151433
X336433Y151433
X346433Y151433
X356433Y151433
X366433Y151433
X376433Y151433
X386433Y151433
X396433Y151433
X396433Y181433
X386433Y181433
X376433Y181433
X366433Y181433
X356433Y181433
X346433Y181433
X336433Y181433
X326433Y181433
X316433Y181433
X306433Y181433
X296433Y181433
X286433Y181433
X276433Y181433
X266433Y181433
X256433Y181433
X246433Y181433
X321433Y238933
X321433Y248933
X331433Y248933
X331433Y238933
X341433Y238933
X351433Y238933
X351433Y248933
X341433Y248933
X341433Y268933
X351433Y268933
X361433Y268933
X371433Y268933
X381433Y268933
X331433Y268933
X321433Y268933
X311433Y268933
X301433Y268933
X291433Y268933
X281433Y268933
X271433Y268933
X261433Y268933
X251433Y268933
X241433Y268933
X231433Y268933
X221433Y268933
X211433Y268933
X201433Y268933
X191433Y268933
X176433Y338933
X185672Y342760
X194911Y346587
X204149Y350414
X226433Y341433
X236433Y341433
X246433Y341433
X256433Y341433
X256433Y361433
X246433Y361433
X236433Y361433
X226433Y361433
X278933Y351433
X288933Y351433
X311433Y341433
X321433Y341433
X331433Y341433
X341433Y341433
X363535Y350059
X372773Y346232
X382012Y342406
X391251Y338579
X442453Y324149
X446279Y314911
X450106Y305672
X453933Y296433
X341433Y361433
X331433Y361433
X321433Y361433
X311433Y361433
X311433Y91433
X321433Y91433
X331433Y91433
X341433Y91433
T05
X101433Y73933
X466433Y73933
X466433Y358933
X101433Y358933
M30
