G75*
%MOIN*%
%OFA0B0*%
%FSLAX25Y25*%
%IPPOS*%
%LPD*%
%AMOC8*
5,1,8,0,0,1.08239X$1,22.5*
%
%ADD10C,0.00000*%
%ADD11C,0.07400*%
%ADD12R,0.07400X0.07400*%
%ADD13C,0.04200*%
%ADD14R,0.01370X0.05500*%
%ADD15R,0.04331X0.03937*%
%ADD16R,0.05500X0.01370*%
%ADD17R,0.03937X0.04331*%
%ADD18C,0.00600*%
%ADD19C,0.02700*%
D10*
X0086433Y0068933D02*
X0086433Y0363894D01*
X0086436Y0364136D01*
X0086445Y0364377D01*
X0086459Y0364618D01*
X0086480Y0364859D01*
X0086506Y0365099D01*
X0086538Y0365339D01*
X0086576Y0365578D01*
X0086619Y0365815D01*
X0086669Y0366052D01*
X0086724Y0366287D01*
X0086784Y0366521D01*
X0086851Y0366753D01*
X0086922Y0366984D01*
X0087000Y0367213D01*
X0087083Y0367440D01*
X0087171Y0367665D01*
X0087265Y0367888D01*
X0087364Y0368108D01*
X0087469Y0368326D01*
X0087578Y0368541D01*
X0087693Y0368754D01*
X0087813Y0368964D01*
X0087938Y0369170D01*
X0088068Y0369374D01*
X0088203Y0369575D01*
X0088343Y0369772D01*
X0088487Y0369966D01*
X0088636Y0370156D01*
X0088790Y0370342D01*
X0088948Y0370525D01*
X0089110Y0370704D01*
X0089277Y0370879D01*
X0089448Y0371050D01*
X0089623Y0371217D01*
X0089802Y0371379D01*
X0089985Y0371537D01*
X0090171Y0371691D01*
X0090361Y0371840D01*
X0090555Y0371984D01*
X0090752Y0372124D01*
X0090953Y0372259D01*
X0091157Y0372389D01*
X0091363Y0372514D01*
X0091573Y0372634D01*
X0091786Y0372749D01*
X0092001Y0372858D01*
X0092219Y0372963D01*
X0092439Y0373062D01*
X0092662Y0373156D01*
X0092887Y0373244D01*
X0093114Y0373327D01*
X0093343Y0373405D01*
X0093574Y0373476D01*
X0093806Y0373543D01*
X0094040Y0373603D01*
X0094275Y0373658D01*
X0094512Y0373708D01*
X0094749Y0373751D01*
X0094988Y0373789D01*
X0095228Y0373821D01*
X0095468Y0373847D01*
X0095709Y0373868D01*
X0095950Y0373882D01*
X0096191Y0373891D01*
X0096433Y0373894D01*
X0470134Y0373894D01*
X0470376Y0373891D01*
X0470617Y0373882D01*
X0470858Y0373868D01*
X0471099Y0373847D01*
X0471339Y0373821D01*
X0471579Y0373789D01*
X0471818Y0373751D01*
X0472055Y0373708D01*
X0472292Y0373658D01*
X0472527Y0373603D01*
X0472761Y0373543D01*
X0472993Y0373476D01*
X0473224Y0373405D01*
X0473453Y0373327D01*
X0473680Y0373244D01*
X0473905Y0373156D01*
X0474128Y0373062D01*
X0474348Y0372963D01*
X0474566Y0372858D01*
X0474781Y0372749D01*
X0474994Y0372634D01*
X0475204Y0372514D01*
X0475410Y0372389D01*
X0475614Y0372259D01*
X0475815Y0372124D01*
X0476012Y0371984D01*
X0476206Y0371840D01*
X0476396Y0371691D01*
X0476582Y0371537D01*
X0476765Y0371379D01*
X0476944Y0371217D01*
X0477119Y0371050D01*
X0477290Y0370879D01*
X0477457Y0370704D01*
X0477619Y0370525D01*
X0477777Y0370342D01*
X0477931Y0370156D01*
X0478080Y0369966D01*
X0478224Y0369772D01*
X0478364Y0369575D01*
X0478499Y0369374D01*
X0478629Y0369170D01*
X0478754Y0368964D01*
X0478874Y0368754D01*
X0478989Y0368541D01*
X0479098Y0368326D01*
X0479203Y0368108D01*
X0479302Y0367888D01*
X0479396Y0367665D01*
X0479484Y0367440D01*
X0479567Y0367213D01*
X0479645Y0366984D01*
X0479716Y0366753D01*
X0479783Y0366521D01*
X0479843Y0366287D01*
X0479898Y0366052D01*
X0479948Y0365815D01*
X0479991Y0365578D01*
X0480029Y0365339D01*
X0480061Y0365099D01*
X0480087Y0364859D01*
X0480108Y0364618D01*
X0480122Y0364377D01*
X0480131Y0364136D01*
X0480134Y0363894D01*
X0480134Y0068933D01*
X0480131Y0068691D01*
X0480122Y0068450D01*
X0480108Y0068209D01*
X0480087Y0067968D01*
X0480061Y0067728D01*
X0480029Y0067488D01*
X0479991Y0067249D01*
X0479948Y0067012D01*
X0479898Y0066775D01*
X0479843Y0066540D01*
X0479783Y0066306D01*
X0479716Y0066074D01*
X0479645Y0065843D01*
X0479567Y0065614D01*
X0479484Y0065387D01*
X0479396Y0065162D01*
X0479302Y0064939D01*
X0479203Y0064719D01*
X0479098Y0064501D01*
X0478989Y0064286D01*
X0478874Y0064073D01*
X0478754Y0063863D01*
X0478629Y0063657D01*
X0478499Y0063453D01*
X0478364Y0063252D01*
X0478224Y0063055D01*
X0478080Y0062861D01*
X0477931Y0062671D01*
X0477777Y0062485D01*
X0477619Y0062302D01*
X0477457Y0062123D01*
X0477290Y0061948D01*
X0477119Y0061777D01*
X0476944Y0061610D01*
X0476765Y0061448D01*
X0476582Y0061290D01*
X0476396Y0061136D01*
X0476206Y0060987D01*
X0476012Y0060843D01*
X0475815Y0060703D01*
X0475614Y0060568D01*
X0475410Y0060438D01*
X0475204Y0060313D01*
X0474994Y0060193D01*
X0474781Y0060078D01*
X0474566Y0059969D01*
X0474348Y0059864D01*
X0474128Y0059765D01*
X0473905Y0059671D01*
X0473680Y0059583D01*
X0473453Y0059500D01*
X0473224Y0059422D01*
X0472993Y0059351D01*
X0472761Y0059284D01*
X0472527Y0059224D01*
X0472292Y0059169D01*
X0472055Y0059119D01*
X0471818Y0059076D01*
X0471579Y0059038D01*
X0471339Y0059006D01*
X0471099Y0058980D01*
X0470858Y0058959D01*
X0470617Y0058945D01*
X0470376Y0058936D01*
X0470134Y0058933D01*
X0096433Y0058933D01*
X0096191Y0058936D01*
X0095950Y0058945D01*
X0095709Y0058959D01*
X0095468Y0058980D01*
X0095228Y0059006D01*
X0094988Y0059038D01*
X0094749Y0059076D01*
X0094512Y0059119D01*
X0094275Y0059169D01*
X0094040Y0059224D01*
X0093806Y0059284D01*
X0093574Y0059351D01*
X0093343Y0059422D01*
X0093114Y0059500D01*
X0092887Y0059583D01*
X0092662Y0059671D01*
X0092439Y0059765D01*
X0092219Y0059864D01*
X0092001Y0059969D01*
X0091786Y0060078D01*
X0091573Y0060193D01*
X0091363Y0060313D01*
X0091157Y0060438D01*
X0090953Y0060568D01*
X0090752Y0060703D01*
X0090555Y0060843D01*
X0090361Y0060987D01*
X0090171Y0061136D01*
X0089985Y0061290D01*
X0089802Y0061448D01*
X0089623Y0061610D01*
X0089448Y0061777D01*
X0089277Y0061948D01*
X0089110Y0062123D01*
X0088948Y0062302D01*
X0088790Y0062485D01*
X0088636Y0062671D01*
X0088487Y0062861D01*
X0088343Y0063055D01*
X0088203Y0063252D01*
X0088068Y0063453D01*
X0087938Y0063657D01*
X0087813Y0063863D01*
X0087693Y0064073D01*
X0087578Y0064286D01*
X0087469Y0064501D01*
X0087364Y0064719D01*
X0087265Y0064939D01*
X0087171Y0065162D01*
X0087083Y0065387D01*
X0087000Y0065614D01*
X0086922Y0065843D01*
X0086851Y0066074D01*
X0086784Y0066306D01*
X0086724Y0066540D01*
X0086669Y0066775D01*
X0086619Y0067012D01*
X0086576Y0067249D01*
X0086538Y0067488D01*
X0086506Y0067728D01*
X0086480Y0067968D01*
X0086459Y0068209D01*
X0086445Y0068450D01*
X0086436Y0068691D01*
X0086433Y0068933D01*
X0095134Y0073933D02*
X0095136Y0074091D01*
X0095142Y0074249D01*
X0095152Y0074407D01*
X0095166Y0074565D01*
X0095184Y0074722D01*
X0095205Y0074879D01*
X0095231Y0075035D01*
X0095261Y0075191D01*
X0095294Y0075346D01*
X0095332Y0075499D01*
X0095373Y0075652D01*
X0095418Y0075804D01*
X0095467Y0075955D01*
X0095520Y0076104D01*
X0095576Y0076252D01*
X0095636Y0076398D01*
X0095700Y0076543D01*
X0095768Y0076686D01*
X0095839Y0076828D01*
X0095913Y0076968D01*
X0095991Y0077105D01*
X0096073Y0077241D01*
X0096157Y0077375D01*
X0096246Y0077506D01*
X0096337Y0077635D01*
X0096432Y0077762D01*
X0096529Y0077887D01*
X0096630Y0078009D01*
X0096734Y0078128D01*
X0096841Y0078245D01*
X0096951Y0078359D01*
X0097064Y0078470D01*
X0097179Y0078579D01*
X0097297Y0078684D01*
X0097418Y0078786D01*
X0097541Y0078886D01*
X0097667Y0078982D01*
X0097795Y0079075D01*
X0097925Y0079165D01*
X0098058Y0079251D01*
X0098193Y0079335D01*
X0098329Y0079414D01*
X0098468Y0079491D01*
X0098609Y0079563D01*
X0098751Y0079633D01*
X0098895Y0079698D01*
X0099041Y0079760D01*
X0099188Y0079818D01*
X0099337Y0079873D01*
X0099487Y0079924D01*
X0099638Y0079971D01*
X0099790Y0080014D01*
X0099943Y0080053D01*
X0100098Y0080089D01*
X0100253Y0080120D01*
X0100409Y0080148D01*
X0100565Y0080172D01*
X0100722Y0080192D01*
X0100880Y0080208D01*
X0101037Y0080220D01*
X0101196Y0080228D01*
X0101354Y0080232D01*
X0101512Y0080232D01*
X0101670Y0080228D01*
X0101829Y0080220D01*
X0101986Y0080208D01*
X0102144Y0080192D01*
X0102301Y0080172D01*
X0102457Y0080148D01*
X0102613Y0080120D01*
X0102768Y0080089D01*
X0102923Y0080053D01*
X0103076Y0080014D01*
X0103228Y0079971D01*
X0103379Y0079924D01*
X0103529Y0079873D01*
X0103678Y0079818D01*
X0103825Y0079760D01*
X0103971Y0079698D01*
X0104115Y0079633D01*
X0104257Y0079563D01*
X0104398Y0079491D01*
X0104537Y0079414D01*
X0104673Y0079335D01*
X0104808Y0079251D01*
X0104941Y0079165D01*
X0105071Y0079075D01*
X0105199Y0078982D01*
X0105325Y0078886D01*
X0105448Y0078786D01*
X0105569Y0078684D01*
X0105687Y0078579D01*
X0105802Y0078470D01*
X0105915Y0078359D01*
X0106025Y0078245D01*
X0106132Y0078128D01*
X0106236Y0078009D01*
X0106337Y0077887D01*
X0106434Y0077762D01*
X0106529Y0077635D01*
X0106620Y0077506D01*
X0106709Y0077375D01*
X0106793Y0077241D01*
X0106875Y0077105D01*
X0106953Y0076968D01*
X0107027Y0076828D01*
X0107098Y0076686D01*
X0107166Y0076543D01*
X0107230Y0076398D01*
X0107290Y0076252D01*
X0107346Y0076104D01*
X0107399Y0075955D01*
X0107448Y0075804D01*
X0107493Y0075652D01*
X0107534Y0075499D01*
X0107572Y0075346D01*
X0107605Y0075191D01*
X0107635Y0075035D01*
X0107661Y0074879D01*
X0107682Y0074722D01*
X0107700Y0074565D01*
X0107714Y0074407D01*
X0107724Y0074249D01*
X0107730Y0074091D01*
X0107732Y0073933D01*
X0107730Y0073775D01*
X0107724Y0073617D01*
X0107714Y0073459D01*
X0107700Y0073301D01*
X0107682Y0073144D01*
X0107661Y0072987D01*
X0107635Y0072831D01*
X0107605Y0072675D01*
X0107572Y0072520D01*
X0107534Y0072367D01*
X0107493Y0072214D01*
X0107448Y0072062D01*
X0107399Y0071911D01*
X0107346Y0071762D01*
X0107290Y0071614D01*
X0107230Y0071468D01*
X0107166Y0071323D01*
X0107098Y0071180D01*
X0107027Y0071038D01*
X0106953Y0070898D01*
X0106875Y0070761D01*
X0106793Y0070625D01*
X0106709Y0070491D01*
X0106620Y0070360D01*
X0106529Y0070231D01*
X0106434Y0070104D01*
X0106337Y0069979D01*
X0106236Y0069857D01*
X0106132Y0069738D01*
X0106025Y0069621D01*
X0105915Y0069507D01*
X0105802Y0069396D01*
X0105687Y0069287D01*
X0105569Y0069182D01*
X0105448Y0069080D01*
X0105325Y0068980D01*
X0105199Y0068884D01*
X0105071Y0068791D01*
X0104941Y0068701D01*
X0104808Y0068615D01*
X0104673Y0068531D01*
X0104537Y0068452D01*
X0104398Y0068375D01*
X0104257Y0068303D01*
X0104115Y0068233D01*
X0103971Y0068168D01*
X0103825Y0068106D01*
X0103678Y0068048D01*
X0103529Y0067993D01*
X0103379Y0067942D01*
X0103228Y0067895D01*
X0103076Y0067852D01*
X0102923Y0067813D01*
X0102768Y0067777D01*
X0102613Y0067746D01*
X0102457Y0067718D01*
X0102301Y0067694D01*
X0102144Y0067674D01*
X0101986Y0067658D01*
X0101829Y0067646D01*
X0101670Y0067638D01*
X0101512Y0067634D01*
X0101354Y0067634D01*
X0101196Y0067638D01*
X0101037Y0067646D01*
X0100880Y0067658D01*
X0100722Y0067674D01*
X0100565Y0067694D01*
X0100409Y0067718D01*
X0100253Y0067746D01*
X0100098Y0067777D01*
X0099943Y0067813D01*
X0099790Y0067852D01*
X0099638Y0067895D01*
X0099487Y0067942D01*
X0099337Y0067993D01*
X0099188Y0068048D01*
X0099041Y0068106D01*
X0098895Y0068168D01*
X0098751Y0068233D01*
X0098609Y0068303D01*
X0098468Y0068375D01*
X0098329Y0068452D01*
X0098193Y0068531D01*
X0098058Y0068615D01*
X0097925Y0068701D01*
X0097795Y0068791D01*
X0097667Y0068884D01*
X0097541Y0068980D01*
X0097418Y0069080D01*
X0097297Y0069182D01*
X0097179Y0069287D01*
X0097064Y0069396D01*
X0096951Y0069507D01*
X0096841Y0069621D01*
X0096734Y0069738D01*
X0096630Y0069857D01*
X0096529Y0069979D01*
X0096432Y0070104D01*
X0096337Y0070231D01*
X0096246Y0070360D01*
X0096157Y0070491D01*
X0096073Y0070625D01*
X0095991Y0070761D01*
X0095913Y0070898D01*
X0095839Y0071038D01*
X0095768Y0071180D01*
X0095700Y0071323D01*
X0095636Y0071468D01*
X0095576Y0071614D01*
X0095520Y0071762D01*
X0095467Y0071911D01*
X0095418Y0072062D01*
X0095373Y0072214D01*
X0095332Y0072367D01*
X0095294Y0072520D01*
X0095261Y0072675D01*
X0095231Y0072831D01*
X0095205Y0072987D01*
X0095184Y0073144D01*
X0095166Y0073301D01*
X0095152Y0073459D01*
X0095142Y0073617D01*
X0095136Y0073775D01*
X0095134Y0073933D01*
X0460134Y0073933D02*
X0460136Y0074091D01*
X0460142Y0074249D01*
X0460152Y0074407D01*
X0460166Y0074565D01*
X0460184Y0074722D01*
X0460205Y0074879D01*
X0460231Y0075035D01*
X0460261Y0075191D01*
X0460294Y0075346D01*
X0460332Y0075499D01*
X0460373Y0075652D01*
X0460418Y0075804D01*
X0460467Y0075955D01*
X0460520Y0076104D01*
X0460576Y0076252D01*
X0460636Y0076398D01*
X0460700Y0076543D01*
X0460768Y0076686D01*
X0460839Y0076828D01*
X0460913Y0076968D01*
X0460991Y0077105D01*
X0461073Y0077241D01*
X0461157Y0077375D01*
X0461246Y0077506D01*
X0461337Y0077635D01*
X0461432Y0077762D01*
X0461529Y0077887D01*
X0461630Y0078009D01*
X0461734Y0078128D01*
X0461841Y0078245D01*
X0461951Y0078359D01*
X0462064Y0078470D01*
X0462179Y0078579D01*
X0462297Y0078684D01*
X0462418Y0078786D01*
X0462541Y0078886D01*
X0462667Y0078982D01*
X0462795Y0079075D01*
X0462925Y0079165D01*
X0463058Y0079251D01*
X0463193Y0079335D01*
X0463329Y0079414D01*
X0463468Y0079491D01*
X0463609Y0079563D01*
X0463751Y0079633D01*
X0463895Y0079698D01*
X0464041Y0079760D01*
X0464188Y0079818D01*
X0464337Y0079873D01*
X0464487Y0079924D01*
X0464638Y0079971D01*
X0464790Y0080014D01*
X0464943Y0080053D01*
X0465098Y0080089D01*
X0465253Y0080120D01*
X0465409Y0080148D01*
X0465565Y0080172D01*
X0465722Y0080192D01*
X0465880Y0080208D01*
X0466037Y0080220D01*
X0466196Y0080228D01*
X0466354Y0080232D01*
X0466512Y0080232D01*
X0466670Y0080228D01*
X0466829Y0080220D01*
X0466986Y0080208D01*
X0467144Y0080192D01*
X0467301Y0080172D01*
X0467457Y0080148D01*
X0467613Y0080120D01*
X0467768Y0080089D01*
X0467923Y0080053D01*
X0468076Y0080014D01*
X0468228Y0079971D01*
X0468379Y0079924D01*
X0468529Y0079873D01*
X0468678Y0079818D01*
X0468825Y0079760D01*
X0468971Y0079698D01*
X0469115Y0079633D01*
X0469257Y0079563D01*
X0469398Y0079491D01*
X0469537Y0079414D01*
X0469673Y0079335D01*
X0469808Y0079251D01*
X0469941Y0079165D01*
X0470071Y0079075D01*
X0470199Y0078982D01*
X0470325Y0078886D01*
X0470448Y0078786D01*
X0470569Y0078684D01*
X0470687Y0078579D01*
X0470802Y0078470D01*
X0470915Y0078359D01*
X0471025Y0078245D01*
X0471132Y0078128D01*
X0471236Y0078009D01*
X0471337Y0077887D01*
X0471434Y0077762D01*
X0471529Y0077635D01*
X0471620Y0077506D01*
X0471709Y0077375D01*
X0471793Y0077241D01*
X0471875Y0077105D01*
X0471953Y0076968D01*
X0472027Y0076828D01*
X0472098Y0076686D01*
X0472166Y0076543D01*
X0472230Y0076398D01*
X0472290Y0076252D01*
X0472346Y0076104D01*
X0472399Y0075955D01*
X0472448Y0075804D01*
X0472493Y0075652D01*
X0472534Y0075499D01*
X0472572Y0075346D01*
X0472605Y0075191D01*
X0472635Y0075035D01*
X0472661Y0074879D01*
X0472682Y0074722D01*
X0472700Y0074565D01*
X0472714Y0074407D01*
X0472724Y0074249D01*
X0472730Y0074091D01*
X0472732Y0073933D01*
X0472730Y0073775D01*
X0472724Y0073617D01*
X0472714Y0073459D01*
X0472700Y0073301D01*
X0472682Y0073144D01*
X0472661Y0072987D01*
X0472635Y0072831D01*
X0472605Y0072675D01*
X0472572Y0072520D01*
X0472534Y0072367D01*
X0472493Y0072214D01*
X0472448Y0072062D01*
X0472399Y0071911D01*
X0472346Y0071762D01*
X0472290Y0071614D01*
X0472230Y0071468D01*
X0472166Y0071323D01*
X0472098Y0071180D01*
X0472027Y0071038D01*
X0471953Y0070898D01*
X0471875Y0070761D01*
X0471793Y0070625D01*
X0471709Y0070491D01*
X0471620Y0070360D01*
X0471529Y0070231D01*
X0471434Y0070104D01*
X0471337Y0069979D01*
X0471236Y0069857D01*
X0471132Y0069738D01*
X0471025Y0069621D01*
X0470915Y0069507D01*
X0470802Y0069396D01*
X0470687Y0069287D01*
X0470569Y0069182D01*
X0470448Y0069080D01*
X0470325Y0068980D01*
X0470199Y0068884D01*
X0470071Y0068791D01*
X0469941Y0068701D01*
X0469808Y0068615D01*
X0469673Y0068531D01*
X0469537Y0068452D01*
X0469398Y0068375D01*
X0469257Y0068303D01*
X0469115Y0068233D01*
X0468971Y0068168D01*
X0468825Y0068106D01*
X0468678Y0068048D01*
X0468529Y0067993D01*
X0468379Y0067942D01*
X0468228Y0067895D01*
X0468076Y0067852D01*
X0467923Y0067813D01*
X0467768Y0067777D01*
X0467613Y0067746D01*
X0467457Y0067718D01*
X0467301Y0067694D01*
X0467144Y0067674D01*
X0466986Y0067658D01*
X0466829Y0067646D01*
X0466670Y0067638D01*
X0466512Y0067634D01*
X0466354Y0067634D01*
X0466196Y0067638D01*
X0466037Y0067646D01*
X0465880Y0067658D01*
X0465722Y0067674D01*
X0465565Y0067694D01*
X0465409Y0067718D01*
X0465253Y0067746D01*
X0465098Y0067777D01*
X0464943Y0067813D01*
X0464790Y0067852D01*
X0464638Y0067895D01*
X0464487Y0067942D01*
X0464337Y0067993D01*
X0464188Y0068048D01*
X0464041Y0068106D01*
X0463895Y0068168D01*
X0463751Y0068233D01*
X0463609Y0068303D01*
X0463468Y0068375D01*
X0463329Y0068452D01*
X0463193Y0068531D01*
X0463058Y0068615D01*
X0462925Y0068701D01*
X0462795Y0068791D01*
X0462667Y0068884D01*
X0462541Y0068980D01*
X0462418Y0069080D01*
X0462297Y0069182D01*
X0462179Y0069287D01*
X0462064Y0069396D01*
X0461951Y0069507D01*
X0461841Y0069621D01*
X0461734Y0069738D01*
X0461630Y0069857D01*
X0461529Y0069979D01*
X0461432Y0070104D01*
X0461337Y0070231D01*
X0461246Y0070360D01*
X0461157Y0070491D01*
X0461073Y0070625D01*
X0460991Y0070761D01*
X0460913Y0070898D01*
X0460839Y0071038D01*
X0460768Y0071180D01*
X0460700Y0071323D01*
X0460636Y0071468D01*
X0460576Y0071614D01*
X0460520Y0071762D01*
X0460467Y0071911D01*
X0460418Y0072062D01*
X0460373Y0072214D01*
X0460332Y0072367D01*
X0460294Y0072520D01*
X0460261Y0072675D01*
X0460231Y0072831D01*
X0460205Y0072987D01*
X0460184Y0073144D01*
X0460166Y0073301D01*
X0460152Y0073459D01*
X0460142Y0073617D01*
X0460136Y0073775D01*
X0460134Y0073933D01*
X0460134Y0358933D02*
X0460136Y0359091D01*
X0460142Y0359249D01*
X0460152Y0359407D01*
X0460166Y0359565D01*
X0460184Y0359722D01*
X0460205Y0359879D01*
X0460231Y0360035D01*
X0460261Y0360191D01*
X0460294Y0360346D01*
X0460332Y0360499D01*
X0460373Y0360652D01*
X0460418Y0360804D01*
X0460467Y0360955D01*
X0460520Y0361104D01*
X0460576Y0361252D01*
X0460636Y0361398D01*
X0460700Y0361543D01*
X0460768Y0361686D01*
X0460839Y0361828D01*
X0460913Y0361968D01*
X0460991Y0362105D01*
X0461073Y0362241D01*
X0461157Y0362375D01*
X0461246Y0362506D01*
X0461337Y0362635D01*
X0461432Y0362762D01*
X0461529Y0362887D01*
X0461630Y0363009D01*
X0461734Y0363128D01*
X0461841Y0363245D01*
X0461951Y0363359D01*
X0462064Y0363470D01*
X0462179Y0363579D01*
X0462297Y0363684D01*
X0462418Y0363786D01*
X0462541Y0363886D01*
X0462667Y0363982D01*
X0462795Y0364075D01*
X0462925Y0364165D01*
X0463058Y0364251D01*
X0463193Y0364335D01*
X0463329Y0364414D01*
X0463468Y0364491D01*
X0463609Y0364563D01*
X0463751Y0364633D01*
X0463895Y0364698D01*
X0464041Y0364760D01*
X0464188Y0364818D01*
X0464337Y0364873D01*
X0464487Y0364924D01*
X0464638Y0364971D01*
X0464790Y0365014D01*
X0464943Y0365053D01*
X0465098Y0365089D01*
X0465253Y0365120D01*
X0465409Y0365148D01*
X0465565Y0365172D01*
X0465722Y0365192D01*
X0465880Y0365208D01*
X0466037Y0365220D01*
X0466196Y0365228D01*
X0466354Y0365232D01*
X0466512Y0365232D01*
X0466670Y0365228D01*
X0466829Y0365220D01*
X0466986Y0365208D01*
X0467144Y0365192D01*
X0467301Y0365172D01*
X0467457Y0365148D01*
X0467613Y0365120D01*
X0467768Y0365089D01*
X0467923Y0365053D01*
X0468076Y0365014D01*
X0468228Y0364971D01*
X0468379Y0364924D01*
X0468529Y0364873D01*
X0468678Y0364818D01*
X0468825Y0364760D01*
X0468971Y0364698D01*
X0469115Y0364633D01*
X0469257Y0364563D01*
X0469398Y0364491D01*
X0469537Y0364414D01*
X0469673Y0364335D01*
X0469808Y0364251D01*
X0469941Y0364165D01*
X0470071Y0364075D01*
X0470199Y0363982D01*
X0470325Y0363886D01*
X0470448Y0363786D01*
X0470569Y0363684D01*
X0470687Y0363579D01*
X0470802Y0363470D01*
X0470915Y0363359D01*
X0471025Y0363245D01*
X0471132Y0363128D01*
X0471236Y0363009D01*
X0471337Y0362887D01*
X0471434Y0362762D01*
X0471529Y0362635D01*
X0471620Y0362506D01*
X0471709Y0362375D01*
X0471793Y0362241D01*
X0471875Y0362105D01*
X0471953Y0361968D01*
X0472027Y0361828D01*
X0472098Y0361686D01*
X0472166Y0361543D01*
X0472230Y0361398D01*
X0472290Y0361252D01*
X0472346Y0361104D01*
X0472399Y0360955D01*
X0472448Y0360804D01*
X0472493Y0360652D01*
X0472534Y0360499D01*
X0472572Y0360346D01*
X0472605Y0360191D01*
X0472635Y0360035D01*
X0472661Y0359879D01*
X0472682Y0359722D01*
X0472700Y0359565D01*
X0472714Y0359407D01*
X0472724Y0359249D01*
X0472730Y0359091D01*
X0472732Y0358933D01*
X0472730Y0358775D01*
X0472724Y0358617D01*
X0472714Y0358459D01*
X0472700Y0358301D01*
X0472682Y0358144D01*
X0472661Y0357987D01*
X0472635Y0357831D01*
X0472605Y0357675D01*
X0472572Y0357520D01*
X0472534Y0357367D01*
X0472493Y0357214D01*
X0472448Y0357062D01*
X0472399Y0356911D01*
X0472346Y0356762D01*
X0472290Y0356614D01*
X0472230Y0356468D01*
X0472166Y0356323D01*
X0472098Y0356180D01*
X0472027Y0356038D01*
X0471953Y0355898D01*
X0471875Y0355761D01*
X0471793Y0355625D01*
X0471709Y0355491D01*
X0471620Y0355360D01*
X0471529Y0355231D01*
X0471434Y0355104D01*
X0471337Y0354979D01*
X0471236Y0354857D01*
X0471132Y0354738D01*
X0471025Y0354621D01*
X0470915Y0354507D01*
X0470802Y0354396D01*
X0470687Y0354287D01*
X0470569Y0354182D01*
X0470448Y0354080D01*
X0470325Y0353980D01*
X0470199Y0353884D01*
X0470071Y0353791D01*
X0469941Y0353701D01*
X0469808Y0353615D01*
X0469673Y0353531D01*
X0469537Y0353452D01*
X0469398Y0353375D01*
X0469257Y0353303D01*
X0469115Y0353233D01*
X0468971Y0353168D01*
X0468825Y0353106D01*
X0468678Y0353048D01*
X0468529Y0352993D01*
X0468379Y0352942D01*
X0468228Y0352895D01*
X0468076Y0352852D01*
X0467923Y0352813D01*
X0467768Y0352777D01*
X0467613Y0352746D01*
X0467457Y0352718D01*
X0467301Y0352694D01*
X0467144Y0352674D01*
X0466986Y0352658D01*
X0466829Y0352646D01*
X0466670Y0352638D01*
X0466512Y0352634D01*
X0466354Y0352634D01*
X0466196Y0352638D01*
X0466037Y0352646D01*
X0465880Y0352658D01*
X0465722Y0352674D01*
X0465565Y0352694D01*
X0465409Y0352718D01*
X0465253Y0352746D01*
X0465098Y0352777D01*
X0464943Y0352813D01*
X0464790Y0352852D01*
X0464638Y0352895D01*
X0464487Y0352942D01*
X0464337Y0352993D01*
X0464188Y0353048D01*
X0464041Y0353106D01*
X0463895Y0353168D01*
X0463751Y0353233D01*
X0463609Y0353303D01*
X0463468Y0353375D01*
X0463329Y0353452D01*
X0463193Y0353531D01*
X0463058Y0353615D01*
X0462925Y0353701D01*
X0462795Y0353791D01*
X0462667Y0353884D01*
X0462541Y0353980D01*
X0462418Y0354080D01*
X0462297Y0354182D01*
X0462179Y0354287D01*
X0462064Y0354396D01*
X0461951Y0354507D01*
X0461841Y0354621D01*
X0461734Y0354738D01*
X0461630Y0354857D01*
X0461529Y0354979D01*
X0461432Y0355104D01*
X0461337Y0355231D01*
X0461246Y0355360D01*
X0461157Y0355491D01*
X0461073Y0355625D01*
X0460991Y0355761D01*
X0460913Y0355898D01*
X0460839Y0356038D01*
X0460768Y0356180D01*
X0460700Y0356323D01*
X0460636Y0356468D01*
X0460576Y0356614D01*
X0460520Y0356762D01*
X0460467Y0356911D01*
X0460418Y0357062D01*
X0460373Y0357214D01*
X0460332Y0357367D01*
X0460294Y0357520D01*
X0460261Y0357675D01*
X0460231Y0357831D01*
X0460205Y0357987D01*
X0460184Y0358144D01*
X0460166Y0358301D01*
X0460152Y0358459D01*
X0460142Y0358617D01*
X0460136Y0358775D01*
X0460134Y0358933D01*
X0095134Y0358933D02*
X0095136Y0359091D01*
X0095142Y0359249D01*
X0095152Y0359407D01*
X0095166Y0359565D01*
X0095184Y0359722D01*
X0095205Y0359879D01*
X0095231Y0360035D01*
X0095261Y0360191D01*
X0095294Y0360346D01*
X0095332Y0360499D01*
X0095373Y0360652D01*
X0095418Y0360804D01*
X0095467Y0360955D01*
X0095520Y0361104D01*
X0095576Y0361252D01*
X0095636Y0361398D01*
X0095700Y0361543D01*
X0095768Y0361686D01*
X0095839Y0361828D01*
X0095913Y0361968D01*
X0095991Y0362105D01*
X0096073Y0362241D01*
X0096157Y0362375D01*
X0096246Y0362506D01*
X0096337Y0362635D01*
X0096432Y0362762D01*
X0096529Y0362887D01*
X0096630Y0363009D01*
X0096734Y0363128D01*
X0096841Y0363245D01*
X0096951Y0363359D01*
X0097064Y0363470D01*
X0097179Y0363579D01*
X0097297Y0363684D01*
X0097418Y0363786D01*
X0097541Y0363886D01*
X0097667Y0363982D01*
X0097795Y0364075D01*
X0097925Y0364165D01*
X0098058Y0364251D01*
X0098193Y0364335D01*
X0098329Y0364414D01*
X0098468Y0364491D01*
X0098609Y0364563D01*
X0098751Y0364633D01*
X0098895Y0364698D01*
X0099041Y0364760D01*
X0099188Y0364818D01*
X0099337Y0364873D01*
X0099487Y0364924D01*
X0099638Y0364971D01*
X0099790Y0365014D01*
X0099943Y0365053D01*
X0100098Y0365089D01*
X0100253Y0365120D01*
X0100409Y0365148D01*
X0100565Y0365172D01*
X0100722Y0365192D01*
X0100880Y0365208D01*
X0101037Y0365220D01*
X0101196Y0365228D01*
X0101354Y0365232D01*
X0101512Y0365232D01*
X0101670Y0365228D01*
X0101829Y0365220D01*
X0101986Y0365208D01*
X0102144Y0365192D01*
X0102301Y0365172D01*
X0102457Y0365148D01*
X0102613Y0365120D01*
X0102768Y0365089D01*
X0102923Y0365053D01*
X0103076Y0365014D01*
X0103228Y0364971D01*
X0103379Y0364924D01*
X0103529Y0364873D01*
X0103678Y0364818D01*
X0103825Y0364760D01*
X0103971Y0364698D01*
X0104115Y0364633D01*
X0104257Y0364563D01*
X0104398Y0364491D01*
X0104537Y0364414D01*
X0104673Y0364335D01*
X0104808Y0364251D01*
X0104941Y0364165D01*
X0105071Y0364075D01*
X0105199Y0363982D01*
X0105325Y0363886D01*
X0105448Y0363786D01*
X0105569Y0363684D01*
X0105687Y0363579D01*
X0105802Y0363470D01*
X0105915Y0363359D01*
X0106025Y0363245D01*
X0106132Y0363128D01*
X0106236Y0363009D01*
X0106337Y0362887D01*
X0106434Y0362762D01*
X0106529Y0362635D01*
X0106620Y0362506D01*
X0106709Y0362375D01*
X0106793Y0362241D01*
X0106875Y0362105D01*
X0106953Y0361968D01*
X0107027Y0361828D01*
X0107098Y0361686D01*
X0107166Y0361543D01*
X0107230Y0361398D01*
X0107290Y0361252D01*
X0107346Y0361104D01*
X0107399Y0360955D01*
X0107448Y0360804D01*
X0107493Y0360652D01*
X0107534Y0360499D01*
X0107572Y0360346D01*
X0107605Y0360191D01*
X0107635Y0360035D01*
X0107661Y0359879D01*
X0107682Y0359722D01*
X0107700Y0359565D01*
X0107714Y0359407D01*
X0107724Y0359249D01*
X0107730Y0359091D01*
X0107732Y0358933D01*
X0107730Y0358775D01*
X0107724Y0358617D01*
X0107714Y0358459D01*
X0107700Y0358301D01*
X0107682Y0358144D01*
X0107661Y0357987D01*
X0107635Y0357831D01*
X0107605Y0357675D01*
X0107572Y0357520D01*
X0107534Y0357367D01*
X0107493Y0357214D01*
X0107448Y0357062D01*
X0107399Y0356911D01*
X0107346Y0356762D01*
X0107290Y0356614D01*
X0107230Y0356468D01*
X0107166Y0356323D01*
X0107098Y0356180D01*
X0107027Y0356038D01*
X0106953Y0355898D01*
X0106875Y0355761D01*
X0106793Y0355625D01*
X0106709Y0355491D01*
X0106620Y0355360D01*
X0106529Y0355231D01*
X0106434Y0355104D01*
X0106337Y0354979D01*
X0106236Y0354857D01*
X0106132Y0354738D01*
X0106025Y0354621D01*
X0105915Y0354507D01*
X0105802Y0354396D01*
X0105687Y0354287D01*
X0105569Y0354182D01*
X0105448Y0354080D01*
X0105325Y0353980D01*
X0105199Y0353884D01*
X0105071Y0353791D01*
X0104941Y0353701D01*
X0104808Y0353615D01*
X0104673Y0353531D01*
X0104537Y0353452D01*
X0104398Y0353375D01*
X0104257Y0353303D01*
X0104115Y0353233D01*
X0103971Y0353168D01*
X0103825Y0353106D01*
X0103678Y0353048D01*
X0103529Y0352993D01*
X0103379Y0352942D01*
X0103228Y0352895D01*
X0103076Y0352852D01*
X0102923Y0352813D01*
X0102768Y0352777D01*
X0102613Y0352746D01*
X0102457Y0352718D01*
X0102301Y0352694D01*
X0102144Y0352674D01*
X0101986Y0352658D01*
X0101829Y0352646D01*
X0101670Y0352638D01*
X0101512Y0352634D01*
X0101354Y0352634D01*
X0101196Y0352638D01*
X0101037Y0352646D01*
X0100880Y0352658D01*
X0100722Y0352674D01*
X0100565Y0352694D01*
X0100409Y0352718D01*
X0100253Y0352746D01*
X0100098Y0352777D01*
X0099943Y0352813D01*
X0099790Y0352852D01*
X0099638Y0352895D01*
X0099487Y0352942D01*
X0099337Y0352993D01*
X0099188Y0353048D01*
X0099041Y0353106D01*
X0098895Y0353168D01*
X0098751Y0353233D01*
X0098609Y0353303D01*
X0098468Y0353375D01*
X0098329Y0353452D01*
X0098193Y0353531D01*
X0098058Y0353615D01*
X0097925Y0353701D01*
X0097795Y0353791D01*
X0097667Y0353884D01*
X0097541Y0353980D01*
X0097418Y0354080D01*
X0097297Y0354182D01*
X0097179Y0354287D01*
X0097064Y0354396D01*
X0096951Y0354507D01*
X0096841Y0354621D01*
X0096734Y0354738D01*
X0096630Y0354857D01*
X0096529Y0354979D01*
X0096432Y0355104D01*
X0096337Y0355231D01*
X0096246Y0355360D01*
X0096157Y0355491D01*
X0096073Y0355625D01*
X0095991Y0355761D01*
X0095913Y0355898D01*
X0095839Y0356038D01*
X0095768Y0356180D01*
X0095700Y0356323D01*
X0095636Y0356468D01*
X0095576Y0356614D01*
X0095520Y0356762D01*
X0095467Y0356911D01*
X0095418Y0357062D01*
X0095373Y0357214D01*
X0095332Y0357367D01*
X0095294Y0357520D01*
X0095261Y0357675D01*
X0095231Y0357831D01*
X0095205Y0357987D01*
X0095184Y0358144D01*
X0095166Y0358301D01*
X0095152Y0358459D01*
X0095142Y0358617D01*
X0095136Y0358775D01*
X0095134Y0358933D01*
D11*
X0120414Y0324149D03*
X0116587Y0314911D03*
X0112760Y0305672D03*
X0108933Y0296433D03*
X0116433Y0278933D03*
X0116433Y0268933D03*
X0116433Y0258933D03*
X0116433Y0248933D03*
X0096433Y0248933D03*
X0096433Y0258933D03*
X0096433Y0268933D03*
X0096433Y0278933D03*
X0111433Y0223933D03*
X0118933Y0191433D03*
X0118933Y0181433D03*
X0118933Y0171433D03*
X0118933Y0161433D03*
X0096433Y0161433D03*
X0096433Y0171433D03*
X0096433Y0181433D03*
X0096433Y0191433D03*
X0106321Y0142202D03*
X0110148Y0132963D03*
X0113974Y0123725D03*
X0117801Y0114486D03*
X0149761Y0128266D03*
X0159761Y0128266D03*
X0176433Y0151433D03*
X0186433Y0151433D03*
X0196433Y0151433D03*
X0191433Y0181433D03*
X0181433Y0181433D03*
X0201433Y0181433D03*
X0201433Y0208933D03*
X0211433Y0208933D03*
X0221433Y0208933D03*
X0231433Y0208933D03*
X0241433Y0208933D03*
X0251433Y0208933D03*
X0261433Y0208933D03*
X0271433Y0208933D03*
X0281433Y0208933D03*
X0291433Y0208933D03*
X0301433Y0208933D03*
X0311433Y0208933D03*
X0321433Y0208933D03*
X0331433Y0208933D03*
X0341433Y0208933D03*
X0351433Y0208933D03*
X0361433Y0208933D03*
X0371433Y0208933D03*
X0381433Y0208933D03*
X0381433Y0228933D03*
X0381433Y0238933D03*
X0351433Y0238933D03*
X0341433Y0238933D03*
X0331433Y0238933D03*
X0321433Y0238933D03*
X0321433Y0248933D03*
X0331433Y0248933D03*
X0341433Y0248933D03*
X0351433Y0248933D03*
X0351433Y0268933D03*
X0341433Y0268933D03*
X0331433Y0268933D03*
X0321433Y0268933D03*
X0311433Y0268933D03*
X0301433Y0268933D03*
X0291433Y0268933D03*
X0281433Y0268933D03*
X0271433Y0268933D03*
X0261433Y0268933D03*
X0251433Y0268933D03*
X0241433Y0268933D03*
X0231433Y0268933D03*
X0221433Y0268933D03*
X0211433Y0268933D03*
X0201433Y0268933D03*
X0191433Y0268933D03*
X0176433Y0338933D03*
X0185672Y0342760D03*
X0194911Y0346587D03*
X0204149Y0350414D03*
X0226433Y0341433D03*
X0236433Y0341433D03*
X0246433Y0341433D03*
X0256433Y0341433D03*
X0256433Y0361433D03*
X0246433Y0361433D03*
X0236433Y0361433D03*
X0226433Y0361433D03*
X0278933Y0351433D03*
X0311433Y0341433D03*
X0321433Y0341433D03*
X0331433Y0341433D03*
X0341433Y0341433D03*
X0363535Y0350059D03*
X0372773Y0346232D03*
X0382012Y0342406D03*
X0391251Y0338579D03*
X0442453Y0324149D03*
X0446279Y0314911D03*
X0450106Y0305672D03*
X0453933Y0296433D03*
X0463564Y0277427D03*
X0463564Y0267427D03*
X0463564Y0257427D03*
X0463564Y0247427D03*
X0441064Y0247427D03*
X0441064Y0257427D03*
X0441064Y0267427D03*
X0441064Y0277427D03*
X0381433Y0268933D03*
X0371433Y0268933D03*
X0361433Y0268933D03*
X0453222Y0212775D03*
X0463059Y0190468D03*
X0463059Y0180468D03*
X0463059Y0170468D03*
X0463059Y0160468D03*
X0451433Y0141433D03*
X0447606Y0132194D03*
X0443779Y0122955D03*
X0439953Y0113717D03*
X0423933Y0088933D03*
X0390340Y0091181D03*
X0381101Y0087354D03*
X0371862Y0083527D03*
X0362624Y0079700D03*
X0341433Y0071433D03*
X0331433Y0071433D03*
X0321433Y0071433D03*
X0311433Y0071433D03*
X0289012Y0079212D03*
X0311433Y0091433D03*
X0321433Y0091433D03*
X0331433Y0091433D03*
X0341433Y0091433D03*
X0336433Y0151433D03*
X0326433Y0151433D03*
X0316433Y0151433D03*
X0306433Y0151433D03*
X0296433Y0151433D03*
X0286433Y0151433D03*
X0276433Y0151433D03*
X0266433Y0151433D03*
X0256433Y0151433D03*
X0246433Y0151433D03*
X0246433Y0181433D03*
X0256433Y0181433D03*
X0266433Y0181433D03*
X0276433Y0181433D03*
X0286433Y0181433D03*
X0296433Y0181433D03*
X0306433Y0181433D03*
X0316433Y0181433D03*
X0326433Y0181433D03*
X0336433Y0181433D03*
X0346433Y0181433D03*
X0356433Y0181433D03*
X0366433Y0181433D03*
X0376433Y0181433D03*
X0386433Y0181433D03*
X0396433Y0181433D03*
X0440559Y0180468D03*
X0440559Y0170468D03*
X0440559Y0160468D03*
X0440559Y0190468D03*
X0396433Y0151433D03*
X0386433Y0151433D03*
X0376433Y0151433D03*
X0366433Y0151433D03*
X0356433Y0151433D03*
X0346433Y0151433D03*
X0256433Y0091433D03*
X0246433Y0091433D03*
X0236433Y0091433D03*
X0226433Y0091433D03*
X0206433Y0078933D03*
X0197194Y0082760D03*
X0187955Y0086587D03*
X0178717Y0090414D03*
X0159761Y0098266D03*
X0149761Y0098266D03*
X0128933Y0086433D03*
X0148707Y0078977D03*
X0160107Y0078977D03*
X0226433Y0071433D03*
X0236433Y0071433D03*
X0246433Y0071433D03*
X0256433Y0071433D03*
X0311433Y0361433D03*
X0321433Y0361433D03*
X0331433Y0361433D03*
X0341433Y0361433D03*
D12*
X0288933Y0351433D03*
X0381433Y0248933D03*
X0453222Y0222775D03*
X0413933Y0088933D03*
X0279012Y0079212D03*
X0206433Y0151433D03*
X0191433Y0208933D03*
X0111433Y0213933D03*
X0118933Y0086433D03*
D13*
X0250433Y0237333D03*
X0250433Y0242533D03*
D14*
X0269858Y0297039D03*
X0272417Y0297039D03*
X0274976Y0297039D03*
X0277535Y0297039D03*
X0280094Y0297039D03*
X0282654Y0297039D03*
X0285213Y0297039D03*
X0287772Y0297039D03*
X0290331Y0297039D03*
X0292890Y0297039D03*
X0295449Y0297039D03*
X0298008Y0297039D03*
X0298008Y0325827D03*
X0295449Y0325827D03*
X0292890Y0325827D03*
X0290331Y0325827D03*
X0287772Y0325827D03*
X0285213Y0325827D03*
X0282654Y0325827D03*
X0280094Y0325827D03*
X0277535Y0325827D03*
X0274976Y0325827D03*
X0272417Y0325827D03*
X0269858Y0325827D03*
X0269858Y0130827D03*
X0272417Y0130827D03*
X0274976Y0130827D03*
X0277535Y0130827D03*
X0280094Y0130827D03*
X0282654Y0130827D03*
X0285213Y0130827D03*
X0287772Y0130827D03*
X0290331Y0130827D03*
X0292890Y0130827D03*
X0295449Y0130827D03*
X0298008Y0130827D03*
X0298008Y0102039D03*
X0295449Y0102039D03*
X0292890Y0102039D03*
X0290331Y0102039D03*
X0287772Y0102039D03*
X0285213Y0102039D03*
X0282654Y0102039D03*
X0280094Y0102039D03*
X0277535Y0102039D03*
X0274976Y0102039D03*
X0272417Y0102039D03*
X0269858Y0102039D03*
D15*
X0262280Y0116433D03*
X0255587Y0116433D03*
X0305587Y0311433D03*
X0312280Y0311433D03*
D16*
X0399539Y0230508D03*
X0399539Y0227949D03*
X0399539Y0225390D03*
X0399539Y0222831D03*
X0399539Y0220272D03*
X0399539Y0217713D03*
X0399539Y0215154D03*
X0399539Y0212594D03*
X0399539Y0210035D03*
X0399539Y0207476D03*
X0399539Y0204917D03*
X0399539Y0202358D03*
X0428327Y0202358D03*
X0428327Y0204917D03*
X0428327Y0207476D03*
X0428327Y0210035D03*
X0428327Y0212594D03*
X0428327Y0215154D03*
X0428327Y0217713D03*
X0428327Y0220272D03*
X0428327Y0222831D03*
X0428327Y0225390D03*
X0428327Y0227949D03*
X0428327Y0230508D03*
X0165827Y0225508D03*
X0165827Y0222949D03*
X0165827Y0220390D03*
X0165827Y0217831D03*
X0165827Y0215272D03*
X0165827Y0212713D03*
X0165827Y0210154D03*
X0165827Y0207594D03*
X0165827Y0205035D03*
X0165827Y0202476D03*
X0165827Y0199917D03*
X0165827Y0197358D03*
X0137039Y0197358D03*
X0137039Y0199917D03*
X0137039Y0202476D03*
X0137039Y0205035D03*
X0137039Y0207594D03*
X0137039Y0210154D03*
X0137039Y0212713D03*
X0137039Y0215272D03*
X0137039Y0217831D03*
X0137039Y0220390D03*
X0137039Y0222949D03*
X0137039Y0225508D03*
D17*
X0151433Y0233087D03*
X0151433Y0239780D03*
X0413933Y0194780D03*
X0413933Y0188087D03*
D18*
X0413933Y0188308D01*
X0409558Y0192683D01*
X0409558Y0228308D01*
X0407058Y0227683D02*
X0407058Y0218308D01*
X0404558Y0220808D02*
X0404558Y0222683D01*
X0399558Y0222683D01*
X0399539Y0222831D01*
X0398933Y0220808D02*
X0392058Y0220808D01*
X0392058Y0293308D01*
X0396433Y0297683D01*
X0396433Y0340808D01*
X0367058Y0370183D01*
X0135808Y0370183D01*
X0135566Y0370180D01*
X0135325Y0370171D01*
X0135084Y0370157D01*
X0134843Y0370136D01*
X0134603Y0370110D01*
X0134363Y0370078D01*
X0134124Y0370040D01*
X0133887Y0369997D01*
X0133650Y0369947D01*
X0133415Y0369892D01*
X0133181Y0369832D01*
X0132949Y0369765D01*
X0132718Y0369694D01*
X0132489Y0369616D01*
X0132262Y0369533D01*
X0132037Y0369445D01*
X0131814Y0369351D01*
X0131594Y0369252D01*
X0131376Y0369147D01*
X0131161Y0369038D01*
X0130948Y0368923D01*
X0130738Y0368803D01*
X0130532Y0368678D01*
X0130328Y0368548D01*
X0130127Y0368413D01*
X0129930Y0368273D01*
X0129736Y0368129D01*
X0129546Y0367980D01*
X0129360Y0367826D01*
X0129177Y0367668D01*
X0128998Y0367506D01*
X0128823Y0367339D01*
X0128652Y0367168D01*
X0128485Y0366993D01*
X0128323Y0366814D01*
X0128165Y0366631D01*
X0128011Y0366445D01*
X0127862Y0366255D01*
X0127718Y0366061D01*
X0127578Y0365864D01*
X0127443Y0365663D01*
X0127313Y0365459D01*
X0127188Y0365253D01*
X0127068Y0365043D01*
X0126953Y0364830D01*
X0126844Y0364615D01*
X0126739Y0364397D01*
X0126640Y0364177D01*
X0126546Y0363954D01*
X0126458Y0363729D01*
X0126375Y0363502D01*
X0126297Y0363273D01*
X0126226Y0363042D01*
X0126159Y0362810D01*
X0126099Y0362576D01*
X0126044Y0362341D01*
X0125994Y0362104D01*
X0125951Y0361867D01*
X0125913Y0361628D01*
X0125881Y0361388D01*
X0125855Y0361148D01*
X0125834Y0360907D01*
X0125820Y0360666D01*
X0125811Y0360425D01*
X0125808Y0360183D01*
X0125808Y0312058D01*
X0117058Y0303308D01*
X0117058Y0289558D01*
X0096433Y0268933D01*
X0116433Y0278933D02*
X0121433Y0273933D01*
X0121433Y0219558D01*
X0123308Y0217683D01*
X0133308Y0215808D02*
X0133308Y0227683D01*
X0138308Y0232683D01*
X0140808Y0229558D02*
X0137058Y0225808D01*
X0137039Y0225508D01*
X0137058Y0223308D02*
X0137039Y0222949D01*
X0137058Y0223308D02*
X0143308Y0223308D01*
X0143308Y0247683D01*
X0144558Y0243308D02*
X0152058Y0250808D01*
X0154558Y0252058D02*
X0143308Y0263308D01*
X0155808Y0256433D02*
X0155808Y0222058D01*
X0157683Y0220183D01*
X0157683Y0212683D01*
X0158308Y0212058D01*
X0158308Y0210183D01*
X0165808Y0210183D01*
X0165827Y0210154D01*
X0165808Y0207683D02*
X0158933Y0207683D01*
X0156433Y0210183D01*
X0156433Y0219558D01*
X0154558Y0221433D01*
X0154558Y0252058D01*
X0166433Y0257683D02*
X0166433Y0225808D01*
X0165827Y0225508D01*
X0165808Y0225808D01*
X0160808Y0225808D01*
X0160808Y0226433D01*
X0160808Y0222683D02*
X0165808Y0222683D01*
X0165827Y0222949D01*
X0166433Y0220808D02*
X0165827Y0220390D01*
X0166433Y0220808D02*
X0168933Y0220808D01*
X0170808Y0222683D01*
X0172058Y0225183D02*
X0172058Y0277683D01*
X0174558Y0280183D02*
X0173933Y0280808D01*
X0174558Y0280183D02*
X0174558Y0207058D01*
X0173933Y0206433D01*
X0173933Y0197683D01*
X0166433Y0197683D01*
X0165827Y0197358D01*
X0165827Y0199917D02*
X0166433Y0200183D01*
X0172058Y0200183D01*
X0172058Y0206433D01*
X0173308Y0207683D01*
X0173308Y0223933D01*
X0172058Y0225183D01*
X0176433Y0224558D02*
X0177058Y0225183D01*
X0177058Y0255183D01*
X0178933Y0258933D02*
X0176433Y0261433D01*
X0176433Y0338933D01*
X0185183Y0342683D02*
X0185672Y0342760D01*
X0185183Y0342683D02*
X0185183Y0255808D01*
X0195183Y0245808D01*
X0197683Y0244558D02*
X0196433Y0243308D01*
X0196433Y0177683D01*
X0201433Y0172683D01*
X0201433Y0138308D01*
X0208933Y0130808D01*
X0220183Y0123308D02*
X0236433Y0139558D01*
X0236433Y0163308D01*
X0240183Y0163308D02*
X0228308Y0175183D01*
X0236433Y0182683D02*
X0236433Y0253933D01*
X0235183Y0255183D01*
X0235183Y0265808D01*
X0236433Y0267058D01*
X0236433Y0341433D01*
X0226433Y0341433D02*
X0226433Y0190808D01*
X0246433Y0170808D01*
X0246433Y0151433D01*
X0242683Y0147058D02*
X0242683Y0128933D01*
X0255183Y0116433D01*
X0255587Y0116433D01*
X0255808Y0116433D01*
X0263308Y0108933D01*
X0263308Y0075183D01*
X0265183Y0073308D02*
X0257058Y0065183D01*
X0128933Y0065183D01*
X0128933Y0086433D01*
X0148094Y0105594D01*
X0149558Y0109129D02*
X0149558Y0127683D01*
X0149761Y0128266D01*
X0150183Y0128308D01*
X0150183Y0225183D01*
X0150183Y0231433D01*
X0151433Y0232683D01*
X0151433Y0233087D01*
X0145808Y0233933D02*
X0145808Y0202058D01*
X0141433Y0197683D01*
X0137058Y0197683D01*
X0137039Y0197358D01*
X0136433Y0197683D01*
X0128933Y0197683D01*
X0128933Y0098504D01*
X0127469Y0094969D02*
X0118933Y0086433D01*
X0127469Y0094968D02*
X0127566Y0095069D01*
X0127661Y0095172D01*
X0127753Y0095278D01*
X0127842Y0095387D01*
X0127928Y0095497D01*
X0128011Y0095611D01*
X0128090Y0095726D01*
X0128167Y0095844D01*
X0128240Y0095964D01*
X0128309Y0096085D01*
X0128375Y0096209D01*
X0128438Y0096335D01*
X0128497Y0096462D01*
X0128552Y0096591D01*
X0128604Y0096721D01*
X0128652Y0096853D01*
X0128697Y0096986D01*
X0128738Y0097120D01*
X0128775Y0097255D01*
X0128808Y0097391D01*
X0128837Y0097529D01*
X0128862Y0097666D01*
X0128884Y0097805D01*
X0128902Y0097944D01*
X0128915Y0098084D01*
X0128925Y0098224D01*
X0128931Y0098364D01*
X0128933Y0098504D01*
X0148094Y0105593D02*
X0148191Y0105694D01*
X0148286Y0105797D01*
X0148378Y0105903D01*
X0148467Y0106012D01*
X0148553Y0106122D01*
X0148636Y0106236D01*
X0148715Y0106351D01*
X0148792Y0106469D01*
X0148865Y0106589D01*
X0148934Y0106710D01*
X0149000Y0106834D01*
X0149063Y0106960D01*
X0149122Y0107087D01*
X0149177Y0107216D01*
X0149229Y0107346D01*
X0149277Y0107478D01*
X0149322Y0107611D01*
X0149363Y0107745D01*
X0149400Y0107880D01*
X0149433Y0108016D01*
X0149462Y0108154D01*
X0149487Y0108291D01*
X0149509Y0108430D01*
X0149527Y0108569D01*
X0149540Y0108709D01*
X0149550Y0108849D01*
X0149556Y0108989D01*
X0149558Y0109129D01*
X0154558Y0113933D02*
X0162058Y0106433D01*
X0164558Y0102683D02*
X0160183Y0098308D01*
X0159761Y0098266D01*
X0160183Y0097683D01*
X0160183Y0079558D01*
X0160107Y0078977D01*
X0153933Y0073933D02*
X0153793Y0073935D01*
X0153653Y0073941D01*
X0153513Y0073951D01*
X0153373Y0073964D01*
X0153234Y0073982D01*
X0153095Y0074004D01*
X0152958Y0074029D01*
X0152820Y0074058D01*
X0152684Y0074091D01*
X0152549Y0074128D01*
X0152415Y0074169D01*
X0152282Y0074214D01*
X0152150Y0074262D01*
X0152020Y0074314D01*
X0151891Y0074369D01*
X0151764Y0074428D01*
X0151638Y0074491D01*
X0151514Y0074557D01*
X0151393Y0074626D01*
X0151273Y0074699D01*
X0151155Y0074776D01*
X0151040Y0074855D01*
X0150926Y0074938D01*
X0150816Y0075024D01*
X0150707Y0075113D01*
X0150601Y0075205D01*
X0150498Y0075300D01*
X0150397Y0075397D01*
X0150300Y0075498D01*
X0150205Y0075601D01*
X0150113Y0075707D01*
X0150024Y0075816D01*
X0149938Y0075926D01*
X0149855Y0076040D01*
X0149776Y0076155D01*
X0149699Y0076273D01*
X0149626Y0076393D01*
X0149557Y0076514D01*
X0149491Y0076638D01*
X0149428Y0076764D01*
X0149369Y0076891D01*
X0149314Y0077020D01*
X0149262Y0077150D01*
X0149214Y0077282D01*
X0149169Y0077415D01*
X0149128Y0077549D01*
X0149091Y0077684D01*
X0149058Y0077820D01*
X0149029Y0077958D01*
X0149004Y0078095D01*
X0148982Y0078234D01*
X0148964Y0078373D01*
X0148951Y0078513D01*
X0148941Y0078653D01*
X0148935Y0078793D01*
X0148933Y0078933D01*
X0148707Y0078977D01*
X0148933Y0079558D01*
X0149558Y0080183D01*
X0149558Y0097683D01*
X0149761Y0098266D01*
X0164558Y0102683D02*
X0164558Y0128112D01*
X0164556Y0128252D01*
X0164550Y0128392D01*
X0164540Y0128532D01*
X0164527Y0128672D01*
X0164509Y0128811D01*
X0164487Y0128950D01*
X0164462Y0129087D01*
X0164433Y0129225D01*
X0164400Y0129361D01*
X0164363Y0129496D01*
X0164322Y0129630D01*
X0164277Y0129763D01*
X0164229Y0129895D01*
X0164177Y0130025D01*
X0164122Y0130154D01*
X0164063Y0130281D01*
X0164000Y0130407D01*
X0163934Y0130531D01*
X0163865Y0130652D01*
X0163792Y0130772D01*
X0163715Y0130890D01*
X0163636Y0131005D01*
X0163553Y0131119D01*
X0163467Y0131229D01*
X0163378Y0131338D01*
X0163286Y0131444D01*
X0163191Y0131547D01*
X0163094Y0131648D01*
X0162058Y0134148D02*
X0162058Y0198933D01*
X0157683Y0203308D01*
X0159558Y0205183D02*
X0153933Y0210808D01*
X0153933Y0213308D01*
X0151433Y0214558D02*
X0151433Y0135379D01*
X0152898Y0131844D02*
X0153094Y0131648D01*
X0154558Y0128112D02*
X0154558Y0113933D01*
X0154558Y0128112D02*
X0154556Y0128252D01*
X0154550Y0128392D01*
X0154540Y0128532D01*
X0154527Y0128672D01*
X0154509Y0128811D01*
X0154487Y0128950D01*
X0154462Y0129087D01*
X0154433Y0129225D01*
X0154400Y0129361D01*
X0154363Y0129496D01*
X0154322Y0129630D01*
X0154277Y0129763D01*
X0154229Y0129895D01*
X0154177Y0130025D01*
X0154122Y0130154D01*
X0154063Y0130281D01*
X0154000Y0130407D01*
X0153934Y0130531D01*
X0153865Y0130652D01*
X0153792Y0130772D01*
X0153715Y0130890D01*
X0153636Y0131005D01*
X0153553Y0131119D01*
X0153467Y0131229D01*
X0153378Y0131338D01*
X0153286Y0131444D01*
X0153191Y0131547D01*
X0153094Y0131648D01*
X0152897Y0131843D02*
X0152800Y0131944D01*
X0152705Y0132047D01*
X0152613Y0132153D01*
X0152524Y0132262D01*
X0152438Y0132372D01*
X0152355Y0132486D01*
X0152276Y0132601D01*
X0152199Y0132719D01*
X0152126Y0132839D01*
X0152057Y0132960D01*
X0151991Y0133084D01*
X0151928Y0133210D01*
X0151869Y0133337D01*
X0151814Y0133466D01*
X0151762Y0133596D01*
X0151714Y0133728D01*
X0151669Y0133861D01*
X0151628Y0133995D01*
X0151591Y0134130D01*
X0151558Y0134266D01*
X0151529Y0134404D01*
X0151504Y0134541D01*
X0151482Y0134680D01*
X0151464Y0134819D01*
X0151451Y0134959D01*
X0151441Y0135099D01*
X0151435Y0135239D01*
X0151433Y0135379D01*
X0162058Y0134148D02*
X0162060Y0134032D01*
X0162066Y0133917D01*
X0162075Y0133801D01*
X0162088Y0133686D01*
X0162105Y0133572D01*
X0162126Y0133458D01*
X0162150Y0133345D01*
X0162178Y0133233D01*
X0162210Y0133122D01*
X0162246Y0133011D01*
X0162285Y0132902D01*
X0162327Y0132795D01*
X0162373Y0132689D01*
X0162423Y0132584D01*
X0162476Y0132481D01*
X0162532Y0132380D01*
X0162591Y0132281D01*
X0162654Y0132184D01*
X0162720Y0132088D01*
X0162789Y0131995D01*
X0162861Y0131905D01*
X0162935Y0131817D01*
X0163013Y0131731D01*
X0163094Y0131648D01*
X0181433Y0125808D02*
X0205183Y0102058D01*
X0211433Y0104558D02*
X0193933Y0087058D01*
X0188308Y0087058D01*
X0187955Y0086587D01*
X0186004Y0077683D02*
X0185864Y0077685D01*
X0185724Y0077691D01*
X0185584Y0077701D01*
X0185444Y0077714D01*
X0185305Y0077732D01*
X0185166Y0077754D01*
X0185029Y0077779D01*
X0184891Y0077808D01*
X0184755Y0077841D01*
X0184620Y0077878D01*
X0184486Y0077919D01*
X0184353Y0077964D01*
X0184221Y0078012D01*
X0184091Y0078064D01*
X0183962Y0078119D01*
X0183835Y0078178D01*
X0183709Y0078241D01*
X0183585Y0078307D01*
X0183464Y0078376D01*
X0183344Y0078449D01*
X0183226Y0078526D01*
X0183111Y0078605D01*
X0182997Y0078688D01*
X0182887Y0078774D01*
X0182778Y0078863D01*
X0182672Y0078955D01*
X0182569Y0079050D01*
X0182468Y0079147D01*
X0182469Y0079148D02*
X0171648Y0089969D01*
X0170183Y0093504D02*
X0170183Y0188308D01*
X0172683Y0190808D01*
X0176433Y0183308D02*
X0176433Y0158308D01*
X0181433Y0153308D01*
X0181433Y0125808D01*
X0211433Y0104558D02*
X0211433Y0198308D01*
X0206433Y0203308D01*
X0206433Y0210808D01*
X0207683Y0212058D01*
X0207683Y0236433D01*
X0216433Y0245183D01*
X0216433Y0297058D01*
X0223933Y0304558D01*
X0196433Y0331433D02*
X0200183Y0335183D01*
X0200183Y0347683D01*
X0198933Y0348933D01*
X0198933Y0352683D01*
X0202683Y0356433D01*
X0251433Y0356433D01*
X0251573Y0356435D01*
X0251713Y0356441D01*
X0251853Y0356451D01*
X0251993Y0356464D01*
X0252132Y0356482D01*
X0252271Y0356504D01*
X0252408Y0356529D01*
X0252546Y0356558D01*
X0252682Y0356591D01*
X0252817Y0356628D01*
X0252951Y0356669D01*
X0253084Y0356714D01*
X0253216Y0356762D01*
X0253346Y0356814D01*
X0253475Y0356869D01*
X0253602Y0356928D01*
X0253728Y0356991D01*
X0253852Y0357057D01*
X0253973Y0357126D01*
X0254093Y0357199D01*
X0254211Y0357276D01*
X0254326Y0357355D01*
X0254440Y0357438D01*
X0254550Y0357524D01*
X0254659Y0357613D01*
X0254765Y0357705D01*
X0254868Y0357800D01*
X0254969Y0357897D01*
X0255066Y0357998D01*
X0255161Y0358101D01*
X0255253Y0358207D01*
X0255342Y0358316D01*
X0255428Y0358426D01*
X0255511Y0358540D01*
X0255590Y0358655D01*
X0255667Y0358773D01*
X0255740Y0358893D01*
X0255809Y0359014D01*
X0255875Y0359138D01*
X0255938Y0359264D01*
X0255997Y0359391D01*
X0256052Y0359520D01*
X0256104Y0359650D01*
X0256152Y0359782D01*
X0256197Y0359915D01*
X0256238Y0360049D01*
X0256275Y0360184D01*
X0256308Y0360320D01*
X0256337Y0360458D01*
X0256362Y0360595D01*
X0256384Y0360734D01*
X0256402Y0360873D01*
X0256415Y0361013D01*
X0256425Y0361153D01*
X0256431Y0361293D01*
X0256433Y0361433D01*
X0270183Y0357683D02*
X0270183Y0332683D01*
X0288933Y0351433D01*
X0293308Y0356433D02*
X0278933Y0356433D01*
X0278933Y0351433D01*
X0270183Y0357683D02*
X0293933Y0357683D01*
X0305183Y0346433D01*
X0305183Y0318308D01*
X0312058Y0311433D01*
X0312280Y0311433D01*
X0312058Y0311433D02*
X0312058Y0299558D01*
X0303308Y0290808D01*
X0295808Y0292058D02*
X0295808Y0296433D01*
X0295449Y0297039D01*
X0293308Y0296433D02*
X0292890Y0297039D01*
X0293308Y0296433D02*
X0293308Y0289558D01*
X0304969Y0277898D01*
X0306433Y0274362D02*
X0306433Y0227683D01*
X0305183Y0218308D02*
X0301433Y0214558D01*
X0301433Y0208933D01*
X0296433Y0207058D02*
X0283933Y0194558D01*
X0281433Y0202058D02*
X0286433Y0207058D01*
X0286433Y0250808D01*
X0286433Y0254558D02*
X0281433Y0249558D01*
X0281433Y0208933D01*
X0281433Y0202058D02*
X0281433Y0156433D01*
X0276433Y0151433D01*
X0271433Y0146433D02*
X0271433Y0193308D01*
X0266433Y0181433D02*
X0266433Y0250808D01*
X0266433Y0254558D02*
X0261433Y0249558D01*
X0261433Y0208933D01*
X0253933Y0211433D02*
X0251433Y0208933D01*
X0253933Y0211433D02*
X0253933Y0239558D01*
X0256433Y0242058D01*
X0256433Y0277683D01*
X0256433Y0281433D02*
X0256433Y0341433D01*
X0246433Y0341433D02*
X0246433Y0214558D01*
X0247683Y0213308D01*
X0246433Y0210808D02*
X0237683Y0219558D01*
X0237683Y0256433D01*
X0256433Y0238308D02*
X0256433Y0181433D01*
X0246433Y0181433D02*
X0246433Y0210808D01*
X0241433Y0208933D02*
X0241433Y0189558D01*
X0240183Y0188308D01*
X0236433Y0182683D02*
X0247683Y0171433D01*
X0247683Y0160183D01*
X0256433Y0151433D01*
X0266433Y0151433D02*
X0251433Y0166433D01*
X0251433Y0202058D01*
X0271433Y0208933D02*
X0271433Y0249558D01*
X0276433Y0254558D01*
X0276433Y0272058D01*
X0274558Y0273933D01*
X0272058Y0276433D02*
X0266433Y0270808D01*
X0266433Y0254558D01*
X0276433Y0250808D02*
X0276433Y0181433D01*
X0291433Y0192058D02*
X0298933Y0199558D01*
X0301433Y0202683D02*
X0301433Y0134558D01*
X0298308Y0131433D01*
X0298008Y0130827D01*
X0295449Y0130827D02*
X0295183Y0131433D01*
X0294558Y0132058D01*
X0294558Y0146433D01*
X0291433Y0149558D01*
X0291433Y0192058D01*
X0306433Y0181433D02*
X0308933Y0183933D01*
X0308933Y0197058D01*
X0311433Y0202058D02*
X0306433Y0207058D01*
X0306433Y0215808D01*
X0326433Y0235808D01*
X0326433Y0253933D01*
X0341433Y0268933D01*
X0346433Y0267058D02*
X0346433Y0284558D01*
X0351433Y0294558D02*
X0351433Y0268933D01*
X0346433Y0267058D02*
X0336433Y0257058D01*
X0336433Y0201433D01*
X0316433Y0181433D01*
X0321433Y0183308D02*
X0340808Y0202683D01*
X0346433Y0204558D02*
X0346433Y0227058D01*
X0366433Y0247058D01*
X0366433Y0273308D01*
X0391433Y0298308D01*
X0393933Y0297058D02*
X0393933Y0321433D01*
X0402683Y0338308D02*
X0433308Y0307683D01*
X0433308Y0223308D01*
X0428933Y0223308D01*
X0428327Y0222831D01*
X0428308Y0225183D02*
X0428327Y0225390D01*
X0428308Y0225183D02*
X0423308Y0225183D01*
X0423308Y0223308D01*
X0423308Y0220183D02*
X0423308Y0219558D01*
X0423308Y0220183D02*
X0428308Y0220183D01*
X0428327Y0220272D01*
X0428933Y0218308D02*
X0428327Y0217713D01*
X0428933Y0218308D02*
X0433308Y0218308D01*
X0433308Y0218933D01*
X0435808Y0215183D02*
X0428933Y0215183D01*
X0428327Y0215154D01*
X0428327Y0212594D02*
X0428933Y0212058D01*
X0433308Y0212058D01*
X0433308Y0205808D01*
X0434558Y0203308D02*
X0437058Y0205808D01*
X0437058Y0244558D01*
X0436433Y0245183D01*
X0436433Y0252683D01*
X0440808Y0257058D01*
X0441064Y0257427D01*
X0445808Y0262683D02*
X0441433Y0267058D01*
X0441064Y0267427D01*
X0445808Y0262683D02*
X0445808Y0167683D01*
X0443933Y0165808D01*
X0440183Y0160808D02*
X0440559Y0160468D01*
X0440183Y0160808D02*
X0435808Y0165183D01*
X0435808Y0192683D01*
X0438308Y0195183D01*
X0438308Y0229558D01*
X0439558Y0230808D01*
X0430808Y0232683D02*
X0430808Y0233308D01*
X0430808Y0232683D02*
X0428933Y0230808D01*
X0428327Y0230508D01*
X0428327Y0227949D02*
X0428308Y0227683D01*
X0420808Y0227683D01*
X0420808Y0217058D01*
X0419558Y0219558D02*
X0418308Y0218308D01*
X0418308Y0185183D01*
X0419558Y0183933D01*
X0413933Y0188087D02*
X0413933Y0088933D01*
X0418523Y0094344D02*
X0423933Y0088933D01*
X0418522Y0094343D02*
X0418425Y0094444D01*
X0418330Y0094547D01*
X0418238Y0094653D01*
X0418149Y0094762D01*
X0418063Y0094872D01*
X0417980Y0094986D01*
X0417901Y0095101D01*
X0417824Y0095219D01*
X0417751Y0095339D01*
X0417682Y0095460D01*
X0417616Y0095584D01*
X0417553Y0095710D01*
X0417494Y0095837D01*
X0417439Y0095966D01*
X0417387Y0096096D01*
X0417339Y0096228D01*
X0417294Y0096361D01*
X0417253Y0096495D01*
X0417216Y0096630D01*
X0417183Y0096766D01*
X0417154Y0096904D01*
X0417129Y0097041D01*
X0417107Y0097180D01*
X0417089Y0097319D01*
X0417076Y0097459D01*
X0417066Y0097599D01*
X0417060Y0097739D01*
X0417058Y0097879D01*
X0417058Y0191433D01*
X0413933Y0194558D01*
X0413933Y0194780D01*
X0413933Y0200183D01*
X0412058Y0202058D01*
X0412058Y0208308D01*
X0415808Y0212058D01*
X0423308Y0209558D02*
X0428308Y0209558D01*
X0428327Y0210035D01*
X0428327Y0207476D02*
X0428308Y0207058D01*
X0422058Y0207058D01*
X0422058Y0192058D01*
X0427058Y0199558D02*
X0427058Y0200808D01*
X0428308Y0202058D01*
X0428327Y0202358D01*
X0428308Y0204558D02*
X0428327Y0204917D01*
X0428308Y0204558D02*
X0424558Y0204558D01*
X0424558Y0159558D01*
X0428308Y0155808D01*
X0428308Y0159558D02*
X0434558Y0165808D01*
X0434558Y0203308D01*
X0435808Y0215183D02*
X0435808Y0243933D01*
X0434558Y0245183D01*
X0434558Y0310183D01*
X0383308Y0361433D01*
X0383308Y0357683D02*
X0397683Y0343308D01*
X0397683Y0254558D01*
X0415808Y0236433D01*
X0407058Y0227683D02*
X0399558Y0227683D01*
X0399539Y0227949D01*
X0398933Y0225808D02*
X0399539Y0225390D01*
X0398933Y0225808D02*
X0394558Y0225808D01*
X0394558Y0229558D01*
X0398933Y0230808D02*
X0399539Y0230508D01*
X0398933Y0230808D02*
X0394558Y0235183D01*
X0394558Y0256433D01*
X0386433Y0243308D02*
X0385808Y0242683D01*
X0386433Y0243308D02*
X0386433Y0270808D01*
X0385808Y0271433D01*
X0385808Y0275183D01*
X0389558Y0275183D01*
X0390808Y0273933D01*
X0390808Y0218308D01*
X0398933Y0218308D01*
X0399539Y0217713D01*
X0399539Y0220272D02*
X0398933Y0220808D01*
X0398933Y0215183D02*
X0390808Y0215183D01*
X0390808Y0212058D02*
X0390808Y0192683D01*
X0381433Y0183308D01*
X0381433Y0124129D01*
X0379969Y0120594D02*
X0373933Y0114558D01*
X0373933Y0110808D02*
X0399969Y0136844D01*
X0401433Y0140379D02*
X0401433Y0183308D01*
X0395808Y0188933D01*
X0395808Y0207058D01*
X0398933Y0207058D01*
X0399539Y0207476D01*
X0398933Y0209558D02*
X0392058Y0209558D01*
X0392058Y0183933D01*
X0391433Y0183308D01*
X0391433Y0179558D01*
X0383933Y0172058D01*
X0373933Y0170183D02*
X0371433Y0172683D01*
X0371433Y0198933D01*
X0381433Y0208933D01*
X0385808Y0215183D02*
X0372058Y0228933D01*
X0381433Y0238933D02*
X0376433Y0243933D01*
X0376433Y0256433D01*
X0375183Y0257683D01*
X0372683Y0263308D02*
X0372683Y0251433D01*
X0366433Y0245183D01*
X0366433Y0193308D01*
X0361433Y0184558D02*
X0361433Y0179558D01*
X0371433Y0169558D01*
X0371433Y0097058D01*
X0380808Y0087683D01*
X0381101Y0087354D01*
X0380808Y0074558D02*
X0408308Y0102058D01*
X0408308Y0204558D01*
X0399558Y0204558D01*
X0399539Y0204917D01*
X0399539Y0202358D02*
X0399558Y0202058D01*
X0405808Y0202058D01*
X0399539Y0210035D02*
X0398933Y0209558D01*
X0398933Y0212058D02*
X0399539Y0212594D01*
X0398933Y0212058D02*
X0390808Y0212058D01*
X0398933Y0215183D02*
X0399539Y0215154D01*
X0417058Y0220808D02*
X0418308Y0222058D01*
X0418308Y0257058D01*
X0400183Y0275183D01*
X0400183Y0340808D01*
X0422058Y0326433D02*
X0447058Y0301433D01*
X0447058Y0143308D01*
X0442058Y0138308D01*
X0442058Y0124558D01*
X0443308Y0123308D01*
X0443779Y0122955D01*
X0458308Y0118933D02*
X0458308Y0208933D01*
X0459558Y0210183D01*
X0459558Y0244558D01*
X0458933Y0245183D01*
X0458933Y0262683D01*
X0463308Y0267058D01*
X0463564Y0267427D01*
X0457683Y0244558D02*
X0457683Y0293308D01*
X0458933Y0294558D01*
X0458933Y0319558D01*
X0450106Y0305672D02*
X0449558Y0305183D01*
X0448308Y0303933D01*
X0448308Y0198308D01*
X0449558Y0197058D01*
X0440808Y0190808D02*
X0440559Y0190468D01*
X0440808Y0190808D02*
X0440808Y0214558D01*
X0457058Y0209558D02*
X0458308Y0210808D01*
X0458308Y0243933D01*
X0457683Y0244558D01*
X0462058Y0227683D02*
X0467683Y0222058D01*
X0467683Y0146433D01*
X0470183Y0141433D02*
X0470183Y0298308D01*
X0419558Y0259558D02*
X0419558Y0219558D01*
X0388308Y0199558D02*
X0388308Y0272683D01*
X0376433Y0267058D02*
X0376433Y0279558D01*
X0393933Y0297058D01*
X0376433Y0267058D02*
X0372683Y0263308D01*
X0351433Y0294558D02*
X0316433Y0329558D01*
X0316433Y0366433D01*
X0196433Y0366433D01*
X0140808Y0310808D01*
X0140808Y0229558D01*
X0145808Y0233933D02*
X0151433Y0239558D01*
X0151433Y0239780D01*
X0158308Y0241433D02*
X0158308Y0221433D01*
X0158933Y0220808D01*
X0158933Y0213308D01*
X0165808Y0213308D01*
X0165827Y0212713D01*
X0166433Y0215183D02*
X0165827Y0215272D01*
X0166433Y0215183D02*
X0170808Y0215183D01*
X0170808Y0218308D02*
X0166433Y0218308D01*
X0165827Y0217831D01*
X0170808Y0218308D02*
X0170808Y0218933D01*
X0176433Y0224558D02*
X0176433Y0207058D01*
X0175183Y0205808D01*
X0175183Y0152683D01*
X0176433Y0151433D01*
X0186433Y0151433D02*
X0186433Y0189558D01*
X0185183Y0190808D01*
X0185183Y0225808D01*
X0181433Y0229558D01*
X0181433Y0261433D01*
X0186433Y0262683D02*
X0186433Y0336433D01*
X0194558Y0344558D01*
X0194558Y0346433D01*
X0194911Y0346587D01*
X0204149Y0350414D02*
X0204558Y0350183D01*
X0206433Y0348308D01*
X0206433Y0267058D01*
X0210808Y0262683D01*
X0197683Y0265808D02*
X0196433Y0267058D01*
X0196433Y0331433D01*
X0191433Y0330183D02*
X0197683Y0336433D01*
X0191433Y0330183D02*
X0191433Y0268933D01*
X0197683Y0265808D02*
X0197683Y0244558D01*
X0195183Y0253933D02*
X0186433Y0262683D01*
X0183933Y0281433D02*
X0183933Y0228933D01*
X0186433Y0226433D01*
X0186433Y0193308D01*
X0187683Y0192058D01*
X0182683Y0189558D02*
X0176433Y0183308D01*
X0172683Y0180808D02*
X0171433Y0179558D01*
X0171433Y0097683D01*
X0178308Y0090808D01*
X0178717Y0090414D01*
X0171647Y0089968D02*
X0171550Y0090069D01*
X0171455Y0090172D01*
X0171363Y0090278D01*
X0171274Y0090387D01*
X0171188Y0090497D01*
X0171105Y0090611D01*
X0171026Y0090726D01*
X0170949Y0090844D01*
X0170876Y0090964D01*
X0170807Y0091085D01*
X0170741Y0091209D01*
X0170678Y0091335D01*
X0170619Y0091462D01*
X0170564Y0091591D01*
X0170512Y0091721D01*
X0170464Y0091853D01*
X0170419Y0091986D01*
X0170378Y0092120D01*
X0170341Y0092255D01*
X0170308Y0092391D01*
X0170279Y0092529D01*
X0170254Y0092666D01*
X0170232Y0092805D01*
X0170214Y0092944D01*
X0170201Y0093084D01*
X0170191Y0093224D01*
X0170185Y0093364D01*
X0170183Y0093504D01*
X0186004Y0077683D02*
X0206433Y0077683D01*
X0206433Y0078933D01*
X0206862Y0073933D02*
X0207002Y0073935D01*
X0207142Y0073941D01*
X0207282Y0073951D01*
X0207422Y0073964D01*
X0207561Y0073982D01*
X0207700Y0074004D01*
X0207837Y0074029D01*
X0207975Y0074058D01*
X0208111Y0074091D01*
X0208246Y0074128D01*
X0208380Y0074169D01*
X0208513Y0074214D01*
X0208645Y0074262D01*
X0208775Y0074314D01*
X0208904Y0074369D01*
X0209031Y0074428D01*
X0209157Y0074491D01*
X0209281Y0074557D01*
X0209402Y0074626D01*
X0209522Y0074699D01*
X0209640Y0074776D01*
X0209755Y0074855D01*
X0209869Y0074938D01*
X0209979Y0075024D01*
X0210088Y0075113D01*
X0210194Y0075205D01*
X0210297Y0075300D01*
X0210398Y0075397D01*
X0210398Y0075398D02*
X0211219Y0076219D01*
X0212683Y0079754D02*
X0212683Y0207683D01*
X0211433Y0208933D01*
X0205183Y0213308D02*
X0205183Y0218933D01*
X0198933Y0225183D01*
X0210183Y0234558D02*
X0210183Y0235183D01*
X0210183Y0234558D02*
X0223933Y0220808D01*
X0217683Y0223308D02*
X0216433Y0222058D01*
X0216433Y0084558D01*
X0219148Y0085594D02*
X0230246Y0074495D01*
X0230331Y0074407D01*
X0230414Y0074317D01*
X0230494Y0074224D01*
X0230570Y0074129D01*
X0230644Y0074031D01*
X0230716Y0073931D01*
X0230784Y0073830D01*
X0230848Y0073726D01*
X0230910Y0073620D01*
X0230969Y0073513D01*
X0231024Y0073403D01*
X0231076Y0073292D01*
X0231124Y0073180D01*
X0231170Y0073066D01*
X0231211Y0072951D01*
X0231249Y0072835D01*
X0231284Y0072717D01*
X0231315Y0072599D01*
X0231343Y0072480D01*
X0231367Y0072360D01*
X0231387Y0072239D01*
X0231403Y0072118D01*
X0231416Y0071996D01*
X0231426Y0071874D01*
X0231431Y0071751D01*
X0231433Y0071629D01*
X0232898Y0068094D02*
X0233232Y0067759D01*
X0233326Y0067667D01*
X0233423Y0067578D01*
X0233523Y0067492D01*
X0233625Y0067409D01*
X0233730Y0067329D01*
X0233836Y0067252D01*
X0233945Y0067178D01*
X0234056Y0067107D01*
X0234170Y0067040D01*
X0234284Y0066975D01*
X0234401Y0066915D01*
X0234520Y0066857D01*
X0234640Y0066803D01*
X0234762Y0066753D01*
X0234885Y0066706D01*
X0235009Y0066663D01*
X0235135Y0066623D01*
X0235261Y0066587D01*
X0235389Y0066555D01*
X0235518Y0066527D01*
X0235647Y0066502D01*
X0235777Y0066481D01*
X0235907Y0066464D01*
X0236038Y0066450D01*
X0236170Y0066441D01*
X0236301Y0066435D01*
X0236433Y0066433D01*
X0236573Y0066435D01*
X0236713Y0066441D01*
X0236853Y0066451D01*
X0236993Y0066464D01*
X0237132Y0066482D01*
X0237271Y0066504D01*
X0237408Y0066529D01*
X0237546Y0066558D01*
X0237682Y0066591D01*
X0237817Y0066628D01*
X0237951Y0066669D01*
X0238084Y0066714D01*
X0238216Y0066762D01*
X0238346Y0066814D01*
X0238475Y0066869D01*
X0238602Y0066928D01*
X0238728Y0066991D01*
X0238852Y0067057D01*
X0238973Y0067126D01*
X0239093Y0067199D01*
X0239211Y0067276D01*
X0239326Y0067355D01*
X0239440Y0067438D01*
X0239550Y0067524D01*
X0239659Y0067613D01*
X0239765Y0067705D01*
X0239868Y0067800D01*
X0239969Y0067897D01*
X0240066Y0067998D01*
X0240161Y0068101D01*
X0240253Y0068207D01*
X0240342Y0068316D01*
X0240428Y0068426D01*
X0240511Y0068540D01*
X0240590Y0068655D01*
X0240667Y0068773D01*
X0240740Y0068893D01*
X0240809Y0069014D01*
X0240875Y0069138D01*
X0240938Y0069264D01*
X0240997Y0069391D01*
X0241052Y0069520D01*
X0241104Y0069650D01*
X0241152Y0069782D01*
X0241197Y0069915D01*
X0241238Y0070049D01*
X0241275Y0070184D01*
X0241308Y0070320D01*
X0241337Y0070458D01*
X0241362Y0070595D01*
X0241384Y0070734D01*
X0241402Y0070873D01*
X0241415Y0071013D01*
X0241425Y0071153D01*
X0241431Y0071293D01*
X0241433Y0071433D01*
X0241433Y0084362D01*
X0237897Y0084773D02*
X0237800Y0084672D01*
X0237705Y0084569D01*
X0237613Y0084463D01*
X0237524Y0084354D01*
X0237438Y0084244D01*
X0237355Y0084130D01*
X0237276Y0084015D01*
X0237199Y0083897D01*
X0237126Y0083777D01*
X0237057Y0083656D01*
X0236991Y0083532D01*
X0236928Y0083406D01*
X0236869Y0083279D01*
X0236814Y0083150D01*
X0236762Y0083020D01*
X0236714Y0082888D01*
X0236669Y0082755D01*
X0236628Y0082621D01*
X0236591Y0082486D01*
X0236558Y0082350D01*
X0236529Y0082212D01*
X0236504Y0082075D01*
X0236482Y0081936D01*
X0236464Y0081797D01*
X0236451Y0081657D01*
X0236441Y0081517D01*
X0236435Y0081377D01*
X0236433Y0081237D01*
X0236433Y0071433D01*
X0232897Y0068093D02*
X0232800Y0068194D01*
X0232705Y0068297D01*
X0232613Y0068403D01*
X0232524Y0068512D01*
X0232438Y0068622D01*
X0232355Y0068736D01*
X0232276Y0068851D01*
X0232199Y0068969D01*
X0232126Y0069089D01*
X0232057Y0069210D01*
X0231991Y0069334D01*
X0231928Y0069460D01*
X0231869Y0069587D01*
X0231814Y0069716D01*
X0231762Y0069846D01*
X0231714Y0069978D01*
X0231669Y0070111D01*
X0231628Y0070245D01*
X0231591Y0070380D01*
X0231558Y0070516D01*
X0231529Y0070654D01*
X0231504Y0070791D01*
X0231482Y0070930D01*
X0231464Y0071069D01*
X0231451Y0071209D01*
X0231441Y0071349D01*
X0231435Y0071489D01*
X0231433Y0071629D01*
X0237898Y0084773D02*
X0241433Y0088308D01*
X0241433Y0093308D01*
X0240183Y0094558D01*
X0240183Y0159558D01*
X0243933Y0163308D01*
X0271433Y0146433D02*
X0285808Y0146433D01*
X0290183Y0142058D01*
X0290183Y0131433D01*
X0290331Y0130827D01*
X0292890Y0130827D02*
X0293308Y0130808D01*
X0293308Y0117683D01*
X0298308Y0112683D01*
X0298308Y0102058D01*
X0298008Y0102039D01*
X0297683Y0101433D01*
X0297058Y0100808D01*
X0297058Y0097058D01*
X0295808Y0094558D02*
X0300183Y0094558D01*
X0300183Y0117058D01*
X0298933Y0118308D01*
X0298933Y0123308D01*
X0302683Y0127058D01*
X0308933Y0127058D01*
X0308933Y0117683D01*
X0307058Y0115808D01*
X0307058Y0113308D01*
X0308308Y0112058D01*
X0316433Y0112058D01*
X0316573Y0112060D01*
X0316713Y0112066D01*
X0316853Y0112076D01*
X0316993Y0112089D01*
X0317132Y0112107D01*
X0317271Y0112129D01*
X0317408Y0112154D01*
X0317546Y0112183D01*
X0317682Y0112216D01*
X0317817Y0112253D01*
X0317951Y0112294D01*
X0318084Y0112339D01*
X0318216Y0112387D01*
X0318346Y0112439D01*
X0318475Y0112494D01*
X0318602Y0112553D01*
X0318728Y0112616D01*
X0318852Y0112682D01*
X0318973Y0112751D01*
X0319093Y0112824D01*
X0319211Y0112901D01*
X0319326Y0112980D01*
X0319440Y0113063D01*
X0319550Y0113149D01*
X0319659Y0113238D01*
X0319765Y0113330D01*
X0319868Y0113425D01*
X0319969Y0113522D01*
X0320066Y0113623D01*
X0320161Y0113726D01*
X0320253Y0113832D01*
X0320342Y0113941D01*
X0320428Y0114051D01*
X0320511Y0114165D01*
X0320590Y0114280D01*
X0320667Y0114398D01*
X0320740Y0114518D01*
X0320809Y0114639D01*
X0320875Y0114763D01*
X0320938Y0114889D01*
X0320997Y0115016D01*
X0321052Y0115145D01*
X0321104Y0115275D01*
X0321152Y0115407D01*
X0321197Y0115540D01*
X0321238Y0115674D01*
X0321275Y0115809D01*
X0321308Y0115945D01*
X0321337Y0116083D01*
X0321362Y0116220D01*
X0321384Y0116359D01*
X0321402Y0116498D01*
X0321415Y0116638D01*
X0321425Y0116778D01*
X0321431Y0116918D01*
X0321433Y0117058D01*
X0321433Y0183308D01*
X0326433Y0181433D02*
X0331433Y0176433D01*
X0331433Y0101433D01*
X0333933Y0098933D01*
X0336433Y0096433D02*
X0336433Y0151433D01*
X0326433Y0151433D02*
X0326433Y0089558D01*
X0328308Y0086433D01*
X0334362Y0086433D01*
X0337898Y0087898D02*
X0341433Y0091433D01*
X0342683Y0085183D02*
X0342823Y0085185D01*
X0342963Y0085191D01*
X0343103Y0085201D01*
X0343243Y0085214D01*
X0343382Y0085232D01*
X0343521Y0085254D01*
X0343658Y0085279D01*
X0343796Y0085308D01*
X0343932Y0085341D01*
X0344067Y0085378D01*
X0344201Y0085419D01*
X0344334Y0085464D01*
X0344466Y0085512D01*
X0344596Y0085564D01*
X0344725Y0085619D01*
X0344852Y0085678D01*
X0344978Y0085741D01*
X0345102Y0085807D01*
X0345223Y0085876D01*
X0345343Y0085949D01*
X0345461Y0086026D01*
X0345576Y0086105D01*
X0345690Y0086188D01*
X0345800Y0086274D01*
X0345909Y0086363D01*
X0346015Y0086455D01*
X0346118Y0086550D01*
X0346219Y0086647D01*
X0346316Y0086748D01*
X0346411Y0086851D01*
X0346503Y0086957D01*
X0346592Y0087066D01*
X0346678Y0087176D01*
X0346761Y0087290D01*
X0346840Y0087405D01*
X0346917Y0087523D01*
X0346990Y0087643D01*
X0347059Y0087764D01*
X0347125Y0087888D01*
X0347188Y0088014D01*
X0347247Y0088141D01*
X0347302Y0088270D01*
X0347354Y0088400D01*
X0347402Y0088532D01*
X0347447Y0088665D01*
X0347488Y0088799D01*
X0347525Y0088934D01*
X0347558Y0089070D01*
X0347587Y0089208D01*
X0347612Y0089345D01*
X0347634Y0089484D01*
X0347652Y0089623D01*
X0347665Y0089763D01*
X0347675Y0089903D01*
X0347681Y0090043D01*
X0347683Y0090183D01*
X0347683Y0150183D01*
X0346433Y0151433D01*
X0356433Y0151433D02*
X0356433Y0088933D01*
X0356431Y0088793D01*
X0356425Y0088653D01*
X0356415Y0088513D01*
X0356402Y0088373D01*
X0356384Y0088234D01*
X0356362Y0088095D01*
X0356337Y0087958D01*
X0356308Y0087820D01*
X0356275Y0087684D01*
X0356238Y0087549D01*
X0356197Y0087415D01*
X0356152Y0087282D01*
X0356104Y0087150D01*
X0356052Y0087020D01*
X0355997Y0086891D01*
X0355938Y0086764D01*
X0355875Y0086638D01*
X0355809Y0086514D01*
X0355740Y0086393D01*
X0355667Y0086273D01*
X0355590Y0086155D01*
X0355511Y0086040D01*
X0355428Y0085926D01*
X0355342Y0085816D01*
X0355253Y0085707D01*
X0355161Y0085601D01*
X0355066Y0085498D01*
X0354969Y0085397D01*
X0354868Y0085300D01*
X0354765Y0085205D01*
X0354659Y0085113D01*
X0354550Y0085024D01*
X0354440Y0084938D01*
X0354326Y0084855D01*
X0354211Y0084776D01*
X0354093Y0084699D01*
X0353973Y0084626D01*
X0353852Y0084557D01*
X0353728Y0084491D01*
X0353602Y0084428D01*
X0353475Y0084369D01*
X0353346Y0084314D01*
X0353216Y0084262D01*
X0353084Y0084214D01*
X0352951Y0084169D01*
X0352817Y0084128D01*
X0352682Y0084091D01*
X0352546Y0084058D01*
X0352408Y0084029D01*
X0352271Y0084004D01*
X0352132Y0083982D01*
X0351993Y0083964D01*
X0351853Y0083951D01*
X0351713Y0083941D01*
X0351573Y0083935D01*
X0351433Y0083933D01*
X0318933Y0083933D01*
X0311433Y0091433D01*
X0305808Y0089129D02*
X0305810Y0088989D01*
X0305816Y0088849D01*
X0305826Y0088709D01*
X0305839Y0088569D01*
X0305857Y0088430D01*
X0305879Y0088291D01*
X0305904Y0088154D01*
X0305933Y0088016D01*
X0305966Y0087880D01*
X0306003Y0087745D01*
X0306044Y0087611D01*
X0306089Y0087478D01*
X0306137Y0087346D01*
X0306189Y0087216D01*
X0306244Y0087087D01*
X0306303Y0086960D01*
X0306366Y0086834D01*
X0306432Y0086710D01*
X0306501Y0086589D01*
X0306574Y0086469D01*
X0306651Y0086351D01*
X0306730Y0086236D01*
X0306813Y0086122D01*
X0306899Y0086012D01*
X0306988Y0085903D01*
X0307080Y0085797D01*
X0307175Y0085694D01*
X0307272Y0085593D01*
X0307273Y0085594D02*
X0321433Y0071433D01*
X0326433Y0066433D02*
X0326573Y0066435D01*
X0326713Y0066441D01*
X0326853Y0066451D01*
X0326993Y0066464D01*
X0327132Y0066482D01*
X0327271Y0066504D01*
X0327408Y0066529D01*
X0327546Y0066558D01*
X0327682Y0066591D01*
X0327817Y0066628D01*
X0327951Y0066669D01*
X0328084Y0066714D01*
X0328216Y0066762D01*
X0328346Y0066814D01*
X0328475Y0066869D01*
X0328602Y0066928D01*
X0328728Y0066991D01*
X0328852Y0067057D01*
X0328973Y0067126D01*
X0329093Y0067199D01*
X0329211Y0067276D01*
X0329326Y0067355D01*
X0329440Y0067438D01*
X0329550Y0067524D01*
X0329659Y0067613D01*
X0329765Y0067705D01*
X0329868Y0067800D01*
X0329969Y0067897D01*
X0330066Y0067998D01*
X0330161Y0068101D01*
X0330253Y0068207D01*
X0330342Y0068316D01*
X0330428Y0068426D01*
X0330511Y0068540D01*
X0330590Y0068655D01*
X0330667Y0068773D01*
X0330740Y0068893D01*
X0330809Y0069014D01*
X0330875Y0069138D01*
X0330938Y0069264D01*
X0330997Y0069391D01*
X0331052Y0069520D01*
X0331104Y0069650D01*
X0331152Y0069782D01*
X0331197Y0069915D01*
X0331238Y0070049D01*
X0331275Y0070184D01*
X0331308Y0070320D01*
X0331337Y0070458D01*
X0331362Y0070595D01*
X0331384Y0070734D01*
X0331402Y0070873D01*
X0331415Y0071013D01*
X0331425Y0071153D01*
X0331431Y0071293D01*
X0331433Y0071433D01*
X0336433Y0070183D02*
X0336431Y0070043D01*
X0336425Y0069903D01*
X0336415Y0069763D01*
X0336402Y0069623D01*
X0336384Y0069484D01*
X0336362Y0069345D01*
X0336337Y0069208D01*
X0336308Y0069070D01*
X0336275Y0068934D01*
X0336238Y0068799D01*
X0336197Y0068665D01*
X0336152Y0068532D01*
X0336104Y0068400D01*
X0336052Y0068270D01*
X0335997Y0068141D01*
X0335938Y0068014D01*
X0335875Y0067888D01*
X0335809Y0067764D01*
X0335740Y0067643D01*
X0335667Y0067523D01*
X0335590Y0067405D01*
X0335511Y0067290D01*
X0335428Y0067176D01*
X0335342Y0067066D01*
X0335253Y0066957D01*
X0335161Y0066851D01*
X0335066Y0066748D01*
X0334969Y0066647D01*
X0334868Y0066550D01*
X0334765Y0066455D01*
X0334659Y0066363D01*
X0334550Y0066274D01*
X0334440Y0066188D01*
X0334326Y0066105D01*
X0334211Y0066026D01*
X0334093Y0065949D01*
X0333973Y0065876D01*
X0333852Y0065807D01*
X0333728Y0065741D01*
X0333602Y0065678D01*
X0333475Y0065619D01*
X0333346Y0065564D01*
X0333216Y0065512D01*
X0333084Y0065464D01*
X0332951Y0065419D01*
X0332817Y0065378D01*
X0332682Y0065341D01*
X0332546Y0065308D01*
X0332408Y0065279D01*
X0332271Y0065254D01*
X0332132Y0065232D01*
X0331993Y0065214D01*
X0331853Y0065201D01*
X0331713Y0065191D01*
X0331573Y0065185D01*
X0331433Y0065183D01*
X0295808Y0065183D01*
X0292683Y0068308D01*
X0292683Y0070808D01*
X0293933Y0072058D01*
X0293933Y0080808D01*
X0288308Y0086433D01*
X0288308Y0101433D01*
X0287772Y0102039D01*
X0290331Y0102039D02*
X0290808Y0101433D01*
X0290808Y0085808D01*
X0296433Y0080183D01*
X0296433Y0073933D01*
X0302683Y0075379D02*
X0302683Y0118308D01*
X0301433Y0119558D01*
X0305808Y0121433D02*
X0305808Y0089129D01*
X0303933Y0081004D02*
X0303933Y0124558D01*
X0306433Y0122058D02*
X0305808Y0121433D01*
X0311433Y0116433D02*
X0311433Y0202058D01*
X0311433Y0208933D02*
X0318933Y0216433D01*
X0321433Y0210808D02*
X0321433Y0208933D01*
X0321433Y0210808D02*
X0333933Y0223308D01*
X0351433Y0208933D02*
X0351433Y0113308D01*
X0350183Y0112058D01*
X0363933Y0108933D02*
X0366433Y0111433D01*
X0366433Y0151433D01*
X0391433Y0148308D02*
X0391433Y0176433D01*
X0396433Y0181433D01*
X0361433Y0176433D02*
X0356433Y0181433D01*
X0346433Y0181433D02*
X0341433Y0176433D01*
X0341433Y0099558D01*
X0345183Y0095808D01*
X0336433Y0096433D02*
X0331433Y0091433D01*
X0334362Y0086433D02*
X0334502Y0086435D01*
X0334642Y0086441D01*
X0334782Y0086451D01*
X0334922Y0086464D01*
X0335061Y0086482D01*
X0335200Y0086504D01*
X0335337Y0086529D01*
X0335475Y0086558D01*
X0335611Y0086591D01*
X0335746Y0086628D01*
X0335880Y0086669D01*
X0336013Y0086714D01*
X0336145Y0086762D01*
X0336275Y0086814D01*
X0336404Y0086869D01*
X0336531Y0086928D01*
X0336657Y0086991D01*
X0336781Y0087057D01*
X0336902Y0087126D01*
X0337022Y0087199D01*
X0337140Y0087276D01*
X0337255Y0087355D01*
X0337369Y0087438D01*
X0337479Y0087524D01*
X0337588Y0087613D01*
X0337694Y0087705D01*
X0337797Y0087800D01*
X0337898Y0087897D01*
X0342683Y0085183D02*
X0327683Y0085183D01*
X0321433Y0091433D01*
X0303933Y0081004D02*
X0303935Y0080864D01*
X0303941Y0080724D01*
X0303951Y0080584D01*
X0303964Y0080444D01*
X0303982Y0080305D01*
X0304004Y0080166D01*
X0304029Y0080029D01*
X0304058Y0079891D01*
X0304091Y0079755D01*
X0304128Y0079620D01*
X0304169Y0079486D01*
X0304214Y0079353D01*
X0304262Y0079221D01*
X0304314Y0079091D01*
X0304369Y0078962D01*
X0304428Y0078835D01*
X0304491Y0078709D01*
X0304557Y0078585D01*
X0304626Y0078464D01*
X0304699Y0078344D01*
X0304776Y0078226D01*
X0304855Y0078111D01*
X0304938Y0077997D01*
X0305024Y0077887D01*
X0305113Y0077778D01*
X0305205Y0077672D01*
X0305300Y0077569D01*
X0305397Y0077468D01*
X0305398Y0077469D02*
X0311433Y0071433D01*
X0309558Y0066433D02*
X0326433Y0066433D01*
X0336433Y0062683D02*
X0336573Y0062685D01*
X0336713Y0062691D01*
X0336853Y0062701D01*
X0336993Y0062714D01*
X0337132Y0062732D01*
X0337271Y0062754D01*
X0337408Y0062779D01*
X0337546Y0062808D01*
X0337682Y0062841D01*
X0337817Y0062878D01*
X0337951Y0062919D01*
X0338084Y0062964D01*
X0338216Y0063012D01*
X0338346Y0063064D01*
X0338475Y0063119D01*
X0338602Y0063178D01*
X0338728Y0063241D01*
X0338852Y0063307D01*
X0338973Y0063376D01*
X0339093Y0063449D01*
X0339211Y0063526D01*
X0339326Y0063605D01*
X0339440Y0063688D01*
X0339550Y0063774D01*
X0339659Y0063863D01*
X0339765Y0063955D01*
X0339868Y0064050D01*
X0339969Y0064147D01*
X0340066Y0064248D01*
X0340161Y0064351D01*
X0340253Y0064457D01*
X0340342Y0064566D01*
X0340428Y0064676D01*
X0340511Y0064790D01*
X0340590Y0064905D01*
X0340667Y0065023D01*
X0340740Y0065143D01*
X0340809Y0065264D01*
X0340875Y0065388D01*
X0340938Y0065514D01*
X0340997Y0065641D01*
X0341052Y0065770D01*
X0341104Y0065900D01*
X0341152Y0066032D01*
X0341197Y0066165D01*
X0341238Y0066299D01*
X0341275Y0066434D01*
X0341308Y0066570D01*
X0341337Y0066708D01*
X0341362Y0066845D01*
X0341384Y0066984D01*
X0341402Y0067123D01*
X0341415Y0067263D01*
X0341425Y0067403D01*
X0341431Y0067543D01*
X0341433Y0067683D01*
X0341433Y0071433D01*
X0337897Y0074773D02*
X0337800Y0074672D01*
X0337705Y0074569D01*
X0337613Y0074463D01*
X0337524Y0074354D01*
X0337438Y0074244D01*
X0337355Y0074130D01*
X0337276Y0074015D01*
X0337199Y0073897D01*
X0337126Y0073777D01*
X0337057Y0073656D01*
X0336991Y0073532D01*
X0336928Y0073406D01*
X0336869Y0073279D01*
X0336814Y0073150D01*
X0336762Y0073020D01*
X0336714Y0072888D01*
X0336669Y0072755D01*
X0336628Y0072621D01*
X0336591Y0072486D01*
X0336558Y0072350D01*
X0336529Y0072212D01*
X0336504Y0072075D01*
X0336482Y0071936D01*
X0336464Y0071797D01*
X0336451Y0071657D01*
X0336441Y0071517D01*
X0336435Y0071377D01*
X0336433Y0071237D01*
X0336433Y0070183D01*
X0337898Y0074773D02*
X0338094Y0074969D01*
X0341629Y0076433D02*
X0357424Y0076433D01*
X0358933Y0075808D02*
X0362683Y0072058D01*
X0447058Y0072058D01*
X0447300Y0072061D01*
X0447541Y0072070D01*
X0447782Y0072084D01*
X0448023Y0072105D01*
X0448263Y0072131D01*
X0448503Y0072163D01*
X0448742Y0072201D01*
X0448979Y0072244D01*
X0449216Y0072294D01*
X0449451Y0072349D01*
X0449685Y0072409D01*
X0449917Y0072476D01*
X0450148Y0072547D01*
X0450377Y0072625D01*
X0450604Y0072708D01*
X0450829Y0072796D01*
X0451052Y0072890D01*
X0451272Y0072989D01*
X0451490Y0073094D01*
X0451705Y0073203D01*
X0451918Y0073318D01*
X0452128Y0073438D01*
X0452334Y0073563D01*
X0452538Y0073693D01*
X0452739Y0073828D01*
X0452936Y0073968D01*
X0453130Y0074112D01*
X0453320Y0074261D01*
X0453506Y0074415D01*
X0453689Y0074573D01*
X0453868Y0074735D01*
X0454043Y0074902D01*
X0454214Y0075073D01*
X0454381Y0075248D01*
X0454543Y0075427D01*
X0454701Y0075610D01*
X0454855Y0075796D01*
X0455004Y0075986D01*
X0455148Y0076180D01*
X0455288Y0076377D01*
X0455423Y0076578D01*
X0455553Y0076782D01*
X0455678Y0076988D01*
X0455798Y0077198D01*
X0455913Y0077411D01*
X0456022Y0077626D01*
X0456127Y0077844D01*
X0456226Y0078064D01*
X0456320Y0078287D01*
X0456408Y0078512D01*
X0456491Y0078739D01*
X0456569Y0078968D01*
X0456640Y0079199D01*
X0456707Y0079431D01*
X0456767Y0079665D01*
X0456822Y0079900D01*
X0456872Y0080137D01*
X0456915Y0080374D01*
X0456953Y0080613D01*
X0456985Y0080853D01*
X0457011Y0081093D01*
X0457032Y0081334D01*
X0457046Y0081575D01*
X0457055Y0081816D01*
X0457058Y0082058D01*
X0457058Y0209558D01*
X0454558Y0165183D02*
X0451433Y0162058D01*
X0451433Y0141433D01*
X0458308Y0118933D02*
X0459558Y0117683D01*
X0401433Y0140379D02*
X0401431Y0140239D01*
X0401425Y0140099D01*
X0401415Y0139959D01*
X0401402Y0139819D01*
X0401384Y0139680D01*
X0401362Y0139541D01*
X0401337Y0139404D01*
X0401308Y0139266D01*
X0401275Y0139130D01*
X0401238Y0138995D01*
X0401197Y0138861D01*
X0401152Y0138728D01*
X0401104Y0138596D01*
X0401052Y0138466D01*
X0400997Y0138337D01*
X0400938Y0138210D01*
X0400875Y0138084D01*
X0400809Y0137960D01*
X0400740Y0137839D01*
X0400667Y0137719D01*
X0400590Y0137601D01*
X0400511Y0137486D01*
X0400428Y0137372D01*
X0400342Y0137262D01*
X0400253Y0137153D01*
X0400161Y0137047D01*
X0400066Y0136944D01*
X0399969Y0136843D01*
X0381433Y0124129D02*
X0381431Y0123989D01*
X0381425Y0123849D01*
X0381415Y0123709D01*
X0381402Y0123569D01*
X0381384Y0123430D01*
X0381362Y0123291D01*
X0381337Y0123154D01*
X0381308Y0123016D01*
X0381275Y0122880D01*
X0381238Y0122745D01*
X0381197Y0122611D01*
X0381152Y0122478D01*
X0381104Y0122346D01*
X0381052Y0122216D01*
X0380997Y0122087D01*
X0380938Y0121960D01*
X0380875Y0121834D01*
X0380809Y0121710D01*
X0380740Y0121589D01*
X0380667Y0121469D01*
X0380590Y0121351D01*
X0380511Y0121236D01*
X0380428Y0121122D01*
X0380342Y0121012D01*
X0380253Y0120903D01*
X0380161Y0120797D01*
X0380066Y0120694D01*
X0379969Y0120593D01*
X0361433Y0080808D02*
X0361433Y0176433D01*
X0346433Y0204558D02*
X0332683Y0190808D01*
X0296433Y0207058D02*
X0296433Y0284558D01*
X0288308Y0292683D01*
X0288308Y0296433D01*
X0287772Y0297039D01*
X0289558Y0297683D02*
X0289558Y0302058D01*
X0285808Y0302058D02*
X0285808Y0297058D01*
X0285213Y0297039D01*
X0282654Y0297039D02*
X0282683Y0296433D01*
X0282683Y0290183D01*
X0279558Y0292058D02*
X0279558Y0296433D01*
X0280094Y0297039D01*
X0277535Y0297039D02*
X0277058Y0296433D01*
X0277058Y0285183D01*
X0274558Y0280183D02*
X0274558Y0296433D01*
X0274976Y0297039D01*
X0272417Y0297039D02*
X0272058Y0296433D01*
X0272058Y0276433D01*
X0268933Y0280183D02*
X0268933Y0295808D01*
X0269558Y0296433D01*
X0269858Y0297039D01*
X0266433Y0298933D02*
X0266433Y0275183D01*
X0262683Y0275183D02*
X0256433Y0281433D01*
X0266433Y0298933D02*
X0272058Y0304558D01*
X0272058Y0325808D01*
X0272417Y0325827D01*
X0270183Y0326433D02*
X0269858Y0325827D01*
X0270183Y0326433D02*
X0270183Y0332683D01*
X0278308Y0332058D02*
X0295808Y0349558D01*
X0300183Y0345808D02*
X0283308Y0328933D01*
X0283308Y0327058D01*
X0282683Y0326433D01*
X0282654Y0325827D01*
X0284558Y0325183D02*
X0284558Y0320808D01*
X0288308Y0320808D02*
X0288308Y0325808D01*
X0287772Y0325827D01*
X0290331Y0325827D02*
X0290808Y0325808D01*
X0290808Y0314558D01*
X0295808Y0320808D02*
X0295808Y0325808D01*
X0295449Y0325827D01*
X0293308Y0326433D02*
X0292890Y0325827D01*
X0293308Y0326433D02*
X0293308Y0328933D01*
X0293933Y0329558D01*
X0301433Y0329558D01*
X0301433Y0328308D01*
X0298308Y0325808D02*
X0298008Y0325827D01*
X0298308Y0325808D02*
X0298308Y0306433D01*
X0295808Y0303933D01*
X0295808Y0302058D01*
X0298308Y0304558D02*
X0298308Y0297058D01*
X0298008Y0297039D01*
X0290331Y0297039D02*
X0290183Y0297058D01*
X0289558Y0297683D01*
X0286433Y0290808D02*
X0286433Y0254558D01*
X0291433Y0252683D02*
X0291433Y0208933D01*
X0291433Y0252683D02*
X0293933Y0255183D01*
X0306433Y0274362D02*
X0306431Y0274502D01*
X0306425Y0274642D01*
X0306415Y0274782D01*
X0306402Y0274922D01*
X0306384Y0275061D01*
X0306362Y0275200D01*
X0306337Y0275337D01*
X0306308Y0275475D01*
X0306275Y0275611D01*
X0306238Y0275746D01*
X0306197Y0275880D01*
X0306152Y0276013D01*
X0306104Y0276145D01*
X0306052Y0276275D01*
X0305997Y0276404D01*
X0305938Y0276531D01*
X0305875Y0276657D01*
X0305809Y0276781D01*
X0305740Y0276902D01*
X0305667Y0277022D01*
X0305590Y0277140D01*
X0305511Y0277255D01*
X0305428Y0277369D01*
X0305342Y0277479D01*
X0305253Y0277588D01*
X0305161Y0277694D01*
X0305066Y0277797D01*
X0304969Y0277898D01*
X0275183Y0302058D02*
X0275183Y0325808D01*
X0274976Y0325827D01*
X0277535Y0325827D02*
X0277683Y0326433D01*
X0278308Y0327058D01*
X0278308Y0332058D01*
X0280808Y0330808D02*
X0280808Y0327058D01*
X0280183Y0326433D01*
X0280094Y0325827D01*
X0284558Y0325183D02*
X0285183Y0325808D01*
X0285213Y0325827D01*
X0302683Y0339558D02*
X0302683Y0347058D01*
X0293308Y0356433D01*
X0302683Y0339558D02*
X0303933Y0338308D01*
X0303933Y0312683D01*
X0305183Y0311433D01*
X0305587Y0311433D01*
X0305183Y0311433D02*
X0298308Y0304558D01*
X0331433Y0336433D02*
X0331433Y0341433D01*
X0331433Y0336433D02*
X0343308Y0336433D01*
X0346433Y0339558D01*
X0346433Y0363933D01*
X0346431Y0364073D01*
X0346425Y0364213D01*
X0346415Y0364353D01*
X0346402Y0364493D01*
X0346384Y0364632D01*
X0346362Y0364771D01*
X0346337Y0364908D01*
X0346308Y0365046D01*
X0346275Y0365182D01*
X0346238Y0365317D01*
X0346197Y0365451D01*
X0346152Y0365584D01*
X0346104Y0365716D01*
X0346052Y0365846D01*
X0345997Y0365975D01*
X0345938Y0366102D01*
X0345875Y0366228D01*
X0345809Y0366352D01*
X0345740Y0366473D01*
X0345667Y0366593D01*
X0345590Y0366711D01*
X0345511Y0366826D01*
X0345428Y0366940D01*
X0345342Y0367050D01*
X0345253Y0367159D01*
X0345161Y0367265D01*
X0345066Y0367368D01*
X0344969Y0367469D01*
X0344868Y0367566D01*
X0344765Y0367661D01*
X0344659Y0367753D01*
X0344550Y0367842D01*
X0344440Y0367928D01*
X0344326Y0368011D01*
X0344211Y0368090D01*
X0344093Y0368167D01*
X0343973Y0368240D01*
X0343852Y0368309D01*
X0343728Y0368375D01*
X0343602Y0368438D01*
X0343475Y0368497D01*
X0343346Y0368552D01*
X0343216Y0368604D01*
X0343084Y0368652D01*
X0342951Y0368697D01*
X0342817Y0368738D01*
X0342682Y0368775D01*
X0342546Y0368808D01*
X0342408Y0368837D01*
X0342271Y0368862D01*
X0342132Y0368884D01*
X0341993Y0368902D01*
X0341853Y0368915D01*
X0341713Y0368925D01*
X0341573Y0368931D01*
X0341433Y0368933D01*
X0195183Y0368933D01*
X0130808Y0304558D01*
X0130808Y0210183D01*
X0136433Y0210183D01*
X0137039Y0210154D01*
X0136433Y0207683D02*
X0129558Y0207683D01*
X0129558Y0307058D01*
X0127058Y0309558D02*
X0127058Y0205183D01*
X0136433Y0205183D01*
X0137039Y0205035D01*
X0137058Y0202683D02*
X0137039Y0202476D01*
X0137058Y0202683D02*
X0144558Y0202683D01*
X0144558Y0243308D01*
X0142058Y0220183D02*
X0137058Y0220183D01*
X0137039Y0220390D01*
X0137039Y0217831D02*
X0137058Y0217683D01*
X0142058Y0217683D01*
X0142058Y0215183D01*
X0137039Y0215272D02*
X0136433Y0215808D01*
X0133308Y0215808D01*
X0132058Y0213308D02*
X0132058Y0303933D01*
X0195808Y0367683D01*
X0326433Y0367683D01*
X0326433Y0356433D01*
X0341433Y0341433D01*
X0183933Y0281433D02*
X0182683Y0282683D01*
X0125808Y0270183D02*
X0124558Y0271433D01*
X0125808Y0270183D02*
X0125808Y0204558D01*
X0127058Y0203308D01*
X0127058Y0200183D01*
X0136433Y0200183D01*
X0137039Y0199917D01*
X0128933Y0197683D02*
X0127683Y0197683D01*
X0111433Y0213933D01*
X0132058Y0213308D02*
X0136433Y0213308D01*
X0137039Y0212713D01*
X0136433Y0207683D02*
X0137039Y0207594D01*
X0151433Y0214558D02*
X0153933Y0217058D01*
X0159558Y0205183D02*
X0165808Y0205183D01*
X0165827Y0205035D01*
X0166433Y0202683D02*
X0165827Y0202476D01*
X0166433Y0202683D02*
X0170808Y0202683D01*
X0170808Y0208933D01*
X0165808Y0207683D02*
X0165827Y0207594D01*
X0178933Y0216433D02*
X0180183Y0215183D01*
X0180183Y0194558D01*
X0182683Y0189558D02*
X0182683Y0213933D01*
X0191433Y0208933D02*
X0191433Y0181433D01*
X0201433Y0181433D02*
X0207683Y0187683D01*
X0207683Y0198308D01*
X0217683Y0190808D02*
X0217683Y0089129D01*
X0217685Y0088989D01*
X0217691Y0088849D01*
X0217701Y0088709D01*
X0217714Y0088569D01*
X0217732Y0088430D01*
X0217754Y0088291D01*
X0217779Y0088154D01*
X0217808Y0088016D01*
X0217841Y0087880D01*
X0217878Y0087745D01*
X0217919Y0087611D01*
X0217964Y0087478D01*
X0218012Y0087346D01*
X0218064Y0087216D01*
X0218119Y0087087D01*
X0218178Y0086960D01*
X0218241Y0086834D01*
X0218307Y0086710D01*
X0218376Y0086589D01*
X0218449Y0086469D01*
X0218526Y0086351D01*
X0218605Y0086236D01*
X0218688Y0086122D01*
X0218774Y0086012D01*
X0218863Y0085903D01*
X0218955Y0085797D01*
X0219050Y0085694D01*
X0219147Y0085593D01*
X0212683Y0079754D02*
X0212681Y0079614D01*
X0212675Y0079474D01*
X0212665Y0079334D01*
X0212652Y0079194D01*
X0212634Y0079055D01*
X0212612Y0078916D01*
X0212587Y0078779D01*
X0212558Y0078641D01*
X0212525Y0078505D01*
X0212488Y0078370D01*
X0212447Y0078236D01*
X0212402Y0078103D01*
X0212354Y0077971D01*
X0212302Y0077841D01*
X0212247Y0077712D01*
X0212188Y0077585D01*
X0212125Y0077459D01*
X0212059Y0077335D01*
X0211990Y0077214D01*
X0211917Y0077094D01*
X0211840Y0076976D01*
X0211761Y0076861D01*
X0211678Y0076747D01*
X0211592Y0076637D01*
X0211503Y0076528D01*
X0211411Y0076422D01*
X0211316Y0076319D01*
X0211219Y0076218D01*
X0206862Y0073933D02*
X0153933Y0073933D01*
X0129558Y0062683D02*
X0091433Y0100808D01*
X0091433Y0313308D01*
X0118933Y0191433D02*
X0115398Y0187898D01*
X0113933Y0184362D02*
X0113933Y0154558D01*
X0121433Y0147058D01*
X0117683Y0147058D02*
X0104148Y0160594D01*
X0102897Y0158093D02*
X0102800Y0158194D01*
X0102705Y0158297D01*
X0102613Y0158403D01*
X0102524Y0158512D01*
X0102438Y0158622D01*
X0102355Y0158736D01*
X0102276Y0158851D01*
X0102199Y0158969D01*
X0102126Y0159089D01*
X0102057Y0159210D01*
X0101991Y0159334D01*
X0101928Y0159460D01*
X0101869Y0159587D01*
X0101814Y0159716D01*
X0101762Y0159846D01*
X0101714Y0159978D01*
X0101669Y0160111D01*
X0101628Y0160245D01*
X0101591Y0160380D01*
X0101558Y0160516D01*
X0101529Y0160654D01*
X0101504Y0160791D01*
X0101482Y0160930D01*
X0101464Y0161069D01*
X0101451Y0161209D01*
X0101441Y0161349D01*
X0101435Y0161489D01*
X0101433Y0161629D01*
X0101433Y0164362D01*
X0102683Y0164129D02*
X0102683Y0173112D01*
X0101219Y0176648D02*
X0096433Y0181433D01*
X0101219Y0176648D02*
X0101316Y0176547D01*
X0101411Y0176444D01*
X0101503Y0176338D01*
X0101592Y0176229D01*
X0101678Y0176119D01*
X0101761Y0176005D01*
X0101840Y0175890D01*
X0101917Y0175772D01*
X0101990Y0175652D01*
X0102059Y0175531D01*
X0102125Y0175407D01*
X0102188Y0175281D01*
X0102247Y0175154D01*
X0102302Y0175025D01*
X0102354Y0174895D01*
X0102402Y0174763D01*
X0102447Y0174630D01*
X0102488Y0174496D01*
X0102525Y0174361D01*
X0102558Y0174225D01*
X0102587Y0174087D01*
X0102612Y0173950D01*
X0102634Y0173811D01*
X0102652Y0173672D01*
X0102665Y0173532D01*
X0102675Y0173392D01*
X0102681Y0173252D01*
X0102683Y0173112D01*
X0099969Y0167898D02*
X0096433Y0171433D01*
X0099969Y0167898D02*
X0100066Y0167797D01*
X0100161Y0167694D01*
X0100253Y0167588D01*
X0100342Y0167479D01*
X0100428Y0167369D01*
X0100511Y0167255D01*
X0100590Y0167140D01*
X0100667Y0167022D01*
X0100740Y0166902D01*
X0100809Y0166781D01*
X0100875Y0166657D01*
X0100938Y0166531D01*
X0100997Y0166404D01*
X0101052Y0166275D01*
X0101104Y0166145D01*
X0101152Y0166013D01*
X0101197Y0165880D01*
X0101238Y0165746D01*
X0101275Y0165611D01*
X0101308Y0165475D01*
X0101337Y0165337D01*
X0101362Y0165200D01*
X0101384Y0165061D01*
X0101402Y0164922D01*
X0101415Y0164782D01*
X0101425Y0164642D01*
X0101431Y0164502D01*
X0101433Y0164362D01*
X0102683Y0164129D02*
X0102685Y0163989D01*
X0102691Y0163849D01*
X0102701Y0163709D01*
X0102714Y0163569D01*
X0102732Y0163430D01*
X0102754Y0163291D01*
X0102779Y0163154D01*
X0102808Y0163016D01*
X0102841Y0162880D01*
X0102878Y0162745D01*
X0102919Y0162611D01*
X0102964Y0162478D01*
X0103012Y0162346D01*
X0103064Y0162216D01*
X0103119Y0162087D01*
X0103178Y0161960D01*
X0103241Y0161834D01*
X0103307Y0161710D01*
X0103376Y0161589D01*
X0103449Y0161469D01*
X0103526Y0161351D01*
X0103605Y0161236D01*
X0103688Y0161122D01*
X0103774Y0161012D01*
X0103863Y0160903D01*
X0103955Y0160797D01*
X0104050Y0160694D01*
X0104147Y0160593D01*
X0102898Y0158094D02*
X0120183Y0140808D01*
X0123933Y0139558D02*
X0123933Y0165808D01*
X0122683Y0167058D01*
X0125183Y0168308D02*
X0125183Y0137058D01*
X0123933Y0135808D01*
X0123933Y0139558D02*
X0112683Y0128308D01*
X0111433Y0128308D01*
X0108933Y0125808D01*
X0108933Y0114558D01*
X0117683Y0114558D01*
X0117801Y0114486D01*
X0114558Y0123933D02*
X0113974Y0123725D01*
X0114558Y0123933D02*
X0126433Y0123933D01*
X0126433Y0170808D01*
X0125183Y0168308D02*
X0123933Y0169558D01*
X0123933Y0174362D01*
X0122469Y0177898D02*
X0118933Y0181433D01*
X0113933Y0184362D02*
X0113935Y0184502D01*
X0113941Y0184642D01*
X0113951Y0184782D01*
X0113964Y0184922D01*
X0113982Y0185061D01*
X0114004Y0185200D01*
X0114029Y0185337D01*
X0114058Y0185475D01*
X0114091Y0185611D01*
X0114128Y0185746D01*
X0114169Y0185880D01*
X0114214Y0186013D01*
X0114262Y0186145D01*
X0114314Y0186275D01*
X0114369Y0186404D01*
X0114428Y0186531D01*
X0114491Y0186657D01*
X0114557Y0186781D01*
X0114626Y0186902D01*
X0114699Y0187022D01*
X0114776Y0187140D01*
X0114855Y0187255D01*
X0114938Y0187369D01*
X0115024Y0187479D01*
X0115113Y0187588D01*
X0115205Y0187694D01*
X0115300Y0187797D01*
X0115397Y0187898D01*
X0122469Y0177898D02*
X0122566Y0177797D01*
X0122661Y0177694D01*
X0122753Y0177588D01*
X0122842Y0177479D01*
X0122928Y0177369D01*
X0123011Y0177255D01*
X0123090Y0177140D01*
X0123167Y0177022D01*
X0123240Y0176902D01*
X0123309Y0176781D01*
X0123375Y0176657D01*
X0123438Y0176531D01*
X0123497Y0176404D01*
X0123552Y0176275D01*
X0123604Y0176145D01*
X0123652Y0176013D01*
X0123697Y0175880D01*
X0123738Y0175746D01*
X0123775Y0175611D01*
X0123808Y0175475D01*
X0123837Y0175337D01*
X0123862Y0175200D01*
X0123884Y0175061D01*
X0123902Y0174922D01*
X0123915Y0174782D01*
X0123925Y0174642D01*
X0123931Y0174502D01*
X0123933Y0174362D01*
X0202683Y0175183D02*
X0202683Y0155183D01*
X0206433Y0151433D01*
X0217683Y0190808D02*
X0218933Y0192058D01*
X0287058Y0140808D02*
X0287058Y0132058D01*
X0287683Y0131433D01*
X0287772Y0130827D01*
X0285213Y0130827D02*
X0285183Y0131433D01*
X0284558Y0132058D01*
X0284558Y0138308D01*
X0282058Y0135808D02*
X0282058Y0131433D01*
X0282654Y0130827D01*
X0280808Y0130183D02*
X0280808Y0125808D01*
X0278308Y0123308D02*
X0278308Y0130183D01*
X0277683Y0130808D01*
X0277535Y0130827D01*
X0275808Y0130183D02*
X0275808Y0120808D01*
X0280808Y0117058D02*
X0280808Y0102683D01*
X0280183Y0102058D01*
X0280094Y0102039D01*
X0278308Y0100808D02*
X0278308Y0094558D01*
X0275808Y0097058D02*
X0275808Y0100808D01*
X0275183Y0101433D01*
X0274976Y0102039D01*
X0272417Y0102039D02*
X0272058Y0101433D01*
X0272058Y0097058D01*
X0270183Y0102058D02*
X0269858Y0102039D01*
X0270183Y0102058D02*
X0270808Y0102683D01*
X0270808Y0107058D01*
X0278308Y0114558D01*
X0283308Y0111433D02*
X0283308Y0102683D01*
X0282683Y0102058D01*
X0282654Y0102039D01*
X0284558Y0100808D02*
X0284558Y0081433D01*
X0283933Y0080808D01*
X0283933Y0065183D01*
X0284754Y0062683D02*
X0336433Y0062683D01*
X0338093Y0074969D02*
X0338194Y0075066D01*
X0338297Y0075161D01*
X0338403Y0075253D01*
X0338512Y0075342D01*
X0338622Y0075428D01*
X0338736Y0075511D01*
X0338851Y0075590D01*
X0338969Y0075667D01*
X0339089Y0075740D01*
X0339210Y0075809D01*
X0339334Y0075875D01*
X0339460Y0075938D01*
X0339587Y0075997D01*
X0339716Y0076052D01*
X0339846Y0076104D01*
X0339978Y0076152D01*
X0340111Y0076197D01*
X0340245Y0076238D01*
X0340380Y0076275D01*
X0340516Y0076308D01*
X0340654Y0076337D01*
X0340791Y0076362D01*
X0340930Y0076384D01*
X0341069Y0076402D01*
X0341209Y0076415D01*
X0341349Y0076425D01*
X0341489Y0076431D01*
X0341629Y0076433D01*
X0357424Y0076433D02*
X0357512Y0076431D01*
X0357600Y0076426D01*
X0357688Y0076417D01*
X0357775Y0076404D01*
X0357862Y0076388D01*
X0357948Y0076368D01*
X0358033Y0076344D01*
X0358117Y0076317D01*
X0358200Y0076287D01*
X0358281Y0076253D01*
X0358361Y0076216D01*
X0358440Y0076176D01*
X0358516Y0076132D01*
X0358591Y0076086D01*
X0358664Y0076036D01*
X0358735Y0075983D01*
X0358803Y0075927D01*
X0358869Y0075869D01*
X0358933Y0075808D01*
X0362624Y0079700D02*
X0362058Y0080183D01*
X0361433Y0080808D01*
X0309558Y0066433D02*
X0304148Y0071844D01*
X0304147Y0071843D02*
X0304050Y0071944D01*
X0303955Y0072047D01*
X0303863Y0072153D01*
X0303774Y0072262D01*
X0303688Y0072372D01*
X0303605Y0072486D01*
X0303526Y0072601D01*
X0303449Y0072719D01*
X0303376Y0072839D01*
X0303307Y0072960D01*
X0303241Y0073084D01*
X0303178Y0073210D01*
X0303119Y0073337D01*
X0303064Y0073466D01*
X0303012Y0073596D01*
X0302964Y0073728D01*
X0302919Y0073861D01*
X0302878Y0073995D01*
X0302841Y0074130D01*
X0302808Y0074266D01*
X0302779Y0074404D01*
X0302754Y0074541D01*
X0302732Y0074680D01*
X0302714Y0074819D01*
X0302701Y0074959D01*
X0302691Y0075099D01*
X0302685Y0075239D01*
X0302683Y0075379D01*
X0284754Y0062683D02*
X0284614Y0062685D01*
X0284474Y0062691D01*
X0284334Y0062701D01*
X0284194Y0062714D01*
X0284055Y0062732D01*
X0283916Y0062754D01*
X0283779Y0062779D01*
X0283641Y0062808D01*
X0283505Y0062841D01*
X0283370Y0062878D01*
X0283236Y0062919D01*
X0283103Y0062964D01*
X0282971Y0063012D01*
X0282841Y0063064D01*
X0282712Y0063119D01*
X0282585Y0063178D01*
X0282459Y0063241D01*
X0282335Y0063307D01*
X0282214Y0063376D01*
X0282094Y0063449D01*
X0281976Y0063526D01*
X0281861Y0063605D01*
X0281747Y0063688D01*
X0281637Y0063774D01*
X0281528Y0063863D01*
X0281422Y0063955D01*
X0281319Y0064050D01*
X0281218Y0064147D01*
X0281219Y0064148D02*
X0269148Y0076219D01*
X0267683Y0079754D02*
X0267683Y0105808D01*
X0272058Y0110183D01*
X0272058Y0130808D01*
X0272417Y0130827D01*
X0269858Y0130827D02*
X0269558Y0130808D01*
X0269558Y0123308D01*
X0262683Y0116433D01*
X0262280Y0116433D01*
X0262683Y0116433D02*
X0266433Y0112683D01*
X0266433Y0073308D01*
X0265183Y0073308D01*
X0269147Y0076218D02*
X0269050Y0076319D01*
X0268955Y0076422D01*
X0268863Y0076528D01*
X0268774Y0076637D01*
X0268688Y0076747D01*
X0268605Y0076861D01*
X0268526Y0076976D01*
X0268449Y0077094D01*
X0268376Y0077214D01*
X0268307Y0077335D01*
X0268241Y0077459D01*
X0268178Y0077585D01*
X0268119Y0077712D01*
X0268064Y0077841D01*
X0268012Y0077971D01*
X0267964Y0078103D01*
X0267919Y0078236D01*
X0267878Y0078370D01*
X0267841Y0078505D01*
X0267808Y0078641D01*
X0267779Y0078779D01*
X0267754Y0078916D01*
X0267732Y0079055D01*
X0267714Y0079194D01*
X0267701Y0079334D01*
X0267691Y0079474D01*
X0267685Y0079614D01*
X0267683Y0079754D01*
X0242897Y0087898D02*
X0242800Y0087797D01*
X0242705Y0087694D01*
X0242613Y0087588D01*
X0242524Y0087479D01*
X0242438Y0087369D01*
X0242355Y0087255D01*
X0242276Y0087140D01*
X0242199Y0087022D01*
X0242126Y0086902D01*
X0242057Y0086781D01*
X0241991Y0086657D01*
X0241928Y0086531D01*
X0241869Y0086404D01*
X0241814Y0086275D01*
X0241762Y0086145D01*
X0241714Y0086013D01*
X0241669Y0085880D01*
X0241628Y0085746D01*
X0241591Y0085611D01*
X0241558Y0085475D01*
X0241529Y0085337D01*
X0241504Y0085200D01*
X0241482Y0085061D01*
X0241464Y0084922D01*
X0241451Y0084782D01*
X0241441Y0084642D01*
X0241435Y0084502D01*
X0241433Y0084362D01*
X0242898Y0087898D02*
X0246433Y0091433D01*
X0277683Y0101433D02*
X0277535Y0102039D01*
X0277683Y0101433D02*
X0278308Y0100808D01*
X0284558Y0100808D02*
X0285183Y0101433D01*
X0285213Y0102039D01*
X0292890Y0102039D02*
X0293308Y0101433D01*
X0293308Y0097058D01*
X0295808Y0094558D01*
X0295449Y0102039D02*
X0295808Y0102058D01*
X0295808Y0111433D01*
X0309558Y0114558D02*
X0311433Y0116433D01*
X0280808Y0130183D02*
X0280183Y0130808D01*
X0280094Y0130827D01*
X0275808Y0130183D02*
X0275183Y0130808D01*
X0274976Y0130827D01*
D19*
X0280808Y0125808D03*
X0278308Y0123308D03*
X0275808Y0120808D03*
X0280808Y0117058D03*
X0278308Y0114558D03*
X0283308Y0111433D03*
X0295808Y0111433D03*
X0301433Y0119558D03*
X0306433Y0122058D03*
X0303933Y0124558D03*
X0309558Y0114558D03*
X0297058Y0097058D03*
X0278308Y0094558D03*
X0275808Y0097058D03*
X0272058Y0097058D03*
X0263308Y0075183D03*
X0266433Y0073308D03*
X0283933Y0065183D03*
X0296433Y0073933D03*
X0333933Y0098933D03*
X0345183Y0095808D03*
X0350183Y0112058D03*
X0363933Y0108933D03*
X0373933Y0110808D03*
X0373933Y0114558D03*
X0391433Y0148308D03*
X0383933Y0172058D03*
X0373933Y0170183D03*
X0361433Y0184558D03*
X0366433Y0193308D03*
X0388308Y0199558D03*
X0405808Y0202058D03*
X0412058Y0202058D03*
X0415808Y0212058D03*
X0420808Y0217058D03*
X0423308Y0219558D03*
X0423308Y0223308D03*
X0417058Y0220808D03*
X0407058Y0218308D03*
X0404558Y0220808D03*
X0409558Y0228308D03*
X0415808Y0236433D03*
X0430808Y0233308D03*
X0439558Y0230808D03*
X0433308Y0218933D03*
X0440808Y0214558D03*
X0433308Y0205808D03*
X0427058Y0199558D03*
X0422058Y0192058D03*
X0419558Y0183933D03*
X0443933Y0165808D03*
X0454558Y0165183D03*
X0467683Y0146433D03*
X0470183Y0141433D03*
X0459558Y0117683D03*
X0428308Y0155808D03*
X0428308Y0159558D03*
X0449558Y0197058D03*
X0423308Y0209558D03*
X0390808Y0215183D03*
X0385808Y0215183D03*
X0394558Y0229558D03*
X0385808Y0242683D03*
X0394558Y0256433D03*
X0375183Y0257683D03*
X0388308Y0272683D03*
X0391433Y0298308D03*
X0393933Y0321433D03*
X0402683Y0338308D03*
X0400183Y0340808D03*
X0383308Y0357683D03*
X0383308Y0361433D03*
X0422058Y0326433D03*
X0458933Y0319558D03*
X0470183Y0298308D03*
X0419558Y0259558D03*
X0462058Y0227683D03*
X0372058Y0228933D03*
X0340808Y0202683D03*
X0332683Y0190808D03*
X0308933Y0197058D03*
X0301433Y0202683D03*
X0298933Y0199558D03*
X0283933Y0194558D03*
X0271433Y0193308D03*
X0251433Y0202058D03*
X0247683Y0213308D03*
X0223933Y0220808D03*
X0217683Y0223308D03*
X0210183Y0235183D03*
X0198933Y0225183D03*
X0205183Y0213308D03*
X0207683Y0198308D03*
X0218933Y0192058D03*
X0228308Y0175183D03*
X0236433Y0163308D03*
X0240183Y0163308D03*
X0243933Y0163308D03*
X0242683Y0147058D03*
X0220183Y0123308D03*
X0208933Y0130808D03*
X0205183Y0102058D03*
X0216433Y0084558D03*
X0162058Y0106433D03*
X0123933Y0135808D03*
X0120183Y0140808D03*
X0121433Y0147058D03*
X0117683Y0147058D03*
X0122683Y0167058D03*
X0126433Y0170808D03*
X0157683Y0203308D03*
X0153933Y0213308D03*
X0153933Y0217058D03*
X0160808Y0222683D03*
X0160808Y0226433D03*
X0170808Y0222683D03*
X0170808Y0218933D03*
X0170808Y0215183D03*
X0170808Y0208933D03*
X0178933Y0216433D03*
X0182683Y0213933D03*
X0180183Y0194558D03*
X0187683Y0192058D03*
X0172683Y0190808D03*
X0172683Y0180808D03*
X0202683Y0175183D03*
X0240183Y0188308D03*
X0287058Y0140808D03*
X0284558Y0138308D03*
X0282058Y0135808D03*
X0380808Y0074558D03*
X0318933Y0216433D03*
X0333933Y0223308D03*
X0306433Y0227683D03*
X0305183Y0218308D03*
X0286433Y0250808D03*
X0293933Y0255183D03*
X0276433Y0250808D03*
X0266433Y0250808D03*
X0256433Y0238308D03*
X0237683Y0256433D03*
X0210808Y0262683D03*
X0195183Y0253933D03*
X0195183Y0245808D03*
X0177058Y0255183D03*
X0178933Y0258933D03*
X0181433Y0261433D03*
X0166433Y0257683D03*
X0155808Y0256433D03*
X0152058Y0250808D03*
X0143308Y0247683D03*
X0158308Y0241433D03*
X0150183Y0225183D03*
X0142058Y0220183D03*
X0142058Y0215183D03*
X0123308Y0217683D03*
X0138308Y0232683D03*
X0143308Y0263308D03*
X0124558Y0271433D03*
X0129558Y0307058D03*
X0127058Y0309558D03*
X0091433Y0313308D03*
X0172058Y0277683D03*
X0173933Y0280808D03*
X0182683Y0282683D03*
X0223933Y0304558D03*
X0197683Y0336433D03*
X0268933Y0280183D03*
X0266433Y0275183D03*
X0262683Y0275183D03*
X0256433Y0277683D03*
X0274558Y0280183D03*
X0277058Y0285183D03*
X0282683Y0290183D03*
X0279558Y0292058D03*
X0286433Y0290808D03*
X0295808Y0292058D03*
X0303308Y0290808D03*
X0295808Y0302058D03*
X0289558Y0302058D03*
X0285808Y0302058D03*
X0275183Y0302058D03*
X0290808Y0314558D03*
X0288308Y0320808D03*
X0284558Y0320808D03*
X0280808Y0330808D03*
X0295808Y0320808D03*
X0301433Y0328308D03*
X0300183Y0345808D03*
X0295808Y0349558D03*
X0346433Y0284558D03*
X0274558Y0273933D03*
X0129558Y0062683D03*
M02*
