G75*
%MOIN*%
%OFA0B0*%
%FSLAX25Y25*%
%IPPOS*%
%LPD*%
%AMOC8*
5,1,8,0,0,1.08239X$1,22.5*
%
%ADD10C,0.00000*%
%ADD11C,0.00300*%
%ADD12C,0.00200*%
%ADD13C,0.00400*%
%ADD14C,0.00600*%
%ADD15C,0.00500*%
%ADD16C,0.00800*%
%ADD17C,0.00100*%
D10*
X0086433Y0068933D02*
X0086433Y0363894D01*
X0086436Y0364136D01*
X0086445Y0364377D01*
X0086459Y0364618D01*
X0086480Y0364859D01*
X0086506Y0365099D01*
X0086538Y0365339D01*
X0086576Y0365578D01*
X0086619Y0365815D01*
X0086669Y0366052D01*
X0086724Y0366287D01*
X0086784Y0366521D01*
X0086851Y0366753D01*
X0086922Y0366984D01*
X0087000Y0367213D01*
X0087083Y0367440D01*
X0087171Y0367665D01*
X0087265Y0367888D01*
X0087364Y0368108D01*
X0087469Y0368326D01*
X0087578Y0368541D01*
X0087693Y0368754D01*
X0087813Y0368964D01*
X0087938Y0369170D01*
X0088068Y0369374D01*
X0088203Y0369575D01*
X0088343Y0369772D01*
X0088487Y0369966D01*
X0088636Y0370156D01*
X0088790Y0370342D01*
X0088948Y0370525D01*
X0089110Y0370704D01*
X0089277Y0370879D01*
X0089448Y0371050D01*
X0089623Y0371217D01*
X0089802Y0371379D01*
X0089985Y0371537D01*
X0090171Y0371691D01*
X0090361Y0371840D01*
X0090555Y0371984D01*
X0090752Y0372124D01*
X0090953Y0372259D01*
X0091157Y0372389D01*
X0091363Y0372514D01*
X0091573Y0372634D01*
X0091786Y0372749D01*
X0092001Y0372858D01*
X0092219Y0372963D01*
X0092439Y0373062D01*
X0092662Y0373156D01*
X0092887Y0373244D01*
X0093114Y0373327D01*
X0093343Y0373405D01*
X0093574Y0373476D01*
X0093806Y0373543D01*
X0094040Y0373603D01*
X0094275Y0373658D01*
X0094512Y0373708D01*
X0094749Y0373751D01*
X0094988Y0373789D01*
X0095228Y0373821D01*
X0095468Y0373847D01*
X0095709Y0373868D01*
X0095950Y0373882D01*
X0096191Y0373891D01*
X0096433Y0373894D01*
X0470134Y0373894D01*
X0470376Y0373891D01*
X0470617Y0373882D01*
X0470858Y0373868D01*
X0471099Y0373847D01*
X0471339Y0373821D01*
X0471579Y0373789D01*
X0471818Y0373751D01*
X0472055Y0373708D01*
X0472292Y0373658D01*
X0472527Y0373603D01*
X0472761Y0373543D01*
X0472993Y0373476D01*
X0473224Y0373405D01*
X0473453Y0373327D01*
X0473680Y0373244D01*
X0473905Y0373156D01*
X0474128Y0373062D01*
X0474348Y0372963D01*
X0474566Y0372858D01*
X0474781Y0372749D01*
X0474994Y0372634D01*
X0475204Y0372514D01*
X0475410Y0372389D01*
X0475614Y0372259D01*
X0475815Y0372124D01*
X0476012Y0371984D01*
X0476206Y0371840D01*
X0476396Y0371691D01*
X0476582Y0371537D01*
X0476765Y0371379D01*
X0476944Y0371217D01*
X0477119Y0371050D01*
X0477290Y0370879D01*
X0477457Y0370704D01*
X0477619Y0370525D01*
X0477777Y0370342D01*
X0477931Y0370156D01*
X0478080Y0369966D01*
X0478224Y0369772D01*
X0478364Y0369575D01*
X0478499Y0369374D01*
X0478629Y0369170D01*
X0478754Y0368964D01*
X0478874Y0368754D01*
X0478989Y0368541D01*
X0479098Y0368326D01*
X0479203Y0368108D01*
X0479302Y0367888D01*
X0479396Y0367665D01*
X0479484Y0367440D01*
X0479567Y0367213D01*
X0479645Y0366984D01*
X0479716Y0366753D01*
X0479783Y0366521D01*
X0479843Y0366287D01*
X0479898Y0366052D01*
X0479948Y0365815D01*
X0479991Y0365578D01*
X0480029Y0365339D01*
X0480061Y0365099D01*
X0480087Y0364859D01*
X0480108Y0364618D01*
X0480122Y0364377D01*
X0480131Y0364136D01*
X0480134Y0363894D01*
X0480134Y0068933D01*
X0480131Y0068691D01*
X0480122Y0068450D01*
X0480108Y0068209D01*
X0480087Y0067968D01*
X0480061Y0067728D01*
X0480029Y0067488D01*
X0479991Y0067249D01*
X0479948Y0067012D01*
X0479898Y0066775D01*
X0479843Y0066540D01*
X0479783Y0066306D01*
X0479716Y0066074D01*
X0479645Y0065843D01*
X0479567Y0065614D01*
X0479484Y0065387D01*
X0479396Y0065162D01*
X0479302Y0064939D01*
X0479203Y0064719D01*
X0479098Y0064501D01*
X0478989Y0064286D01*
X0478874Y0064073D01*
X0478754Y0063863D01*
X0478629Y0063657D01*
X0478499Y0063453D01*
X0478364Y0063252D01*
X0478224Y0063055D01*
X0478080Y0062861D01*
X0477931Y0062671D01*
X0477777Y0062485D01*
X0477619Y0062302D01*
X0477457Y0062123D01*
X0477290Y0061948D01*
X0477119Y0061777D01*
X0476944Y0061610D01*
X0476765Y0061448D01*
X0476582Y0061290D01*
X0476396Y0061136D01*
X0476206Y0060987D01*
X0476012Y0060843D01*
X0475815Y0060703D01*
X0475614Y0060568D01*
X0475410Y0060438D01*
X0475204Y0060313D01*
X0474994Y0060193D01*
X0474781Y0060078D01*
X0474566Y0059969D01*
X0474348Y0059864D01*
X0474128Y0059765D01*
X0473905Y0059671D01*
X0473680Y0059583D01*
X0473453Y0059500D01*
X0473224Y0059422D01*
X0472993Y0059351D01*
X0472761Y0059284D01*
X0472527Y0059224D01*
X0472292Y0059169D01*
X0472055Y0059119D01*
X0471818Y0059076D01*
X0471579Y0059038D01*
X0471339Y0059006D01*
X0471099Y0058980D01*
X0470858Y0058959D01*
X0470617Y0058945D01*
X0470376Y0058936D01*
X0470134Y0058933D01*
X0096433Y0058933D01*
X0096191Y0058936D01*
X0095950Y0058945D01*
X0095709Y0058959D01*
X0095468Y0058980D01*
X0095228Y0059006D01*
X0094988Y0059038D01*
X0094749Y0059076D01*
X0094512Y0059119D01*
X0094275Y0059169D01*
X0094040Y0059224D01*
X0093806Y0059284D01*
X0093574Y0059351D01*
X0093343Y0059422D01*
X0093114Y0059500D01*
X0092887Y0059583D01*
X0092662Y0059671D01*
X0092439Y0059765D01*
X0092219Y0059864D01*
X0092001Y0059969D01*
X0091786Y0060078D01*
X0091573Y0060193D01*
X0091363Y0060313D01*
X0091157Y0060438D01*
X0090953Y0060568D01*
X0090752Y0060703D01*
X0090555Y0060843D01*
X0090361Y0060987D01*
X0090171Y0061136D01*
X0089985Y0061290D01*
X0089802Y0061448D01*
X0089623Y0061610D01*
X0089448Y0061777D01*
X0089277Y0061948D01*
X0089110Y0062123D01*
X0088948Y0062302D01*
X0088790Y0062485D01*
X0088636Y0062671D01*
X0088487Y0062861D01*
X0088343Y0063055D01*
X0088203Y0063252D01*
X0088068Y0063453D01*
X0087938Y0063657D01*
X0087813Y0063863D01*
X0087693Y0064073D01*
X0087578Y0064286D01*
X0087469Y0064501D01*
X0087364Y0064719D01*
X0087265Y0064939D01*
X0087171Y0065162D01*
X0087083Y0065387D01*
X0087000Y0065614D01*
X0086922Y0065843D01*
X0086851Y0066074D01*
X0086784Y0066306D01*
X0086724Y0066540D01*
X0086669Y0066775D01*
X0086619Y0067012D01*
X0086576Y0067249D01*
X0086538Y0067488D01*
X0086506Y0067728D01*
X0086480Y0067968D01*
X0086459Y0068209D01*
X0086445Y0068450D01*
X0086436Y0068691D01*
X0086433Y0068933D01*
X0095134Y0073933D02*
X0095136Y0074091D01*
X0095142Y0074249D01*
X0095152Y0074407D01*
X0095166Y0074565D01*
X0095184Y0074722D01*
X0095205Y0074879D01*
X0095231Y0075035D01*
X0095261Y0075191D01*
X0095294Y0075346D01*
X0095332Y0075499D01*
X0095373Y0075652D01*
X0095418Y0075804D01*
X0095467Y0075955D01*
X0095520Y0076104D01*
X0095576Y0076252D01*
X0095636Y0076398D01*
X0095700Y0076543D01*
X0095768Y0076686D01*
X0095839Y0076828D01*
X0095913Y0076968D01*
X0095991Y0077105D01*
X0096073Y0077241D01*
X0096157Y0077375D01*
X0096246Y0077506D01*
X0096337Y0077635D01*
X0096432Y0077762D01*
X0096529Y0077887D01*
X0096630Y0078009D01*
X0096734Y0078128D01*
X0096841Y0078245D01*
X0096951Y0078359D01*
X0097064Y0078470D01*
X0097179Y0078579D01*
X0097297Y0078684D01*
X0097418Y0078786D01*
X0097541Y0078886D01*
X0097667Y0078982D01*
X0097795Y0079075D01*
X0097925Y0079165D01*
X0098058Y0079251D01*
X0098193Y0079335D01*
X0098329Y0079414D01*
X0098468Y0079491D01*
X0098609Y0079563D01*
X0098751Y0079633D01*
X0098895Y0079698D01*
X0099041Y0079760D01*
X0099188Y0079818D01*
X0099337Y0079873D01*
X0099487Y0079924D01*
X0099638Y0079971D01*
X0099790Y0080014D01*
X0099943Y0080053D01*
X0100098Y0080089D01*
X0100253Y0080120D01*
X0100409Y0080148D01*
X0100565Y0080172D01*
X0100722Y0080192D01*
X0100880Y0080208D01*
X0101037Y0080220D01*
X0101196Y0080228D01*
X0101354Y0080232D01*
X0101512Y0080232D01*
X0101670Y0080228D01*
X0101829Y0080220D01*
X0101986Y0080208D01*
X0102144Y0080192D01*
X0102301Y0080172D01*
X0102457Y0080148D01*
X0102613Y0080120D01*
X0102768Y0080089D01*
X0102923Y0080053D01*
X0103076Y0080014D01*
X0103228Y0079971D01*
X0103379Y0079924D01*
X0103529Y0079873D01*
X0103678Y0079818D01*
X0103825Y0079760D01*
X0103971Y0079698D01*
X0104115Y0079633D01*
X0104257Y0079563D01*
X0104398Y0079491D01*
X0104537Y0079414D01*
X0104673Y0079335D01*
X0104808Y0079251D01*
X0104941Y0079165D01*
X0105071Y0079075D01*
X0105199Y0078982D01*
X0105325Y0078886D01*
X0105448Y0078786D01*
X0105569Y0078684D01*
X0105687Y0078579D01*
X0105802Y0078470D01*
X0105915Y0078359D01*
X0106025Y0078245D01*
X0106132Y0078128D01*
X0106236Y0078009D01*
X0106337Y0077887D01*
X0106434Y0077762D01*
X0106529Y0077635D01*
X0106620Y0077506D01*
X0106709Y0077375D01*
X0106793Y0077241D01*
X0106875Y0077105D01*
X0106953Y0076968D01*
X0107027Y0076828D01*
X0107098Y0076686D01*
X0107166Y0076543D01*
X0107230Y0076398D01*
X0107290Y0076252D01*
X0107346Y0076104D01*
X0107399Y0075955D01*
X0107448Y0075804D01*
X0107493Y0075652D01*
X0107534Y0075499D01*
X0107572Y0075346D01*
X0107605Y0075191D01*
X0107635Y0075035D01*
X0107661Y0074879D01*
X0107682Y0074722D01*
X0107700Y0074565D01*
X0107714Y0074407D01*
X0107724Y0074249D01*
X0107730Y0074091D01*
X0107732Y0073933D01*
X0107730Y0073775D01*
X0107724Y0073617D01*
X0107714Y0073459D01*
X0107700Y0073301D01*
X0107682Y0073144D01*
X0107661Y0072987D01*
X0107635Y0072831D01*
X0107605Y0072675D01*
X0107572Y0072520D01*
X0107534Y0072367D01*
X0107493Y0072214D01*
X0107448Y0072062D01*
X0107399Y0071911D01*
X0107346Y0071762D01*
X0107290Y0071614D01*
X0107230Y0071468D01*
X0107166Y0071323D01*
X0107098Y0071180D01*
X0107027Y0071038D01*
X0106953Y0070898D01*
X0106875Y0070761D01*
X0106793Y0070625D01*
X0106709Y0070491D01*
X0106620Y0070360D01*
X0106529Y0070231D01*
X0106434Y0070104D01*
X0106337Y0069979D01*
X0106236Y0069857D01*
X0106132Y0069738D01*
X0106025Y0069621D01*
X0105915Y0069507D01*
X0105802Y0069396D01*
X0105687Y0069287D01*
X0105569Y0069182D01*
X0105448Y0069080D01*
X0105325Y0068980D01*
X0105199Y0068884D01*
X0105071Y0068791D01*
X0104941Y0068701D01*
X0104808Y0068615D01*
X0104673Y0068531D01*
X0104537Y0068452D01*
X0104398Y0068375D01*
X0104257Y0068303D01*
X0104115Y0068233D01*
X0103971Y0068168D01*
X0103825Y0068106D01*
X0103678Y0068048D01*
X0103529Y0067993D01*
X0103379Y0067942D01*
X0103228Y0067895D01*
X0103076Y0067852D01*
X0102923Y0067813D01*
X0102768Y0067777D01*
X0102613Y0067746D01*
X0102457Y0067718D01*
X0102301Y0067694D01*
X0102144Y0067674D01*
X0101986Y0067658D01*
X0101829Y0067646D01*
X0101670Y0067638D01*
X0101512Y0067634D01*
X0101354Y0067634D01*
X0101196Y0067638D01*
X0101037Y0067646D01*
X0100880Y0067658D01*
X0100722Y0067674D01*
X0100565Y0067694D01*
X0100409Y0067718D01*
X0100253Y0067746D01*
X0100098Y0067777D01*
X0099943Y0067813D01*
X0099790Y0067852D01*
X0099638Y0067895D01*
X0099487Y0067942D01*
X0099337Y0067993D01*
X0099188Y0068048D01*
X0099041Y0068106D01*
X0098895Y0068168D01*
X0098751Y0068233D01*
X0098609Y0068303D01*
X0098468Y0068375D01*
X0098329Y0068452D01*
X0098193Y0068531D01*
X0098058Y0068615D01*
X0097925Y0068701D01*
X0097795Y0068791D01*
X0097667Y0068884D01*
X0097541Y0068980D01*
X0097418Y0069080D01*
X0097297Y0069182D01*
X0097179Y0069287D01*
X0097064Y0069396D01*
X0096951Y0069507D01*
X0096841Y0069621D01*
X0096734Y0069738D01*
X0096630Y0069857D01*
X0096529Y0069979D01*
X0096432Y0070104D01*
X0096337Y0070231D01*
X0096246Y0070360D01*
X0096157Y0070491D01*
X0096073Y0070625D01*
X0095991Y0070761D01*
X0095913Y0070898D01*
X0095839Y0071038D01*
X0095768Y0071180D01*
X0095700Y0071323D01*
X0095636Y0071468D01*
X0095576Y0071614D01*
X0095520Y0071762D01*
X0095467Y0071911D01*
X0095418Y0072062D01*
X0095373Y0072214D01*
X0095332Y0072367D01*
X0095294Y0072520D01*
X0095261Y0072675D01*
X0095231Y0072831D01*
X0095205Y0072987D01*
X0095184Y0073144D01*
X0095166Y0073301D01*
X0095152Y0073459D01*
X0095142Y0073617D01*
X0095136Y0073775D01*
X0095134Y0073933D01*
X0460134Y0073933D02*
X0460136Y0074091D01*
X0460142Y0074249D01*
X0460152Y0074407D01*
X0460166Y0074565D01*
X0460184Y0074722D01*
X0460205Y0074879D01*
X0460231Y0075035D01*
X0460261Y0075191D01*
X0460294Y0075346D01*
X0460332Y0075499D01*
X0460373Y0075652D01*
X0460418Y0075804D01*
X0460467Y0075955D01*
X0460520Y0076104D01*
X0460576Y0076252D01*
X0460636Y0076398D01*
X0460700Y0076543D01*
X0460768Y0076686D01*
X0460839Y0076828D01*
X0460913Y0076968D01*
X0460991Y0077105D01*
X0461073Y0077241D01*
X0461157Y0077375D01*
X0461246Y0077506D01*
X0461337Y0077635D01*
X0461432Y0077762D01*
X0461529Y0077887D01*
X0461630Y0078009D01*
X0461734Y0078128D01*
X0461841Y0078245D01*
X0461951Y0078359D01*
X0462064Y0078470D01*
X0462179Y0078579D01*
X0462297Y0078684D01*
X0462418Y0078786D01*
X0462541Y0078886D01*
X0462667Y0078982D01*
X0462795Y0079075D01*
X0462925Y0079165D01*
X0463058Y0079251D01*
X0463193Y0079335D01*
X0463329Y0079414D01*
X0463468Y0079491D01*
X0463609Y0079563D01*
X0463751Y0079633D01*
X0463895Y0079698D01*
X0464041Y0079760D01*
X0464188Y0079818D01*
X0464337Y0079873D01*
X0464487Y0079924D01*
X0464638Y0079971D01*
X0464790Y0080014D01*
X0464943Y0080053D01*
X0465098Y0080089D01*
X0465253Y0080120D01*
X0465409Y0080148D01*
X0465565Y0080172D01*
X0465722Y0080192D01*
X0465880Y0080208D01*
X0466037Y0080220D01*
X0466196Y0080228D01*
X0466354Y0080232D01*
X0466512Y0080232D01*
X0466670Y0080228D01*
X0466829Y0080220D01*
X0466986Y0080208D01*
X0467144Y0080192D01*
X0467301Y0080172D01*
X0467457Y0080148D01*
X0467613Y0080120D01*
X0467768Y0080089D01*
X0467923Y0080053D01*
X0468076Y0080014D01*
X0468228Y0079971D01*
X0468379Y0079924D01*
X0468529Y0079873D01*
X0468678Y0079818D01*
X0468825Y0079760D01*
X0468971Y0079698D01*
X0469115Y0079633D01*
X0469257Y0079563D01*
X0469398Y0079491D01*
X0469537Y0079414D01*
X0469673Y0079335D01*
X0469808Y0079251D01*
X0469941Y0079165D01*
X0470071Y0079075D01*
X0470199Y0078982D01*
X0470325Y0078886D01*
X0470448Y0078786D01*
X0470569Y0078684D01*
X0470687Y0078579D01*
X0470802Y0078470D01*
X0470915Y0078359D01*
X0471025Y0078245D01*
X0471132Y0078128D01*
X0471236Y0078009D01*
X0471337Y0077887D01*
X0471434Y0077762D01*
X0471529Y0077635D01*
X0471620Y0077506D01*
X0471709Y0077375D01*
X0471793Y0077241D01*
X0471875Y0077105D01*
X0471953Y0076968D01*
X0472027Y0076828D01*
X0472098Y0076686D01*
X0472166Y0076543D01*
X0472230Y0076398D01*
X0472290Y0076252D01*
X0472346Y0076104D01*
X0472399Y0075955D01*
X0472448Y0075804D01*
X0472493Y0075652D01*
X0472534Y0075499D01*
X0472572Y0075346D01*
X0472605Y0075191D01*
X0472635Y0075035D01*
X0472661Y0074879D01*
X0472682Y0074722D01*
X0472700Y0074565D01*
X0472714Y0074407D01*
X0472724Y0074249D01*
X0472730Y0074091D01*
X0472732Y0073933D01*
X0472730Y0073775D01*
X0472724Y0073617D01*
X0472714Y0073459D01*
X0472700Y0073301D01*
X0472682Y0073144D01*
X0472661Y0072987D01*
X0472635Y0072831D01*
X0472605Y0072675D01*
X0472572Y0072520D01*
X0472534Y0072367D01*
X0472493Y0072214D01*
X0472448Y0072062D01*
X0472399Y0071911D01*
X0472346Y0071762D01*
X0472290Y0071614D01*
X0472230Y0071468D01*
X0472166Y0071323D01*
X0472098Y0071180D01*
X0472027Y0071038D01*
X0471953Y0070898D01*
X0471875Y0070761D01*
X0471793Y0070625D01*
X0471709Y0070491D01*
X0471620Y0070360D01*
X0471529Y0070231D01*
X0471434Y0070104D01*
X0471337Y0069979D01*
X0471236Y0069857D01*
X0471132Y0069738D01*
X0471025Y0069621D01*
X0470915Y0069507D01*
X0470802Y0069396D01*
X0470687Y0069287D01*
X0470569Y0069182D01*
X0470448Y0069080D01*
X0470325Y0068980D01*
X0470199Y0068884D01*
X0470071Y0068791D01*
X0469941Y0068701D01*
X0469808Y0068615D01*
X0469673Y0068531D01*
X0469537Y0068452D01*
X0469398Y0068375D01*
X0469257Y0068303D01*
X0469115Y0068233D01*
X0468971Y0068168D01*
X0468825Y0068106D01*
X0468678Y0068048D01*
X0468529Y0067993D01*
X0468379Y0067942D01*
X0468228Y0067895D01*
X0468076Y0067852D01*
X0467923Y0067813D01*
X0467768Y0067777D01*
X0467613Y0067746D01*
X0467457Y0067718D01*
X0467301Y0067694D01*
X0467144Y0067674D01*
X0466986Y0067658D01*
X0466829Y0067646D01*
X0466670Y0067638D01*
X0466512Y0067634D01*
X0466354Y0067634D01*
X0466196Y0067638D01*
X0466037Y0067646D01*
X0465880Y0067658D01*
X0465722Y0067674D01*
X0465565Y0067694D01*
X0465409Y0067718D01*
X0465253Y0067746D01*
X0465098Y0067777D01*
X0464943Y0067813D01*
X0464790Y0067852D01*
X0464638Y0067895D01*
X0464487Y0067942D01*
X0464337Y0067993D01*
X0464188Y0068048D01*
X0464041Y0068106D01*
X0463895Y0068168D01*
X0463751Y0068233D01*
X0463609Y0068303D01*
X0463468Y0068375D01*
X0463329Y0068452D01*
X0463193Y0068531D01*
X0463058Y0068615D01*
X0462925Y0068701D01*
X0462795Y0068791D01*
X0462667Y0068884D01*
X0462541Y0068980D01*
X0462418Y0069080D01*
X0462297Y0069182D01*
X0462179Y0069287D01*
X0462064Y0069396D01*
X0461951Y0069507D01*
X0461841Y0069621D01*
X0461734Y0069738D01*
X0461630Y0069857D01*
X0461529Y0069979D01*
X0461432Y0070104D01*
X0461337Y0070231D01*
X0461246Y0070360D01*
X0461157Y0070491D01*
X0461073Y0070625D01*
X0460991Y0070761D01*
X0460913Y0070898D01*
X0460839Y0071038D01*
X0460768Y0071180D01*
X0460700Y0071323D01*
X0460636Y0071468D01*
X0460576Y0071614D01*
X0460520Y0071762D01*
X0460467Y0071911D01*
X0460418Y0072062D01*
X0460373Y0072214D01*
X0460332Y0072367D01*
X0460294Y0072520D01*
X0460261Y0072675D01*
X0460231Y0072831D01*
X0460205Y0072987D01*
X0460184Y0073144D01*
X0460166Y0073301D01*
X0460152Y0073459D01*
X0460142Y0073617D01*
X0460136Y0073775D01*
X0460134Y0073933D01*
X0460134Y0358933D02*
X0460136Y0359091D01*
X0460142Y0359249D01*
X0460152Y0359407D01*
X0460166Y0359565D01*
X0460184Y0359722D01*
X0460205Y0359879D01*
X0460231Y0360035D01*
X0460261Y0360191D01*
X0460294Y0360346D01*
X0460332Y0360499D01*
X0460373Y0360652D01*
X0460418Y0360804D01*
X0460467Y0360955D01*
X0460520Y0361104D01*
X0460576Y0361252D01*
X0460636Y0361398D01*
X0460700Y0361543D01*
X0460768Y0361686D01*
X0460839Y0361828D01*
X0460913Y0361968D01*
X0460991Y0362105D01*
X0461073Y0362241D01*
X0461157Y0362375D01*
X0461246Y0362506D01*
X0461337Y0362635D01*
X0461432Y0362762D01*
X0461529Y0362887D01*
X0461630Y0363009D01*
X0461734Y0363128D01*
X0461841Y0363245D01*
X0461951Y0363359D01*
X0462064Y0363470D01*
X0462179Y0363579D01*
X0462297Y0363684D01*
X0462418Y0363786D01*
X0462541Y0363886D01*
X0462667Y0363982D01*
X0462795Y0364075D01*
X0462925Y0364165D01*
X0463058Y0364251D01*
X0463193Y0364335D01*
X0463329Y0364414D01*
X0463468Y0364491D01*
X0463609Y0364563D01*
X0463751Y0364633D01*
X0463895Y0364698D01*
X0464041Y0364760D01*
X0464188Y0364818D01*
X0464337Y0364873D01*
X0464487Y0364924D01*
X0464638Y0364971D01*
X0464790Y0365014D01*
X0464943Y0365053D01*
X0465098Y0365089D01*
X0465253Y0365120D01*
X0465409Y0365148D01*
X0465565Y0365172D01*
X0465722Y0365192D01*
X0465880Y0365208D01*
X0466037Y0365220D01*
X0466196Y0365228D01*
X0466354Y0365232D01*
X0466512Y0365232D01*
X0466670Y0365228D01*
X0466829Y0365220D01*
X0466986Y0365208D01*
X0467144Y0365192D01*
X0467301Y0365172D01*
X0467457Y0365148D01*
X0467613Y0365120D01*
X0467768Y0365089D01*
X0467923Y0365053D01*
X0468076Y0365014D01*
X0468228Y0364971D01*
X0468379Y0364924D01*
X0468529Y0364873D01*
X0468678Y0364818D01*
X0468825Y0364760D01*
X0468971Y0364698D01*
X0469115Y0364633D01*
X0469257Y0364563D01*
X0469398Y0364491D01*
X0469537Y0364414D01*
X0469673Y0364335D01*
X0469808Y0364251D01*
X0469941Y0364165D01*
X0470071Y0364075D01*
X0470199Y0363982D01*
X0470325Y0363886D01*
X0470448Y0363786D01*
X0470569Y0363684D01*
X0470687Y0363579D01*
X0470802Y0363470D01*
X0470915Y0363359D01*
X0471025Y0363245D01*
X0471132Y0363128D01*
X0471236Y0363009D01*
X0471337Y0362887D01*
X0471434Y0362762D01*
X0471529Y0362635D01*
X0471620Y0362506D01*
X0471709Y0362375D01*
X0471793Y0362241D01*
X0471875Y0362105D01*
X0471953Y0361968D01*
X0472027Y0361828D01*
X0472098Y0361686D01*
X0472166Y0361543D01*
X0472230Y0361398D01*
X0472290Y0361252D01*
X0472346Y0361104D01*
X0472399Y0360955D01*
X0472448Y0360804D01*
X0472493Y0360652D01*
X0472534Y0360499D01*
X0472572Y0360346D01*
X0472605Y0360191D01*
X0472635Y0360035D01*
X0472661Y0359879D01*
X0472682Y0359722D01*
X0472700Y0359565D01*
X0472714Y0359407D01*
X0472724Y0359249D01*
X0472730Y0359091D01*
X0472732Y0358933D01*
X0472730Y0358775D01*
X0472724Y0358617D01*
X0472714Y0358459D01*
X0472700Y0358301D01*
X0472682Y0358144D01*
X0472661Y0357987D01*
X0472635Y0357831D01*
X0472605Y0357675D01*
X0472572Y0357520D01*
X0472534Y0357367D01*
X0472493Y0357214D01*
X0472448Y0357062D01*
X0472399Y0356911D01*
X0472346Y0356762D01*
X0472290Y0356614D01*
X0472230Y0356468D01*
X0472166Y0356323D01*
X0472098Y0356180D01*
X0472027Y0356038D01*
X0471953Y0355898D01*
X0471875Y0355761D01*
X0471793Y0355625D01*
X0471709Y0355491D01*
X0471620Y0355360D01*
X0471529Y0355231D01*
X0471434Y0355104D01*
X0471337Y0354979D01*
X0471236Y0354857D01*
X0471132Y0354738D01*
X0471025Y0354621D01*
X0470915Y0354507D01*
X0470802Y0354396D01*
X0470687Y0354287D01*
X0470569Y0354182D01*
X0470448Y0354080D01*
X0470325Y0353980D01*
X0470199Y0353884D01*
X0470071Y0353791D01*
X0469941Y0353701D01*
X0469808Y0353615D01*
X0469673Y0353531D01*
X0469537Y0353452D01*
X0469398Y0353375D01*
X0469257Y0353303D01*
X0469115Y0353233D01*
X0468971Y0353168D01*
X0468825Y0353106D01*
X0468678Y0353048D01*
X0468529Y0352993D01*
X0468379Y0352942D01*
X0468228Y0352895D01*
X0468076Y0352852D01*
X0467923Y0352813D01*
X0467768Y0352777D01*
X0467613Y0352746D01*
X0467457Y0352718D01*
X0467301Y0352694D01*
X0467144Y0352674D01*
X0466986Y0352658D01*
X0466829Y0352646D01*
X0466670Y0352638D01*
X0466512Y0352634D01*
X0466354Y0352634D01*
X0466196Y0352638D01*
X0466037Y0352646D01*
X0465880Y0352658D01*
X0465722Y0352674D01*
X0465565Y0352694D01*
X0465409Y0352718D01*
X0465253Y0352746D01*
X0465098Y0352777D01*
X0464943Y0352813D01*
X0464790Y0352852D01*
X0464638Y0352895D01*
X0464487Y0352942D01*
X0464337Y0352993D01*
X0464188Y0353048D01*
X0464041Y0353106D01*
X0463895Y0353168D01*
X0463751Y0353233D01*
X0463609Y0353303D01*
X0463468Y0353375D01*
X0463329Y0353452D01*
X0463193Y0353531D01*
X0463058Y0353615D01*
X0462925Y0353701D01*
X0462795Y0353791D01*
X0462667Y0353884D01*
X0462541Y0353980D01*
X0462418Y0354080D01*
X0462297Y0354182D01*
X0462179Y0354287D01*
X0462064Y0354396D01*
X0461951Y0354507D01*
X0461841Y0354621D01*
X0461734Y0354738D01*
X0461630Y0354857D01*
X0461529Y0354979D01*
X0461432Y0355104D01*
X0461337Y0355231D01*
X0461246Y0355360D01*
X0461157Y0355491D01*
X0461073Y0355625D01*
X0460991Y0355761D01*
X0460913Y0355898D01*
X0460839Y0356038D01*
X0460768Y0356180D01*
X0460700Y0356323D01*
X0460636Y0356468D01*
X0460576Y0356614D01*
X0460520Y0356762D01*
X0460467Y0356911D01*
X0460418Y0357062D01*
X0460373Y0357214D01*
X0460332Y0357367D01*
X0460294Y0357520D01*
X0460261Y0357675D01*
X0460231Y0357831D01*
X0460205Y0357987D01*
X0460184Y0358144D01*
X0460166Y0358301D01*
X0460152Y0358459D01*
X0460142Y0358617D01*
X0460136Y0358775D01*
X0460134Y0358933D01*
X0095134Y0358933D02*
X0095136Y0359091D01*
X0095142Y0359249D01*
X0095152Y0359407D01*
X0095166Y0359565D01*
X0095184Y0359722D01*
X0095205Y0359879D01*
X0095231Y0360035D01*
X0095261Y0360191D01*
X0095294Y0360346D01*
X0095332Y0360499D01*
X0095373Y0360652D01*
X0095418Y0360804D01*
X0095467Y0360955D01*
X0095520Y0361104D01*
X0095576Y0361252D01*
X0095636Y0361398D01*
X0095700Y0361543D01*
X0095768Y0361686D01*
X0095839Y0361828D01*
X0095913Y0361968D01*
X0095991Y0362105D01*
X0096073Y0362241D01*
X0096157Y0362375D01*
X0096246Y0362506D01*
X0096337Y0362635D01*
X0096432Y0362762D01*
X0096529Y0362887D01*
X0096630Y0363009D01*
X0096734Y0363128D01*
X0096841Y0363245D01*
X0096951Y0363359D01*
X0097064Y0363470D01*
X0097179Y0363579D01*
X0097297Y0363684D01*
X0097418Y0363786D01*
X0097541Y0363886D01*
X0097667Y0363982D01*
X0097795Y0364075D01*
X0097925Y0364165D01*
X0098058Y0364251D01*
X0098193Y0364335D01*
X0098329Y0364414D01*
X0098468Y0364491D01*
X0098609Y0364563D01*
X0098751Y0364633D01*
X0098895Y0364698D01*
X0099041Y0364760D01*
X0099188Y0364818D01*
X0099337Y0364873D01*
X0099487Y0364924D01*
X0099638Y0364971D01*
X0099790Y0365014D01*
X0099943Y0365053D01*
X0100098Y0365089D01*
X0100253Y0365120D01*
X0100409Y0365148D01*
X0100565Y0365172D01*
X0100722Y0365192D01*
X0100880Y0365208D01*
X0101037Y0365220D01*
X0101196Y0365228D01*
X0101354Y0365232D01*
X0101512Y0365232D01*
X0101670Y0365228D01*
X0101829Y0365220D01*
X0101986Y0365208D01*
X0102144Y0365192D01*
X0102301Y0365172D01*
X0102457Y0365148D01*
X0102613Y0365120D01*
X0102768Y0365089D01*
X0102923Y0365053D01*
X0103076Y0365014D01*
X0103228Y0364971D01*
X0103379Y0364924D01*
X0103529Y0364873D01*
X0103678Y0364818D01*
X0103825Y0364760D01*
X0103971Y0364698D01*
X0104115Y0364633D01*
X0104257Y0364563D01*
X0104398Y0364491D01*
X0104537Y0364414D01*
X0104673Y0364335D01*
X0104808Y0364251D01*
X0104941Y0364165D01*
X0105071Y0364075D01*
X0105199Y0363982D01*
X0105325Y0363886D01*
X0105448Y0363786D01*
X0105569Y0363684D01*
X0105687Y0363579D01*
X0105802Y0363470D01*
X0105915Y0363359D01*
X0106025Y0363245D01*
X0106132Y0363128D01*
X0106236Y0363009D01*
X0106337Y0362887D01*
X0106434Y0362762D01*
X0106529Y0362635D01*
X0106620Y0362506D01*
X0106709Y0362375D01*
X0106793Y0362241D01*
X0106875Y0362105D01*
X0106953Y0361968D01*
X0107027Y0361828D01*
X0107098Y0361686D01*
X0107166Y0361543D01*
X0107230Y0361398D01*
X0107290Y0361252D01*
X0107346Y0361104D01*
X0107399Y0360955D01*
X0107448Y0360804D01*
X0107493Y0360652D01*
X0107534Y0360499D01*
X0107572Y0360346D01*
X0107605Y0360191D01*
X0107635Y0360035D01*
X0107661Y0359879D01*
X0107682Y0359722D01*
X0107700Y0359565D01*
X0107714Y0359407D01*
X0107724Y0359249D01*
X0107730Y0359091D01*
X0107732Y0358933D01*
X0107730Y0358775D01*
X0107724Y0358617D01*
X0107714Y0358459D01*
X0107700Y0358301D01*
X0107682Y0358144D01*
X0107661Y0357987D01*
X0107635Y0357831D01*
X0107605Y0357675D01*
X0107572Y0357520D01*
X0107534Y0357367D01*
X0107493Y0357214D01*
X0107448Y0357062D01*
X0107399Y0356911D01*
X0107346Y0356762D01*
X0107290Y0356614D01*
X0107230Y0356468D01*
X0107166Y0356323D01*
X0107098Y0356180D01*
X0107027Y0356038D01*
X0106953Y0355898D01*
X0106875Y0355761D01*
X0106793Y0355625D01*
X0106709Y0355491D01*
X0106620Y0355360D01*
X0106529Y0355231D01*
X0106434Y0355104D01*
X0106337Y0354979D01*
X0106236Y0354857D01*
X0106132Y0354738D01*
X0106025Y0354621D01*
X0105915Y0354507D01*
X0105802Y0354396D01*
X0105687Y0354287D01*
X0105569Y0354182D01*
X0105448Y0354080D01*
X0105325Y0353980D01*
X0105199Y0353884D01*
X0105071Y0353791D01*
X0104941Y0353701D01*
X0104808Y0353615D01*
X0104673Y0353531D01*
X0104537Y0353452D01*
X0104398Y0353375D01*
X0104257Y0353303D01*
X0104115Y0353233D01*
X0103971Y0353168D01*
X0103825Y0353106D01*
X0103678Y0353048D01*
X0103529Y0352993D01*
X0103379Y0352942D01*
X0103228Y0352895D01*
X0103076Y0352852D01*
X0102923Y0352813D01*
X0102768Y0352777D01*
X0102613Y0352746D01*
X0102457Y0352718D01*
X0102301Y0352694D01*
X0102144Y0352674D01*
X0101986Y0352658D01*
X0101829Y0352646D01*
X0101670Y0352638D01*
X0101512Y0352634D01*
X0101354Y0352634D01*
X0101196Y0352638D01*
X0101037Y0352646D01*
X0100880Y0352658D01*
X0100722Y0352674D01*
X0100565Y0352694D01*
X0100409Y0352718D01*
X0100253Y0352746D01*
X0100098Y0352777D01*
X0099943Y0352813D01*
X0099790Y0352852D01*
X0099638Y0352895D01*
X0099487Y0352942D01*
X0099337Y0352993D01*
X0099188Y0353048D01*
X0099041Y0353106D01*
X0098895Y0353168D01*
X0098751Y0353233D01*
X0098609Y0353303D01*
X0098468Y0353375D01*
X0098329Y0353452D01*
X0098193Y0353531D01*
X0098058Y0353615D01*
X0097925Y0353701D01*
X0097795Y0353791D01*
X0097667Y0353884D01*
X0097541Y0353980D01*
X0097418Y0354080D01*
X0097297Y0354182D01*
X0097179Y0354287D01*
X0097064Y0354396D01*
X0096951Y0354507D01*
X0096841Y0354621D01*
X0096734Y0354738D01*
X0096630Y0354857D01*
X0096529Y0354979D01*
X0096432Y0355104D01*
X0096337Y0355231D01*
X0096246Y0355360D01*
X0096157Y0355491D01*
X0096073Y0355625D01*
X0095991Y0355761D01*
X0095913Y0355898D01*
X0095839Y0356038D01*
X0095768Y0356180D01*
X0095700Y0356323D01*
X0095636Y0356468D01*
X0095576Y0356614D01*
X0095520Y0356762D01*
X0095467Y0356911D01*
X0095418Y0357062D01*
X0095373Y0357214D01*
X0095332Y0357367D01*
X0095294Y0357520D01*
X0095261Y0357675D01*
X0095231Y0357831D01*
X0095205Y0357987D01*
X0095184Y0358144D01*
X0095166Y0358301D01*
X0095152Y0358459D01*
X0095142Y0358617D01*
X0095136Y0358775D01*
X0095134Y0358933D01*
D11*
X0127130Y0325191D02*
X0126063Y0324123D01*
X0126063Y0323056D01*
X0127130Y0321988D01*
X0128211Y0321988D02*
X0130346Y0321988D01*
X0129279Y0321988D02*
X0129279Y0325191D01*
X0128211Y0324123D01*
X0131434Y0323589D02*
X0131434Y0325191D01*
X0133569Y0325191D01*
X0134657Y0325191D02*
X0135724Y0324123D01*
X0135724Y0323056D01*
X0134657Y0321988D01*
X0133569Y0322522D02*
X0133035Y0321988D01*
X0131968Y0321988D01*
X0131434Y0322522D01*
X0131434Y0323589D02*
X0132501Y0324123D01*
X0133035Y0324123D01*
X0133569Y0323589D01*
X0133569Y0322522D01*
X0130838Y0315973D02*
X0131906Y0314905D01*
X0131906Y0313838D01*
X0130838Y0312770D01*
X0129217Y0312770D02*
X0129217Y0315973D01*
X0127616Y0314371D01*
X0129751Y0314371D01*
X0126528Y0312770D02*
X0124393Y0312770D01*
X0125460Y0312770D02*
X0125460Y0315973D01*
X0124393Y0314905D01*
X0123312Y0315973D02*
X0122244Y0314905D01*
X0122244Y0313838D01*
X0123312Y0312770D01*
X0124341Y0306618D02*
X0125408Y0306618D01*
X0125942Y0306084D01*
X0125942Y0305551D01*
X0125408Y0305017D01*
X0125942Y0304483D01*
X0125942Y0303949D01*
X0125408Y0303416D01*
X0124341Y0303416D01*
X0123807Y0303949D01*
X0122719Y0303416D02*
X0120584Y0303416D01*
X0121652Y0303416D02*
X0121652Y0306618D01*
X0120584Y0305551D01*
X0119503Y0306618D02*
X0118436Y0305551D01*
X0118436Y0304483D01*
X0119503Y0303416D01*
X0123807Y0306084D02*
X0124341Y0306618D01*
X0124875Y0305017D02*
X0125408Y0305017D01*
X0127030Y0306618D02*
X0128097Y0305551D01*
X0128097Y0304483D01*
X0127030Y0303416D01*
X0122991Y0297028D02*
X0124059Y0295960D01*
X0124059Y0294893D01*
X0122991Y0293825D01*
X0121903Y0293825D02*
X0119768Y0293825D01*
X0121903Y0295960D01*
X0121903Y0296494D01*
X0121370Y0297028D01*
X0120302Y0297028D01*
X0119768Y0296494D01*
X0117613Y0297028D02*
X0117613Y0293825D01*
X0116545Y0293825D02*
X0118681Y0293825D01*
X0116545Y0295960D02*
X0117613Y0297028D01*
X0115465Y0297028D02*
X0114397Y0295960D01*
X0114397Y0294893D01*
X0115465Y0293825D01*
X0109564Y0280870D02*
X0110632Y0279802D01*
X0110632Y0278734D01*
X0109564Y0277667D01*
X0108477Y0278201D02*
X0107943Y0277667D01*
X0106875Y0277667D01*
X0106342Y0278201D01*
X0106342Y0279268D02*
X0107409Y0279802D01*
X0107943Y0279802D01*
X0108477Y0279268D01*
X0108477Y0278201D01*
X0106342Y0279268D02*
X0106342Y0280870D01*
X0108477Y0280870D01*
X0104187Y0280870D02*
X0104187Y0277667D01*
X0105254Y0277667D02*
X0103119Y0277667D01*
X0102038Y0277667D02*
X0100970Y0278734D01*
X0100970Y0279802D01*
X0102038Y0280870D01*
X0103119Y0279802D02*
X0104187Y0280870D01*
X0104187Y0270892D02*
X0104187Y0267689D01*
X0105254Y0267689D02*
X0103119Y0267689D01*
X0102038Y0267689D02*
X0100970Y0268757D01*
X0100970Y0269824D01*
X0102038Y0270892D01*
X0103119Y0269824D02*
X0104187Y0270892D01*
X0106342Y0269291D02*
X0108477Y0269291D01*
X0107943Y0270892D02*
X0106342Y0269291D01*
X0107943Y0267689D02*
X0107943Y0270892D01*
X0109564Y0270892D02*
X0110632Y0269824D01*
X0110632Y0268757D01*
X0109564Y0267689D01*
X0109626Y0260792D02*
X0110693Y0259725D01*
X0110693Y0258657D01*
X0109626Y0257589D01*
X0108538Y0258123D02*
X0108004Y0257589D01*
X0106937Y0257589D01*
X0106403Y0258123D01*
X0105315Y0257589D02*
X0103180Y0257589D01*
X0104248Y0257589D02*
X0104248Y0260792D01*
X0103180Y0259725D01*
X0102099Y0260792D02*
X0101032Y0259725D01*
X0101032Y0258657D01*
X0102099Y0257589D01*
X0106403Y0260258D02*
X0106937Y0260792D01*
X0108004Y0260792D01*
X0108538Y0260258D01*
X0108538Y0259725D01*
X0108004Y0259191D01*
X0108538Y0258657D01*
X0108538Y0258123D01*
X0108004Y0259191D02*
X0107470Y0259191D01*
X0107943Y0250386D02*
X0106875Y0250386D01*
X0106342Y0249852D01*
X0107943Y0250386D02*
X0108477Y0249852D01*
X0108477Y0249319D01*
X0106342Y0247183D01*
X0108477Y0247183D01*
X0109564Y0247183D02*
X0110632Y0248251D01*
X0110632Y0249319D01*
X0109564Y0250386D01*
X0105254Y0247183D02*
X0103119Y0247183D01*
X0104187Y0247183D02*
X0104187Y0250386D01*
X0103119Y0249319D01*
X0102038Y0250386D02*
X0100970Y0249319D01*
X0100970Y0248251D01*
X0102038Y0247183D01*
X0122001Y0248173D02*
X0122001Y0249241D01*
X0123069Y0250309D01*
X0124150Y0249241D02*
X0125218Y0250309D01*
X0125218Y0247106D01*
X0126285Y0247106D02*
X0124150Y0247106D01*
X0123069Y0247106D02*
X0122001Y0248173D01*
X0127373Y0247106D02*
X0129508Y0249241D01*
X0129508Y0249775D01*
X0128974Y0250309D01*
X0127906Y0250309D01*
X0127373Y0249775D01*
X0127373Y0247106D02*
X0129508Y0247106D01*
X0130595Y0247106D02*
X0131663Y0248173D01*
X0131663Y0249241D01*
X0130595Y0250309D01*
X0130657Y0257512D02*
X0131724Y0258579D01*
X0131724Y0259647D01*
X0130657Y0260715D01*
X0129569Y0260181D02*
X0129569Y0259647D01*
X0129035Y0259113D01*
X0129569Y0258579D01*
X0129569Y0258046D01*
X0129035Y0257512D01*
X0127968Y0257512D01*
X0127434Y0258046D01*
X0126346Y0257512D02*
X0124211Y0257512D01*
X0125279Y0257512D02*
X0125279Y0260715D01*
X0124211Y0259647D01*
X0123130Y0260715D02*
X0122063Y0259647D01*
X0122063Y0258579D01*
X0123130Y0257512D01*
X0127434Y0260181D02*
X0127968Y0260715D01*
X0129035Y0260715D01*
X0129569Y0260181D01*
X0129035Y0259113D02*
X0128501Y0259113D01*
X0128974Y0267612D02*
X0128974Y0270814D01*
X0127373Y0269213D01*
X0129508Y0269213D01*
X0130595Y0267612D02*
X0131663Y0268679D01*
X0131663Y0269747D01*
X0130595Y0270814D01*
X0126285Y0267612D02*
X0124150Y0267612D01*
X0125218Y0267612D02*
X0125218Y0270814D01*
X0124150Y0269747D01*
X0123069Y0270814D02*
X0122001Y0269747D01*
X0122001Y0268679D01*
X0123069Y0267612D01*
X0123069Y0277589D02*
X0122001Y0278657D01*
X0122001Y0279724D01*
X0123069Y0280792D01*
X0124150Y0279724D02*
X0125218Y0280792D01*
X0125218Y0277589D01*
X0126285Y0277589D02*
X0124150Y0277589D01*
X0127373Y0278123D02*
X0127906Y0277589D01*
X0128974Y0277589D01*
X0129508Y0278123D01*
X0129508Y0279191D01*
X0128974Y0279724D01*
X0128440Y0279724D01*
X0127373Y0279191D01*
X0127373Y0280792D01*
X0129508Y0280792D01*
X0130595Y0280792D02*
X0131663Y0279724D01*
X0131663Y0278657D01*
X0130595Y0277589D01*
X0188691Y0277799D02*
X0189309Y0277182D01*
X0190543Y0277182D01*
X0191160Y0277799D01*
X0191160Y0279034D01*
X0190543Y0279651D01*
X0189926Y0279651D01*
X0188691Y0279034D01*
X0188691Y0280885D01*
X0191160Y0280885D01*
X0192374Y0280885D02*
X0192374Y0278416D01*
X0193609Y0277182D01*
X0194843Y0278416D01*
X0194843Y0280885D01*
X0199683Y0281163D02*
X0199683Y0277460D01*
X0199683Y0278695D02*
X0201535Y0278695D01*
X0202152Y0279312D01*
X0202152Y0280546D01*
X0201535Y0281163D01*
X0199683Y0281163D01*
X0200918Y0278695D02*
X0202152Y0277460D01*
X0209056Y0278204D02*
X0209056Y0280673D01*
X0209673Y0281290D01*
X0210908Y0281290D01*
X0211525Y0280673D01*
X0211525Y0279439D02*
X0210291Y0279439D01*
X0211525Y0279439D02*
X0211525Y0278204D01*
X0210908Y0277587D01*
X0209673Y0277587D01*
X0209056Y0278204D01*
X0177386Y0328038D02*
X0175991Y0328616D01*
X0175583Y0329602D01*
X0176161Y0330997D01*
X0177363Y0330917D02*
X0177652Y0331615D01*
X0178639Y0332023D01*
X0179336Y0331734D01*
X0178181Y0328945D01*
X0178878Y0328656D01*
X0179864Y0329064D01*
X0180153Y0329762D01*
X0179336Y0331734D01*
X0180137Y0332644D02*
X0181531Y0332066D01*
X0181940Y0331080D01*
X0181362Y0329685D01*
X0178181Y0328945D02*
X0177363Y0330917D01*
X0184822Y0333429D02*
X0185399Y0334824D01*
X0184822Y0333429D02*
X0185230Y0332442D01*
X0186625Y0331865D01*
X0187624Y0332278D02*
X0189596Y0333095D01*
X0188610Y0332687D02*
X0187384Y0335646D01*
X0186807Y0334251D01*
X0189375Y0336471D02*
X0190770Y0335893D01*
X0191179Y0334906D01*
X0190601Y0333512D01*
X0194469Y0336269D02*
X0194060Y0337256D01*
X0194638Y0338650D01*
X0195841Y0338571D02*
X0196130Y0339268D01*
X0197116Y0339677D01*
X0197814Y0339388D01*
X0198018Y0338895D01*
X0196862Y0336105D01*
X0198835Y0336922D01*
X0199840Y0337338D02*
X0200418Y0338733D01*
X0200009Y0339720D01*
X0198614Y0340297D01*
X0203299Y0341082D02*
X0203877Y0342477D01*
X0205080Y0342398D02*
X0205369Y0343095D01*
X0206355Y0343504D01*
X0207052Y0343215D01*
X0207257Y0342722D01*
X0206968Y0342024D01*
X0207665Y0341735D01*
X0207870Y0341242D01*
X0207581Y0340545D01*
X0206594Y0340136D01*
X0205897Y0340425D01*
X0205103Y0339518D02*
X0203708Y0340096D01*
X0203299Y0341082D01*
X0206475Y0341820D02*
X0206968Y0342024D01*
X0209079Y0341165D02*
X0209656Y0342560D01*
X0209248Y0343546D01*
X0207853Y0344124D01*
X0195864Y0335691D02*
X0194469Y0336269D01*
X0222430Y0334419D02*
X0223497Y0335486D01*
X0224578Y0334953D02*
X0225112Y0335486D01*
X0226179Y0335486D01*
X0226713Y0334953D01*
X0224578Y0332817D01*
X0225112Y0332284D01*
X0226179Y0332284D01*
X0226713Y0332817D01*
X0226713Y0334953D01*
X0227801Y0335486D02*
X0228868Y0334419D01*
X0228868Y0333351D01*
X0227801Y0332284D01*
X0224578Y0332817D02*
X0224578Y0334953D01*
X0222430Y0334419D02*
X0222430Y0333351D01*
X0223497Y0332284D01*
X0232430Y0333351D02*
X0232430Y0334419D01*
X0233497Y0335486D01*
X0234578Y0334419D02*
X0235646Y0335486D01*
X0235646Y0332284D01*
X0236713Y0332284D02*
X0234578Y0332284D01*
X0233497Y0332284D02*
X0232430Y0333351D01*
X0237801Y0332284D02*
X0238868Y0333351D01*
X0238868Y0334419D01*
X0237801Y0335486D01*
X0242430Y0334419D02*
X0243497Y0335486D01*
X0244578Y0334953D02*
X0245112Y0335486D01*
X0246179Y0335486D01*
X0246713Y0334953D01*
X0246713Y0334419D01*
X0244578Y0332284D01*
X0246713Y0332284D01*
X0247801Y0332284D02*
X0248868Y0333351D01*
X0248868Y0334419D01*
X0247801Y0335486D01*
X0252430Y0334419D02*
X0253497Y0335486D01*
X0254578Y0334953D02*
X0255112Y0335486D01*
X0256179Y0335486D01*
X0256713Y0334953D01*
X0256713Y0334419D01*
X0256179Y0333885D01*
X0256713Y0333351D01*
X0256713Y0332817D01*
X0256179Y0332284D01*
X0255112Y0332284D01*
X0254578Y0332817D01*
X0253497Y0332284D02*
X0252430Y0333351D01*
X0252430Y0334419D01*
X0255646Y0333885D02*
X0256179Y0333885D01*
X0257801Y0335486D02*
X0258868Y0334419D01*
X0258868Y0333351D01*
X0257801Y0332284D01*
X0243497Y0332284D02*
X0242430Y0333351D01*
X0242430Y0334419D01*
X0242997Y0352838D02*
X0241929Y0353906D01*
X0241929Y0354973D01*
X0242997Y0356041D01*
X0244078Y0355507D02*
X0244612Y0356041D01*
X0245679Y0356041D01*
X0246213Y0355507D01*
X0246213Y0354973D01*
X0244078Y0352838D01*
X0246213Y0352838D01*
X0247300Y0352838D02*
X0248368Y0353906D01*
X0248368Y0354973D01*
X0247300Y0356041D01*
X0251929Y0354973D02*
X0252997Y0356041D01*
X0254078Y0355507D02*
X0254612Y0356041D01*
X0255679Y0356041D01*
X0256213Y0355507D01*
X0256213Y0354973D01*
X0255679Y0354439D01*
X0256213Y0353906D01*
X0256213Y0353372D01*
X0255679Y0352838D01*
X0254612Y0352838D01*
X0254078Y0353372D01*
X0252997Y0352838D02*
X0251929Y0353906D01*
X0251929Y0354973D01*
X0255145Y0354439D02*
X0255679Y0354439D01*
X0257300Y0352838D02*
X0258368Y0353906D01*
X0258368Y0354973D01*
X0257300Y0356041D01*
X0275593Y0344816D02*
X0275593Y0343581D01*
X0276827Y0342347D01*
X0278048Y0344199D02*
X0280517Y0344199D01*
X0279282Y0345433D02*
X0279282Y0342964D01*
X0281731Y0342347D02*
X0282966Y0343581D01*
X0282966Y0344816D01*
X0281731Y0346050D01*
X0286311Y0344928D02*
X0286311Y0343693D01*
X0287545Y0342459D01*
X0288766Y0344311D02*
X0291235Y0344311D01*
X0292449Y0346162D02*
X0293683Y0344928D01*
X0293683Y0343693D01*
X0292449Y0342459D01*
X0287545Y0346162D02*
X0286311Y0344928D01*
X0276827Y0346050D02*
X0275593Y0344816D01*
X0307216Y0353680D02*
X0308284Y0352612D01*
X0309364Y0353146D02*
X0309898Y0352612D01*
X0310966Y0352612D01*
X0311500Y0353146D01*
X0311500Y0355281D01*
X0309364Y0353146D01*
X0309364Y0355281D01*
X0309898Y0355815D01*
X0310966Y0355815D01*
X0311500Y0355281D01*
X0312587Y0355815D02*
X0313655Y0354747D01*
X0313655Y0353680D01*
X0312587Y0352612D01*
X0317216Y0353680D02*
X0317216Y0354747D01*
X0318284Y0355815D01*
X0319364Y0354747D02*
X0320432Y0355815D01*
X0320432Y0352612D01*
X0319364Y0352612D02*
X0321500Y0352612D01*
X0322587Y0352612D02*
X0323655Y0353680D01*
X0323655Y0354747D01*
X0322587Y0355815D01*
X0327216Y0354747D02*
X0328284Y0355815D01*
X0329364Y0355281D02*
X0329898Y0355815D01*
X0330966Y0355815D01*
X0331500Y0355281D01*
X0331500Y0354747D01*
X0329364Y0352612D01*
X0331500Y0352612D01*
X0332587Y0352612D02*
X0333655Y0353680D01*
X0333655Y0354747D01*
X0332587Y0355815D01*
X0337216Y0354747D02*
X0338284Y0355815D01*
X0339364Y0355281D02*
X0339898Y0355815D01*
X0340966Y0355815D01*
X0341500Y0355281D01*
X0341500Y0354747D01*
X0340966Y0354214D01*
X0341500Y0353680D01*
X0341500Y0353146D01*
X0340966Y0352612D01*
X0339898Y0352612D01*
X0339364Y0353146D01*
X0338284Y0352612D02*
X0337216Y0353680D01*
X0337216Y0354747D01*
X0340432Y0354214D02*
X0340966Y0354214D01*
X0342587Y0355815D02*
X0343655Y0354747D01*
X0343655Y0353680D01*
X0342587Y0352612D01*
X0356907Y0345501D02*
X0356498Y0344515D01*
X0357076Y0343120D01*
X0358279Y0343200D02*
X0361069Y0344355D01*
X0360252Y0342382D01*
X0359554Y0342094D01*
X0358568Y0342502D01*
X0358279Y0343200D01*
X0359096Y0345172D01*
X0359793Y0345461D01*
X0360780Y0345052D01*
X0361069Y0344355D01*
X0362278Y0344432D02*
X0362855Y0343037D01*
X0362447Y0342051D01*
X0361052Y0341473D01*
X0365737Y0340688D02*
X0366315Y0339293D01*
X0367313Y0338880D02*
X0369286Y0338062D01*
X0368300Y0338471D02*
X0369525Y0341430D01*
X0368130Y0340852D01*
X0367540Y0342252D02*
X0366146Y0341674D01*
X0365737Y0340688D01*
X0370291Y0337646D02*
X0371686Y0338224D01*
X0372094Y0339210D01*
X0371516Y0340605D01*
X0375384Y0337848D02*
X0376779Y0338425D01*
X0377574Y0337519D02*
X0378271Y0337807D01*
X0379257Y0337399D01*
X0379546Y0336701D01*
X0379342Y0336208D01*
X0376552Y0335053D01*
X0378525Y0334236D01*
X0379530Y0333819D02*
X0380924Y0334397D01*
X0381333Y0335383D01*
X0380755Y0336778D01*
X0384623Y0334021D02*
X0386018Y0334598D01*
X0386812Y0333692D02*
X0387510Y0333981D01*
X0388496Y0333572D01*
X0388785Y0332875D01*
X0388581Y0332381D01*
X0387883Y0332093D01*
X0388172Y0331395D01*
X0387968Y0330902D01*
X0387270Y0330613D01*
X0386284Y0331022D01*
X0385995Y0331719D01*
X0384792Y0331640D02*
X0384215Y0333034D01*
X0384623Y0334021D01*
X0387390Y0332297D02*
X0387883Y0332093D01*
X0389994Y0332952D02*
X0390572Y0331557D01*
X0390163Y0330570D01*
X0388768Y0329993D01*
X0375554Y0335466D02*
X0374976Y0336861D01*
X0375384Y0337848D01*
X0358302Y0346079D02*
X0356907Y0345501D01*
X0343655Y0334653D02*
X0342587Y0335721D01*
X0341500Y0335187D02*
X0341500Y0334653D01*
X0340966Y0334120D01*
X0341500Y0333586D01*
X0341500Y0333052D01*
X0340966Y0332518D01*
X0339898Y0332518D01*
X0339364Y0333052D01*
X0338284Y0332518D02*
X0337216Y0333586D01*
X0337216Y0334653D01*
X0338284Y0335721D01*
X0339364Y0335187D02*
X0339898Y0335721D01*
X0340966Y0335721D01*
X0341500Y0335187D01*
X0340966Y0334120D02*
X0340432Y0334120D01*
X0342587Y0332518D02*
X0343655Y0333586D01*
X0343655Y0334653D01*
X0333655Y0334653D02*
X0332587Y0335721D01*
X0331500Y0335187D02*
X0330966Y0335721D01*
X0329898Y0335721D01*
X0329364Y0335187D01*
X0328284Y0335721D02*
X0327216Y0334653D01*
X0327216Y0333586D01*
X0328284Y0332518D01*
X0329364Y0332518D02*
X0331500Y0334653D01*
X0331500Y0335187D01*
X0333655Y0334653D02*
X0333655Y0333586D01*
X0332587Y0332518D01*
X0331500Y0332518D02*
X0329364Y0332518D01*
X0323655Y0333586D02*
X0323655Y0334653D01*
X0322587Y0335721D01*
X0320432Y0335721D02*
X0320432Y0332518D01*
X0319364Y0332518D02*
X0321500Y0332518D01*
X0322587Y0332518D02*
X0323655Y0333586D01*
X0320432Y0335721D02*
X0319364Y0334653D01*
X0318284Y0335721D02*
X0317216Y0334653D01*
X0317216Y0333586D01*
X0318284Y0332518D01*
X0313655Y0333586D02*
X0313655Y0334653D01*
X0312587Y0335721D01*
X0311500Y0335187D02*
X0309364Y0333052D01*
X0309898Y0332518D01*
X0310966Y0332518D01*
X0311500Y0333052D01*
X0311500Y0335187D01*
X0310966Y0335721D01*
X0309898Y0335721D01*
X0309364Y0335187D01*
X0309364Y0333052D01*
X0308284Y0332518D02*
X0307216Y0333586D01*
X0307216Y0334653D01*
X0308284Y0335721D01*
X0312587Y0332518D02*
X0313655Y0333586D01*
X0318284Y0352612D02*
X0317216Y0353680D01*
X0308284Y0355815D02*
X0307216Y0354747D01*
X0307216Y0353680D01*
X0327216Y0353680D02*
X0328284Y0352612D01*
X0327216Y0353680D02*
X0327216Y0354747D01*
X0350964Y0308263D02*
X0350964Y0306411D01*
X0351581Y0305794D01*
X0352816Y0305794D01*
X0353433Y0306411D01*
X0353433Y0308263D01*
X0354050Y0308263D02*
X0350964Y0308263D01*
X0354050Y0308263D02*
X0354667Y0307645D01*
X0354667Y0307028D01*
X0353433Y0304573D02*
X0353433Y0303338D01*
X0353433Y0303956D02*
X0350964Y0303956D01*
X0350964Y0303338D01*
X0350347Y0302124D02*
X0349730Y0301507D01*
X0349730Y0300273D01*
X0350347Y0299655D01*
X0350964Y0299655D01*
X0351581Y0300273D01*
X0351581Y0301507D01*
X0352198Y0302124D01*
X0352816Y0302124D01*
X0353433Y0301507D01*
X0353433Y0300273D01*
X0352816Y0299655D01*
X0349730Y0303956D02*
X0349112Y0303956D01*
X0351581Y0294758D02*
X0350964Y0294141D01*
X0350964Y0292289D01*
X0353433Y0292289D01*
X0352816Y0291075D02*
X0351581Y0291075D01*
X0350964Y0290457D01*
X0350964Y0289223D01*
X0351581Y0288606D01*
X0352816Y0288606D01*
X0353433Y0289223D01*
X0353433Y0290457D01*
X0352816Y0291075D01*
X0353433Y0294758D02*
X0351581Y0294758D01*
X0350964Y0287385D02*
X0350964Y0286150D01*
X0350347Y0286768D02*
X0352816Y0286768D01*
X0353433Y0287385D01*
X0353433Y0284929D02*
X0352816Y0284312D01*
X0350347Y0284312D01*
X0350964Y0283695D02*
X0350964Y0284929D01*
X0350964Y0282481D02*
X0353433Y0282481D01*
X0353433Y0280629D01*
X0352816Y0280012D01*
X0350964Y0280012D01*
X0350964Y0278798D02*
X0351581Y0278180D01*
X0351581Y0276329D01*
X0351581Y0278180D02*
X0352198Y0278798D01*
X0352816Y0278798D01*
X0353433Y0278180D01*
X0353433Y0276329D01*
X0349730Y0276329D01*
X0349730Y0278180D01*
X0350347Y0278798D01*
X0350964Y0278798D01*
X0343433Y0277563D02*
X0341581Y0277563D01*
X0340347Y0278798D01*
X0339730Y0278798D01*
X0341581Y0277563D02*
X0340347Y0276329D01*
X0339730Y0276329D01*
X0333433Y0276329D02*
X0329730Y0278798D01*
X0329730Y0276329D02*
X0333433Y0278798D01*
X0332816Y0283695D02*
X0333433Y0284312D01*
X0333433Y0285547D01*
X0332816Y0286164D01*
X0332198Y0286164D01*
X0331581Y0285547D01*
X0331581Y0284312D01*
X0330964Y0283695D01*
X0330347Y0283695D01*
X0329730Y0284312D01*
X0329730Y0285547D01*
X0330347Y0286164D01*
X0330964Y0287378D02*
X0330964Y0287995D01*
X0333433Y0287995D01*
X0333433Y0287378D02*
X0333433Y0288613D01*
X0332816Y0289834D02*
X0333433Y0290451D01*
X0333433Y0292302D01*
X0334050Y0292302D02*
X0330964Y0292302D01*
X0330964Y0290451D01*
X0331581Y0289834D01*
X0332816Y0289834D01*
X0334667Y0291068D02*
X0334667Y0291685D01*
X0334050Y0292302D01*
X0329730Y0287995D02*
X0329112Y0287995D01*
X0323433Y0288002D02*
X0323433Y0286150D01*
X0323433Y0284929D02*
X0322816Y0284312D01*
X0320347Y0284312D01*
X0320964Y0283695D02*
X0320964Y0284929D01*
X0321581Y0286150D02*
X0320964Y0286768D01*
X0320964Y0288619D01*
X0322198Y0288002D02*
X0322198Y0286768D01*
X0321581Y0286150D01*
X0322198Y0288002D02*
X0322816Y0288619D01*
X0323433Y0288002D01*
X0322816Y0293517D02*
X0323433Y0294134D01*
X0323433Y0295368D01*
X0322816Y0295986D01*
X0322198Y0295986D01*
X0321581Y0295368D01*
X0321581Y0294134D01*
X0320964Y0293517D01*
X0320347Y0293517D01*
X0319730Y0294134D01*
X0319730Y0295368D01*
X0320347Y0295986D01*
X0320964Y0297200D02*
X0320964Y0297817D01*
X0323433Y0297817D01*
X0323433Y0297200D02*
X0323433Y0298434D01*
X0322816Y0299655D02*
X0323433Y0300273D01*
X0323433Y0302124D01*
X0324050Y0302124D02*
X0320964Y0302124D01*
X0320964Y0300273D01*
X0321581Y0299655D01*
X0322816Y0299655D01*
X0324667Y0300890D02*
X0324667Y0301507D01*
X0324050Y0302124D01*
X0319730Y0297817D02*
X0319112Y0297817D01*
X0339112Y0287995D02*
X0339730Y0287995D01*
X0340964Y0287995D02*
X0343433Y0287995D01*
X0343433Y0287378D02*
X0343433Y0288613D01*
X0342816Y0289834D02*
X0343433Y0290451D01*
X0343433Y0292302D01*
X0344050Y0292302D02*
X0340964Y0292302D01*
X0340964Y0290451D01*
X0341581Y0289834D01*
X0342816Y0289834D01*
X0344667Y0291068D02*
X0344667Y0291685D01*
X0344050Y0292302D01*
X0340964Y0287995D02*
X0340964Y0287378D01*
X0340347Y0286164D02*
X0339730Y0285547D01*
X0339730Y0284312D01*
X0340347Y0283695D01*
X0340964Y0283695D01*
X0341581Y0284312D01*
X0341581Y0285547D01*
X0342198Y0286164D01*
X0342816Y0286164D01*
X0343433Y0285547D01*
X0343433Y0284312D01*
X0342816Y0283695D01*
X0323433Y0281863D02*
X0322816Y0282481D01*
X0321581Y0282481D01*
X0320964Y0281863D01*
X0320964Y0280629D01*
X0321581Y0280012D01*
X0322816Y0280012D01*
X0323433Y0280629D01*
X0323433Y0281863D01*
X0321581Y0278798D02*
X0322198Y0278180D01*
X0322198Y0276329D01*
X0323433Y0276329D02*
X0319730Y0276329D01*
X0319730Y0278180D01*
X0320347Y0278798D01*
X0321581Y0278798D01*
X0238368Y0353906D02*
X0237300Y0352838D01*
X0236213Y0352838D02*
X0234078Y0352838D01*
X0235145Y0352838D02*
X0235145Y0356041D01*
X0234078Y0354973D01*
X0232997Y0356041D02*
X0231929Y0354973D01*
X0231929Y0353906D01*
X0232997Y0352838D01*
X0228368Y0353906D02*
X0228368Y0354973D01*
X0227300Y0356041D01*
X0226213Y0355507D02*
X0224078Y0353372D01*
X0224612Y0352838D01*
X0225679Y0352838D01*
X0226213Y0353372D01*
X0226213Y0355507D01*
X0225679Y0356041D01*
X0224612Y0356041D01*
X0224078Y0355507D01*
X0224078Y0353372D01*
X0222997Y0352838D02*
X0221929Y0353906D01*
X0221929Y0354973D01*
X0222997Y0356041D01*
X0227300Y0352838D02*
X0228368Y0353906D01*
X0237300Y0356041D02*
X0238368Y0354973D01*
X0238368Y0353906D01*
X0104705Y0226914D02*
X0103470Y0228148D01*
X0102236Y0228148D01*
X0101002Y0226914D01*
X0102853Y0225699D02*
X0102853Y0223231D01*
X0101619Y0224465D02*
X0104088Y0224465D01*
X0104705Y0222009D02*
X0103470Y0220775D01*
X0102236Y0220775D01*
X0101002Y0222009D01*
X0102007Y0218953D02*
X0100773Y0217718D01*
X0102007Y0218953D02*
X0103242Y0218953D01*
X0104476Y0217718D01*
X0102624Y0216504D02*
X0102624Y0214035D01*
X0100773Y0212814D02*
X0102007Y0211580D01*
X0103242Y0211580D01*
X0104476Y0212814D01*
X0103998Y0193725D02*
X0103998Y0190522D01*
X0105065Y0190522D02*
X0102930Y0190522D01*
X0101849Y0190522D02*
X0100781Y0191589D01*
X0100781Y0192657D01*
X0101849Y0193725D01*
X0102930Y0192657D02*
X0103998Y0193725D01*
X0106153Y0193725D02*
X0106153Y0192123D01*
X0107220Y0192657D01*
X0107754Y0192657D01*
X0108288Y0192123D01*
X0108288Y0191056D01*
X0107754Y0190522D01*
X0106687Y0190522D01*
X0106153Y0191056D01*
X0106153Y0193725D02*
X0108288Y0193725D01*
X0109375Y0193725D02*
X0110443Y0192657D01*
X0110443Y0191589D01*
X0109375Y0190522D01*
X0109375Y0183747D02*
X0110443Y0182680D01*
X0110443Y0181612D01*
X0109375Y0180544D01*
X0107754Y0180544D02*
X0107754Y0183747D01*
X0106153Y0182146D01*
X0108288Y0182146D01*
X0105065Y0180544D02*
X0102930Y0180544D01*
X0103998Y0180544D02*
X0103998Y0183747D01*
X0102930Y0182680D01*
X0101849Y0183747D02*
X0100781Y0182680D01*
X0100781Y0181612D01*
X0101849Y0180544D01*
X0101910Y0173647D02*
X0100843Y0172580D01*
X0100843Y0171512D01*
X0101910Y0170444D01*
X0102991Y0170444D02*
X0105126Y0170444D01*
X0104059Y0170444D02*
X0104059Y0173647D01*
X0102991Y0172580D01*
X0106214Y0173113D02*
X0106748Y0173647D01*
X0107815Y0173647D01*
X0108349Y0173113D01*
X0108349Y0172580D01*
X0107815Y0172046D01*
X0108349Y0171512D01*
X0108349Y0170978D01*
X0107815Y0170444D01*
X0106748Y0170444D01*
X0106214Y0170978D01*
X0107282Y0172046D02*
X0107815Y0172046D01*
X0109437Y0173647D02*
X0110504Y0172580D01*
X0110504Y0171512D01*
X0109437Y0170444D01*
X0109375Y0163241D02*
X0110443Y0162174D01*
X0110443Y0161106D01*
X0109375Y0160038D01*
X0108288Y0160038D02*
X0106153Y0160038D01*
X0108288Y0162174D01*
X0108288Y0162707D01*
X0107754Y0163241D01*
X0106687Y0163241D01*
X0106153Y0162707D01*
X0103998Y0163241D02*
X0103998Y0160038D01*
X0105065Y0160038D02*
X0102930Y0160038D01*
X0101849Y0160038D02*
X0100781Y0161106D01*
X0100781Y0162174D01*
X0101849Y0163241D01*
X0102930Y0162174D02*
X0103998Y0163241D01*
X0112753Y0144769D02*
X0111685Y0143701D01*
X0111685Y0142634D01*
X0112753Y0141566D01*
X0113834Y0141566D02*
X0115969Y0141566D01*
X0114901Y0141566D02*
X0114901Y0144769D01*
X0113834Y0143701D01*
X0117057Y0143167D02*
X0117057Y0144769D01*
X0119192Y0144769D01*
X0120279Y0144769D02*
X0121347Y0143701D01*
X0121347Y0142634D01*
X0120279Y0141566D01*
X0119192Y0142100D02*
X0118658Y0141566D01*
X0117590Y0141566D01*
X0117057Y0142100D01*
X0117057Y0143167D02*
X0118124Y0143701D01*
X0118658Y0143701D01*
X0119192Y0143167D01*
X0119192Y0142100D01*
X0118720Y0135551D02*
X0118720Y0132348D01*
X0119787Y0132348D02*
X0117652Y0132348D01*
X0116571Y0132348D02*
X0115504Y0133416D01*
X0115504Y0134483D01*
X0116571Y0135551D01*
X0117652Y0134483D02*
X0118720Y0135551D01*
X0120875Y0133949D02*
X0122476Y0135551D01*
X0122476Y0132348D01*
X0124098Y0132348D02*
X0125165Y0133416D01*
X0125165Y0134483D01*
X0124098Y0135551D01*
X0123010Y0133949D02*
X0120875Y0133949D01*
X0120493Y0126243D02*
X0119425Y0125175D01*
X0119425Y0124108D01*
X0120493Y0123040D01*
X0121574Y0123040D02*
X0123709Y0123040D01*
X0122641Y0123040D02*
X0122641Y0126243D01*
X0121574Y0125175D01*
X0124796Y0125709D02*
X0125330Y0126243D01*
X0126398Y0126243D01*
X0126932Y0125709D01*
X0126932Y0125175D01*
X0126398Y0124642D01*
X0126932Y0124108D01*
X0126932Y0123574D01*
X0126398Y0123040D01*
X0125330Y0123040D01*
X0124796Y0123574D01*
X0125864Y0124642D02*
X0126398Y0124642D01*
X0128019Y0126243D02*
X0129087Y0125175D01*
X0129087Y0124108D01*
X0128019Y0123040D01*
X0129256Y0116606D02*
X0128722Y0116072D01*
X0129256Y0116606D02*
X0130323Y0116606D01*
X0130857Y0116072D01*
X0130857Y0115538D01*
X0128722Y0113403D01*
X0130857Y0113403D01*
X0131945Y0113403D02*
X0133012Y0114471D01*
X0133012Y0115538D01*
X0131945Y0116606D01*
X0127634Y0113403D02*
X0125499Y0113403D01*
X0126567Y0113403D02*
X0126567Y0116606D01*
X0125499Y0115538D01*
X0124418Y0116606D02*
X0123351Y0115538D01*
X0123351Y0114471D01*
X0124418Y0113403D01*
X0141937Y0113443D02*
X0143639Y0113443D01*
X0143639Y0113159D02*
X0143639Y0113727D01*
X0143355Y0114387D02*
X0143639Y0114671D01*
X0143639Y0115238D01*
X0143355Y0115521D01*
X0141937Y0115521D01*
X0142504Y0116229D02*
X0142504Y0117079D01*
X0142788Y0117363D01*
X0143355Y0117363D01*
X0143639Y0117079D01*
X0143639Y0116229D01*
X0144206Y0116229D02*
X0142504Y0116229D01*
X0141937Y0114387D02*
X0143355Y0114387D01*
X0141937Y0113443D02*
X0141937Y0113159D01*
X0141937Y0112215D02*
X0143639Y0112215D01*
X0143639Y0111932D02*
X0143639Y0112499D01*
X0143639Y0111224D02*
X0142504Y0111224D01*
X0141937Y0111932D02*
X0141937Y0112215D01*
X0143639Y0111224D02*
X0143639Y0110374D01*
X0143355Y0110090D01*
X0142504Y0110090D01*
X0142221Y0109383D02*
X0142788Y0109383D01*
X0143071Y0109099D01*
X0143071Y0108248D01*
X0143639Y0108248D02*
X0141937Y0108248D01*
X0141937Y0109099D01*
X0142221Y0109383D01*
X0131657Y0096536D02*
X0132891Y0095302D01*
X0132891Y0094067D01*
X0131657Y0092833D01*
X0130442Y0094685D02*
X0127973Y0094685D01*
X0129208Y0095919D02*
X0129208Y0093450D01*
X0126752Y0092833D02*
X0125518Y0094067D01*
X0125518Y0095302D01*
X0126752Y0096536D01*
X0123487Y0095302D02*
X0122253Y0096536D01*
X0123487Y0095302D02*
X0123487Y0094067D01*
X0122253Y0092833D01*
X0121038Y0094685D02*
X0118570Y0094685D01*
X0117349Y0096536D02*
X0116114Y0095302D01*
X0116114Y0094067D01*
X0117349Y0092833D01*
X0165186Y0108490D02*
X0165186Y0109340D01*
X0165469Y0109624D01*
X0166036Y0109624D01*
X0166320Y0109340D01*
X0166320Y0108490D01*
X0166887Y0108490D02*
X0165186Y0108490D01*
X0165753Y0110331D02*
X0166603Y0110331D01*
X0166887Y0110615D01*
X0166887Y0111466D01*
X0165753Y0111466D01*
X0165186Y0112173D02*
X0165186Y0112456D01*
X0166887Y0112456D01*
X0166887Y0112173D02*
X0166887Y0112740D01*
X0166887Y0113400D02*
X0166887Y0113968D01*
X0166887Y0113684D02*
X0165186Y0113684D01*
X0165186Y0113400D01*
X0165186Y0114628D02*
X0166603Y0114628D01*
X0166887Y0114912D01*
X0166887Y0115479D01*
X0166603Y0115762D01*
X0165186Y0115762D01*
X0165753Y0116470D02*
X0165753Y0117320D01*
X0166036Y0117604D01*
X0166603Y0117604D01*
X0166887Y0117320D01*
X0166887Y0116470D01*
X0167454Y0116470D02*
X0165753Y0116470D01*
X0171604Y0086614D02*
X0170209Y0086036D01*
X0169800Y0085050D01*
X0170378Y0083655D01*
X0171377Y0083241D02*
X0173349Y0082424D01*
X0172363Y0082833D02*
X0173589Y0085792D01*
X0172194Y0085214D01*
X0175171Y0083981D02*
X0176566Y0084559D01*
X0175340Y0081600D01*
X0174354Y0082008D02*
X0176327Y0081191D01*
X0177332Y0080775D02*
X0178726Y0081353D01*
X0179135Y0082339D01*
X0178557Y0083734D01*
X0180041Y0081556D02*
X0181436Y0082134D01*
X0180041Y0081556D02*
X0179633Y0080570D01*
X0180211Y0079175D01*
X0181209Y0078761D02*
X0183182Y0077944D01*
X0182195Y0078353D02*
X0183421Y0081311D01*
X0182026Y0080734D01*
X0185208Y0079994D02*
X0185905Y0080282D01*
X0186892Y0079874D01*
X0187181Y0079176D01*
X0184391Y0078021D01*
X0184680Y0077323D01*
X0185666Y0076915D01*
X0186363Y0077204D01*
X0187181Y0079176D01*
X0188390Y0079253D02*
X0188967Y0077859D01*
X0188559Y0076872D01*
X0187164Y0076294D01*
X0184391Y0078021D02*
X0185208Y0079994D01*
X0190844Y0077417D02*
X0192239Y0077994D01*
X0193033Y0077088D02*
X0192829Y0076594D01*
X0193118Y0075897D01*
X0194597Y0075284D01*
X0194189Y0074298D02*
X0195006Y0076271D01*
X0194717Y0076968D01*
X0193730Y0077376D01*
X0193033Y0077088D01*
X0192216Y0075115D02*
X0192505Y0074418D01*
X0193491Y0074009D01*
X0194189Y0074298D01*
X0194989Y0073389D02*
X0196384Y0073966D01*
X0196792Y0074953D01*
X0196215Y0076347D01*
X0199891Y0073434D02*
X0201286Y0074012D01*
X0202080Y0073105D02*
X0201876Y0072612D01*
X0202165Y0071915D01*
X0203151Y0071506D01*
X0203440Y0070809D01*
X0203235Y0070316D01*
X0202538Y0070027D01*
X0201552Y0070435D01*
X0201263Y0071133D01*
X0201467Y0071626D01*
X0202165Y0071915D01*
X0203151Y0071506D02*
X0203848Y0071795D01*
X0204053Y0072288D01*
X0203764Y0072986D01*
X0202777Y0073394D01*
X0202080Y0073105D01*
X0199891Y0073434D02*
X0199482Y0072448D01*
X0200060Y0071053D01*
X0204036Y0069406D02*
X0205431Y0069984D01*
X0205839Y0070970D01*
X0205262Y0072365D01*
X0191013Y0075035D02*
X0190435Y0076430D01*
X0190844Y0077417D01*
X0220492Y0083764D02*
X0220492Y0084831D01*
X0221559Y0085899D01*
X0222640Y0084831D02*
X0223708Y0085899D01*
X0223708Y0082696D01*
X0224775Y0082696D02*
X0222640Y0082696D01*
X0221559Y0082696D02*
X0220492Y0083764D01*
X0225863Y0084831D02*
X0226931Y0085899D01*
X0226931Y0082696D01*
X0227998Y0082696D02*
X0225863Y0082696D01*
X0229086Y0082696D02*
X0230153Y0083764D01*
X0230153Y0084831D01*
X0229086Y0085899D01*
X0231395Y0084746D02*
X0232462Y0085814D01*
X0231395Y0084746D02*
X0231395Y0083679D01*
X0232462Y0082611D01*
X0233543Y0082611D02*
X0235678Y0082611D01*
X0234611Y0082611D02*
X0234611Y0085814D01*
X0233543Y0084746D01*
X0236766Y0085280D02*
X0237300Y0085814D01*
X0238367Y0085814D01*
X0238901Y0085280D01*
X0236766Y0083145D01*
X0237300Y0082611D01*
X0238367Y0082611D01*
X0238901Y0083145D01*
X0238901Y0085280D01*
X0239989Y0085814D02*
X0241056Y0084746D01*
X0241056Y0083679D01*
X0239989Y0082611D01*
X0236766Y0083145D02*
X0236766Y0085280D01*
X0243026Y0084921D02*
X0244093Y0085989D01*
X0245174Y0085455D02*
X0245174Y0084921D01*
X0245708Y0084387D01*
X0247310Y0084387D01*
X0247310Y0083320D02*
X0247310Y0085455D01*
X0246776Y0085989D01*
X0245708Y0085989D01*
X0245174Y0085455D01*
X0245174Y0083320D02*
X0245708Y0082786D01*
X0246776Y0082786D01*
X0247310Y0083320D01*
X0248397Y0082786D02*
X0249465Y0083853D01*
X0249465Y0084921D01*
X0248397Y0085989D01*
X0252908Y0084704D02*
X0253976Y0085772D01*
X0255057Y0085238D02*
X0255057Y0084704D01*
X0255590Y0084170D01*
X0256658Y0084170D01*
X0257192Y0083636D01*
X0257192Y0083103D01*
X0256658Y0082569D01*
X0255590Y0082569D01*
X0255057Y0083103D01*
X0255057Y0083636D01*
X0255590Y0084170D01*
X0256658Y0084170D02*
X0257192Y0084704D01*
X0257192Y0085238D01*
X0256658Y0085772D01*
X0255590Y0085772D01*
X0255057Y0085238D01*
X0252908Y0084704D02*
X0252908Y0083636D01*
X0253976Y0082569D01*
X0258279Y0082569D02*
X0259347Y0083636D01*
X0259347Y0084704D01*
X0258279Y0085772D01*
X0244093Y0082786D02*
X0243026Y0083853D01*
X0243026Y0084921D01*
X0244166Y0066367D02*
X0243099Y0065299D01*
X0243099Y0064232D01*
X0244166Y0063164D01*
X0245247Y0063698D02*
X0245781Y0063164D01*
X0246849Y0063164D01*
X0247382Y0063698D01*
X0247382Y0065833D01*
X0246849Y0066367D01*
X0245781Y0066367D01*
X0245247Y0065833D01*
X0245247Y0065299D01*
X0245781Y0064765D01*
X0247382Y0064765D01*
X0248470Y0063164D02*
X0249538Y0064232D01*
X0249538Y0065299D01*
X0248470Y0066367D01*
X0252981Y0065082D02*
X0254049Y0066150D01*
X0255129Y0065616D02*
X0255663Y0066150D01*
X0256731Y0066150D01*
X0257265Y0065616D01*
X0257265Y0065082D01*
X0256731Y0064548D01*
X0255663Y0064548D01*
X0255129Y0065082D01*
X0255129Y0065616D01*
X0255663Y0064548D02*
X0255129Y0064015D01*
X0255129Y0063481D01*
X0255663Y0062947D01*
X0256731Y0062947D01*
X0257265Y0063481D01*
X0257265Y0064015D01*
X0256731Y0064548D01*
X0258352Y0062947D02*
X0259420Y0064015D01*
X0259420Y0065082D01*
X0258352Y0066150D01*
X0254049Y0062947D02*
X0252981Y0064015D01*
X0252981Y0065082D01*
X0241129Y0065125D02*
X0240061Y0066192D01*
X0238974Y0065658D02*
X0236839Y0063523D01*
X0237373Y0062989D01*
X0238440Y0062989D01*
X0238974Y0063523D01*
X0238974Y0065658D01*
X0238440Y0066192D01*
X0237373Y0066192D01*
X0236839Y0065658D01*
X0236839Y0063523D01*
X0235751Y0062989D02*
X0233616Y0062989D01*
X0234684Y0062989D02*
X0234684Y0066192D01*
X0233616Y0065125D01*
X0232535Y0066192D02*
X0231467Y0065125D01*
X0231467Y0064057D01*
X0232535Y0062989D01*
X0230361Y0064142D02*
X0230361Y0065209D01*
X0229293Y0066277D01*
X0227138Y0066277D02*
X0227138Y0063074D01*
X0226071Y0063074D02*
X0228206Y0063074D01*
X0229293Y0063074D02*
X0230361Y0064142D01*
X0227138Y0066277D02*
X0226071Y0065209D01*
X0224983Y0063074D02*
X0222848Y0063074D01*
X0223915Y0063074D02*
X0223915Y0066277D01*
X0222848Y0065209D01*
X0221767Y0066277D02*
X0220699Y0065209D01*
X0220699Y0064142D01*
X0221767Y0063074D01*
X0240061Y0062989D02*
X0241129Y0064057D01*
X0241129Y0065125D01*
X0276254Y0086652D02*
X0276254Y0087887D01*
X0277488Y0089121D01*
X0278709Y0087269D02*
X0281178Y0087269D01*
X0282392Y0085418D02*
X0283627Y0086652D01*
X0283627Y0087887D01*
X0282392Y0089121D01*
X0285600Y0087752D02*
X0286834Y0088987D01*
X0285600Y0087752D02*
X0285600Y0086518D01*
X0286834Y0085284D01*
X0288055Y0087135D02*
X0290524Y0087135D01*
X0289290Y0088370D02*
X0289290Y0085901D01*
X0291738Y0085284D02*
X0292973Y0086518D01*
X0292973Y0087752D01*
X0291738Y0088987D01*
X0305829Y0084831D02*
X0306896Y0085899D01*
X0305829Y0084831D02*
X0305829Y0083764D01*
X0306896Y0082696D01*
X0307977Y0082696D02*
X0310112Y0082696D01*
X0309045Y0082696D02*
X0309045Y0085899D01*
X0307977Y0084831D01*
X0311200Y0084831D02*
X0312267Y0085899D01*
X0312267Y0082696D01*
X0311200Y0082696D02*
X0313335Y0082696D01*
X0314423Y0082696D02*
X0315490Y0083764D01*
X0315490Y0084831D01*
X0314423Y0085899D01*
X0316260Y0084746D02*
X0317327Y0085814D01*
X0316260Y0084746D02*
X0316260Y0083679D01*
X0317327Y0082611D01*
X0318408Y0082611D02*
X0320544Y0082611D01*
X0319476Y0082611D02*
X0319476Y0085814D01*
X0318408Y0084746D01*
X0321631Y0085280D02*
X0322165Y0085814D01*
X0323233Y0085814D01*
X0323766Y0085280D01*
X0321631Y0083145D01*
X0322165Y0082611D01*
X0323233Y0082611D01*
X0323766Y0083145D01*
X0323766Y0085280D01*
X0324854Y0085814D02*
X0325921Y0084746D01*
X0325921Y0083679D01*
X0324854Y0082611D01*
X0321631Y0083145D02*
X0321631Y0085280D01*
X0328026Y0084921D02*
X0329093Y0085989D01*
X0330174Y0085455D02*
X0330174Y0084921D01*
X0330708Y0084387D01*
X0332310Y0084387D01*
X0332310Y0083320D02*
X0332310Y0085455D01*
X0331776Y0085989D01*
X0330708Y0085989D01*
X0330174Y0085455D01*
X0330174Y0083320D02*
X0330708Y0082786D01*
X0331776Y0082786D01*
X0332310Y0083320D01*
X0333397Y0082786D02*
X0334465Y0083853D01*
X0334465Y0084921D01*
X0333397Y0085989D01*
X0337908Y0084704D02*
X0338976Y0085772D01*
X0340057Y0085238D02*
X0340057Y0084704D01*
X0340590Y0084170D01*
X0341658Y0084170D01*
X0342192Y0083636D01*
X0342192Y0083103D01*
X0341658Y0082569D01*
X0340590Y0082569D01*
X0340057Y0083103D01*
X0340057Y0083636D01*
X0340590Y0084170D01*
X0341658Y0084170D02*
X0342192Y0084704D01*
X0342192Y0085238D01*
X0341658Y0085772D01*
X0340590Y0085772D01*
X0340057Y0085238D01*
X0337908Y0084704D02*
X0337908Y0083636D01*
X0338976Y0082569D01*
X0343279Y0082569D02*
X0344347Y0083636D01*
X0344347Y0084704D01*
X0343279Y0085772D01*
X0329093Y0082786D02*
X0328026Y0083853D01*
X0328026Y0084921D01*
X0328863Y0066670D02*
X0327796Y0065602D01*
X0327796Y0064535D01*
X0328863Y0063467D01*
X0329944Y0064001D02*
X0330478Y0063467D01*
X0331546Y0063467D01*
X0332079Y0064001D01*
X0332079Y0066136D01*
X0331546Y0066670D01*
X0330478Y0066670D01*
X0329944Y0066136D01*
X0329944Y0065602D01*
X0330478Y0065068D01*
X0332079Y0065068D01*
X0333167Y0063467D02*
X0334234Y0064535D01*
X0334234Y0065602D01*
X0333167Y0066670D01*
X0337678Y0065385D02*
X0338745Y0066453D01*
X0339826Y0065919D02*
X0339826Y0065385D01*
X0340360Y0064851D01*
X0341428Y0064851D01*
X0341962Y0064318D01*
X0341962Y0063784D01*
X0341428Y0063250D01*
X0340360Y0063250D01*
X0339826Y0063784D01*
X0339826Y0064318D01*
X0340360Y0064851D01*
X0341428Y0064851D02*
X0341962Y0065385D01*
X0341962Y0065919D01*
X0341428Y0066453D01*
X0340360Y0066453D01*
X0339826Y0065919D01*
X0337678Y0065385D02*
X0337678Y0064318D01*
X0338745Y0063250D01*
X0343049Y0063250D02*
X0344117Y0064318D01*
X0344117Y0065385D01*
X0343049Y0066453D01*
X0325691Y0065428D02*
X0324624Y0066495D01*
X0323536Y0065961D02*
X0321401Y0063826D01*
X0321935Y0063293D01*
X0323002Y0063293D01*
X0323536Y0063826D01*
X0323536Y0065961D01*
X0323002Y0066495D01*
X0321935Y0066495D01*
X0321401Y0065961D01*
X0321401Y0063826D01*
X0320313Y0063293D02*
X0318178Y0063293D01*
X0319246Y0063293D02*
X0319246Y0066495D01*
X0318178Y0065428D01*
X0317097Y0066495D02*
X0316030Y0065428D01*
X0316030Y0064360D01*
X0317097Y0063293D01*
X0315260Y0064445D02*
X0315260Y0065513D01*
X0314192Y0066580D01*
X0312037Y0066580D02*
X0312037Y0063377D01*
X0310970Y0063377D02*
X0313105Y0063377D01*
X0314192Y0063377D02*
X0315260Y0064445D01*
X0312037Y0066580D02*
X0310970Y0065513D01*
X0309882Y0063377D02*
X0307747Y0063377D01*
X0308814Y0063377D02*
X0308814Y0066580D01*
X0307747Y0065513D01*
X0306666Y0066580D02*
X0305598Y0065513D01*
X0305598Y0064445D01*
X0306666Y0063377D01*
X0324624Y0063293D02*
X0325691Y0064360D01*
X0325691Y0065428D01*
X0360521Y0070870D02*
X0361099Y0072264D01*
X0360521Y0070870D02*
X0360929Y0069883D01*
X0362324Y0069306D01*
X0363323Y0069719D02*
X0365296Y0070536D01*
X0364309Y0070128D02*
X0363084Y0073087D01*
X0362506Y0071692D01*
X0365483Y0072925D02*
X0366061Y0074320D01*
X0367287Y0071361D01*
X0368273Y0071770D02*
X0366300Y0070952D01*
X0369278Y0072186D02*
X0369856Y0073581D01*
X0369447Y0074567D01*
X0368052Y0075145D01*
X0370351Y0075126D02*
X0370929Y0076521D01*
X0370351Y0075126D02*
X0370759Y0074139D01*
X0372154Y0073562D01*
X0373153Y0073975D02*
X0375126Y0074792D01*
X0374139Y0074384D02*
X0372914Y0077343D01*
X0372336Y0075948D01*
X0375109Y0077674D02*
X0375398Y0078372D01*
X0376384Y0078780D01*
X0377082Y0078491D01*
X0375926Y0075702D01*
X0376624Y0075413D01*
X0377610Y0075821D01*
X0377899Y0076519D01*
X0377082Y0078491D01*
X0377882Y0079401D02*
X0379277Y0078823D01*
X0379686Y0077837D01*
X0379108Y0076442D01*
X0381428Y0078601D02*
X0381020Y0079588D01*
X0381598Y0080982D01*
X0382800Y0080903D02*
X0383005Y0080410D01*
X0383702Y0080121D01*
X0385182Y0080734D01*
X0384773Y0081720D02*
X0385590Y0079747D01*
X0385301Y0079050D01*
X0384315Y0078641D01*
X0383618Y0078930D01*
X0382823Y0078023D02*
X0381428Y0078601D01*
X0382800Y0080903D02*
X0383089Y0081600D01*
X0384076Y0082009D01*
X0384773Y0081720D01*
X0385574Y0082629D02*
X0386968Y0082052D01*
X0387377Y0081065D01*
X0386799Y0079670D01*
X0390641Y0082183D02*
X0390233Y0083169D01*
X0390811Y0084564D01*
X0392014Y0084484D02*
X0392218Y0083991D01*
X0392915Y0083702D01*
X0393902Y0084111D01*
X0394599Y0083822D01*
X0394803Y0083329D01*
X0394514Y0082631D01*
X0393528Y0082223D01*
X0392831Y0082512D01*
X0392626Y0083005D01*
X0392915Y0083702D01*
X0393902Y0084111D02*
X0394190Y0084808D01*
X0393986Y0085301D01*
X0393289Y0085590D01*
X0392302Y0085182D01*
X0392014Y0084484D01*
X0390641Y0082183D02*
X0392036Y0081605D01*
X0396012Y0083252D02*
X0396590Y0084647D01*
X0396182Y0085633D01*
X0394787Y0086211D01*
X0411114Y0096567D02*
X0411114Y0097802D01*
X0412349Y0099036D01*
X0413570Y0097185D02*
X0416038Y0097185D01*
X0417253Y0099036D02*
X0418487Y0097802D01*
X0418487Y0096567D01*
X0417253Y0095333D01*
X0420518Y0096567D02*
X0420518Y0097802D01*
X0421752Y0099036D01*
X0422973Y0097185D02*
X0425442Y0097185D01*
X0424208Y0098419D02*
X0424208Y0095950D01*
X0426657Y0095333D02*
X0427891Y0096567D01*
X0427891Y0097802D01*
X0426657Y0099036D01*
X0421752Y0095333D02*
X0420518Y0096567D01*
X0412349Y0095333D02*
X0411114Y0096567D01*
X0445262Y0112424D02*
X0445262Y0113492D01*
X0446330Y0114559D01*
X0447411Y0114559D02*
X0449546Y0114559D01*
X0449546Y0114025D01*
X0447411Y0111890D01*
X0447411Y0111356D01*
X0446330Y0111356D02*
X0445262Y0112424D01*
X0450633Y0111356D02*
X0451701Y0112424D01*
X0451701Y0113492D01*
X0450633Y0114559D01*
X0450368Y0120947D02*
X0449301Y0122014D01*
X0449301Y0123082D01*
X0450368Y0124150D01*
X0451449Y0122548D02*
X0453051Y0122548D01*
X0453584Y0122014D01*
X0453584Y0121481D01*
X0453051Y0120947D01*
X0451983Y0120947D01*
X0451449Y0121481D01*
X0451449Y0122548D01*
X0452517Y0123616D01*
X0453584Y0124150D01*
X0454672Y0124150D02*
X0455740Y0123082D01*
X0455740Y0122014D01*
X0454672Y0120947D01*
X0454177Y0130301D02*
X0453109Y0131369D01*
X0453109Y0132437D01*
X0454177Y0133504D01*
X0455258Y0133504D02*
X0455258Y0131903D01*
X0456325Y0132437D01*
X0456859Y0132437D01*
X0457393Y0131903D01*
X0457393Y0130835D01*
X0456859Y0130301D01*
X0455792Y0130301D01*
X0455258Y0130835D01*
X0455258Y0133504D02*
X0457393Y0133504D01*
X0458481Y0133504D02*
X0459548Y0132437D01*
X0459548Y0131369D01*
X0458481Y0130301D01*
X0457995Y0139519D02*
X0456928Y0140587D01*
X0456928Y0141655D01*
X0457995Y0142722D01*
X0459076Y0141121D02*
X0461211Y0141121D01*
X0460677Y0142722D02*
X0459076Y0141121D01*
X0460677Y0139519D02*
X0460677Y0142722D01*
X0462299Y0142722D02*
X0463366Y0141655D01*
X0463366Y0140587D01*
X0462299Y0139519D01*
X0469389Y0158525D02*
X0468321Y0159592D01*
X0468321Y0160660D01*
X0469389Y0161727D01*
X0470470Y0161727D02*
X0472605Y0161727D01*
X0472605Y0161194D01*
X0470470Y0159058D01*
X0470470Y0158525D01*
X0473692Y0158525D02*
X0474760Y0159592D01*
X0474760Y0160660D01*
X0473692Y0161727D01*
X0473753Y0168931D02*
X0474821Y0169998D01*
X0474821Y0171066D01*
X0473753Y0172133D01*
X0472666Y0172133D02*
X0471598Y0171600D01*
X0470531Y0170532D01*
X0472132Y0170532D01*
X0472666Y0169998D01*
X0472666Y0169464D01*
X0472132Y0168931D01*
X0471064Y0168931D01*
X0470531Y0169464D01*
X0470531Y0170532D01*
X0469450Y0172133D02*
X0468382Y0171066D01*
X0468382Y0169998D01*
X0469450Y0168931D01*
X0469389Y0179031D02*
X0468321Y0180098D01*
X0468321Y0181166D01*
X0469389Y0182233D01*
X0470470Y0182233D02*
X0470470Y0180632D01*
X0471537Y0181166D01*
X0472071Y0181166D01*
X0472605Y0180632D01*
X0472605Y0179564D01*
X0472071Y0179031D01*
X0471003Y0179031D01*
X0470470Y0179564D01*
X0470470Y0182233D02*
X0472605Y0182233D01*
X0473692Y0182233D02*
X0474760Y0181166D01*
X0474760Y0180098D01*
X0473692Y0179031D01*
X0473692Y0189008D02*
X0474760Y0190076D01*
X0474760Y0191143D01*
X0473692Y0192211D01*
X0472071Y0192211D02*
X0470470Y0190609D01*
X0472605Y0190609D01*
X0472071Y0189008D02*
X0472071Y0192211D01*
X0469389Y0192211D02*
X0468321Y0191143D01*
X0468321Y0190076D01*
X0469389Y0189008D01*
X0451934Y0190410D02*
X0451934Y0191477D01*
X0450866Y0192545D01*
X0449245Y0192545D02*
X0447643Y0190944D01*
X0449779Y0190944D01*
X0449245Y0192545D02*
X0449245Y0189342D01*
X0450866Y0189342D02*
X0451934Y0190410D01*
X0446563Y0189342D02*
X0445495Y0190410D01*
X0445495Y0191477D01*
X0446563Y0192545D01*
X0446563Y0182567D02*
X0445495Y0181500D01*
X0445495Y0180432D01*
X0446563Y0179365D01*
X0447643Y0179898D02*
X0448177Y0179365D01*
X0449245Y0179365D01*
X0449779Y0179898D01*
X0449779Y0180966D01*
X0449245Y0181500D01*
X0448711Y0181500D01*
X0447643Y0180966D01*
X0447643Y0182567D01*
X0449779Y0182567D01*
X0450866Y0182567D02*
X0451934Y0181500D01*
X0451934Y0180432D01*
X0450866Y0179365D01*
X0450927Y0172467D02*
X0451995Y0171400D01*
X0451995Y0170332D01*
X0450927Y0169265D01*
X0449840Y0169798D02*
X0449840Y0170332D01*
X0449306Y0170866D01*
X0447705Y0170866D01*
X0447705Y0169798D01*
X0448238Y0169265D01*
X0449306Y0169265D01*
X0449840Y0169798D01*
X0447705Y0170866D02*
X0448772Y0171934D01*
X0449840Y0172467D01*
X0446624Y0172467D02*
X0445556Y0171400D01*
X0445556Y0170332D01*
X0446624Y0169265D01*
X0446563Y0162061D02*
X0445495Y0160994D01*
X0445495Y0159926D01*
X0446563Y0158859D01*
X0447643Y0158859D02*
X0447643Y0159392D01*
X0449779Y0161528D01*
X0449779Y0162061D01*
X0447643Y0162061D01*
X0450866Y0162061D02*
X0451934Y0160994D01*
X0451934Y0159926D01*
X0450866Y0158859D01*
X0399052Y0145786D02*
X0396583Y0145786D01*
X0396583Y0143935D01*
X0397817Y0144552D01*
X0398435Y0144552D01*
X0399052Y0143935D01*
X0399052Y0142700D01*
X0398435Y0142083D01*
X0397200Y0142083D01*
X0396583Y0142700D01*
X0395369Y0142083D02*
X0392900Y0142083D01*
X0394134Y0142083D02*
X0394134Y0145786D01*
X0392900Y0144552D01*
X0389052Y0143935D02*
X0386583Y0143935D01*
X0388435Y0145786D01*
X0388435Y0142083D01*
X0385369Y0142083D02*
X0382900Y0142083D01*
X0384134Y0142083D02*
X0384134Y0145786D01*
X0382900Y0144552D01*
X0379052Y0144552D02*
X0378435Y0143935D01*
X0379052Y0143317D01*
X0379052Y0142700D01*
X0378435Y0142083D01*
X0377200Y0142083D01*
X0376583Y0142700D01*
X0375369Y0142083D02*
X0372900Y0142083D01*
X0374134Y0142083D02*
X0374134Y0145786D01*
X0372900Y0144552D01*
X0376583Y0145169D02*
X0377200Y0145786D01*
X0378435Y0145786D01*
X0379052Y0145169D01*
X0379052Y0144552D01*
X0378435Y0143935D02*
X0377817Y0143935D01*
X0369052Y0144552D02*
X0369052Y0145169D01*
X0368435Y0145786D01*
X0367200Y0145786D01*
X0366583Y0145169D01*
X0364134Y0145786D02*
X0364134Y0142083D01*
X0362900Y0142083D02*
X0365369Y0142083D01*
X0366583Y0142083D02*
X0369052Y0144552D01*
X0369052Y0142083D02*
X0366583Y0142083D01*
X0362900Y0144552D02*
X0364134Y0145786D01*
X0359052Y0142083D02*
X0356583Y0142083D01*
X0355369Y0142083D02*
X0352900Y0142083D01*
X0354134Y0142083D02*
X0354134Y0145786D01*
X0352900Y0144552D01*
X0356583Y0144552D02*
X0357817Y0145786D01*
X0357817Y0142083D01*
X0349052Y0142700D02*
X0348435Y0142083D01*
X0347200Y0142083D01*
X0346583Y0142700D01*
X0349052Y0145169D01*
X0349052Y0142700D01*
X0346583Y0142700D02*
X0346583Y0145169D01*
X0347200Y0145786D01*
X0348435Y0145786D01*
X0349052Y0145169D01*
X0345369Y0142083D02*
X0342900Y0142083D01*
X0344134Y0142083D02*
X0344134Y0145786D01*
X0342900Y0144552D01*
X0337210Y0145169D02*
X0337210Y0142700D01*
X0336593Y0142083D01*
X0335359Y0142083D01*
X0334741Y0142700D01*
X0335359Y0143935D02*
X0337210Y0143935D01*
X0337210Y0145169D02*
X0336593Y0145786D01*
X0335359Y0145786D01*
X0334741Y0145169D01*
X0334741Y0144552D01*
X0335359Y0143935D01*
X0327210Y0144552D02*
X0326593Y0143935D01*
X0325359Y0143935D01*
X0324741Y0144552D01*
X0324741Y0145169D01*
X0325359Y0145786D01*
X0326593Y0145786D01*
X0327210Y0145169D01*
X0327210Y0144552D01*
X0326593Y0143935D02*
X0327210Y0143317D01*
X0327210Y0142700D01*
X0326593Y0142083D01*
X0325359Y0142083D01*
X0324741Y0142700D01*
X0324741Y0143317D01*
X0325359Y0143935D01*
X0317210Y0145169D02*
X0314741Y0142700D01*
X0314741Y0142083D01*
X0314741Y0145786D02*
X0317210Y0145786D01*
X0317210Y0145169D01*
X0307210Y0145786D02*
X0305976Y0145169D01*
X0304741Y0143935D01*
X0306593Y0143935D01*
X0307210Y0143317D01*
X0307210Y0142700D01*
X0306593Y0142083D01*
X0305359Y0142083D01*
X0304741Y0142700D01*
X0304741Y0143935D01*
X0297210Y0143935D02*
X0297210Y0142700D01*
X0296593Y0142083D01*
X0295359Y0142083D01*
X0294741Y0142700D01*
X0294741Y0143935D02*
X0295976Y0144552D01*
X0296593Y0144552D01*
X0297210Y0143935D01*
X0297210Y0145786D02*
X0294741Y0145786D01*
X0294741Y0143935D01*
X0287210Y0143935D02*
X0284741Y0143935D01*
X0286593Y0145786D01*
X0286593Y0142083D01*
X0277210Y0142700D02*
X0276593Y0142083D01*
X0275359Y0142083D01*
X0274741Y0142700D01*
X0275976Y0143935D02*
X0276593Y0143935D01*
X0277210Y0143317D01*
X0277210Y0142700D01*
X0276593Y0143935D02*
X0277210Y0144552D01*
X0277210Y0145169D01*
X0276593Y0145786D01*
X0275359Y0145786D01*
X0274741Y0145169D01*
X0267210Y0145169D02*
X0266593Y0145786D01*
X0265359Y0145786D01*
X0264741Y0145169D01*
X0267210Y0145169D02*
X0267210Y0144552D01*
X0264741Y0142083D01*
X0267210Y0142083D01*
X0257210Y0142083D02*
X0254741Y0142083D01*
X0255976Y0142083D02*
X0255976Y0145786D01*
X0254741Y0144552D01*
X0247210Y0145169D02*
X0247210Y0142700D01*
X0246593Y0142083D01*
X0245359Y0142083D01*
X0244741Y0142700D01*
X0247210Y0145169D01*
X0246593Y0145786D01*
X0245359Y0145786D01*
X0244741Y0145169D01*
X0244741Y0142700D01*
X0209659Y0158317D02*
X0209659Y0159552D01*
X0208425Y0160786D01*
X0207210Y0158935D02*
X0204741Y0158935D01*
X0203520Y0160786D02*
X0202286Y0159552D01*
X0202286Y0158317D01*
X0203520Y0157083D01*
X0199052Y0157700D02*
X0199052Y0160786D01*
X0196583Y0160786D02*
X0196583Y0157700D01*
X0197200Y0157083D01*
X0198435Y0157083D01*
X0199052Y0157700D01*
X0195369Y0157700D02*
X0194752Y0157083D01*
X0192900Y0157083D01*
X0192900Y0160786D01*
X0194752Y0160786D01*
X0195369Y0160169D01*
X0195369Y0159552D01*
X0194752Y0158935D01*
X0192900Y0158935D01*
X0194752Y0158935D02*
X0195369Y0158317D01*
X0195369Y0157700D01*
X0187210Y0157700D02*
X0187210Y0158935D01*
X0185976Y0158935D01*
X0187210Y0160169D02*
X0186593Y0160786D01*
X0185359Y0160786D01*
X0184741Y0160169D01*
X0184741Y0157700D01*
X0185359Y0157083D01*
X0186593Y0157083D01*
X0187210Y0157700D01*
X0177210Y0157083D02*
X0175976Y0158317D01*
X0176593Y0158317D02*
X0174741Y0158317D01*
X0174741Y0157083D02*
X0174741Y0160786D01*
X0176593Y0160786D01*
X0177210Y0160169D01*
X0177210Y0158935D01*
X0176593Y0158317D01*
X0179741Y0172083D02*
X0181593Y0172083D01*
X0182210Y0172700D01*
X0182210Y0173317D01*
X0181593Y0173935D01*
X0179741Y0173935D01*
X0179741Y0175786D02*
X0181593Y0175786D01*
X0182210Y0175169D01*
X0182210Y0174552D01*
X0181593Y0173935D01*
X0179741Y0175786D02*
X0179741Y0172083D01*
X0189741Y0172700D02*
X0190359Y0172083D01*
X0191593Y0172083D01*
X0192210Y0172700D01*
X0189741Y0172700D02*
X0189741Y0175169D01*
X0190359Y0175786D01*
X0191593Y0175786D01*
X0192210Y0175169D01*
X0199741Y0174552D02*
X0199741Y0172083D01*
X0199741Y0173935D02*
X0202210Y0173935D01*
X0202210Y0174552D02*
X0202210Y0172083D01*
X0202210Y0174552D02*
X0200976Y0175786D01*
X0199741Y0174552D01*
X0209659Y0158317D02*
X0208425Y0157083D01*
X0244741Y0172700D02*
X0245359Y0172083D01*
X0246593Y0172083D01*
X0247210Y0172700D01*
X0247210Y0175169D01*
X0244741Y0172700D01*
X0244741Y0175169D01*
X0245359Y0175786D01*
X0246593Y0175786D01*
X0247210Y0175169D01*
X0254741Y0174552D02*
X0255976Y0175786D01*
X0255976Y0172083D01*
X0257210Y0172083D02*
X0254741Y0172083D01*
X0264741Y0172083D02*
X0267210Y0174552D01*
X0267210Y0175169D01*
X0266593Y0175786D01*
X0265359Y0175786D01*
X0264741Y0175169D01*
X0264741Y0172083D02*
X0267210Y0172083D01*
X0274741Y0172700D02*
X0275359Y0172083D01*
X0276593Y0172083D01*
X0277210Y0172700D01*
X0277210Y0173317D01*
X0276593Y0173935D01*
X0275976Y0173935D01*
X0276593Y0173935D02*
X0277210Y0174552D01*
X0277210Y0175169D01*
X0276593Y0175786D01*
X0275359Y0175786D01*
X0274741Y0175169D01*
X0284741Y0173935D02*
X0287210Y0173935D01*
X0286593Y0175786D02*
X0284741Y0173935D01*
X0286593Y0175786D02*
X0286593Y0172083D01*
X0294741Y0172700D02*
X0295359Y0172083D01*
X0296593Y0172083D01*
X0297210Y0172700D01*
X0297210Y0173935D01*
X0296593Y0174552D01*
X0295976Y0174552D01*
X0294741Y0173935D01*
X0294741Y0175786D01*
X0297210Y0175786D01*
X0304741Y0173935D02*
X0306593Y0173935D01*
X0307210Y0173317D01*
X0307210Y0172700D01*
X0306593Y0172083D01*
X0305359Y0172083D01*
X0304741Y0172700D01*
X0304741Y0173935D01*
X0305976Y0175169D01*
X0307210Y0175786D01*
X0314741Y0175786D02*
X0317210Y0175786D01*
X0317210Y0175169D01*
X0314741Y0172700D01*
X0314741Y0172083D01*
X0324741Y0172700D02*
X0325359Y0172083D01*
X0326593Y0172083D01*
X0327210Y0172700D01*
X0327210Y0173317D01*
X0326593Y0173935D01*
X0325359Y0173935D01*
X0324741Y0174552D01*
X0324741Y0175169D01*
X0325359Y0175786D01*
X0326593Y0175786D01*
X0327210Y0175169D01*
X0327210Y0174552D01*
X0326593Y0173935D01*
X0325359Y0173935D02*
X0324741Y0173317D01*
X0324741Y0172700D01*
X0334741Y0172700D02*
X0335359Y0172083D01*
X0336593Y0172083D01*
X0337210Y0172700D01*
X0337210Y0175169D01*
X0336593Y0175786D01*
X0335359Y0175786D01*
X0334741Y0175169D01*
X0334741Y0174552D01*
X0335359Y0173935D01*
X0337210Y0173935D01*
X0342900Y0174552D02*
X0344134Y0175786D01*
X0344134Y0172083D01*
X0342900Y0172083D02*
X0345369Y0172083D01*
X0346583Y0172700D02*
X0349052Y0175169D01*
X0349052Y0172700D01*
X0348435Y0172083D01*
X0347200Y0172083D01*
X0346583Y0172700D01*
X0346583Y0175169D01*
X0347200Y0175786D01*
X0348435Y0175786D01*
X0349052Y0175169D01*
X0352900Y0174552D02*
X0354134Y0175786D01*
X0354134Y0172083D01*
X0352900Y0172083D02*
X0355369Y0172083D01*
X0356583Y0172083D02*
X0359052Y0172083D01*
X0357817Y0172083D02*
X0357817Y0175786D01*
X0356583Y0174552D01*
X0362900Y0174552D02*
X0364134Y0175786D01*
X0364134Y0172083D01*
X0362900Y0172083D02*
X0365369Y0172083D01*
X0366583Y0172083D02*
X0369052Y0174552D01*
X0369052Y0175169D01*
X0368435Y0175786D01*
X0367200Y0175786D01*
X0366583Y0175169D01*
X0366583Y0172083D02*
X0369052Y0172083D01*
X0372900Y0172083D02*
X0375369Y0172083D01*
X0374134Y0172083D02*
X0374134Y0175786D01*
X0372900Y0174552D01*
X0376583Y0175169D02*
X0377200Y0175786D01*
X0378435Y0175786D01*
X0379052Y0175169D01*
X0379052Y0174552D01*
X0378435Y0173935D01*
X0379052Y0173317D01*
X0379052Y0172700D01*
X0378435Y0172083D01*
X0377200Y0172083D01*
X0376583Y0172700D01*
X0377817Y0173935D02*
X0378435Y0173935D01*
X0382900Y0174552D02*
X0384134Y0175786D01*
X0384134Y0172083D01*
X0382900Y0172083D02*
X0385369Y0172083D01*
X0386583Y0173935D02*
X0389052Y0173935D01*
X0388435Y0175786D02*
X0386583Y0173935D01*
X0388435Y0175786D02*
X0388435Y0172083D01*
X0392900Y0172083D02*
X0395369Y0172083D01*
X0394134Y0172083D02*
X0394134Y0175786D01*
X0392900Y0174552D01*
X0396583Y0173935D02*
X0397817Y0174552D01*
X0398435Y0174552D01*
X0399052Y0173935D01*
X0399052Y0172700D01*
X0398435Y0172083D01*
X0397200Y0172083D01*
X0396583Y0172700D01*
X0396583Y0173935D02*
X0396583Y0175786D01*
X0399052Y0175786D01*
X0458578Y0211229D02*
X0459812Y0209995D01*
X0461047Y0209995D01*
X0462281Y0211229D01*
X0460429Y0212450D02*
X0460429Y0214919D01*
X0459195Y0213685D02*
X0461664Y0213685D01*
X0462281Y0216133D02*
X0461047Y0217368D01*
X0459812Y0217368D01*
X0458578Y0216133D01*
X0459906Y0220529D02*
X0458671Y0221763D01*
X0459906Y0220529D02*
X0461140Y0220529D01*
X0462374Y0221763D01*
X0460523Y0222984D02*
X0460523Y0225453D01*
X0462374Y0226667D02*
X0461140Y0227902D01*
X0459906Y0227902D01*
X0458671Y0226667D01*
X0452150Y0245546D02*
X0453218Y0246614D01*
X0453218Y0247681D01*
X0452150Y0248749D01*
X0451063Y0248749D02*
X0451063Y0248215D01*
X0448928Y0246080D01*
X0448928Y0245546D01*
X0447847Y0245546D02*
X0446779Y0246614D01*
X0446779Y0247681D01*
X0447847Y0248749D01*
X0448928Y0248749D02*
X0451063Y0248749D01*
X0450590Y0255952D02*
X0451124Y0256486D01*
X0451124Y0257020D01*
X0450590Y0257553D01*
X0448989Y0257553D01*
X0448989Y0256486D01*
X0449523Y0255952D01*
X0450590Y0255952D01*
X0452212Y0255952D02*
X0453279Y0257020D01*
X0453279Y0258087D01*
X0452212Y0259155D01*
X0451124Y0259155D02*
X0450056Y0258621D01*
X0448989Y0257553D01*
X0447908Y0255952D02*
X0446840Y0257020D01*
X0446840Y0258087D01*
X0447908Y0259155D01*
X0447847Y0266052D02*
X0446779Y0267120D01*
X0446779Y0268187D01*
X0447847Y0269255D01*
X0448928Y0269255D02*
X0448928Y0267653D01*
X0449995Y0268187D01*
X0450529Y0268187D01*
X0451063Y0267653D01*
X0451063Y0266586D01*
X0450529Y0266052D01*
X0449461Y0266052D01*
X0448928Y0266586D01*
X0448928Y0269255D02*
X0451063Y0269255D01*
X0452150Y0269255D02*
X0453218Y0268187D01*
X0453218Y0267120D01*
X0452150Y0266052D01*
X0468380Y0267231D02*
X0468380Y0268299D01*
X0469448Y0269366D01*
X0470529Y0269366D02*
X0470529Y0267765D01*
X0471596Y0268299D01*
X0472130Y0268299D01*
X0472664Y0267765D01*
X0472664Y0266697D01*
X0472130Y0266163D01*
X0471063Y0266163D01*
X0470529Y0266697D01*
X0469448Y0266163D02*
X0468380Y0267231D01*
X0470529Y0269366D02*
X0472664Y0269366D01*
X0473752Y0269366D02*
X0474819Y0268299D01*
X0474819Y0267231D01*
X0473752Y0266163D01*
X0473813Y0259266D02*
X0474880Y0258199D01*
X0474880Y0257131D01*
X0473813Y0256063D01*
X0472725Y0256597D02*
X0472725Y0257131D01*
X0472191Y0257665D01*
X0470590Y0257665D01*
X0470590Y0256597D01*
X0471124Y0256063D01*
X0472191Y0256063D01*
X0472725Y0256597D01*
X0471658Y0258732D02*
X0470590Y0257665D01*
X0471658Y0258732D02*
X0472725Y0259266D01*
X0469509Y0259266D02*
X0468442Y0258199D01*
X0468442Y0257131D01*
X0469509Y0256063D01*
X0469448Y0248860D02*
X0468380Y0247793D01*
X0468380Y0246725D01*
X0469448Y0245657D01*
X0470529Y0245657D02*
X0470529Y0246191D01*
X0472664Y0248326D01*
X0472664Y0248860D01*
X0470529Y0248860D01*
X0473752Y0248860D02*
X0474819Y0247793D01*
X0474819Y0246725D01*
X0473752Y0245657D01*
X0473752Y0276141D02*
X0474819Y0277209D01*
X0474819Y0278276D01*
X0473752Y0279344D01*
X0472130Y0279344D02*
X0470529Y0277742D01*
X0472664Y0277742D01*
X0472130Y0276141D02*
X0472130Y0279344D01*
X0469448Y0279344D02*
X0468380Y0278276D01*
X0468380Y0277209D01*
X0469448Y0276141D01*
X0453218Y0277097D02*
X0453218Y0278165D01*
X0452150Y0279232D01*
X0450529Y0279232D02*
X0448928Y0277631D01*
X0451063Y0277631D01*
X0450529Y0276030D02*
X0450529Y0279232D01*
X0447847Y0279232D02*
X0446779Y0278165D01*
X0446779Y0277097D01*
X0447847Y0276030D01*
X0452150Y0276030D02*
X0453218Y0277097D01*
X0460926Y0295668D02*
X0459858Y0296736D01*
X0459858Y0297803D01*
X0460926Y0298871D01*
X0462007Y0298871D02*
X0464142Y0298871D01*
X0464142Y0298337D01*
X0462007Y0296202D01*
X0462007Y0295668D01*
X0465230Y0295668D02*
X0466297Y0296736D01*
X0466297Y0297803D01*
X0465230Y0298871D01*
X0461304Y0305306D02*
X0462372Y0306373D01*
X0462372Y0307441D01*
X0461304Y0308508D01*
X0460216Y0308508D02*
X0459149Y0307975D01*
X0458081Y0306907D01*
X0459683Y0306907D01*
X0460216Y0306373D01*
X0460216Y0305839D01*
X0459683Y0305306D01*
X0458615Y0305306D01*
X0458081Y0305839D01*
X0458081Y0306907D01*
X0457000Y0308508D02*
X0455933Y0307441D01*
X0455933Y0306373D01*
X0457000Y0305306D01*
X0457382Y0314613D02*
X0458450Y0315681D01*
X0458450Y0316748D01*
X0457382Y0317816D01*
X0456295Y0317816D02*
X0454160Y0317816D01*
X0454160Y0316215D01*
X0455227Y0316748D01*
X0455761Y0316748D01*
X0456295Y0316215D01*
X0456295Y0315147D01*
X0455761Y0314613D01*
X0454693Y0314613D01*
X0454160Y0315147D01*
X0453079Y0314613D02*
X0452011Y0315681D01*
X0452011Y0316748D01*
X0453079Y0317816D01*
X0453564Y0323831D02*
X0454632Y0324899D01*
X0454632Y0325967D01*
X0453564Y0327034D01*
X0451943Y0327034D02*
X0450341Y0325433D01*
X0452477Y0325433D01*
X0451943Y0327034D02*
X0451943Y0323831D01*
X0449261Y0323831D02*
X0448193Y0324899D01*
X0448193Y0325967D01*
X0449261Y0327034D01*
X0222884Y0202104D02*
X0220749Y0202104D01*
X0219681Y0201036D01*
X0220749Y0199969D01*
X0222884Y0199969D01*
X0222350Y0198881D02*
X0220215Y0198881D01*
X0219681Y0198347D01*
X0219681Y0196746D01*
X0222884Y0196746D01*
X0222884Y0198347D01*
X0222350Y0198881D01*
X0221283Y0199969D02*
X0221283Y0202104D01*
X0212264Y0202695D02*
X0212264Y0200560D01*
X0209061Y0200560D01*
X0209595Y0199473D02*
X0209061Y0198939D01*
X0209061Y0197871D01*
X0209595Y0197338D01*
X0211730Y0197338D01*
X0212264Y0197871D01*
X0212264Y0198939D01*
X0211730Y0199473D01*
X0211730Y0196250D02*
X0212264Y0195716D01*
X0212264Y0194649D01*
X0211730Y0194115D01*
X0210663Y0194649D02*
X0210663Y0195716D01*
X0211197Y0196250D01*
X0211730Y0196250D01*
X0210663Y0194649D02*
X0210129Y0194115D01*
X0209595Y0194115D01*
X0209061Y0194649D01*
X0209061Y0195716D01*
X0209595Y0196250D01*
X0219681Y0195125D02*
X0219681Y0194057D01*
X0220215Y0193523D01*
X0220749Y0193523D01*
X0221283Y0194057D01*
X0221283Y0195125D01*
X0221816Y0195658D01*
X0222350Y0195658D01*
X0222884Y0195125D01*
X0222884Y0194057D01*
X0222350Y0193523D01*
X0220215Y0195658D02*
X0219681Y0195125D01*
X0134906Y0192114D02*
X0133838Y0193181D01*
X0132750Y0193181D02*
X0130615Y0193181D01*
X0130615Y0191580D01*
X0131683Y0192114D01*
X0132217Y0192114D01*
X0132750Y0191580D01*
X0132750Y0190512D01*
X0132217Y0189979D01*
X0131149Y0189979D01*
X0130615Y0190512D01*
X0129528Y0189979D02*
X0127392Y0189979D01*
X0128460Y0189979D02*
X0128460Y0193181D01*
X0127392Y0192114D01*
X0126312Y0193181D02*
X0125244Y0192114D01*
X0125244Y0191046D01*
X0126312Y0189979D01*
X0133838Y0189979D02*
X0134906Y0191046D01*
X0134906Y0192114D01*
X0133838Y0183204D02*
X0134906Y0182136D01*
X0134906Y0181069D01*
X0133838Y0180001D01*
X0132217Y0180001D02*
X0132217Y0183204D01*
X0130615Y0181602D01*
X0132750Y0181602D01*
X0129528Y0180001D02*
X0127392Y0180001D01*
X0128460Y0180001D02*
X0128460Y0183204D01*
X0127392Y0182136D01*
X0126312Y0183204D02*
X0125244Y0182136D01*
X0125244Y0181069D01*
X0126312Y0180001D01*
X0126373Y0173104D02*
X0125305Y0172036D01*
X0125305Y0170969D01*
X0126373Y0169901D01*
X0127454Y0169901D02*
X0129589Y0169901D01*
X0128521Y0169901D02*
X0128521Y0173104D01*
X0127454Y0172036D01*
X0130676Y0172570D02*
X0131210Y0173104D01*
X0132278Y0173104D01*
X0132812Y0172570D01*
X0132812Y0172036D01*
X0132278Y0171502D01*
X0132812Y0170969D01*
X0132812Y0170435D01*
X0132278Y0169901D01*
X0131210Y0169901D01*
X0130676Y0170435D01*
X0131744Y0171502D02*
X0132278Y0171502D01*
X0133899Y0169901D02*
X0134967Y0170969D01*
X0134967Y0172036D01*
X0133899Y0173104D01*
X0133838Y0162698D02*
X0134906Y0161630D01*
X0134906Y0160563D01*
X0133838Y0159495D01*
X0132750Y0159495D02*
X0130615Y0159495D01*
X0132750Y0161630D01*
X0132750Y0162164D01*
X0132217Y0162698D01*
X0131149Y0162698D01*
X0130615Y0162164D01*
X0128460Y0162698D02*
X0128460Y0159495D01*
X0127392Y0159495D02*
X0129528Y0159495D01*
X0127392Y0161630D02*
X0128460Y0162698D01*
X0126312Y0162698D02*
X0125244Y0161630D01*
X0125244Y0160563D01*
X0126312Y0159495D01*
X0276254Y0086652D02*
X0277488Y0085418D01*
X0375109Y0077674D02*
X0375926Y0075702D01*
D12*
X0372103Y0092960D02*
X0373459Y0093522D01*
X0374004Y0094145D02*
X0373161Y0096179D01*
X0374179Y0096600D01*
X0374658Y0096402D01*
X0374798Y0096063D01*
X0374600Y0095583D01*
X0373583Y0095162D01*
X0374600Y0095583D02*
X0375079Y0095384D01*
X0375220Y0095045D01*
X0375021Y0094566D01*
X0374004Y0094145D01*
X0376186Y0094651D02*
X0377542Y0095213D01*
X0377947Y0096175D02*
X0378426Y0095976D01*
X0379105Y0096257D01*
X0379303Y0096737D01*
X0379163Y0097076D01*
X0378683Y0097274D01*
X0378344Y0097134D01*
X0378683Y0097274D02*
X0378882Y0097754D01*
X0378741Y0098093D01*
X0378262Y0098292D01*
X0377584Y0098011D01*
X0377385Y0097531D01*
X0370575Y0094710D02*
X0371136Y0093354D01*
X0370938Y0092875D01*
X0369921Y0092453D01*
X0369078Y0094488D01*
X0370095Y0094909D01*
X0370575Y0094710D01*
X0368393Y0094204D02*
X0367036Y0093642D01*
X0367879Y0091608D01*
X0369235Y0092169D01*
X0368136Y0092906D02*
X0367458Y0092625D01*
X0367194Y0091324D02*
X0365837Y0090762D01*
X0364995Y0092796D01*
X0333599Y0100034D02*
X0333232Y0099667D01*
X0332498Y0099667D01*
X0332131Y0100034D01*
X0332865Y0100768D02*
X0333232Y0100768D01*
X0333599Y0100401D01*
X0333599Y0100034D01*
X0333232Y0100768D02*
X0333599Y0101135D01*
X0333599Y0101502D01*
X0333232Y0101869D01*
X0332498Y0101869D01*
X0332131Y0101502D01*
X0331389Y0099300D02*
X0329921Y0099300D01*
X0329179Y0100034D02*
X0329179Y0101502D01*
X0328812Y0101869D01*
X0328078Y0101869D01*
X0327711Y0101502D01*
X0327711Y0100034D01*
X0328078Y0099667D01*
X0328812Y0099667D01*
X0329179Y0100034D01*
X0326970Y0099300D02*
X0325502Y0099300D01*
X0324760Y0100034D02*
X0324760Y0101502D01*
X0324393Y0101869D01*
X0323292Y0101869D01*
X0323292Y0099667D01*
X0324393Y0099667D01*
X0324760Y0100034D01*
X0322550Y0099667D02*
X0321082Y0099667D01*
X0321082Y0101869D01*
X0322550Y0101869D01*
X0321816Y0100768D02*
X0321082Y0100768D01*
X0320340Y0099667D02*
X0318872Y0099667D01*
X0318872Y0101869D01*
X0322954Y0079558D02*
X0322954Y0079191D01*
X0323688Y0078457D01*
X0323688Y0077357D01*
X0323688Y0078457D02*
X0324422Y0079191D01*
X0324422Y0079558D01*
X0325164Y0076990D02*
X0326632Y0076990D01*
X0327374Y0077723D02*
X0327741Y0077357D01*
X0328475Y0077357D01*
X0328842Y0077723D01*
X0328842Y0078090D01*
X0328475Y0078457D01*
X0328108Y0078457D01*
X0328475Y0078457D02*
X0328842Y0078824D01*
X0328842Y0079191D01*
X0328475Y0079558D01*
X0327741Y0079558D01*
X0327374Y0079191D01*
X0244186Y0078851D02*
X0244186Y0078484D01*
X0243819Y0078117D01*
X0244186Y0077750D01*
X0244186Y0077383D01*
X0243819Y0077016D01*
X0243085Y0077016D01*
X0242718Y0077383D01*
X0243452Y0078117D02*
X0243819Y0078117D01*
X0244186Y0078851D02*
X0243819Y0079218D01*
X0243085Y0079218D01*
X0242718Y0078851D01*
X0241976Y0076649D02*
X0240508Y0076649D01*
X0239767Y0077016D02*
X0238299Y0079218D01*
X0239767Y0079218D02*
X0238299Y0077016D01*
X0241531Y0097471D02*
X0242999Y0097471D01*
X0243741Y0098205D02*
X0244108Y0097838D01*
X0244842Y0097838D01*
X0245209Y0098205D01*
X0245209Y0098572D01*
X0244842Y0098939D01*
X0244475Y0098939D01*
X0244842Y0098939D02*
X0245209Y0099306D01*
X0245209Y0099673D01*
X0244842Y0100040D01*
X0244108Y0100040D01*
X0243741Y0099673D01*
X0240789Y0100040D02*
X0240789Y0098205D01*
X0240422Y0097838D01*
X0239688Y0097838D01*
X0239321Y0098205D01*
X0239321Y0100040D01*
X0238579Y0099673D02*
X0238579Y0099306D01*
X0238212Y0098939D01*
X0237111Y0098939D01*
X0237111Y0100040D02*
X0238212Y0100040D01*
X0238579Y0099673D01*
X0238212Y0098939D02*
X0238579Y0098572D01*
X0238579Y0098205D01*
X0238212Y0097838D01*
X0237111Y0097838D01*
X0237111Y0100040D01*
X0200941Y0090821D02*
X0200801Y0090482D01*
X0200321Y0090283D01*
X0200520Y0089804D01*
X0200379Y0089465D01*
X0199900Y0089266D01*
X0199222Y0089547D01*
X0199023Y0090027D01*
X0199982Y0090424D02*
X0200321Y0090283D01*
X0200941Y0090821D02*
X0200742Y0091301D01*
X0200064Y0091581D01*
X0199585Y0091383D01*
X0198057Y0089633D02*
X0196701Y0090194D01*
X0195477Y0091098D02*
X0196320Y0093132D01*
X0195642Y0093413D02*
X0196998Y0092852D01*
X0194816Y0093358D02*
X0194617Y0093838D01*
X0193939Y0094119D01*
X0193460Y0093920D01*
X0192898Y0092564D01*
X0193097Y0092084D01*
X0193775Y0091803D01*
X0194254Y0092002D01*
X0194816Y0093358D01*
X0192774Y0094204D02*
X0192493Y0093526D01*
X0192014Y0093327D01*
X0190997Y0093748D01*
X0190716Y0093070D02*
X0191559Y0095105D01*
X0192576Y0094683D01*
X0192774Y0094204D01*
X0160896Y0092909D02*
X0159028Y0092909D01*
X0158094Y0091975D01*
X0159028Y0091041D01*
X0160896Y0091041D01*
X0160429Y0090147D02*
X0158561Y0090147D01*
X0158094Y0089680D01*
X0158094Y0088279D01*
X0160896Y0088279D01*
X0160896Y0089680D01*
X0160429Y0090147D01*
X0159495Y0091041D02*
X0159495Y0092909D01*
X0159962Y0087384D02*
X0160429Y0087384D01*
X0160896Y0086917D01*
X0160896Y0085983D01*
X0160429Y0085516D01*
X0159495Y0085983D02*
X0159495Y0086917D01*
X0159962Y0087384D01*
X0158561Y0087384D02*
X0158094Y0086917D01*
X0158094Y0085983D01*
X0158561Y0085516D01*
X0159028Y0085516D01*
X0159495Y0085983D01*
X0150731Y0085894D02*
X0150731Y0086829D01*
X0150264Y0087296D01*
X0149797Y0087296D01*
X0149330Y0086829D01*
X0149330Y0085894D01*
X0148863Y0085427D01*
X0148396Y0085427D01*
X0147929Y0085894D01*
X0147929Y0086829D01*
X0148396Y0087296D01*
X0148396Y0088190D02*
X0150264Y0088190D01*
X0150731Y0088657D01*
X0150731Y0089591D01*
X0150264Y0090058D01*
X0150731Y0090952D02*
X0147929Y0090952D01*
X0148396Y0090058D02*
X0147929Y0089591D01*
X0147929Y0088657D01*
X0148396Y0088190D01*
X0150731Y0085894D02*
X0150264Y0085427D01*
X0150731Y0090952D02*
X0150731Y0092820D01*
X0124499Y0105710D02*
X0124499Y0107912D01*
X0123398Y0106811D01*
X0124866Y0106811D01*
X0122656Y0105343D02*
X0121188Y0105343D01*
X0120446Y0106077D02*
X0120079Y0105710D01*
X0118978Y0105710D01*
X0118978Y0107912D01*
X0120079Y0107912D01*
X0120446Y0107545D01*
X0120446Y0107178D01*
X0120079Y0106811D01*
X0118978Y0106811D01*
X0120079Y0106811D02*
X0120446Y0106444D01*
X0120446Y0106077D01*
X0118236Y0105343D02*
X0116768Y0105343D01*
X0116026Y0106077D02*
X0116026Y0107545D01*
X0115659Y0107912D01*
X0114559Y0107912D01*
X0114559Y0105710D01*
X0115659Y0105710D01*
X0116026Y0106077D01*
X0113817Y0105710D02*
X0112349Y0105710D01*
X0112349Y0107912D01*
X0113817Y0107912D01*
X0113083Y0106811D02*
X0112349Y0106811D01*
X0111607Y0105710D02*
X0110139Y0105710D01*
X0110139Y0107912D01*
X0117913Y0151488D02*
X0119381Y0151488D01*
X0120123Y0152222D02*
X0120490Y0151855D01*
X0121224Y0151855D01*
X0121591Y0152222D01*
X0121591Y0153690D01*
X0121224Y0154057D01*
X0120490Y0154057D01*
X0120123Y0153690D01*
X0120123Y0152222D01*
X0122333Y0151488D02*
X0123801Y0151488D01*
X0124543Y0152956D02*
X0126011Y0152956D01*
X0125644Y0151855D02*
X0125644Y0154057D01*
X0124543Y0152956D01*
X0117171Y0152222D02*
X0117171Y0153690D01*
X0116804Y0154057D01*
X0115703Y0154057D01*
X0115703Y0151855D01*
X0116804Y0151855D01*
X0117171Y0152222D01*
X0114962Y0151855D02*
X0113494Y0151855D01*
X0113494Y0154057D01*
X0114962Y0154057D01*
X0114228Y0152956D02*
X0113494Y0152956D01*
X0112752Y0151855D02*
X0111284Y0151855D01*
X0111284Y0154057D01*
X0099199Y0153408D02*
X0097731Y0153408D01*
X0098832Y0154509D01*
X0098832Y0152307D01*
X0096989Y0151940D02*
X0095521Y0151940D01*
X0094045Y0152307D02*
X0094045Y0153408D01*
X0094779Y0154142D01*
X0094779Y0154509D01*
X0094045Y0153408D02*
X0093311Y0154142D01*
X0093311Y0154509D01*
X0095312Y0239244D02*
X0096780Y0239244D01*
X0097522Y0240712D02*
X0098989Y0240712D01*
X0098622Y0239611D02*
X0098622Y0241813D01*
X0097522Y0240712D01*
X0094570Y0239611D02*
X0093102Y0241813D01*
X0094570Y0241813D02*
X0093102Y0239611D01*
X0112223Y0239380D02*
X0113324Y0239380D01*
X0113691Y0239747D01*
X0113691Y0240114D01*
X0113324Y0240481D01*
X0112223Y0240481D01*
X0113324Y0240481D02*
X0113691Y0240848D01*
X0113691Y0241215D01*
X0113324Y0241582D01*
X0112223Y0241582D01*
X0112223Y0239380D01*
X0114433Y0239747D02*
X0114800Y0239380D01*
X0115534Y0239380D01*
X0115901Y0239747D01*
X0115901Y0241582D01*
X0114433Y0241582D02*
X0114433Y0239747D01*
X0116643Y0239013D02*
X0118111Y0239013D01*
X0118853Y0240481D02*
X0120320Y0240481D01*
X0119954Y0239380D02*
X0119954Y0241582D01*
X0118853Y0240481D01*
X0111619Y0286792D02*
X0110151Y0286792D01*
X0108675Y0287159D02*
X0108675Y0289361D01*
X0107941Y0289361D02*
X0109409Y0289361D01*
X0107199Y0288994D02*
X0106832Y0289361D01*
X0106098Y0289361D01*
X0105731Y0288994D01*
X0105731Y0287526D01*
X0106098Y0287159D01*
X0106832Y0287159D01*
X0107199Y0287526D01*
X0107199Y0288994D01*
X0104989Y0288994D02*
X0104989Y0288260D01*
X0104622Y0287893D01*
X0103521Y0287893D01*
X0103521Y0287159D02*
X0103521Y0289361D01*
X0104622Y0289361D01*
X0104989Y0288994D01*
X0112361Y0288260D02*
X0113829Y0288260D01*
X0113462Y0289361D02*
X0112361Y0288260D01*
X0113462Y0287159D02*
X0113462Y0289361D01*
X0179983Y0349166D02*
X0181339Y0349728D01*
X0182024Y0350012D02*
X0183380Y0350574D01*
X0184066Y0350858D02*
X0185083Y0351279D01*
X0185282Y0351758D01*
X0184720Y0353115D01*
X0184240Y0353313D01*
X0183223Y0352892D01*
X0184066Y0350858D01*
X0182281Y0351310D02*
X0181603Y0351029D01*
X0181182Y0352046D02*
X0182024Y0350012D01*
X0181182Y0352046D02*
X0182538Y0352608D01*
X0179140Y0351201D02*
X0179983Y0349166D01*
X0186248Y0351364D02*
X0187604Y0351926D01*
X0188149Y0352549D02*
X0189166Y0352970D01*
X0189365Y0353450D01*
X0189225Y0353789D01*
X0188745Y0353987D01*
X0187728Y0353566D01*
X0188149Y0352549D02*
X0187307Y0354583D01*
X0188324Y0355005D01*
X0188803Y0354806D01*
X0188944Y0354467D01*
X0188745Y0353987D01*
X0190331Y0353056D02*
X0191688Y0353617D01*
X0192233Y0354240D02*
X0193589Y0354802D01*
X0192911Y0354521D02*
X0192068Y0356555D01*
X0191671Y0355597D01*
X0234144Y0349828D02*
X0234144Y0347626D01*
X0235612Y0347626D01*
X0236354Y0347626D02*
X0237822Y0347626D01*
X0238564Y0347626D02*
X0239665Y0347626D01*
X0240031Y0347993D01*
X0240031Y0349461D01*
X0239665Y0349828D01*
X0238564Y0349828D01*
X0238564Y0347626D01*
X0237088Y0348727D02*
X0236354Y0348727D01*
X0236354Y0349828D02*
X0236354Y0347626D01*
X0236354Y0349828D02*
X0237822Y0349828D01*
X0240773Y0347259D02*
X0242241Y0347259D01*
X0242983Y0347993D02*
X0243350Y0347626D01*
X0244084Y0347626D01*
X0244451Y0347993D01*
X0244451Y0349461D01*
X0244084Y0349828D01*
X0243350Y0349828D01*
X0242983Y0349461D01*
X0242983Y0347993D01*
X0245193Y0347259D02*
X0246661Y0347259D01*
X0247403Y0347626D02*
X0248871Y0347626D01*
X0248137Y0347626D02*
X0248137Y0349828D01*
X0247403Y0349094D01*
X0244127Y0367247D02*
X0242659Y0367247D01*
X0243393Y0367247D02*
X0243393Y0369449D01*
X0242659Y0368715D01*
X0241917Y0366880D02*
X0240449Y0366880D01*
X0238973Y0367247D02*
X0238973Y0368348D01*
X0239707Y0369082D01*
X0239707Y0369449D01*
X0238973Y0368348D02*
X0238239Y0369082D01*
X0238239Y0369449D01*
X0323293Y0369282D02*
X0324760Y0367080D01*
X0325502Y0366713D02*
X0326970Y0366713D01*
X0327712Y0367080D02*
X0329180Y0367080D01*
X0328446Y0367080D02*
X0328446Y0369282D01*
X0327712Y0368548D01*
X0324760Y0369282D02*
X0323293Y0367080D01*
X0323044Y0349514D02*
X0323411Y0349147D01*
X0323411Y0348780D01*
X0323044Y0348413D01*
X0321944Y0348413D01*
X0323044Y0348413D02*
X0323411Y0348046D01*
X0323411Y0347679D01*
X0323044Y0347312D01*
X0321944Y0347312D01*
X0321944Y0349514D01*
X0323044Y0349514D01*
X0324153Y0349514D02*
X0324153Y0347679D01*
X0324520Y0347312D01*
X0325254Y0347312D01*
X0325621Y0347679D01*
X0325621Y0349514D01*
X0326363Y0346945D02*
X0327831Y0346945D01*
X0328573Y0347312D02*
X0330041Y0347312D01*
X0329307Y0347312D02*
X0329307Y0349514D01*
X0328573Y0348780D01*
X0375028Y0352963D02*
X0375870Y0354997D01*
X0376887Y0354576D01*
X0377086Y0354096D01*
X0376805Y0353418D01*
X0376326Y0353220D01*
X0375308Y0353641D01*
X0377210Y0352456D02*
X0377771Y0353812D01*
X0378251Y0354011D01*
X0378929Y0353730D01*
X0379128Y0353251D01*
X0378566Y0351894D01*
X0378086Y0351696D01*
X0377408Y0351977D01*
X0377210Y0352456D01*
X0379954Y0353306D02*
X0381310Y0352744D01*
X0380632Y0353025D02*
X0379789Y0350991D01*
X0381012Y0350087D02*
X0382368Y0349525D01*
X0383194Y0349580D02*
X0384550Y0349018D01*
X0383872Y0349299D02*
X0384715Y0351333D01*
X0383756Y0350936D01*
X0446429Y0290319D02*
X0446429Y0288117D01*
X0447897Y0288117D01*
X0448639Y0288117D02*
X0450107Y0288117D01*
X0450849Y0288117D02*
X0451950Y0288117D01*
X0452317Y0288484D01*
X0452317Y0289952D01*
X0451950Y0290319D01*
X0450849Y0290319D01*
X0450849Y0288117D01*
X0449373Y0289218D02*
X0448639Y0289218D01*
X0448639Y0290319D02*
X0448639Y0288117D01*
X0448639Y0290319D02*
X0450107Y0290319D01*
X0453059Y0287750D02*
X0454526Y0287750D01*
X0455268Y0288117D02*
X0456369Y0288117D01*
X0456736Y0288484D01*
X0456736Y0288851D01*
X0456369Y0289218D01*
X0455268Y0289218D01*
X0455268Y0290319D02*
X0456369Y0290319D01*
X0456736Y0289952D01*
X0456736Y0289585D01*
X0456369Y0289218D01*
X0455268Y0288117D02*
X0455268Y0290319D01*
X0457478Y0287750D02*
X0458946Y0287750D01*
X0459688Y0288117D02*
X0461156Y0289585D01*
X0461156Y0289952D01*
X0460789Y0290319D01*
X0460055Y0290319D01*
X0459688Y0289952D01*
X0459688Y0288117D02*
X0461156Y0288117D01*
X0461749Y0240174D02*
X0461749Y0239807D01*
X0461015Y0239073D01*
X0461015Y0237972D01*
X0461015Y0239073D02*
X0460281Y0239807D01*
X0460281Y0240174D01*
X0462491Y0237605D02*
X0463959Y0237605D01*
X0464701Y0237972D02*
X0466169Y0239440D01*
X0466169Y0239807D01*
X0465802Y0240174D01*
X0465068Y0240174D01*
X0464701Y0239807D01*
X0464701Y0237972D02*
X0466169Y0237972D01*
X0448088Y0237928D02*
X0446620Y0237928D01*
X0448088Y0239396D01*
X0448088Y0239763D01*
X0447721Y0240130D01*
X0446987Y0240130D01*
X0446620Y0239763D01*
X0445878Y0237561D02*
X0444410Y0237561D01*
X0443668Y0238295D02*
X0443301Y0237928D01*
X0442567Y0237928D01*
X0442200Y0238295D01*
X0442200Y0239763D01*
X0442567Y0240130D01*
X0443301Y0240130D01*
X0443668Y0239763D01*
X0443668Y0238295D01*
X0441458Y0237561D02*
X0439990Y0237561D01*
X0439248Y0238295D02*
X0438881Y0237928D01*
X0437780Y0237928D01*
X0437780Y0240130D01*
X0438881Y0240130D01*
X0439248Y0239763D01*
X0439248Y0238295D01*
X0437038Y0237928D02*
X0435570Y0237928D01*
X0435570Y0240130D01*
X0437038Y0240130D01*
X0436304Y0239029D02*
X0435570Y0239029D01*
X0434828Y0237928D02*
X0433360Y0237928D01*
X0433360Y0240130D01*
X0436165Y0153400D02*
X0437266Y0153400D01*
X0437633Y0153033D01*
X0437633Y0152666D01*
X0437266Y0152299D01*
X0436165Y0152299D01*
X0437266Y0152299D02*
X0437633Y0151932D01*
X0437633Y0151565D01*
X0437266Y0151198D01*
X0436165Y0151198D01*
X0436165Y0153400D01*
X0438375Y0153400D02*
X0438375Y0151565D01*
X0438742Y0151198D01*
X0439476Y0151198D01*
X0439843Y0151565D01*
X0439843Y0153400D01*
X0440585Y0150831D02*
X0442052Y0150831D01*
X0442794Y0151198D02*
X0444262Y0152666D01*
X0444262Y0153033D01*
X0443895Y0153400D01*
X0443161Y0153400D01*
X0442794Y0153033D01*
X0442794Y0151198D02*
X0444262Y0151198D01*
X0459919Y0151361D02*
X0461387Y0153563D01*
X0459919Y0153563D02*
X0461387Y0151361D01*
X0462128Y0150994D02*
X0463596Y0150994D01*
X0464338Y0151361D02*
X0465806Y0152829D01*
X0465806Y0153196D01*
X0465439Y0153563D01*
X0464705Y0153563D01*
X0464338Y0153196D01*
X0464338Y0151361D02*
X0465806Y0151361D01*
X0444810Y0107447D02*
X0444076Y0107447D01*
X0443709Y0107080D01*
X0444810Y0107447D02*
X0445177Y0107080D01*
X0445177Y0106713D01*
X0443709Y0105245D01*
X0445177Y0105245D01*
X0442967Y0104878D02*
X0441499Y0104878D01*
X0440023Y0105245D02*
X0440023Y0107447D01*
X0439289Y0107447D02*
X0440757Y0107447D01*
X0438547Y0107080D02*
X0438547Y0105612D01*
X0438180Y0105245D01*
X0437446Y0105245D01*
X0437079Y0105612D01*
X0437079Y0107080D01*
X0437446Y0107447D01*
X0438180Y0107447D01*
X0438547Y0107080D01*
X0436337Y0107080D02*
X0436337Y0106346D01*
X0435970Y0105979D01*
X0434869Y0105979D01*
X0434869Y0105245D02*
X0434869Y0107447D01*
X0435970Y0107447D01*
X0436337Y0107080D01*
D13*
X0432255Y0076705D02*
X0429186Y0076705D01*
X0430721Y0076705D02*
X0430721Y0072101D01*
X0427651Y0072868D02*
X0427651Y0076705D01*
X0424582Y0076705D02*
X0424582Y0072868D01*
X0425349Y0072101D01*
X0426884Y0072101D01*
X0427651Y0072868D01*
X0423047Y0072868D02*
X0423047Y0075938D01*
X0422280Y0076705D01*
X0420745Y0076705D01*
X0419978Y0075938D01*
X0419978Y0072868D01*
X0420745Y0072101D01*
X0422280Y0072101D01*
X0423047Y0072868D01*
X0413840Y0073636D02*
X0413840Y0076705D01*
X0413840Y0073636D02*
X0412305Y0072101D01*
X0410770Y0073636D01*
X0410770Y0076705D01*
X0409236Y0076705D02*
X0406166Y0076705D01*
X0406166Y0074403D01*
X0407701Y0075170D01*
X0408468Y0075170D01*
X0409236Y0074403D01*
X0409236Y0072868D01*
X0408468Y0072101D01*
X0406934Y0072101D01*
X0406166Y0072868D01*
X0307202Y0120470D02*
X0307202Y0121237D01*
X0307202Y0120470D02*
X0305668Y0118935D01*
X0305668Y0116633D01*
X0305668Y0118935D02*
X0304133Y0120470D01*
X0304133Y0121237D01*
X0166715Y0188145D02*
X0165948Y0187378D01*
X0164413Y0187378D01*
X0163646Y0188145D01*
X0162111Y0187378D02*
X0162111Y0191982D01*
X0163646Y0191215D02*
X0163646Y0190447D01*
X0164413Y0189680D01*
X0165948Y0189680D01*
X0166715Y0188913D01*
X0166715Y0188145D01*
X0166715Y0191215D02*
X0165948Y0191982D01*
X0164413Y0191982D01*
X0163646Y0191215D01*
X0162111Y0187378D02*
X0159042Y0191982D01*
X0159042Y0187378D01*
X0157507Y0188145D02*
X0157507Y0191215D01*
X0156740Y0191982D01*
X0155205Y0191982D01*
X0154438Y0191215D01*
X0154438Y0188145D01*
X0155205Y0187378D01*
X0156740Y0187378D01*
X0157507Y0188145D01*
X0152903Y0191982D02*
X0149834Y0191982D01*
X0151369Y0191982D02*
X0151369Y0187378D01*
X0146765Y0187378D02*
X0146765Y0191982D01*
X0148299Y0191982D02*
X0145230Y0191982D01*
X0143695Y0191982D02*
X0143695Y0188145D01*
X0142928Y0187378D01*
X0141393Y0187378D01*
X0140626Y0188145D01*
X0140626Y0191982D01*
X0139091Y0191215D02*
X0139091Y0190447D01*
X0138324Y0189680D01*
X0136022Y0189680D01*
X0136022Y0187378D02*
X0136022Y0191982D01*
X0138324Y0191982D01*
X0139091Y0191215D01*
X0138324Y0189680D02*
X0139091Y0188913D01*
X0139091Y0188145D01*
X0138324Y0187378D01*
X0136022Y0187378D01*
X0131028Y0074155D02*
X0131028Y0069551D01*
X0127959Y0074155D01*
X0127959Y0069551D01*
X0126424Y0069551D02*
X0124889Y0069551D01*
X0125657Y0069551D02*
X0125657Y0074155D01*
X0126424Y0074155D02*
X0124889Y0074155D01*
X0118751Y0074155D02*
X0118751Y0071086D01*
X0117216Y0069551D01*
X0115682Y0071086D01*
X0115682Y0074155D01*
X0114147Y0074155D02*
X0111078Y0074155D01*
X0111078Y0071853D01*
X0112612Y0072620D01*
X0113380Y0072620D01*
X0114147Y0071853D01*
X0114147Y0070318D01*
X0113380Y0069551D01*
X0111845Y0069551D01*
X0111078Y0070318D01*
X0414133Y0236633D02*
X0417202Y0241237D01*
X0414133Y0241237D02*
X0417202Y0236633D01*
X0262200Y0309255D02*
X0261433Y0308487D01*
X0259898Y0308487D01*
X0259131Y0309255D01*
X0259898Y0310789D02*
X0261433Y0310789D01*
X0262200Y0310022D01*
X0262200Y0309255D01*
X0259898Y0310789D02*
X0259131Y0311557D01*
X0259131Y0312324D01*
X0259898Y0313091D01*
X0261433Y0313091D01*
X0262200Y0312324D01*
X0257596Y0313091D02*
X0254527Y0313091D01*
X0256062Y0313091D02*
X0256062Y0308487D01*
X0252992Y0309255D02*
X0252992Y0312324D01*
X0252225Y0313091D01*
X0250690Y0313091D01*
X0249923Y0312324D01*
X0249923Y0309255D01*
X0250690Y0308487D01*
X0252225Y0308487D01*
X0252992Y0309255D01*
X0248388Y0310789D02*
X0248388Y0312324D01*
X0247621Y0313091D01*
X0245319Y0313091D01*
X0245319Y0308487D01*
X0245319Y0310022D02*
X0247621Y0310022D01*
X0248388Y0310789D01*
D14*
X0186433Y0273933D02*
X0186433Y0263933D01*
X0386433Y0263933D01*
X0386433Y0213933D01*
X0386433Y0203933D01*
X0186433Y0203933D01*
X0186433Y0213933D01*
X0186433Y0234933D01*
X0186559Y0234935D01*
X0186684Y0234941D01*
X0186809Y0234951D01*
X0186934Y0234965D01*
X0187059Y0234982D01*
X0187183Y0235004D01*
X0187306Y0235029D01*
X0187428Y0235059D01*
X0187549Y0235092D01*
X0187669Y0235129D01*
X0187788Y0235169D01*
X0187905Y0235214D01*
X0188022Y0235262D01*
X0188136Y0235314D01*
X0188249Y0235369D01*
X0188360Y0235428D01*
X0188469Y0235490D01*
X0188576Y0235556D01*
X0188681Y0235625D01*
X0188784Y0235697D01*
X0188885Y0235772D01*
X0188983Y0235851D01*
X0189078Y0235933D01*
X0189171Y0236017D01*
X0189261Y0236105D01*
X0189349Y0236195D01*
X0189433Y0236288D01*
X0189515Y0236383D01*
X0189594Y0236481D01*
X0189669Y0236582D01*
X0189741Y0236685D01*
X0189810Y0236790D01*
X0189876Y0236897D01*
X0189938Y0237006D01*
X0189997Y0237117D01*
X0190052Y0237230D01*
X0190104Y0237344D01*
X0190152Y0237461D01*
X0190197Y0237578D01*
X0190237Y0237697D01*
X0190274Y0237817D01*
X0190307Y0237938D01*
X0190337Y0238060D01*
X0190362Y0238183D01*
X0190384Y0238307D01*
X0190401Y0238432D01*
X0190415Y0238557D01*
X0190425Y0238682D01*
X0190431Y0238807D01*
X0190433Y0238933D01*
X0190431Y0239059D01*
X0190425Y0239184D01*
X0190415Y0239309D01*
X0190401Y0239434D01*
X0190384Y0239559D01*
X0190362Y0239683D01*
X0190337Y0239806D01*
X0190307Y0239928D01*
X0190274Y0240049D01*
X0190237Y0240169D01*
X0190197Y0240288D01*
X0190152Y0240405D01*
X0190104Y0240522D01*
X0190052Y0240636D01*
X0189997Y0240749D01*
X0189938Y0240860D01*
X0189876Y0240969D01*
X0189810Y0241076D01*
X0189741Y0241181D01*
X0189669Y0241284D01*
X0189594Y0241385D01*
X0189515Y0241483D01*
X0189433Y0241578D01*
X0189349Y0241671D01*
X0189261Y0241761D01*
X0189171Y0241849D01*
X0189078Y0241933D01*
X0188983Y0242015D01*
X0188885Y0242094D01*
X0188784Y0242169D01*
X0188681Y0242241D01*
X0188576Y0242310D01*
X0188469Y0242376D01*
X0188360Y0242438D01*
X0188249Y0242497D01*
X0188136Y0242552D01*
X0188022Y0242604D01*
X0187905Y0242652D01*
X0187788Y0242697D01*
X0187669Y0242737D01*
X0187549Y0242774D01*
X0187428Y0242807D01*
X0187306Y0242837D01*
X0187183Y0242862D01*
X0187059Y0242884D01*
X0186934Y0242901D01*
X0186809Y0242915D01*
X0186684Y0242925D01*
X0186559Y0242931D01*
X0186433Y0242933D01*
X0186433Y0263933D01*
X0186433Y0273933D02*
X0386433Y0273933D01*
X0386433Y0263933D01*
X0386433Y0213933D02*
X0186433Y0213933D01*
D15*
X0184183Y0214290D02*
X0184183Y0211287D01*
X0179679Y0211287D01*
X0179679Y0214290D01*
X0179679Y0215891D02*
X0184183Y0215891D01*
X0184183Y0218893D01*
X0184183Y0220495D02*
X0179679Y0220495D01*
X0184183Y0223497D01*
X0179679Y0223497D01*
X0180430Y0225099D02*
X0181181Y0225099D01*
X0181931Y0225849D01*
X0181931Y0227351D01*
X0182682Y0228101D01*
X0183432Y0228101D01*
X0184183Y0227351D01*
X0184183Y0225849D01*
X0183432Y0225099D01*
X0180430Y0225099D02*
X0179679Y0225849D01*
X0179679Y0227351D01*
X0180430Y0228101D01*
X0180430Y0229703D02*
X0181931Y0231204D01*
X0184183Y0231204D01*
X0181931Y0231204D02*
X0180430Y0232705D01*
X0179679Y0232705D01*
X0181931Y0234307D02*
X0181931Y0237309D01*
X0181931Y0238911D02*
X0181931Y0241913D01*
X0180430Y0240412D02*
X0183432Y0240412D01*
X0183432Y0235808D02*
X0180430Y0235808D01*
X0180430Y0229703D02*
X0179679Y0229703D01*
X0179679Y0218893D02*
X0179679Y0215891D01*
X0181931Y0215891D02*
X0181931Y0217392D01*
X0181931Y0212788D02*
X0181931Y0211287D01*
X0179679Y0209686D02*
X0179679Y0206683D01*
X0179679Y0208184D02*
X0184183Y0208184D01*
X0183990Y0193387D02*
X0183990Y0188883D01*
X0180987Y0193387D01*
X0180987Y0188883D01*
X0179386Y0188883D02*
X0176383Y0188883D01*
X0176383Y0193387D01*
X0179386Y0193387D01*
X0177884Y0191135D02*
X0176383Y0191135D01*
X0185591Y0189634D02*
X0186342Y0188883D01*
X0187843Y0188883D01*
X0188593Y0189634D01*
X0190195Y0189634D02*
X0190945Y0188883D01*
X0192447Y0188883D01*
X0193197Y0189634D01*
X0193197Y0192636D01*
X0192447Y0193387D01*
X0190945Y0193387D01*
X0190195Y0192636D01*
X0190195Y0189634D01*
X0188593Y0192636D02*
X0187843Y0193387D01*
X0186342Y0193387D01*
X0185591Y0192636D01*
X0185591Y0189634D01*
X0194799Y0188883D02*
X0194799Y0193387D01*
X0197051Y0193387D01*
X0197801Y0192636D01*
X0197801Y0189634D01*
X0197051Y0188883D01*
X0194799Y0188883D01*
X0199403Y0188883D02*
X0199403Y0193387D01*
X0202405Y0193387D01*
X0204007Y0193387D02*
X0206259Y0193387D01*
X0207009Y0192636D01*
X0207009Y0191135D01*
X0206259Y0190384D01*
X0204007Y0190384D01*
X0205508Y0190384D02*
X0207009Y0188883D01*
X0204007Y0188883D02*
X0204007Y0193387D01*
X0200904Y0191135D02*
X0199403Y0191135D01*
X0199403Y0188883D02*
X0202405Y0188883D01*
X0241383Y0188883D02*
X0243635Y0188883D01*
X0244386Y0189634D01*
X0244386Y0190384D01*
X0243635Y0191135D01*
X0241383Y0191135D01*
X0241383Y0188883D02*
X0241383Y0193387D01*
X0243635Y0193387D01*
X0244386Y0192636D01*
X0244386Y0191886D01*
X0243635Y0191135D01*
X0245987Y0193387D02*
X0245987Y0188883D01*
X0248990Y0188883D01*
X0250591Y0189634D02*
X0251342Y0188883D01*
X0252843Y0188883D01*
X0253593Y0189634D01*
X0253593Y0193387D01*
X0255195Y0193387D02*
X0255195Y0188883D01*
X0258197Y0188883D01*
X0259799Y0188132D02*
X0262801Y0188132D01*
X0264403Y0189634D02*
X0265153Y0188883D01*
X0266655Y0188883D01*
X0267405Y0189634D01*
X0267405Y0192636D01*
X0266655Y0193387D01*
X0265153Y0193387D01*
X0264403Y0192636D01*
X0264403Y0189634D01*
X0269007Y0189634D02*
X0269007Y0193387D01*
X0272009Y0193387D02*
X0272009Y0189634D01*
X0271259Y0188883D01*
X0269757Y0188883D01*
X0269007Y0189634D01*
X0273611Y0193387D02*
X0276613Y0193387D01*
X0275112Y0193387D02*
X0275112Y0188883D01*
X0258197Y0193387D02*
X0255195Y0193387D01*
X0255195Y0191135D02*
X0256696Y0191135D01*
X0250591Y0189634D02*
X0250591Y0193387D01*
X0251342Y0163387D02*
X0250591Y0162636D01*
X0250591Y0159634D01*
X0251342Y0158883D01*
X0252843Y0158883D01*
X0253593Y0159634D01*
X0253593Y0161135D01*
X0252092Y0161135D01*
X0253593Y0162636D02*
X0252843Y0163387D01*
X0251342Y0163387D01*
X0248990Y0162636D02*
X0248990Y0161135D01*
X0248239Y0160384D01*
X0245987Y0160384D01*
X0245987Y0158883D02*
X0245987Y0163387D01*
X0248239Y0163387D01*
X0248990Y0162636D01*
X0247488Y0160384D02*
X0248990Y0158883D01*
X0244386Y0159634D02*
X0244386Y0162636D01*
X0243635Y0163387D01*
X0242134Y0163387D01*
X0241383Y0162636D01*
X0241383Y0159634D01*
X0242134Y0158883D01*
X0243635Y0158883D01*
X0244386Y0159634D01*
X0255195Y0158132D02*
X0258197Y0158132D01*
X0259799Y0159634D02*
X0260549Y0158883D01*
X0262051Y0158883D01*
X0262801Y0159634D01*
X0262801Y0162636D01*
X0262051Y0163387D01*
X0260549Y0163387D01*
X0259799Y0162636D01*
X0259799Y0159634D01*
X0264403Y0159634D02*
X0264403Y0163387D01*
X0267405Y0163387D02*
X0267405Y0159634D01*
X0266655Y0158883D01*
X0265153Y0158883D01*
X0264403Y0159634D01*
X0269007Y0163387D02*
X0272009Y0163387D01*
X0270508Y0163387D02*
X0270508Y0158883D01*
X0210382Y0139483D02*
X0207379Y0139483D01*
X0207379Y0143987D01*
X0205778Y0143236D02*
X0205778Y0141735D01*
X0205027Y0140984D01*
X0202775Y0140984D01*
X0202775Y0139483D02*
X0202775Y0143987D01*
X0205027Y0143987D01*
X0205778Y0143236D01*
X0204276Y0140984D02*
X0205778Y0139483D01*
X0199673Y0139483D02*
X0199673Y0143987D01*
X0201174Y0143987D02*
X0198171Y0143987D01*
X0196570Y0143236D02*
X0195819Y0143987D01*
X0194318Y0143987D01*
X0193567Y0143236D01*
X0193567Y0140234D01*
X0194318Y0139483D01*
X0195819Y0139483D01*
X0196570Y0140234D01*
X0191966Y0138732D02*
X0188963Y0138732D01*
X0187362Y0140234D02*
X0186611Y0139483D01*
X0185110Y0139483D01*
X0184359Y0140234D01*
X0184359Y0143236D01*
X0185110Y0143987D01*
X0186611Y0143987D01*
X0187362Y0143236D01*
X0182758Y0143987D02*
X0182758Y0139483D01*
X0179756Y0143987D01*
X0179756Y0139483D01*
X0178154Y0139483D02*
X0175152Y0139483D01*
X0175152Y0143987D01*
X0178154Y0143987D01*
X0176653Y0141735D02*
X0175152Y0141735D01*
X0133933Y0098433D02*
X0113933Y0098433D01*
X0113933Y0076433D01*
X0118933Y0076433D01*
X0118933Y0081433D01*
X0128933Y0081433D01*
X0128933Y0076433D01*
X0118933Y0076433D01*
X0128933Y0076433D02*
X0133933Y0076433D01*
X0133933Y0098433D01*
X0147338Y0071270D02*
X0148839Y0071270D01*
X0148089Y0071270D02*
X0148089Y0066766D01*
X0148839Y0066766D02*
X0147338Y0066766D01*
X0150407Y0066766D02*
X0153410Y0069769D01*
X0153410Y0070520D01*
X0152659Y0071270D01*
X0151158Y0071270D01*
X0150407Y0070520D01*
X0150407Y0066766D02*
X0153410Y0066766D01*
X0155011Y0067517D02*
X0155762Y0066766D01*
X0157263Y0066766D01*
X0158014Y0067517D01*
X0158014Y0070520D02*
X0157263Y0071270D01*
X0155762Y0071270D01*
X0155011Y0070520D01*
X0155011Y0067517D01*
X0274012Y0069212D02*
X0279012Y0069212D01*
X0279012Y0074212D01*
X0289012Y0074212D01*
X0289012Y0069212D01*
X0279012Y0069212D01*
X0274012Y0069212D02*
X0274012Y0091212D01*
X0294012Y0091212D01*
X0294012Y0069212D01*
X0289012Y0069212D01*
X0408933Y0078933D02*
X0413933Y0078933D01*
X0413933Y0083933D01*
X0423933Y0083933D01*
X0423933Y0078933D01*
X0413933Y0078933D01*
X0408933Y0078933D02*
X0408933Y0100933D01*
X0428933Y0100933D01*
X0428933Y0078933D01*
X0423933Y0078933D01*
X0443222Y0207775D02*
X0443222Y0212775D01*
X0448222Y0212775D01*
X0448222Y0222775D01*
X0443222Y0222775D01*
X0443222Y0227775D01*
X0465222Y0227775D01*
X0465222Y0207775D01*
X0443222Y0207775D01*
X0443222Y0212775D02*
X0443222Y0222775D01*
X0293933Y0339433D02*
X0273933Y0339433D01*
X0273933Y0361433D01*
X0278933Y0361433D01*
X0278933Y0356433D01*
X0288933Y0356433D01*
X0288933Y0361433D01*
X0293933Y0361433D01*
X0293933Y0339433D01*
X0288933Y0361433D02*
X0278933Y0361433D01*
X0121433Y0228933D02*
X0099433Y0228933D01*
X0099433Y0208933D01*
X0121433Y0208933D01*
X0121433Y0213933D01*
X0116433Y0213933D01*
X0116433Y0223933D01*
X0121433Y0223933D01*
X0121433Y0213933D01*
X0121433Y0223933D02*
X0121433Y0228933D01*
D16*
X0141591Y0228165D02*
X0161276Y0228165D01*
X0161276Y0194701D01*
X0141591Y0194701D01*
X0141591Y0228165D01*
X0143555Y0225433D02*
X0143557Y0225492D01*
X0143563Y0225550D01*
X0143573Y0225608D01*
X0143586Y0225665D01*
X0143604Y0225721D01*
X0143625Y0225776D01*
X0143649Y0225829D01*
X0143678Y0225880D01*
X0143709Y0225930D01*
X0143744Y0225977D01*
X0143782Y0226022D01*
X0143823Y0226064D01*
X0143866Y0226103D01*
X0143912Y0226140D01*
X0143961Y0226173D01*
X0144011Y0226203D01*
X0144063Y0226229D01*
X0144117Y0226252D01*
X0144173Y0226272D01*
X0144229Y0226287D01*
X0144287Y0226299D01*
X0144345Y0226307D01*
X0144404Y0226311D01*
X0144462Y0226311D01*
X0144521Y0226307D01*
X0144579Y0226299D01*
X0144637Y0226287D01*
X0144693Y0226272D01*
X0144749Y0226252D01*
X0144803Y0226229D01*
X0144855Y0226203D01*
X0144905Y0226173D01*
X0144954Y0226140D01*
X0145000Y0226103D01*
X0145043Y0226064D01*
X0145084Y0226022D01*
X0145122Y0225977D01*
X0145157Y0225930D01*
X0145188Y0225880D01*
X0145217Y0225829D01*
X0145241Y0225776D01*
X0145262Y0225721D01*
X0145280Y0225665D01*
X0145293Y0225608D01*
X0145303Y0225550D01*
X0145309Y0225492D01*
X0145311Y0225433D01*
X0145309Y0225374D01*
X0145303Y0225316D01*
X0145293Y0225258D01*
X0145280Y0225201D01*
X0145262Y0225145D01*
X0145241Y0225090D01*
X0145217Y0225037D01*
X0145188Y0224986D01*
X0145157Y0224936D01*
X0145122Y0224889D01*
X0145084Y0224844D01*
X0145043Y0224802D01*
X0145000Y0224763D01*
X0144954Y0224726D01*
X0144905Y0224693D01*
X0144855Y0224663D01*
X0144803Y0224637D01*
X0144749Y0224614D01*
X0144693Y0224594D01*
X0144637Y0224579D01*
X0144579Y0224567D01*
X0144521Y0224559D01*
X0144462Y0224555D01*
X0144404Y0224555D01*
X0144345Y0224559D01*
X0144287Y0224567D01*
X0144229Y0224579D01*
X0144173Y0224594D01*
X0144117Y0224614D01*
X0144063Y0224637D01*
X0144011Y0224663D01*
X0143961Y0224693D01*
X0143912Y0224726D01*
X0143866Y0224763D01*
X0143823Y0224802D01*
X0143782Y0224844D01*
X0143744Y0224889D01*
X0143709Y0224936D01*
X0143678Y0224986D01*
X0143649Y0225037D01*
X0143625Y0225090D01*
X0143604Y0225145D01*
X0143586Y0225201D01*
X0143573Y0225258D01*
X0143563Y0225316D01*
X0143557Y0225374D01*
X0143555Y0225433D01*
X0267201Y0301591D02*
X0267201Y0321276D01*
X0300665Y0321276D01*
X0300665Y0301591D01*
X0267201Y0301591D01*
X0297055Y0318433D02*
X0297057Y0318492D01*
X0297063Y0318550D01*
X0297073Y0318608D01*
X0297086Y0318665D01*
X0297104Y0318721D01*
X0297125Y0318776D01*
X0297149Y0318829D01*
X0297178Y0318880D01*
X0297209Y0318930D01*
X0297244Y0318977D01*
X0297282Y0319022D01*
X0297323Y0319064D01*
X0297366Y0319103D01*
X0297412Y0319140D01*
X0297461Y0319173D01*
X0297511Y0319203D01*
X0297563Y0319229D01*
X0297617Y0319252D01*
X0297673Y0319272D01*
X0297729Y0319287D01*
X0297787Y0319299D01*
X0297845Y0319307D01*
X0297904Y0319311D01*
X0297962Y0319311D01*
X0298021Y0319307D01*
X0298079Y0319299D01*
X0298137Y0319287D01*
X0298193Y0319272D01*
X0298249Y0319252D01*
X0298303Y0319229D01*
X0298355Y0319203D01*
X0298405Y0319173D01*
X0298454Y0319140D01*
X0298500Y0319103D01*
X0298543Y0319064D01*
X0298584Y0319022D01*
X0298622Y0318977D01*
X0298657Y0318930D01*
X0298688Y0318880D01*
X0298717Y0318829D01*
X0298741Y0318776D01*
X0298762Y0318721D01*
X0298780Y0318665D01*
X0298793Y0318608D01*
X0298803Y0318550D01*
X0298809Y0318492D01*
X0298811Y0318433D01*
X0298809Y0318374D01*
X0298803Y0318316D01*
X0298793Y0318258D01*
X0298780Y0318201D01*
X0298762Y0318145D01*
X0298741Y0318090D01*
X0298717Y0318037D01*
X0298688Y0317986D01*
X0298657Y0317936D01*
X0298622Y0317889D01*
X0298584Y0317844D01*
X0298543Y0317802D01*
X0298500Y0317763D01*
X0298454Y0317726D01*
X0298405Y0317693D01*
X0298355Y0317663D01*
X0298303Y0317637D01*
X0298249Y0317614D01*
X0298193Y0317594D01*
X0298137Y0317579D01*
X0298079Y0317567D01*
X0298021Y0317559D01*
X0297962Y0317555D01*
X0297904Y0317555D01*
X0297845Y0317559D01*
X0297787Y0317567D01*
X0297729Y0317579D01*
X0297673Y0317594D01*
X0297617Y0317614D01*
X0297563Y0317637D01*
X0297511Y0317663D01*
X0297461Y0317693D01*
X0297412Y0317726D01*
X0297366Y0317763D01*
X0297323Y0317802D01*
X0297282Y0317844D01*
X0297244Y0317889D01*
X0297209Y0317936D01*
X0297178Y0317986D01*
X0297149Y0318037D01*
X0297125Y0318090D01*
X0297104Y0318145D01*
X0297086Y0318201D01*
X0297073Y0318258D01*
X0297063Y0318316D01*
X0297057Y0318374D01*
X0297055Y0318433D01*
X0404091Y0233165D02*
X0423776Y0233165D01*
X0423776Y0199701D01*
X0404091Y0199701D01*
X0404091Y0233165D01*
X0420055Y0202433D02*
X0420057Y0202492D01*
X0420063Y0202550D01*
X0420073Y0202608D01*
X0420086Y0202665D01*
X0420104Y0202721D01*
X0420125Y0202776D01*
X0420149Y0202829D01*
X0420178Y0202880D01*
X0420209Y0202930D01*
X0420244Y0202977D01*
X0420282Y0203022D01*
X0420323Y0203064D01*
X0420366Y0203103D01*
X0420412Y0203140D01*
X0420461Y0203173D01*
X0420511Y0203203D01*
X0420563Y0203229D01*
X0420617Y0203252D01*
X0420673Y0203272D01*
X0420729Y0203287D01*
X0420787Y0203299D01*
X0420845Y0203307D01*
X0420904Y0203311D01*
X0420962Y0203311D01*
X0421021Y0203307D01*
X0421079Y0203299D01*
X0421137Y0203287D01*
X0421193Y0203272D01*
X0421249Y0203252D01*
X0421303Y0203229D01*
X0421355Y0203203D01*
X0421405Y0203173D01*
X0421454Y0203140D01*
X0421500Y0203103D01*
X0421543Y0203064D01*
X0421584Y0203022D01*
X0421622Y0202977D01*
X0421657Y0202930D01*
X0421688Y0202880D01*
X0421717Y0202829D01*
X0421741Y0202776D01*
X0421762Y0202721D01*
X0421780Y0202665D01*
X0421793Y0202608D01*
X0421803Y0202550D01*
X0421809Y0202492D01*
X0421811Y0202433D01*
X0421809Y0202374D01*
X0421803Y0202316D01*
X0421793Y0202258D01*
X0421780Y0202201D01*
X0421762Y0202145D01*
X0421741Y0202090D01*
X0421717Y0202037D01*
X0421688Y0201986D01*
X0421657Y0201936D01*
X0421622Y0201889D01*
X0421584Y0201844D01*
X0421543Y0201802D01*
X0421500Y0201763D01*
X0421454Y0201726D01*
X0421405Y0201693D01*
X0421355Y0201663D01*
X0421303Y0201637D01*
X0421249Y0201614D01*
X0421193Y0201594D01*
X0421137Y0201579D01*
X0421079Y0201567D01*
X0421021Y0201559D01*
X0420962Y0201555D01*
X0420904Y0201555D01*
X0420845Y0201559D01*
X0420787Y0201567D01*
X0420729Y0201579D01*
X0420673Y0201594D01*
X0420617Y0201614D01*
X0420563Y0201637D01*
X0420511Y0201663D01*
X0420461Y0201693D01*
X0420412Y0201726D01*
X0420366Y0201763D01*
X0420323Y0201802D01*
X0420282Y0201844D01*
X0420244Y0201889D01*
X0420209Y0201936D01*
X0420178Y0201986D01*
X0420149Y0202037D01*
X0420125Y0202090D01*
X0420104Y0202145D01*
X0420086Y0202201D01*
X0420073Y0202258D01*
X0420063Y0202316D01*
X0420057Y0202374D01*
X0420055Y0202433D01*
X0300665Y0126276D02*
X0300665Y0106591D01*
X0267201Y0106591D01*
X0267201Y0126276D01*
X0300665Y0126276D01*
X0269055Y0109433D02*
X0269057Y0109492D01*
X0269063Y0109550D01*
X0269073Y0109608D01*
X0269086Y0109665D01*
X0269104Y0109721D01*
X0269125Y0109776D01*
X0269149Y0109829D01*
X0269178Y0109880D01*
X0269209Y0109930D01*
X0269244Y0109977D01*
X0269282Y0110022D01*
X0269323Y0110064D01*
X0269366Y0110103D01*
X0269412Y0110140D01*
X0269461Y0110173D01*
X0269511Y0110203D01*
X0269563Y0110229D01*
X0269617Y0110252D01*
X0269673Y0110272D01*
X0269729Y0110287D01*
X0269787Y0110299D01*
X0269845Y0110307D01*
X0269904Y0110311D01*
X0269962Y0110311D01*
X0270021Y0110307D01*
X0270079Y0110299D01*
X0270137Y0110287D01*
X0270193Y0110272D01*
X0270249Y0110252D01*
X0270303Y0110229D01*
X0270355Y0110203D01*
X0270405Y0110173D01*
X0270454Y0110140D01*
X0270500Y0110103D01*
X0270543Y0110064D01*
X0270584Y0110022D01*
X0270622Y0109977D01*
X0270657Y0109930D01*
X0270688Y0109880D01*
X0270717Y0109829D01*
X0270741Y0109776D01*
X0270762Y0109721D01*
X0270780Y0109665D01*
X0270793Y0109608D01*
X0270803Y0109550D01*
X0270809Y0109492D01*
X0270811Y0109433D01*
X0270809Y0109374D01*
X0270803Y0109316D01*
X0270793Y0109258D01*
X0270780Y0109201D01*
X0270762Y0109145D01*
X0270741Y0109090D01*
X0270717Y0109037D01*
X0270688Y0108986D01*
X0270657Y0108936D01*
X0270622Y0108889D01*
X0270584Y0108844D01*
X0270543Y0108802D01*
X0270500Y0108763D01*
X0270454Y0108726D01*
X0270405Y0108693D01*
X0270355Y0108663D01*
X0270303Y0108637D01*
X0270249Y0108614D01*
X0270193Y0108594D01*
X0270137Y0108579D01*
X0270079Y0108567D01*
X0270021Y0108559D01*
X0269962Y0108555D01*
X0269904Y0108555D01*
X0269845Y0108559D01*
X0269787Y0108567D01*
X0269729Y0108579D01*
X0269673Y0108594D01*
X0269617Y0108614D01*
X0269563Y0108637D01*
X0269511Y0108663D01*
X0269461Y0108693D01*
X0269412Y0108726D01*
X0269366Y0108763D01*
X0269323Y0108802D01*
X0269282Y0108844D01*
X0269244Y0108889D01*
X0269209Y0108936D01*
X0269178Y0108986D01*
X0269149Y0109037D01*
X0269125Y0109090D01*
X0269104Y0109145D01*
X0269086Y0109201D01*
X0269073Y0109258D01*
X0269063Y0109316D01*
X0269057Y0109374D01*
X0269055Y0109433D01*
X0162761Y0103266D02*
X0159761Y0103266D01*
X0159761Y0102266D01*
X0159761Y0103266D02*
X0156761Y0103266D01*
X0156761Y0123266D01*
X0159761Y0123266D01*
X0159761Y0124266D01*
X0159761Y0123266D02*
X0162761Y0123266D01*
X0162761Y0103266D01*
X0152761Y0103266D02*
X0149761Y0103266D01*
X0149761Y0102266D01*
X0149761Y0103266D02*
X0146761Y0103266D01*
X0146761Y0123266D01*
X0149761Y0123266D01*
X0149761Y0124266D01*
X0149761Y0123266D02*
X0152761Y0123266D01*
X0152761Y0103266D01*
X0151907Y0083977D02*
X0146907Y0083977D01*
X0144407Y0081477D01*
X0144407Y0076477D01*
X0146907Y0073977D01*
X0151907Y0073977D01*
X0154407Y0076477D01*
X0156907Y0073977D01*
X0161907Y0073977D01*
X0164407Y0076477D01*
X0164407Y0081477D01*
X0161907Y0083977D01*
X0156907Y0083977D01*
X0154407Y0081477D01*
X0151907Y0083977D01*
D17*
X0144785Y0120816D02*
X0143784Y0120816D01*
X0143311Y0120816D02*
X0142811Y0121316D01*
X0143061Y0121316D02*
X0142311Y0121316D01*
X0142311Y0120816D02*
X0142311Y0122317D01*
X0143061Y0122317D01*
X0143311Y0122067D01*
X0143311Y0121566D01*
X0143061Y0121316D01*
X0143784Y0121817D02*
X0144284Y0122317D01*
X0144284Y0120816D01*
X0164811Y0120816D02*
X0164811Y0122317D01*
X0165561Y0122317D01*
X0165811Y0122067D01*
X0165811Y0121566D01*
X0165561Y0121316D01*
X0164811Y0121316D01*
X0165311Y0121316D02*
X0165811Y0120816D01*
X0166284Y0120816D02*
X0167285Y0121817D01*
X0167285Y0122067D01*
X0167035Y0122317D01*
X0166534Y0122317D01*
X0166284Y0122067D01*
X0166284Y0120816D02*
X0167285Y0120816D01*
X0259537Y0113134D02*
X0259537Y0112133D01*
X0259787Y0111883D01*
X0260287Y0111883D01*
X0260537Y0112133D01*
X0261010Y0112133D02*
X0261260Y0111883D01*
X0261760Y0111883D01*
X0262011Y0112133D01*
X0262011Y0112383D01*
X0261760Y0112634D01*
X0261510Y0112634D01*
X0261760Y0112634D02*
X0262011Y0112884D01*
X0262011Y0113134D01*
X0261760Y0113384D01*
X0261260Y0113384D01*
X0261010Y0113134D01*
X0260537Y0113134D02*
X0260287Y0113384D01*
X0259787Y0113384D01*
X0259537Y0113134D01*
X0416982Y0192287D02*
X0417232Y0192037D01*
X0418233Y0192037D01*
X0418483Y0192287D01*
X0418483Y0192787D01*
X0418233Y0193037D01*
X0418483Y0193510D02*
X0417482Y0194511D01*
X0417232Y0194511D01*
X0416982Y0194260D01*
X0416982Y0193760D01*
X0417232Y0193510D01*
X0417232Y0193037D02*
X0416982Y0192787D01*
X0416982Y0192287D01*
X0418483Y0193510D02*
X0418483Y0194511D01*
X0307957Y0314483D02*
X0306956Y0314483D01*
X0307457Y0314483D02*
X0307457Y0315984D01*
X0306956Y0315484D01*
X0306484Y0315734D02*
X0306234Y0315984D01*
X0305733Y0315984D01*
X0305483Y0315734D01*
X0305483Y0314733D01*
X0305733Y0314483D01*
X0306234Y0314483D01*
X0306484Y0314733D01*
X0148383Y0235207D02*
X0146882Y0235207D01*
X0147632Y0234456D01*
X0147632Y0235457D01*
X0147132Y0233984D02*
X0146882Y0233734D01*
X0146882Y0233233D01*
X0147132Y0232983D01*
X0148133Y0232983D01*
X0148383Y0233233D01*
X0148383Y0233734D01*
X0148133Y0233984D01*
M02*
