G75*
%MOIN*%
%OFA0B0*%
%FSLAX25Y25*%
%IPPOS*%
%LPD*%
%AMOC8*
5,1,8,0,0,1.08239X$1,22.5*
%
%ADD10C,0.00000*%
%ADD11C,0.07400*%
%ADD12R,0.07400X0.07400*%
%ADD13C,0.04200*%
%ADD14C,0.00600*%
%ADD15C,0.02700*%
D10*
X0086433Y0068933D02*
X0086433Y0363894D01*
X0086436Y0364136D01*
X0086445Y0364377D01*
X0086459Y0364618D01*
X0086480Y0364859D01*
X0086506Y0365099D01*
X0086538Y0365339D01*
X0086576Y0365578D01*
X0086619Y0365815D01*
X0086669Y0366052D01*
X0086724Y0366287D01*
X0086784Y0366521D01*
X0086851Y0366753D01*
X0086922Y0366984D01*
X0087000Y0367213D01*
X0087083Y0367440D01*
X0087171Y0367665D01*
X0087265Y0367888D01*
X0087364Y0368108D01*
X0087469Y0368326D01*
X0087578Y0368541D01*
X0087693Y0368754D01*
X0087813Y0368964D01*
X0087938Y0369170D01*
X0088068Y0369374D01*
X0088203Y0369575D01*
X0088343Y0369772D01*
X0088487Y0369966D01*
X0088636Y0370156D01*
X0088790Y0370342D01*
X0088948Y0370525D01*
X0089110Y0370704D01*
X0089277Y0370879D01*
X0089448Y0371050D01*
X0089623Y0371217D01*
X0089802Y0371379D01*
X0089985Y0371537D01*
X0090171Y0371691D01*
X0090361Y0371840D01*
X0090555Y0371984D01*
X0090752Y0372124D01*
X0090953Y0372259D01*
X0091157Y0372389D01*
X0091363Y0372514D01*
X0091573Y0372634D01*
X0091786Y0372749D01*
X0092001Y0372858D01*
X0092219Y0372963D01*
X0092439Y0373062D01*
X0092662Y0373156D01*
X0092887Y0373244D01*
X0093114Y0373327D01*
X0093343Y0373405D01*
X0093574Y0373476D01*
X0093806Y0373543D01*
X0094040Y0373603D01*
X0094275Y0373658D01*
X0094512Y0373708D01*
X0094749Y0373751D01*
X0094988Y0373789D01*
X0095228Y0373821D01*
X0095468Y0373847D01*
X0095709Y0373868D01*
X0095950Y0373882D01*
X0096191Y0373891D01*
X0096433Y0373894D01*
X0470134Y0373894D01*
X0470376Y0373891D01*
X0470617Y0373882D01*
X0470858Y0373868D01*
X0471099Y0373847D01*
X0471339Y0373821D01*
X0471579Y0373789D01*
X0471818Y0373751D01*
X0472055Y0373708D01*
X0472292Y0373658D01*
X0472527Y0373603D01*
X0472761Y0373543D01*
X0472993Y0373476D01*
X0473224Y0373405D01*
X0473453Y0373327D01*
X0473680Y0373244D01*
X0473905Y0373156D01*
X0474128Y0373062D01*
X0474348Y0372963D01*
X0474566Y0372858D01*
X0474781Y0372749D01*
X0474994Y0372634D01*
X0475204Y0372514D01*
X0475410Y0372389D01*
X0475614Y0372259D01*
X0475815Y0372124D01*
X0476012Y0371984D01*
X0476206Y0371840D01*
X0476396Y0371691D01*
X0476582Y0371537D01*
X0476765Y0371379D01*
X0476944Y0371217D01*
X0477119Y0371050D01*
X0477290Y0370879D01*
X0477457Y0370704D01*
X0477619Y0370525D01*
X0477777Y0370342D01*
X0477931Y0370156D01*
X0478080Y0369966D01*
X0478224Y0369772D01*
X0478364Y0369575D01*
X0478499Y0369374D01*
X0478629Y0369170D01*
X0478754Y0368964D01*
X0478874Y0368754D01*
X0478989Y0368541D01*
X0479098Y0368326D01*
X0479203Y0368108D01*
X0479302Y0367888D01*
X0479396Y0367665D01*
X0479484Y0367440D01*
X0479567Y0367213D01*
X0479645Y0366984D01*
X0479716Y0366753D01*
X0479783Y0366521D01*
X0479843Y0366287D01*
X0479898Y0366052D01*
X0479948Y0365815D01*
X0479991Y0365578D01*
X0480029Y0365339D01*
X0480061Y0365099D01*
X0480087Y0364859D01*
X0480108Y0364618D01*
X0480122Y0364377D01*
X0480131Y0364136D01*
X0480134Y0363894D01*
X0480134Y0068933D01*
X0480131Y0068691D01*
X0480122Y0068450D01*
X0480108Y0068209D01*
X0480087Y0067968D01*
X0480061Y0067728D01*
X0480029Y0067488D01*
X0479991Y0067249D01*
X0479948Y0067012D01*
X0479898Y0066775D01*
X0479843Y0066540D01*
X0479783Y0066306D01*
X0479716Y0066074D01*
X0479645Y0065843D01*
X0479567Y0065614D01*
X0479484Y0065387D01*
X0479396Y0065162D01*
X0479302Y0064939D01*
X0479203Y0064719D01*
X0479098Y0064501D01*
X0478989Y0064286D01*
X0478874Y0064073D01*
X0478754Y0063863D01*
X0478629Y0063657D01*
X0478499Y0063453D01*
X0478364Y0063252D01*
X0478224Y0063055D01*
X0478080Y0062861D01*
X0477931Y0062671D01*
X0477777Y0062485D01*
X0477619Y0062302D01*
X0477457Y0062123D01*
X0477290Y0061948D01*
X0477119Y0061777D01*
X0476944Y0061610D01*
X0476765Y0061448D01*
X0476582Y0061290D01*
X0476396Y0061136D01*
X0476206Y0060987D01*
X0476012Y0060843D01*
X0475815Y0060703D01*
X0475614Y0060568D01*
X0475410Y0060438D01*
X0475204Y0060313D01*
X0474994Y0060193D01*
X0474781Y0060078D01*
X0474566Y0059969D01*
X0474348Y0059864D01*
X0474128Y0059765D01*
X0473905Y0059671D01*
X0473680Y0059583D01*
X0473453Y0059500D01*
X0473224Y0059422D01*
X0472993Y0059351D01*
X0472761Y0059284D01*
X0472527Y0059224D01*
X0472292Y0059169D01*
X0472055Y0059119D01*
X0471818Y0059076D01*
X0471579Y0059038D01*
X0471339Y0059006D01*
X0471099Y0058980D01*
X0470858Y0058959D01*
X0470617Y0058945D01*
X0470376Y0058936D01*
X0470134Y0058933D01*
X0096433Y0058933D01*
X0096191Y0058936D01*
X0095950Y0058945D01*
X0095709Y0058959D01*
X0095468Y0058980D01*
X0095228Y0059006D01*
X0094988Y0059038D01*
X0094749Y0059076D01*
X0094512Y0059119D01*
X0094275Y0059169D01*
X0094040Y0059224D01*
X0093806Y0059284D01*
X0093574Y0059351D01*
X0093343Y0059422D01*
X0093114Y0059500D01*
X0092887Y0059583D01*
X0092662Y0059671D01*
X0092439Y0059765D01*
X0092219Y0059864D01*
X0092001Y0059969D01*
X0091786Y0060078D01*
X0091573Y0060193D01*
X0091363Y0060313D01*
X0091157Y0060438D01*
X0090953Y0060568D01*
X0090752Y0060703D01*
X0090555Y0060843D01*
X0090361Y0060987D01*
X0090171Y0061136D01*
X0089985Y0061290D01*
X0089802Y0061448D01*
X0089623Y0061610D01*
X0089448Y0061777D01*
X0089277Y0061948D01*
X0089110Y0062123D01*
X0088948Y0062302D01*
X0088790Y0062485D01*
X0088636Y0062671D01*
X0088487Y0062861D01*
X0088343Y0063055D01*
X0088203Y0063252D01*
X0088068Y0063453D01*
X0087938Y0063657D01*
X0087813Y0063863D01*
X0087693Y0064073D01*
X0087578Y0064286D01*
X0087469Y0064501D01*
X0087364Y0064719D01*
X0087265Y0064939D01*
X0087171Y0065162D01*
X0087083Y0065387D01*
X0087000Y0065614D01*
X0086922Y0065843D01*
X0086851Y0066074D01*
X0086784Y0066306D01*
X0086724Y0066540D01*
X0086669Y0066775D01*
X0086619Y0067012D01*
X0086576Y0067249D01*
X0086538Y0067488D01*
X0086506Y0067728D01*
X0086480Y0067968D01*
X0086459Y0068209D01*
X0086445Y0068450D01*
X0086436Y0068691D01*
X0086433Y0068933D01*
X0095134Y0073933D02*
X0095136Y0074091D01*
X0095142Y0074249D01*
X0095152Y0074407D01*
X0095166Y0074565D01*
X0095184Y0074722D01*
X0095205Y0074879D01*
X0095231Y0075035D01*
X0095261Y0075191D01*
X0095294Y0075346D01*
X0095332Y0075499D01*
X0095373Y0075652D01*
X0095418Y0075804D01*
X0095467Y0075955D01*
X0095520Y0076104D01*
X0095576Y0076252D01*
X0095636Y0076398D01*
X0095700Y0076543D01*
X0095768Y0076686D01*
X0095839Y0076828D01*
X0095913Y0076968D01*
X0095991Y0077105D01*
X0096073Y0077241D01*
X0096157Y0077375D01*
X0096246Y0077506D01*
X0096337Y0077635D01*
X0096432Y0077762D01*
X0096529Y0077887D01*
X0096630Y0078009D01*
X0096734Y0078128D01*
X0096841Y0078245D01*
X0096951Y0078359D01*
X0097064Y0078470D01*
X0097179Y0078579D01*
X0097297Y0078684D01*
X0097418Y0078786D01*
X0097541Y0078886D01*
X0097667Y0078982D01*
X0097795Y0079075D01*
X0097925Y0079165D01*
X0098058Y0079251D01*
X0098193Y0079335D01*
X0098329Y0079414D01*
X0098468Y0079491D01*
X0098609Y0079563D01*
X0098751Y0079633D01*
X0098895Y0079698D01*
X0099041Y0079760D01*
X0099188Y0079818D01*
X0099337Y0079873D01*
X0099487Y0079924D01*
X0099638Y0079971D01*
X0099790Y0080014D01*
X0099943Y0080053D01*
X0100098Y0080089D01*
X0100253Y0080120D01*
X0100409Y0080148D01*
X0100565Y0080172D01*
X0100722Y0080192D01*
X0100880Y0080208D01*
X0101037Y0080220D01*
X0101196Y0080228D01*
X0101354Y0080232D01*
X0101512Y0080232D01*
X0101670Y0080228D01*
X0101829Y0080220D01*
X0101986Y0080208D01*
X0102144Y0080192D01*
X0102301Y0080172D01*
X0102457Y0080148D01*
X0102613Y0080120D01*
X0102768Y0080089D01*
X0102923Y0080053D01*
X0103076Y0080014D01*
X0103228Y0079971D01*
X0103379Y0079924D01*
X0103529Y0079873D01*
X0103678Y0079818D01*
X0103825Y0079760D01*
X0103971Y0079698D01*
X0104115Y0079633D01*
X0104257Y0079563D01*
X0104398Y0079491D01*
X0104537Y0079414D01*
X0104673Y0079335D01*
X0104808Y0079251D01*
X0104941Y0079165D01*
X0105071Y0079075D01*
X0105199Y0078982D01*
X0105325Y0078886D01*
X0105448Y0078786D01*
X0105569Y0078684D01*
X0105687Y0078579D01*
X0105802Y0078470D01*
X0105915Y0078359D01*
X0106025Y0078245D01*
X0106132Y0078128D01*
X0106236Y0078009D01*
X0106337Y0077887D01*
X0106434Y0077762D01*
X0106529Y0077635D01*
X0106620Y0077506D01*
X0106709Y0077375D01*
X0106793Y0077241D01*
X0106875Y0077105D01*
X0106953Y0076968D01*
X0107027Y0076828D01*
X0107098Y0076686D01*
X0107166Y0076543D01*
X0107230Y0076398D01*
X0107290Y0076252D01*
X0107346Y0076104D01*
X0107399Y0075955D01*
X0107448Y0075804D01*
X0107493Y0075652D01*
X0107534Y0075499D01*
X0107572Y0075346D01*
X0107605Y0075191D01*
X0107635Y0075035D01*
X0107661Y0074879D01*
X0107682Y0074722D01*
X0107700Y0074565D01*
X0107714Y0074407D01*
X0107724Y0074249D01*
X0107730Y0074091D01*
X0107732Y0073933D01*
X0107730Y0073775D01*
X0107724Y0073617D01*
X0107714Y0073459D01*
X0107700Y0073301D01*
X0107682Y0073144D01*
X0107661Y0072987D01*
X0107635Y0072831D01*
X0107605Y0072675D01*
X0107572Y0072520D01*
X0107534Y0072367D01*
X0107493Y0072214D01*
X0107448Y0072062D01*
X0107399Y0071911D01*
X0107346Y0071762D01*
X0107290Y0071614D01*
X0107230Y0071468D01*
X0107166Y0071323D01*
X0107098Y0071180D01*
X0107027Y0071038D01*
X0106953Y0070898D01*
X0106875Y0070761D01*
X0106793Y0070625D01*
X0106709Y0070491D01*
X0106620Y0070360D01*
X0106529Y0070231D01*
X0106434Y0070104D01*
X0106337Y0069979D01*
X0106236Y0069857D01*
X0106132Y0069738D01*
X0106025Y0069621D01*
X0105915Y0069507D01*
X0105802Y0069396D01*
X0105687Y0069287D01*
X0105569Y0069182D01*
X0105448Y0069080D01*
X0105325Y0068980D01*
X0105199Y0068884D01*
X0105071Y0068791D01*
X0104941Y0068701D01*
X0104808Y0068615D01*
X0104673Y0068531D01*
X0104537Y0068452D01*
X0104398Y0068375D01*
X0104257Y0068303D01*
X0104115Y0068233D01*
X0103971Y0068168D01*
X0103825Y0068106D01*
X0103678Y0068048D01*
X0103529Y0067993D01*
X0103379Y0067942D01*
X0103228Y0067895D01*
X0103076Y0067852D01*
X0102923Y0067813D01*
X0102768Y0067777D01*
X0102613Y0067746D01*
X0102457Y0067718D01*
X0102301Y0067694D01*
X0102144Y0067674D01*
X0101986Y0067658D01*
X0101829Y0067646D01*
X0101670Y0067638D01*
X0101512Y0067634D01*
X0101354Y0067634D01*
X0101196Y0067638D01*
X0101037Y0067646D01*
X0100880Y0067658D01*
X0100722Y0067674D01*
X0100565Y0067694D01*
X0100409Y0067718D01*
X0100253Y0067746D01*
X0100098Y0067777D01*
X0099943Y0067813D01*
X0099790Y0067852D01*
X0099638Y0067895D01*
X0099487Y0067942D01*
X0099337Y0067993D01*
X0099188Y0068048D01*
X0099041Y0068106D01*
X0098895Y0068168D01*
X0098751Y0068233D01*
X0098609Y0068303D01*
X0098468Y0068375D01*
X0098329Y0068452D01*
X0098193Y0068531D01*
X0098058Y0068615D01*
X0097925Y0068701D01*
X0097795Y0068791D01*
X0097667Y0068884D01*
X0097541Y0068980D01*
X0097418Y0069080D01*
X0097297Y0069182D01*
X0097179Y0069287D01*
X0097064Y0069396D01*
X0096951Y0069507D01*
X0096841Y0069621D01*
X0096734Y0069738D01*
X0096630Y0069857D01*
X0096529Y0069979D01*
X0096432Y0070104D01*
X0096337Y0070231D01*
X0096246Y0070360D01*
X0096157Y0070491D01*
X0096073Y0070625D01*
X0095991Y0070761D01*
X0095913Y0070898D01*
X0095839Y0071038D01*
X0095768Y0071180D01*
X0095700Y0071323D01*
X0095636Y0071468D01*
X0095576Y0071614D01*
X0095520Y0071762D01*
X0095467Y0071911D01*
X0095418Y0072062D01*
X0095373Y0072214D01*
X0095332Y0072367D01*
X0095294Y0072520D01*
X0095261Y0072675D01*
X0095231Y0072831D01*
X0095205Y0072987D01*
X0095184Y0073144D01*
X0095166Y0073301D01*
X0095152Y0073459D01*
X0095142Y0073617D01*
X0095136Y0073775D01*
X0095134Y0073933D01*
X0460134Y0073933D02*
X0460136Y0074091D01*
X0460142Y0074249D01*
X0460152Y0074407D01*
X0460166Y0074565D01*
X0460184Y0074722D01*
X0460205Y0074879D01*
X0460231Y0075035D01*
X0460261Y0075191D01*
X0460294Y0075346D01*
X0460332Y0075499D01*
X0460373Y0075652D01*
X0460418Y0075804D01*
X0460467Y0075955D01*
X0460520Y0076104D01*
X0460576Y0076252D01*
X0460636Y0076398D01*
X0460700Y0076543D01*
X0460768Y0076686D01*
X0460839Y0076828D01*
X0460913Y0076968D01*
X0460991Y0077105D01*
X0461073Y0077241D01*
X0461157Y0077375D01*
X0461246Y0077506D01*
X0461337Y0077635D01*
X0461432Y0077762D01*
X0461529Y0077887D01*
X0461630Y0078009D01*
X0461734Y0078128D01*
X0461841Y0078245D01*
X0461951Y0078359D01*
X0462064Y0078470D01*
X0462179Y0078579D01*
X0462297Y0078684D01*
X0462418Y0078786D01*
X0462541Y0078886D01*
X0462667Y0078982D01*
X0462795Y0079075D01*
X0462925Y0079165D01*
X0463058Y0079251D01*
X0463193Y0079335D01*
X0463329Y0079414D01*
X0463468Y0079491D01*
X0463609Y0079563D01*
X0463751Y0079633D01*
X0463895Y0079698D01*
X0464041Y0079760D01*
X0464188Y0079818D01*
X0464337Y0079873D01*
X0464487Y0079924D01*
X0464638Y0079971D01*
X0464790Y0080014D01*
X0464943Y0080053D01*
X0465098Y0080089D01*
X0465253Y0080120D01*
X0465409Y0080148D01*
X0465565Y0080172D01*
X0465722Y0080192D01*
X0465880Y0080208D01*
X0466037Y0080220D01*
X0466196Y0080228D01*
X0466354Y0080232D01*
X0466512Y0080232D01*
X0466670Y0080228D01*
X0466829Y0080220D01*
X0466986Y0080208D01*
X0467144Y0080192D01*
X0467301Y0080172D01*
X0467457Y0080148D01*
X0467613Y0080120D01*
X0467768Y0080089D01*
X0467923Y0080053D01*
X0468076Y0080014D01*
X0468228Y0079971D01*
X0468379Y0079924D01*
X0468529Y0079873D01*
X0468678Y0079818D01*
X0468825Y0079760D01*
X0468971Y0079698D01*
X0469115Y0079633D01*
X0469257Y0079563D01*
X0469398Y0079491D01*
X0469537Y0079414D01*
X0469673Y0079335D01*
X0469808Y0079251D01*
X0469941Y0079165D01*
X0470071Y0079075D01*
X0470199Y0078982D01*
X0470325Y0078886D01*
X0470448Y0078786D01*
X0470569Y0078684D01*
X0470687Y0078579D01*
X0470802Y0078470D01*
X0470915Y0078359D01*
X0471025Y0078245D01*
X0471132Y0078128D01*
X0471236Y0078009D01*
X0471337Y0077887D01*
X0471434Y0077762D01*
X0471529Y0077635D01*
X0471620Y0077506D01*
X0471709Y0077375D01*
X0471793Y0077241D01*
X0471875Y0077105D01*
X0471953Y0076968D01*
X0472027Y0076828D01*
X0472098Y0076686D01*
X0472166Y0076543D01*
X0472230Y0076398D01*
X0472290Y0076252D01*
X0472346Y0076104D01*
X0472399Y0075955D01*
X0472448Y0075804D01*
X0472493Y0075652D01*
X0472534Y0075499D01*
X0472572Y0075346D01*
X0472605Y0075191D01*
X0472635Y0075035D01*
X0472661Y0074879D01*
X0472682Y0074722D01*
X0472700Y0074565D01*
X0472714Y0074407D01*
X0472724Y0074249D01*
X0472730Y0074091D01*
X0472732Y0073933D01*
X0472730Y0073775D01*
X0472724Y0073617D01*
X0472714Y0073459D01*
X0472700Y0073301D01*
X0472682Y0073144D01*
X0472661Y0072987D01*
X0472635Y0072831D01*
X0472605Y0072675D01*
X0472572Y0072520D01*
X0472534Y0072367D01*
X0472493Y0072214D01*
X0472448Y0072062D01*
X0472399Y0071911D01*
X0472346Y0071762D01*
X0472290Y0071614D01*
X0472230Y0071468D01*
X0472166Y0071323D01*
X0472098Y0071180D01*
X0472027Y0071038D01*
X0471953Y0070898D01*
X0471875Y0070761D01*
X0471793Y0070625D01*
X0471709Y0070491D01*
X0471620Y0070360D01*
X0471529Y0070231D01*
X0471434Y0070104D01*
X0471337Y0069979D01*
X0471236Y0069857D01*
X0471132Y0069738D01*
X0471025Y0069621D01*
X0470915Y0069507D01*
X0470802Y0069396D01*
X0470687Y0069287D01*
X0470569Y0069182D01*
X0470448Y0069080D01*
X0470325Y0068980D01*
X0470199Y0068884D01*
X0470071Y0068791D01*
X0469941Y0068701D01*
X0469808Y0068615D01*
X0469673Y0068531D01*
X0469537Y0068452D01*
X0469398Y0068375D01*
X0469257Y0068303D01*
X0469115Y0068233D01*
X0468971Y0068168D01*
X0468825Y0068106D01*
X0468678Y0068048D01*
X0468529Y0067993D01*
X0468379Y0067942D01*
X0468228Y0067895D01*
X0468076Y0067852D01*
X0467923Y0067813D01*
X0467768Y0067777D01*
X0467613Y0067746D01*
X0467457Y0067718D01*
X0467301Y0067694D01*
X0467144Y0067674D01*
X0466986Y0067658D01*
X0466829Y0067646D01*
X0466670Y0067638D01*
X0466512Y0067634D01*
X0466354Y0067634D01*
X0466196Y0067638D01*
X0466037Y0067646D01*
X0465880Y0067658D01*
X0465722Y0067674D01*
X0465565Y0067694D01*
X0465409Y0067718D01*
X0465253Y0067746D01*
X0465098Y0067777D01*
X0464943Y0067813D01*
X0464790Y0067852D01*
X0464638Y0067895D01*
X0464487Y0067942D01*
X0464337Y0067993D01*
X0464188Y0068048D01*
X0464041Y0068106D01*
X0463895Y0068168D01*
X0463751Y0068233D01*
X0463609Y0068303D01*
X0463468Y0068375D01*
X0463329Y0068452D01*
X0463193Y0068531D01*
X0463058Y0068615D01*
X0462925Y0068701D01*
X0462795Y0068791D01*
X0462667Y0068884D01*
X0462541Y0068980D01*
X0462418Y0069080D01*
X0462297Y0069182D01*
X0462179Y0069287D01*
X0462064Y0069396D01*
X0461951Y0069507D01*
X0461841Y0069621D01*
X0461734Y0069738D01*
X0461630Y0069857D01*
X0461529Y0069979D01*
X0461432Y0070104D01*
X0461337Y0070231D01*
X0461246Y0070360D01*
X0461157Y0070491D01*
X0461073Y0070625D01*
X0460991Y0070761D01*
X0460913Y0070898D01*
X0460839Y0071038D01*
X0460768Y0071180D01*
X0460700Y0071323D01*
X0460636Y0071468D01*
X0460576Y0071614D01*
X0460520Y0071762D01*
X0460467Y0071911D01*
X0460418Y0072062D01*
X0460373Y0072214D01*
X0460332Y0072367D01*
X0460294Y0072520D01*
X0460261Y0072675D01*
X0460231Y0072831D01*
X0460205Y0072987D01*
X0460184Y0073144D01*
X0460166Y0073301D01*
X0460152Y0073459D01*
X0460142Y0073617D01*
X0460136Y0073775D01*
X0460134Y0073933D01*
X0460134Y0358933D02*
X0460136Y0359091D01*
X0460142Y0359249D01*
X0460152Y0359407D01*
X0460166Y0359565D01*
X0460184Y0359722D01*
X0460205Y0359879D01*
X0460231Y0360035D01*
X0460261Y0360191D01*
X0460294Y0360346D01*
X0460332Y0360499D01*
X0460373Y0360652D01*
X0460418Y0360804D01*
X0460467Y0360955D01*
X0460520Y0361104D01*
X0460576Y0361252D01*
X0460636Y0361398D01*
X0460700Y0361543D01*
X0460768Y0361686D01*
X0460839Y0361828D01*
X0460913Y0361968D01*
X0460991Y0362105D01*
X0461073Y0362241D01*
X0461157Y0362375D01*
X0461246Y0362506D01*
X0461337Y0362635D01*
X0461432Y0362762D01*
X0461529Y0362887D01*
X0461630Y0363009D01*
X0461734Y0363128D01*
X0461841Y0363245D01*
X0461951Y0363359D01*
X0462064Y0363470D01*
X0462179Y0363579D01*
X0462297Y0363684D01*
X0462418Y0363786D01*
X0462541Y0363886D01*
X0462667Y0363982D01*
X0462795Y0364075D01*
X0462925Y0364165D01*
X0463058Y0364251D01*
X0463193Y0364335D01*
X0463329Y0364414D01*
X0463468Y0364491D01*
X0463609Y0364563D01*
X0463751Y0364633D01*
X0463895Y0364698D01*
X0464041Y0364760D01*
X0464188Y0364818D01*
X0464337Y0364873D01*
X0464487Y0364924D01*
X0464638Y0364971D01*
X0464790Y0365014D01*
X0464943Y0365053D01*
X0465098Y0365089D01*
X0465253Y0365120D01*
X0465409Y0365148D01*
X0465565Y0365172D01*
X0465722Y0365192D01*
X0465880Y0365208D01*
X0466037Y0365220D01*
X0466196Y0365228D01*
X0466354Y0365232D01*
X0466512Y0365232D01*
X0466670Y0365228D01*
X0466829Y0365220D01*
X0466986Y0365208D01*
X0467144Y0365192D01*
X0467301Y0365172D01*
X0467457Y0365148D01*
X0467613Y0365120D01*
X0467768Y0365089D01*
X0467923Y0365053D01*
X0468076Y0365014D01*
X0468228Y0364971D01*
X0468379Y0364924D01*
X0468529Y0364873D01*
X0468678Y0364818D01*
X0468825Y0364760D01*
X0468971Y0364698D01*
X0469115Y0364633D01*
X0469257Y0364563D01*
X0469398Y0364491D01*
X0469537Y0364414D01*
X0469673Y0364335D01*
X0469808Y0364251D01*
X0469941Y0364165D01*
X0470071Y0364075D01*
X0470199Y0363982D01*
X0470325Y0363886D01*
X0470448Y0363786D01*
X0470569Y0363684D01*
X0470687Y0363579D01*
X0470802Y0363470D01*
X0470915Y0363359D01*
X0471025Y0363245D01*
X0471132Y0363128D01*
X0471236Y0363009D01*
X0471337Y0362887D01*
X0471434Y0362762D01*
X0471529Y0362635D01*
X0471620Y0362506D01*
X0471709Y0362375D01*
X0471793Y0362241D01*
X0471875Y0362105D01*
X0471953Y0361968D01*
X0472027Y0361828D01*
X0472098Y0361686D01*
X0472166Y0361543D01*
X0472230Y0361398D01*
X0472290Y0361252D01*
X0472346Y0361104D01*
X0472399Y0360955D01*
X0472448Y0360804D01*
X0472493Y0360652D01*
X0472534Y0360499D01*
X0472572Y0360346D01*
X0472605Y0360191D01*
X0472635Y0360035D01*
X0472661Y0359879D01*
X0472682Y0359722D01*
X0472700Y0359565D01*
X0472714Y0359407D01*
X0472724Y0359249D01*
X0472730Y0359091D01*
X0472732Y0358933D01*
X0472730Y0358775D01*
X0472724Y0358617D01*
X0472714Y0358459D01*
X0472700Y0358301D01*
X0472682Y0358144D01*
X0472661Y0357987D01*
X0472635Y0357831D01*
X0472605Y0357675D01*
X0472572Y0357520D01*
X0472534Y0357367D01*
X0472493Y0357214D01*
X0472448Y0357062D01*
X0472399Y0356911D01*
X0472346Y0356762D01*
X0472290Y0356614D01*
X0472230Y0356468D01*
X0472166Y0356323D01*
X0472098Y0356180D01*
X0472027Y0356038D01*
X0471953Y0355898D01*
X0471875Y0355761D01*
X0471793Y0355625D01*
X0471709Y0355491D01*
X0471620Y0355360D01*
X0471529Y0355231D01*
X0471434Y0355104D01*
X0471337Y0354979D01*
X0471236Y0354857D01*
X0471132Y0354738D01*
X0471025Y0354621D01*
X0470915Y0354507D01*
X0470802Y0354396D01*
X0470687Y0354287D01*
X0470569Y0354182D01*
X0470448Y0354080D01*
X0470325Y0353980D01*
X0470199Y0353884D01*
X0470071Y0353791D01*
X0469941Y0353701D01*
X0469808Y0353615D01*
X0469673Y0353531D01*
X0469537Y0353452D01*
X0469398Y0353375D01*
X0469257Y0353303D01*
X0469115Y0353233D01*
X0468971Y0353168D01*
X0468825Y0353106D01*
X0468678Y0353048D01*
X0468529Y0352993D01*
X0468379Y0352942D01*
X0468228Y0352895D01*
X0468076Y0352852D01*
X0467923Y0352813D01*
X0467768Y0352777D01*
X0467613Y0352746D01*
X0467457Y0352718D01*
X0467301Y0352694D01*
X0467144Y0352674D01*
X0466986Y0352658D01*
X0466829Y0352646D01*
X0466670Y0352638D01*
X0466512Y0352634D01*
X0466354Y0352634D01*
X0466196Y0352638D01*
X0466037Y0352646D01*
X0465880Y0352658D01*
X0465722Y0352674D01*
X0465565Y0352694D01*
X0465409Y0352718D01*
X0465253Y0352746D01*
X0465098Y0352777D01*
X0464943Y0352813D01*
X0464790Y0352852D01*
X0464638Y0352895D01*
X0464487Y0352942D01*
X0464337Y0352993D01*
X0464188Y0353048D01*
X0464041Y0353106D01*
X0463895Y0353168D01*
X0463751Y0353233D01*
X0463609Y0353303D01*
X0463468Y0353375D01*
X0463329Y0353452D01*
X0463193Y0353531D01*
X0463058Y0353615D01*
X0462925Y0353701D01*
X0462795Y0353791D01*
X0462667Y0353884D01*
X0462541Y0353980D01*
X0462418Y0354080D01*
X0462297Y0354182D01*
X0462179Y0354287D01*
X0462064Y0354396D01*
X0461951Y0354507D01*
X0461841Y0354621D01*
X0461734Y0354738D01*
X0461630Y0354857D01*
X0461529Y0354979D01*
X0461432Y0355104D01*
X0461337Y0355231D01*
X0461246Y0355360D01*
X0461157Y0355491D01*
X0461073Y0355625D01*
X0460991Y0355761D01*
X0460913Y0355898D01*
X0460839Y0356038D01*
X0460768Y0356180D01*
X0460700Y0356323D01*
X0460636Y0356468D01*
X0460576Y0356614D01*
X0460520Y0356762D01*
X0460467Y0356911D01*
X0460418Y0357062D01*
X0460373Y0357214D01*
X0460332Y0357367D01*
X0460294Y0357520D01*
X0460261Y0357675D01*
X0460231Y0357831D01*
X0460205Y0357987D01*
X0460184Y0358144D01*
X0460166Y0358301D01*
X0460152Y0358459D01*
X0460142Y0358617D01*
X0460136Y0358775D01*
X0460134Y0358933D01*
X0095134Y0358933D02*
X0095136Y0359091D01*
X0095142Y0359249D01*
X0095152Y0359407D01*
X0095166Y0359565D01*
X0095184Y0359722D01*
X0095205Y0359879D01*
X0095231Y0360035D01*
X0095261Y0360191D01*
X0095294Y0360346D01*
X0095332Y0360499D01*
X0095373Y0360652D01*
X0095418Y0360804D01*
X0095467Y0360955D01*
X0095520Y0361104D01*
X0095576Y0361252D01*
X0095636Y0361398D01*
X0095700Y0361543D01*
X0095768Y0361686D01*
X0095839Y0361828D01*
X0095913Y0361968D01*
X0095991Y0362105D01*
X0096073Y0362241D01*
X0096157Y0362375D01*
X0096246Y0362506D01*
X0096337Y0362635D01*
X0096432Y0362762D01*
X0096529Y0362887D01*
X0096630Y0363009D01*
X0096734Y0363128D01*
X0096841Y0363245D01*
X0096951Y0363359D01*
X0097064Y0363470D01*
X0097179Y0363579D01*
X0097297Y0363684D01*
X0097418Y0363786D01*
X0097541Y0363886D01*
X0097667Y0363982D01*
X0097795Y0364075D01*
X0097925Y0364165D01*
X0098058Y0364251D01*
X0098193Y0364335D01*
X0098329Y0364414D01*
X0098468Y0364491D01*
X0098609Y0364563D01*
X0098751Y0364633D01*
X0098895Y0364698D01*
X0099041Y0364760D01*
X0099188Y0364818D01*
X0099337Y0364873D01*
X0099487Y0364924D01*
X0099638Y0364971D01*
X0099790Y0365014D01*
X0099943Y0365053D01*
X0100098Y0365089D01*
X0100253Y0365120D01*
X0100409Y0365148D01*
X0100565Y0365172D01*
X0100722Y0365192D01*
X0100880Y0365208D01*
X0101037Y0365220D01*
X0101196Y0365228D01*
X0101354Y0365232D01*
X0101512Y0365232D01*
X0101670Y0365228D01*
X0101829Y0365220D01*
X0101986Y0365208D01*
X0102144Y0365192D01*
X0102301Y0365172D01*
X0102457Y0365148D01*
X0102613Y0365120D01*
X0102768Y0365089D01*
X0102923Y0365053D01*
X0103076Y0365014D01*
X0103228Y0364971D01*
X0103379Y0364924D01*
X0103529Y0364873D01*
X0103678Y0364818D01*
X0103825Y0364760D01*
X0103971Y0364698D01*
X0104115Y0364633D01*
X0104257Y0364563D01*
X0104398Y0364491D01*
X0104537Y0364414D01*
X0104673Y0364335D01*
X0104808Y0364251D01*
X0104941Y0364165D01*
X0105071Y0364075D01*
X0105199Y0363982D01*
X0105325Y0363886D01*
X0105448Y0363786D01*
X0105569Y0363684D01*
X0105687Y0363579D01*
X0105802Y0363470D01*
X0105915Y0363359D01*
X0106025Y0363245D01*
X0106132Y0363128D01*
X0106236Y0363009D01*
X0106337Y0362887D01*
X0106434Y0362762D01*
X0106529Y0362635D01*
X0106620Y0362506D01*
X0106709Y0362375D01*
X0106793Y0362241D01*
X0106875Y0362105D01*
X0106953Y0361968D01*
X0107027Y0361828D01*
X0107098Y0361686D01*
X0107166Y0361543D01*
X0107230Y0361398D01*
X0107290Y0361252D01*
X0107346Y0361104D01*
X0107399Y0360955D01*
X0107448Y0360804D01*
X0107493Y0360652D01*
X0107534Y0360499D01*
X0107572Y0360346D01*
X0107605Y0360191D01*
X0107635Y0360035D01*
X0107661Y0359879D01*
X0107682Y0359722D01*
X0107700Y0359565D01*
X0107714Y0359407D01*
X0107724Y0359249D01*
X0107730Y0359091D01*
X0107732Y0358933D01*
X0107730Y0358775D01*
X0107724Y0358617D01*
X0107714Y0358459D01*
X0107700Y0358301D01*
X0107682Y0358144D01*
X0107661Y0357987D01*
X0107635Y0357831D01*
X0107605Y0357675D01*
X0107572Y0357520D01*
X0107534Y0357367D01*
X0107493Y0357214D01*
X0107448Y0357062D01*
X0107399Y0356911D01*
X0107346Y0356762D01*
X0107290Y0356614D01*
X0107230Y0356468D01*
X0107166Y0356323D01*
X0107098Y0356180D01*
X0107027Y0356038D01*
X0106953Y0355898D01*
X0106875Y0355761D01*
X0106793Y0355625D01*
X0106709Y0355491D01*
X0106620Y0355360D01*
X0106529Y0355231D01*
X0106434Y0355104D01*
X0106337Y0354979D01*
X0106236Y0354857D01*
X0106132Y0354738D01*
X0106025Y0354621D01*
X0105915Y0354507D01*
X0105802Y0354396D01*
X0105687Y0354287D01*
X0105569Y0354182D01*
X0105448Y0354080D01*
X0105325Y0353980D01*
X0105199Y0353884D01*
X0105071Y0353791D01*
X0104941Y0353701D01*
X0104808Y0353615D01*
X0104673Y0353531D01*
X0104537Y0353452D01*
X0104398Y0353375D01*
X0104257Y0353303D01*
X0104115Y0353233D01*
X0103971Y0353168D01*
X0103825Y0353106D01*
X0103678Y0353048D01*
X0103529Y0352993D01*
X0103379Y0352942D01*
X0103228Y0352895D01*
X0103076Y0352852D01*
X0102923Y0352813D01*
X0102768Y0352777D01*
X0102613Y0352746D01*
X0102457Y0352718D01*
X0102301Y0352694D01*
X0102144Y0352674D01*
X0101986Y0352658D01*
X0101829Y0352646D01*
X0101670Y0352638D01*
X0101512Y0352634D01*
X0101354Y0352634D01*
X0101196Y0352638D01*
X0101037Y0352646D01*
X0100880Y0352658D01*
X0100722Y0352674D01*
X0100565Y0352694D01*
X0100409Y0352718D01*
X0100253Y0352746D01*
X0100098Y0352777D01*
X0099943Y0352813D01*
X0099790Y0352852D01*
X0099638Y0352895D01*
X0099487Y0352942D01*
X0099337Y0352993D01*
X0099188Y0353048D01*
X0099041Y0353106D01*
X0098895Y0353168D01*
X0098751Y0353233D01*
X0098609Y0353303D01*
X0098468Y0353375D01*
X0098329Y0353452D01*
X0098193Y0353531D01*
X0098058Y0353615D01*
X0097925Y0353701D01*
X0097795Y0353791D01*
X0097667Y0353884D01*
X0097541Y0353980D01*
X0097418Y0354080D01*
X0097297Y0354182D01*
X0097179Y0354287D01*
X0097064Y0354396D01*
X0096951Y0354507D01*
X0096841Y0354621D01*
X0096734Y0354738D01*
X0096630Y0354857D01*
X0096529Y0354979D01*
X0096432Y0355104D01*
X0096337Y0355231D01*
X0096246Y0355360D01*
X0096157Y0355491D01*
X0096073Y0355625D01*
X0095991Y0355761D01*
X0095913Y0355898D01*
X0095839Y0356038D01*
X0095768Y0356180D01*
X0095700Y0356323D01*
X0095636Y0356468D01*
X0095576Y0356614D01*
X0095520Y0356762D01*
X0095467Y0356911D01*
X0095418Y0357062D01*
X0095373Y0357214D01*
X0095332Y0357367D01*
X0095294Y0357520D01*
X0095261Y0357675D01*
X0095231Y0357831D01*
X0095205Y0357987D01*
X0095184Y0358144D01*
X0095166Y0358301D01*
X0095152Y0358459D01*
X0095142Y0358617D01*
X0095136Y0358775D01*
X0095134Y0358933D01*
D11*
X0120414Y0324149D03*
X0116587Y0314911D03*
X0112760Y0305672D03*
X0108933Y0296433D03*
X0116433Y0278933D03*
X0116433Y0268933D03*
X0116433Y0258933D03*
X0116433Y0248933D03*
X0096433Y0248933D03*
X0096433Y0258933D03*
X0096433Y0268933D03*
X0096433Y0278933D03*
X0111433Y0223933D03*
X0118933Y0191433D03*
X0118933Y0181433D03*
X0118933Y0171433D03*
X0118933Y0161433D03*
X0096433Y0161433D03*
X0096433Y0171433D03*
X0096433Y0181433D03*
X0096433Y0191433D03*
X0106321Y0142202D03*
X0110148Y0132963D03*
X0113974Y0123725D03*
X0117801Y0114486D03*
X0149761Y0128266D03*
X0159761Y0128266D03*
X0176433Y0151433D03*
X0186433Y0151433D03*
X0196433Y0151433D03*
X0191433Y0181433D03*
X0181433Y0181433D03*
X0201433Y0181433D03*
X0201433Y0208933D03*
X0211433Y0208933D03*
X0221433Y0208933D03*
X0231433Y0208933D03*
X0241433Y0208933D03*
X0251433Y0208933D03*
X0261433Y0208933D03*
X0271433Y0208933D03*
X0281433Y0208933D03*
X0291433Y0208933D03*
X0301433Y0208933D03*
X0311433Y0208933D03*
X0321433Y0208933D03*
X0331433Y0208933D03*
X0341433Y0208933D03*
X0351433Y0208933D03*
X0361433Y0208933D03*
X0371433Y0208933D03*
X0381433Y0208933D03*
X0381433Y0228933D03*
X0381433Y0238933D03*
X0351433Y0238933D03*
X0341433Y0238933D03*
X0331433Y0238933D03*
X0321433Y0238933D03*
X0321433Y0248933D03*
X0331433Y0248933D03*
X0341433Y0248933D03*
X0351433Y0248933D03*
X0351433Y0268933D03*
X0341433Y0268933D03*
X0331433Y0268933D03*
X0321433Y0268933D03*
X0311433Y0268933D03*
X0301433Y0268933D03*
X0291433Y0268933D03*
X0281433Y0268933D03*
X0271433Y0268933D03*
X0261433Y0268933D03*
X0251433Y0268933D03*
X0241433Y0268933D03*
X0231433Y0268933D03*
X0221433Y0268933D03*
X0211433Y0268933D03*
X0201433Y0268933D03*
X0191433Y0268933D03*
X0176433Y0338933D03*
X0185672Y0342760D03*
X0194911Y0346587D03*
X0204149Y0350414D03*
X0226433Y0341433D03*
X0236433Y0341433D03*
X0246433Y0341433D03*
X0256433Y0341433D03*
X0256433Y0361433D03*
X0246433Y0361433D03*
X0236433Y0361433D03*
X0226433Y0361433D03*
X0278933Y0351433D03*
X0311433Y0341433D03*
X0321433Y0341433D03*
X0331433Y0341433D03*
X0341433Y0341433D03*
X0363535Y0350059D03*
X0372773Y0346232D03*
X0382012Y0342406D03*
X0391251Y0338579D03*
X0442453Y0324149D03*
X0446279Y0314911D03*
X0450106Y0305672D03*
X0453933Y0296433D03*
X0463564Y0277427D03*
X0463564Y0267427D03*
X0463564Y0257427D03*
X0463564Y0247427D03*
X0441064Y0247427D03*
X0441064Y0257427D03*
X0441064Y0267427D03*
X0441064Y0277427D03*
X0381433Y0268933D03*
X0371433Y0268933D03*
X0361433Y0268933D03*
X0453222Y0212775D03*
X0463059Y0190468D03*
X0463059Y0180468D03*
X0463059Y0170468D03*
X0463059Y0160468D03*
X0451433Y0141433D03*
X0447606Y0132194D03*
X0443779Y0122955D03*
X0439953Y0113717D03*
X0423933Y0088933D03*
X0390340Y0091181D03*
X0381101Y0087354D03*
X0371862Y0083527D03*
X0362624Y0079700D03*
X0341433Y0071433D03*
X0331433Y0071433D03*
X0321433Y0071433D03*
X0311433Y0071433D03*
X0289012Y0079212D03*
X0311433Y0091433D03*
X0321433Y0091433D03*
X0331433Y0091433D03*
X0341433Y0091433D03*
X0336433Y0151433D03*
X0326433Y0151433D03*
X0316433Y0151433D03*
X0306433Y0151433D03*
X0296433Y0151433D03*
X0286433Y0151433D03*
X0276433Y0151433D03*
X0266433Y0151433D03*
X0256433Y0151433D03*
X0246433Y0151433D03*
X0246433Y0181433D03*
X0256433Y0181433D03*
X0266433Y0181433D03*
X0276433Y0181433D03*
X0286433Y0181433D03*
X0296433Y0181433D03*
X0306433Y0181433D03*
X0316433Y0181433D03*
X0326433Y0181433D03*
X0336433Y0181433D03*
X0346433Y0181433D03*
X0356433Y0181433D03*
X0366433Y0181433D03*
X0376433Y0181433D03*
X0386433Y0181433D03*
X0396433Y0181433D03*
X0440559Y0180468D03*
X0440559Y0170468D03*
X0440559Y0160468D03*
X0440559Y0190468D03*
X0396433Y0151433D03*
X0386433Y0151433D03*
X0376433Y0151433D03*
X0366433Y0151433D03*
X0356433Y0151433D03*
X0346433Y0151433D03*
X0256433Y0091433D03*
X0246433Y0091433D03*
X0236433Y0091433D03*
X0226433Y0091433D03*
X0206433Y0078933D03*
X0197194Y0082760D03*
X0187955Y0086587D03*
X0178717Y0090414D03*
X0159761Y0098266D03*
X0149761Y0098266D03*
X0128933Y0086433D03*
X0148707Y0078977D03*
X0160107Y0078977D03*
X0226433Y0071433D03*
X0236433Y0071433D03*
X0246433Y0071433D03*
X0256433Y0071433D03*
X0311433Y0361433D03*
X0321433Y0361433D03*
X0331433Y0361433D03*
X0341433Y0361433D03*
D12*
X0288933Y0351433D03*
X0381433Y0248933D03*
X0453222Y0222775D03*
X0413933Y0088933D03*
X0279012Y0079212D03*
X0206433Y0151433D03*
X0191433Y0208933D03*
X0111433Y0213933D03*
X0118933Y0086433D03*
D13*
X0250433Y0237333D03*
X0250433Y0242533D03*
D14*
X0256433Y0245808D02*
X0256433Y0238308D01*
X0256433Y0245808D02*
X0195183Y0245808D01*
X0195183Y0253933D02*
X0263308Y0253933D01*
X0266433Y0250808D01*
X0265808Y0243933D02*
X0254558Y0232683D01*
X0142058Y0232683D01*
X0137058Y0237683D01*
X0117683Y0237683D01*
X0096433Y0258933D01*
X0101433Y0257058D02*
X0101433Y0278933D01*
X0096433Y0278933D01*
X0103933Y0293933D02*
X0111433Y0286433D01*
X0275808Y0286433D01*
X0277058Y0285183D01*
X0274558Y0280183D02*
X0280808Y0273933D01*
X0286433Y0273933D01*
X0303308Y0290808D01*
X0295808Y0292058D02*
X0286433Y0282683D01*
X0182683Y0282683D01*
X0177058Y0277683D02*
X0250183Y0277683D01*
X0258933Y0268933D01*
X0261433Y0268933D01*
X0265183Y0272683D02*
X0262683Y0275183D01*
X0265183Y0272683D02*
X0266433Y0272683D01*
X0266433Y0267058D01*
X0269558Y0263933D01*
X0273308Y0263933D01*
X0286433Y0250808D01*
X0293933Y0255183D02*
X0393308Y0255183D01*
X0394558Y0256433D01*
X0384558Y0243933D02*
X0265808Y0243933D01*
X0276433Y0250808D02*
X0264558Y0262683D01*
X0210808Y0262683D01*
X0205183Y0262683D02*
X0211433Y0268933D01*
X0205183Y0262683D02*
X0182683Y0262683D01*
X0181433Y0261433D01*
X0178933Y0258933D02*
X0235183Y0258933D01*
X0237683Y0256433D01*
X0241433Y0268933D02*
X0235183Y0275183D01*
X0128308Y0275183D01*
X0124558Y0271433D01*
X0116433Y0268933D02*
X0137683Y0268933D01*
X0143308Y0263308D01*
X0153308Y0258933D02*
X0155808Y0256433D01*
X0155183Y0253933D02*
X0158933Y0253933D01*
X0178933Y0273933D01*
X0226433Y0273933D01*
X0231433Y0268933D01*
X0243933Y0276433D02*
X0251433Y0268933D01*
X0256433Y0277683D02*
X0266433Y0277683D01*
X0268933Y0280183D01*
X0266433Y0275183D02*
X0267683Y0273933D01*
X0274558Y0273933D01*
X0286433Y0273933D02*
X0291433Y0268933D01*
X0302683Y0257683D01*
X0375183Y0257683D01*
X0384558Y0243933D02*
X0385808Y0242683D01*
X0385183Y0238933D02*
X0381433Y0238933D01*
X0385183Y0238933D02*
X0394558Y0229558D01*
X0403933Y0238933D01*
X0409558Y0238933D01*
X0409558Y0228308D01*
X0404558Y0220808D02*
X0223933Y0220808D01*
X0217683Y0223308D02*
X0302058Y0223308D01*
X0306433Y0227683D01*
X0305808Y0218933D02*
X0305183Y0218308D01*
X0305808Y0218933D02*
X0392683Y0218933D01*
X0393308Y0218308D01*
X0407058Y0218308D01*
X0417058Y0220808D02*
X0422058Y0220808D01*
X0423308Y0219558D01*
X0420808Y0217058D02*
X0419558Y0215808D01*
X0393933Y0215808D01*
X0392058Y0217683D01*
X0320183Y0217683D01*
X0318933Y0216433D01*
X0317683Y0213933D02*
X0383308Y0213933D01*
X0392683Y0204558D01*
X0430808Y0204558D01*
X0435808Y0199558D01*
X0450808Y0199558D01*
X0452058Y0198308D01*
X0452058Y0180808D01*
X0440808Y0180808D01*
X0440559Y0180468D01*
X0438933Y0175183D02*
X0458308Y0175183D01*
X0462683Y0170808D01*
X0463059Y0170468D01*
X0468933Y0165183D02*
X0454558Y0165183D01*
X0462683Y0160183D02*
X0463059Y0160468D01*
X0462683Y0160183D02*
X0458308Y0155808D01*
X0428308Y0155808D01*
X0427058Y0153308D02*
X0462683Y0153308D01*
X0470183Y0160808D01*
X0470183Y0241433D01*
X0447058Y0241433D01*
X0441433Y0247058D01*
X0441064Y0247427D01*
X0436433Y0249558D02*
X0438933Y0252058D01*
X0445808Y0252058D01*
X0445808Y0279558D01*
X0443308Y0282058D01*
X0327058Y0282058D01*
X0288308Y0320808D01*
X0284558Y0320808D02*
X0296433Y0332683D01*
X0385183Y0332683D01*
X0390808Y0338308D01*
X0391251Y0338579D01*
X0386433Y0339558D02*
X0386433Y0340808D01*
X0387058Y0341433D01*
X0387058Y0347683D01*
X0374558Y0347683D01*
X0373308Y0346433D01*
X0372773Y0346232D01*
X0365808Y0340808D02*
X0380183Y0340808D01*
X0381433Y0342058D01*
X0382012Y0342406D01*
X0386433Y0339558D02*
X0382058Y0335183D01*
X0285183Y0335183D01*
X0280808Y0330808D01*
X0278933Y0332683D02*
X0282683Y0336433D01*
X0316433Y0336433D01*
X0321433Y0341433D01*
X0311433Y0341433D02*
X0285808Y0341433D01*
X0278308Y0333933D01*
X0151433Y0333933D01*
X0127058Y0309558D01*
X0129558Y0307058D02*
X0155183Y0332683D01*
X0278933Y0332683D01*
X0263933Y0336433D02*
X0197683Y0336433D01*
X0226433Y0361433D02*
X0143700Y0361433D01*
X0139754Y0363504D02*
X0129987Y0353737D01*
X0122916Y0350808D02*
X0098933Y0350808D01*
X0098691Y0350805D01*
X0098450Y0350796D01*
X0098209Y0350782D01*
X0097968Y0350761D01*
X0097728Y0350735D01*
X0097488Y0350703D01*
X0097249Y0350665D01*
X0097012Y0350622D01*
X0096775Y0350572D01*
X0096540Y0350517D01*
X0096306Y0350457D01*
X0096074Y0350390D01*
X0095843Y0350319D01*
X0095614Y0350241D01*
X0095387Y0350158D01*
X0095162Y0350070D01*
X0094939Y0349976D01*
X0094719Y0349877D01*
X0094501Y0349772D01*
X0094286Y0349663D01*
X0094073Y0349548D01*
X0093863Y0349428D01*
X0093657Y0349303D01*
X0093453Y0349173D01*
X0093252Y0349038D01*
X0093055Y0348898D01*
X0092861Y0348754D01*
X0092671Y0348605D01*
X0092485Y0348451D01*
X0092302Y0348293D01*
X0092123Y0348131D01*
X0091948Y0347964D01*
X0091777Y0347793D01*
X0091610Y0347618D01*
X0091448Y0347439D01*
X0091290Y0347256D01*
X0091136Y0347070D01*
X0090987Y0346880D01*
X0090843Y0346686D01*
X0090703Y0346489D01*
X0090568Y0346288D01*
X0090438Y0346084D01*
X0090313Y0345878D01*
X0090193Y0345668D01*
X0090078Y0345455D01*
X0089969Y0345240D01*
X0089864Y0345022D01*
X0089765Y0344802D01*
X0089671Y0344579D01*
X0089583Y0344354D01*
X0089500Y0344127D01*
X0089422Y0343898D01*
X0089351Y0343667D01*
X0089284Y0343435D01*
X0089224Y0343201D01*
X0089169Y0342966D01*
X0089119Y0342729D01*
X0089076Y0342492D01*
X0089038Y0342253D01*
X0089006Y0342013D01*
X0088980Y0341773D01*
X0088959Y0341532D01*
X0088945Y0341291D01*
X0088936Y0341050D01*
X0088933Y0340808D01*
X0088933Y0103933D01*
X0127683Y0065183D01*
X0283933Y0065183D01*
X0285183Y0062683D02*
X0129558Y0062683D01*
X0168933Y0095808D02*
X0215183Y0095808D01*
X0224558Y0086433D01*
X0251433Y0086433D01*
X0256433Y0091433D01*
X0261433Y0092058D02*
X0261433Y0078933D01*
X0233933Y0078933D01*
X0226433Y0071433D01*
X0215808Y0083933D02*
X0198308Y0083933D01*
X0197683Y0083308D01*
X0197194Y0082760D01*
X0215808Y0083933D02*
X0216433Y0084558D01*
X0226433Y0091433D02*
X0220808Y0097058D01*
X0210183Y0097058D01*
X0205183Y0102058D01*
X0223308Y0104558D02*
X0236433Y0091433D01*
X0223308Y0104558D02*
X0163933Y0104558D01*
X0162058Y0106433D01*
X0160183Y0104558D02*
X0168933Y0095808D01*
X0160183Y0104558D02*
X0090183Y0104558D01*
X0090183Y0201433D01*
X0107683Y0218933D01*
X0113308Y0218933D01*
X0117058Y0222683D01*
X0160808Y0222683D01*
X0158308Y0223933D02*
X0150183Y0223933D01*
X0150183Y0225183D01*
X0150183Y0223933D02*
X0111433Y0223933D01*
X0115183Y0230183D02*
X0096433Y0248933D01*
X0101433Y0257058D02*
X0119558Y0238933D01*
X0206433Y0238933D01*
X0210183Y0235183D01*
X0198933Y0225183D02*
X0169558Y0225183D01*
X0164558Y0220183D01*
X0142058Y0220183D01*
X0142058Y0215183D02*
X0146433Y0210808D01*
X0168933Y0210808D01*
X0169558Y0211433D01*
X0185183Y0211433D01*
X0189558Y0215808D01*
X0315808Y0215808D01*
X0317683Y0213933D01*
X0326433Y0203933D02*
X0302683Y0203933D01*
X0301433Y0202683D01*
X0299558Y0200183D02*
X0332683Y0200183D01*
X0341433Y0208933D01*
X0342058Y0203933D02*
X0356433Y0203933D01*
X0361433Y0208933D01*
X0365183Y0195808D02*
X0414558Y0195808D01*
X0439558Y0170808D01*
X0440183Y0170808D01*
X0440559Y0170468D01*
X0438933Y0175183D02*
X0422058Y0192058D01*
X0419558Y0183933D02*
X0397683Y0162058D01*
X0297058Y0162058D01*
X0286433Y0151433D01*
X0281433Y0153308D02*
X0281433Y0146433D01*
X0371433Y0146433D01*
X0376433Y0151433D01*
X0386433Y0151433D02*
X0391433Y0156433D01*
X0401433Y0156433D01*
X0401433Y0149558D01*
X0385183Y0133308D01*
X0126433Y0133308D01*
X0123933Y0135808D01*
X0120183Y0140808D02*
X0282058Y0140808D01*
X0284558Y0138308D01*
X0282058Y0135808D02*
X0279558Y0138308D01*
X0109558Y0138308D01*
X0108933Y0137683D01*
X0107683Y0137683D01*
X0107058Y0137058D01*
X0103933Y0137058D01*
X0096433Y0144558D01*
X0096433Y0161433D01*
X0091433Y0163308D02*
X0094558Y0166433D01*
X0113933Y0166433D01*
X0118933Y0161433D01*
X0122683Y0167058D02*
X0122683Y0168308D01*
X0123933Y0169558D01*
X0123933Y0173308D01*
X0200808Y0173308D01*
X0201433Y0172683D01*
X0357683Y0172683D01*
X0366433Y0181433D01*
X0361433Y0184558D02*
X0359558Y0186433D01*
X0341433Y0186433D01*
X0336433Y0181433D01*
X0332683Y0190808D02*
X0305808Y0190808D01*
X0296433Y0181433D01*
X0286433Y0181433D02*
X0298308Y0193308D01*
X0366433Y0193308D01*
X0365183Y0195808D02*
X0363933Y0194558D01*
X0307683Y0194558D01*
X0305183Y0197058D01*
X0236433Y0197058D01*
X0236433Y0210808D01*
X0233308Y0213933D01*
X0205808Y0213933D01*
X0205183Y0213308D01*
X0211433Y0202058D02*
X0224558Y0202058D01*
X0231433Y0208933D01*
X0221433Y0208933D02*
X0215808Y0203308D01*
X0157683Y0203308D01*
X0153933Y0213308D02*
X0149558Y0217683D01*
X0123308Y0217683D01*
X0116433Y0208933D02*
X0170808Y0208933D01*
X0191433Y0208933D01*
X0182683Y0213933D02*
X0172058Y0213933D01*
X0170808Y0215183D01*
X0168933Y0217058D02*
X0153933Y0217058D01*
X0158308Y0223933D02*
X0160808Y0226433D01*
X0170808Y0222683D02*
X0177058Y0216433D01*
X0178933Y0216433D01*
X0170808Y0218933D02*
X0168933Y0217058D01*
X0181433Y0197058D02*
X0102058Y0197058D01*
X0096433Y0191433D01*
X0116433Y0208933D02*
X0111433Y0213933D01*
X0115183Y0230183D02*
X0370808Y0230183D01*
X0372058Y0228933D01*
X0377058Y0231433D02*
X0379558Y0233933D01*
X0386433Y0233933D01*
X0394558Y0225808D01*
X0424558Y0225808D01*
X0430808Y0219558D01*
X0430808Y0214558D01*
X0440808Y0214558D01*
X0433308Y0218933D02*
X0415808Y0236433D01*
X0409558Y0238933D02*
X0425183Y0238933D01*
X0430808Y0233308D01*
X0440808Y0223308D01*
X0452683Y0223308D01*
X0453222Y0222775D01*
X0447683Y0227683D02*
X0462058Y0227683D01*
X0463308Y0230183D02*
X0456433Y0230183D01*
X0445808Y0240808D01*
X0436433Y0240808D01*
X0436433Y0249558D01*
X0419558Y0259558D02*
X0437058Y0277058D01*
X0440808Y0277058D01*
X0441064Y0277427D01*
X0458933Y0277058D02*
X0463308Y0277058D01*
X0463564Y0277427D01*
X0458933Y0277058D02*
X0458933Y0245183D01*
X0461433Y0242683D01*
X0471433Y0242683D01*
X0471433Y0160183D01*
X0463308Y0152058D01*
X0454558Y0152058D01*
X0419558Y0117058D01*
X0280808Y0117058D01*
X0278308Y0114558D02*
X0309558Y0114558D01*
X0306433Y0122058D02*
X0279558Y0122058D01*
X0278308Y0123308D01*
X0275808Y0120808D02*
X0277058Y0119558D01*
X0301433Y0119558D01*
X0303933Y0124558D02*
X0282058Y0124558D01*
X0280808Y0125808D01*
X0282683Y0112058D02*
X0235183Y0112058D01*
X0216433Y0130808D01*
X0208933Y0130808D01*
X0220183Y0123308D02*
X0147683Y0123308D01*
X0142058Y0128933D01*
X0113933Y0128933D01*
X0110183Y0132683D01*
X0110148Y0132963D01*
X0106321Y0142202D02*
X0106433Y0142683D01*
X0113308Y0149558D01*
X0171433Y0149558D01*
X0176433Y0144558D01*
X0387683Y0144558D01*
X0391433Y0148308D01*
X0396433Y0149558D02*
X0390183Y0143308D01*
X0125183Y0143308D01*
X0121433Y0147058D01*
X0117683Y0147058D02*
X0122683Y0142058D01*
X0285808Y0142058D01*
X0287058Y0140808D01*
X0296433Y0151433D02*
X0305808Y0160808D01*
X0425808Y0160808D01*
X0430808Y0165808D01*
X0443933Y0165808D01*
X0428308Y0159558D02*
X0314558Y0159558D01*
X0306433Y0151433D01*
X0316433Y0151433D02*
X0322683Y0157683D01*
X0422683Y0157683D01*
X0427058Y0153308D01*
X0445808Y0137683D02*
X0448308Y0137683D01*
X0449558Y0136433D01*
X0453933Y0136433D01*
X0477058Y0159558D01*
X0477058Y0247058D01*
X0463933Y0247058D01*
X0463564Y0247427D01*
X0463933Y0257058D02*
X0463564Y0257427D01*
X0463933Y0257058D02*
X0478308Y0257058D01*
X0478308Y0153308D01*
X0452058Y0127058D01*
X0447058Y0127058D01*
X0444558Y0128308D01*
X0442058Y0128308D01*
X0416433Y0102683D01*
X0281433Y0102683D01*
X0275808Y0097058D01*
X0278308Y0094558D02*
X0285183Y0101433D01*
X0443308Y0101433D01*
X0459558Y0117683D01*
X0442683Y0113933D02*
X0440183Y0113933D01*
X0439953Y0113717D01*
X0442683Y0113933D02*
X0470183Y0141433D01*
X0467683Y0146433D02*
X0453933Y0132683D01*
X0447683Y0132683D01*
X0447606Y0132194D01*
X0445808Y0137683D02*
X0412058Y0103933D01*
X0278933Y0103933D01*
X0272058Y0097058D01*
X0276433Y0105183D02*
X0262683Y0091433D01*
X0262683Y0077683D01*
X0252683Y0077683D01*
X0246433Y0071433D01*
X0256433Y0071433D02*
X0257058Y0070808D01*
X0287683Y0070808D01*
X0293308Y0076433D01*
X0343308Y0076433D01*
X0345183Y0074558D01*
X0380808Y0074558D01*
X0369558Y0078308D02*
X0367683Y0080183D01*
X0367683Y0081433D01*
X0366433Y0082683D01*
X0366433Y0085183D01*
X0295183Y0085183D01*
X0289558Y0079558D01*
X0289012Y0079212D01*
X0288933Y0078933D01*
X0284558Y0074558D01*
X0267683Y0074558D01*
X0266433Y0073308D01*
X0263308Y0075183D02*
X0267058Y0078933D01*
X0278933Y0078933D01*
X0279012Y0079212D01*
X0279558Y0079558D01*
X0297058Y0097058D01*
X0297683Y0096433D01*
X0342058Y0096433D01*
X0343933Y0098308D01*
X0377683Y0098308D01*
X0385183Y0090808D01*
X0385183Y0089558D01*
X0386433Y0088308D01*
X0386433Y0085808D01*
X0410808Y0085808D01*
X0413933Y0088933D01*
X0423933Y0088933D02*
X0413308Y0078308D01*
X0369558Y0078308D01*
X0371862Y0083527D02*
X0371433Y0083933D01*
X0359558Y0095808D01*
X0345183Y0095808D01*
X0334558Y0099558D02*
X0333933Y0098933D01*
X0334558Y0099558D02*
X0382058Y0099558D01*
X0390183Y0091433D01*
X0390340Y0091181D01*
X0373933Y0110808D02*
X0368308Y0105183D01*
X0276433Y0105183D01*
X0275808Y0106433D02*
X0261433Y0092058D01*
X0275808Y0106433D02*
X0365808Y0106433D01*
X0373933Y0114558D01*
X0363933Y0108933D02*
X0091433Y0108933D01*
X0091433Y0163308D01*
X0118933Y0171433D02*
X0118933Y0176433D01*
X0121433Y0176433D01*
X0123308Y0178308D01*
X0177683Y0178308D01*
X0179558Y0176433D01*
X0183308Y0176433D01*
X0186433Y0179558D01*
X0186433Y0184558D01*
X0187683Y0184558D01*
X0189558Y0186433D01*
X0217058Y0186433D01*
X0228308Y0175183D01*
X0215183Y0170183D02*
X0373933Y0170183D01*
X0375183Y0167683D02*
X0386433Y0178933D01*
X0386433Y0181433D01*
X0376433Y0181433D02*
X0366433Y0171433D01*
X0127058Y0171433D01*
X0126433Y0170808D01*
X0172683Y0180808D02*
X0181433Y0189558D01*
X0220183Y0189558D01*
X0221433Y0190808D01*
X0280183Y0190808D01*
X0283933Y0194558D01*
X0271433Y0193308D02*
X0268933Y0195808D01*
X0182683Y0195808D01*
X0181433Y0197058D01*
X0180183Y0194558D02*
X0216433Y0194558D01*
X0218933Y0192058D01*
X0211433Y0202058D02*
X0207683Y0198308D01*
X0187683Y0192058D02*
X0186433Y0190808D01*
X0172683Y0190808D01*
X0181433Y0181433D02*
X0188308Y0188308D01*
X0240183Y0188308D01*
X0251433Y0202058D02*
X0246433Y0207058D01*
X0246433Y0213308D01*
X0247683Y0213308D01*
X0298933Y0199558D02*
X0299558Y0200183D01*
X0308933Y0197058D02*
X0449558Y0197058D01*
X0452683Y0200808D02*
X0462683Y0190808D01*
X0463059Y0190468D01*
X0463933Y0195183D02*
X0465183Y0195183D01*
X0467683Y0192683D01*
X0467683Y0180808D01*
X0463308Y0180808D01*
X0463059Y0180468D01*
X0468933Y0165183D02*
X0468933Y0224558D01*
X0463308Y0230183D01*
X0447683Y0227683D02*
X0400183Y0275183D01*
X0330183Y0275183D01*
X0290808Y0314558D01*
X0295808Y0320808D02*
X0297683Y0318933D01*
X0443933Y0318933D01*
X0445183Y0320183D01*
X0448308Y0320183D01*
X0470183Y0298308D01*
X0453933Y0296433D02*
X0453308Y0295808D01*
X0357683Y0295808D01*
X0346433Y0284558D01*
X0336433Y0273933D02*
X0331433Y0268933D01*
X0336433Y0273933D02*
X0387058Y0273933D01*
X0388308Y0272683D01*
X0416433Y0253933D02*
X0439558Y0230808D01*
X0423308Y0223308D02*
X0333933Y0223308D01*
X0331433Y0208933D02*
X0326433Y0203933D01*
X0340808Y0202683D02*
X0342058Y0203933D01*
X0377058Y0231433D02*
X0139558Y0231433D01*
X0138308Y0232683D01*
X0154558Y0245183D02*
X0120183Y0245183D01*
X0116433Y0248933D01*
X0116433Y0258933D02*
X0153308Y0258933D01*
X0155183Y0253933D02*
X0152058Y0250808D01*
X0154558Y0245183D02*
X0158308Y0241433D01*
X0143933Y0248308D02*
X0313933Y0248308D01*
X0319558Y0253933D01*
X0416433Y0253933D01*
X0390808Y0215183D02*
X0385808Y0215183D01*
X0405808Y0202058D02*
X0412058Y0202058D01*
X0415808Y0212058D02*
X0452058Y0212058D01*
X0452683Y0212683D01*
X0453222Y0212775D01*
X0450808Y0208308D02*
X0463933Y0195183D01*
X0452683Y0200808D02*
X0438308Y0200808D01*
X0433308Y0205808D01*
X0424558Y0208308D02*
X0450808Y0208308D01*
X0427058Y0199558D02*
X0388308Y0199558D01*
X0423308Y0209558D02*
X0424558Y0208308D01*
X0383933Y0172058D02*
X0375183Y0163308D01*
X0243933Y0163308D01*
X0240183Y0163308D02*
X0247058Y0156433D01*
X0278308Y0156433D01*
X0281433Y0153308D01*
X0242683Y0147058D02*
X0238308Y0151433D01*
X0206433Y0151433D01*
X0196433Y0151433D02*
X0215183Y0170183D01*
X0202683Y0175183D02*
X0201433Y0176433D01*
X0196433Y0176433D01*
X0191433Y0181433D01*
X0236433Y0163308D02*
X0240808Y0167683D01*
X0375183Y0167683D01*
X0396433Y0151433D02*
X0396433Y0149558D01*
X0350183Y0112058D02*
X0296433Y0112058D01*
X0295808Y0111433D01*
X0283308Y0111433D02*
X0282683Y0112058D01*
X0296433Y0073933D02*
X0285183Y0062683D01*
X0159761Y0128266D02*
X0159558Y0128308D01*
X0150183Y0128308D01*
X0149761Y0128266D01*
X0143308Y0247683D02*
X0143933Y0248308D01*
X0166433Y0257683D02*
X0173933Y0265183D01*
X0187683Y0265183D01*
X0191433Y0268933D01*
X0196433Y0263933D02*
X0201433Y0268933D01*
X0196433Y0263933D02*
X0174558Y0263933D01*
X0174558Y0257683D01*
X0177058Y0255183D01*
X0173308Y0276433D02*
X0172058Y0277683D01*
X0173308Y0276433D02*
X0243933Y0276433D01*
X0278308Y0293308D02*
X0138308Y0293308D01*
X0117058Y0314558D01*
X0116587Y0314911D01*
X0113933Y0323933D02*
X0113691Y0323930D01*
X0113450Y0323921D01*
X0113209Y0323907D01*
X0112968Y0323886D01*
X0112728Y0323860D01*
X0112488Y0323828D01*
X0112249Y0323790D01*
X0112012Y0323747D01*
X0111775Y0323697D01*
X0111540Y0323642D01*
X0111306Y0323582D01*
X0111074Y0323515D01*
X0110843Y0323444D01*
X0110614Y0323366D01*
X0110387Y0323283D01*
X0110162Y0323195D01*
X0109939Y0323101D01*
X0109719Y0323002D01*
X0109501Y0322897D01*
X0109286Y0322788D01*
X0109073Y0322673D01*
X0108863Y0322553D01*
X0108657Y0322428D01*
X0108453Y0322298D01*
X0108252Y0322163D01*
X0108055Y0322023D01*
X0107861Y0321879D01*
X0107671Y0321730D01*
X0107485Y0321576D01*
X0107302Y0321418D01*
X0107123Y0321256D01*
X0106948Y0321089D01*
X0106777Y0320918D01*
X0106610Y0320743D01*
X0106448Y0320564D01*
X0106290Y0320381D01*
X0106136Y0320195D01*
X0105987Y0320005D01*
X0105843Y0319811D01*
X0105703Y0319614D01*
X0105568Y0319413D01*
X0105438Y0319209D01*
X0105313Y0319003D01*
X0105193Y0318793D01*
X0105078Y0318580D01*
X0104969Y0318365D01*
X0104864Y0318147D01*
X0104765Y0317927D01*
X0104671Y0317704D01*
X0104583Y0317479D01*
X0104500Y0317252D01*
X0104422Y0317023D01*
X0104351Y0316792D01*
X0104284Y0316560D01*
X0104224Y0316326D01*
X0104169Y0316091D01*
X0104119Y0315854D01*
X0104076Y0315617D01*
X0104038Y0315378D01*
X0104006Y0315138D01*
X0103980Y0314898D01*
X0103959Y0314657D01*
X0103945Y0314416D01*
X0103936Y0314175D01*
X0103933Y0313933D01*
X0103933Y0293933D01*
X0108933Y0296433D02*
X0117683Y0287683D01*
X0288933Y0287683D01*
X0288933Y0292058D01*
X0287683Y0293308D01*
X0285808Y0293308D01*
X0285808Y0302058D01*
X0287058Y0304558D02*
X0289558Y0302058D01*
X0287058Y0304558D02*
X0223933Y0304558D01*
X0263933Y0336433D02*
X0278933Y0351433D01*
X0295808Y0349558D02*
X0363308Y0349558D01*
X0363535Y0350059D01*
X0360183Y0346433D02*
X0365808Y0340808D01*
X0360183Y0346433D02*
X0300808Y0346433D01*
X0300183Y0345808D01*
X0301433Y0328308D02*
X0303308Y0326433D01*
X0422058Y0326433D01*
X0407683Y0314558D02*
X0445808Y0314558D01*
X0446279Y0314911D01*
X0442058Y0323933D02*
X0442453Y0324149D01*
X0442058Y0323933D02*
X0396433Y0323933D01*
X0393933Y0321433D01*
X0407683Y0314558D02*
X0391433Y0298308D01*
X0402683Y0338308D02*
X0402683Y0366433D01*
X0316433Y0366433D01*
X0311433Y0361433D01*
X0321433Y0361433D02*
X0327683Y0355183D01*
X0385808Y0355183D01*
X0400183Y0340808D01*
X0383308Y0357683D02*
X0382058Y0356433D01*
X0336433Y0356433D01*
X0331433Y0361433D01*
X0341433Y0361433D02*
X0383308Y0361433D01*
X0407058Y0371433D02*
X0273308Y0371433D01*
X0258308Y0356433D01*
X0241433Y0356433D01*
X0236433Y0361433D01*
X0241433Y0366433D02*
X0246433Y0361433D01*
X0241433Y0366433D02*
X0146825Y0366433D01*
X0136629Y0358504D02*
X0091433Y0313308D01*
X0112760Y0305672D02*
X0113308Y0305183D01*
X0128933Y0289558D01*
X0282058Y0289558D01*
X0282683Y0290183D01*
X0279558Y0292058D02*
X0278308Y0293308D01*
X0286433Y0290808D02*
X0275183Y0302058D01*
X0295808Y0302058D02*
X0321433Y0276433D01*
X0321433Y0268933D01*
X0407058Y0371433D02*
X0458933Y0319558D01*
X0177058Y0277683D02*
X0173933Y0280808D01*
X0120414Y0324149D02*
X0120183Y0323933D01*
X0113933Y0323933D01*
X0136629Y0358504D02*
X0136799Y0358670D01*
X0136973Y0358833D01*
X0137151Y0358990D01*
X0137333Y0359144D01*
X0137518Y0359294D01*
X0137707Y0359438D01*
X0137899Y0359579D01*
X0138095Y0359714D01*
X0138294Y0359846D01*
X0138495Y0359972D01*
X0138700Y0360093D01*
X0138908Y0360210D01*
X0139118Y0360321D01*
X0139331Y0360428D01*
X0139546Y0360529D01*
X0139763Y0360626D01*
X0139983Y0360717D01*
X0140205Y0360802D01*
X0140429Y0360883D01*
X0140655Y0360958D01*
X0140883Y0361028D01*
X0141112Y0361092D01*
X0141342Y0361151D01*
X0141574Y0361204D01*
X0141807Y0361252D01*
X0142042Y0361295D01*
X0142277Y0361331D01*
X0142513Y0361362D01*
X0142749Y0361388D01*
X0142987Y0361408D01*
X0143224Y0361422D01*
X0143462Y0361430D01*
X0143700Y0361433D01*
X0139754Y0363504D02*
X0139924Y0363670D01*
X0140098Y0363833D01*
X0140276Y0363990D01*
X0140458Y0364144D01*
X0140643Y0364294D01*
X0140832Y0364438D01*
X0141024Y0364579D01*
X0141220Y0364714D01*
X0141419Y0364846D01*
X0141620Y0364972D01*
X0141825Y0365093D01*
X0142033Y0365210D01*
X0142243Y0365321D01*
X0142456Y0365428D01*
X0142671Y0365529D01*
X0142888Y0365626D01*
X0143108Y0365717D01*
X0143330Y0365802D01*
X0143554Y0365883D01*
X0143780Y0365958D01*
X0144008Y0366028D01*
X0144237Y0366092D01*
X0144467Y0366151D01*
X0144699Y0366204D01*
X0144932Y0366252D01*
X0145167Y0366295D01*
X0145402Y0366331D01*
X0145638Y0366362D01*
X0145874Y0366388D01*
X0146112Y0366408D01*
X0146349Y0366422D01*
X0146587Y0366430D01*
X0146825Y0366433D01*
X0129987Y0353737D02*
X0129817Y0353571D01*
X0129643Y0353408D01*
X0129465Y0353251D01*
X0129283Y0353097D01*
X0129098Y0352947D01*
X0128909Y0352803D01*
X0128717Y0352662D01*
X0128521Y0352527D01*
X0128322Y0352395D01*
X0128121Y0352269D01*
X0127916Y0352148D01*
X0127708Y0352031D01*
X0127498Y0351920D01*
X0127285Y0351813D01*
X0127070Y0351712D01*
X0126853Y0351615D01*
X0126633Y0351524D01*
X0126411Y0351439D01*
X0126187Y0351358D01*
X0125961Y0351283D01*
X0125733Y0351213D01*
X0125504Y0351149D01*
X0125274Y0351090D01*
X0125042Y0351037D01*
X0124809Y0350989D01*
X0124574Y0350946D01*
X0124339Y0350910D01*
X0124103Y0350879D01*
X0123867Y0350853D01*
X0123629Y0350833D01*
X0123392Y0350819D01*
X0123154Y0350811D01*
X0122916Y0350808D01*
D15*
X0091433Y0313308D03*
X0127058Y0309558D03*
X0129558Y0307058D03*
X0172058Y0277683D03*
X0173933Y0280808D03*
X0182683Y0282683D03*
X0181433Y0261433D03*
X0178933Y0258933D03*
X0177058Y0255183D03*
X0166433Y0257683D03*
X0155808Y0256433D03*
X0152058Y0250808D03*
X0143308Y0247683D03*
X0158308Y0241433D03*
X0160808Y0226433D03*
X0160808Y0222683D03*
X0153933Y0217058D03*
X0153933Y0213308D03*
X0157683Y0203308D03*
X0170808Y0208933D03*
X0170808Y0215183D03*
X0170808Y0218933D03*
X0170808Y0222683D03*
X0178933Y0216433D03*
X0182683Y0213933D03*
X0198933Y0225183D03*
X0205183Y0213308D03*
X0207683Y0198308D03*
X0218933Y0192058D03*
X0228308Y0175183D03*
X0236433Y0163308D03*
X0240183Y0163308D03*
X0243933Y0163308D03*
X0242683Y0147058D03*
X0220183Y0123308D03*
X0208933Y0130808D03*
X0205183Y0102058D03*
X0216433Y0084558D03*
X0263308Y0075183D03*
X0266433Y0073308D03*
X0283933Y0065183D03*
X0296433Y0073933D03*
X0297058Y0097058D03*
X0295808Y0111433D03*
X0301433Y0119558D03*
X0306433Y0122058D03*
X0303933Y0124558D03*
X0309558Y0114558D03*
X0333933Y0098933D03*
X0345183Y0095808D03*
X0350183Y0112058D03*
X0363933Y0108933D03*
X0373933Y0110808D03*
X0373933Y0114558D03*
X0391433Y0148308D03*
X0383933Y0172058D03*
X0373933Y0170183D03*
X0361433Y0184558D03*
X0366433Y0193308D03*
X0388308Y0199558D03*
X0405808Y0202058D03*
X0412058Y0202058D03*
X0415808Y0212058D03*
X0420808Y0217058D03*
X0423308Y0219558D03*
X0423308Y0223308D03*
X0417058Y0220808D03*
X0407058Y0218308D03*
X0404558Y0220808D03*
X0409558Y0228308D03*
X0415808Y0236433D03*
X0430808Y0233308D03*
X0439558Y0230808D03*
X0433308Y0218933D03*
X0440808Y0214558D03*
X0433308Y0205808D03*
X0427058Y0199558D03*
X0422058Y0192058D03*
X0419558Y0183933D03*
X0443933Y0165808D03*
X0454558Y0165183D03*
X0467683Y0146433D03*
X0470183Y0141433D03*
X0459558Y0117683D03*
X0428308Y0155808D03*
X0428308Y0159558D03*
X0449558Y0197058D03*
X0423308Y0209558D03*
X0390808Y0215183D03*
X0385808Y0215183D03*
X0394558Y0229558D03*
X0385808Y0242683D03*
X0394558Y0256433D03*
X0375183Y0257683D03*
X0388308Y0272683D03*
X0391433Y0298308D03*
X0393933Y0321433D03*
X0402683Y0338308D03*
X0400183Y0340808D03*
X0383308Y0357683D03*
X0383308Y0361433D03*
X0422058Y0326433D03*
X0458933Y0319558D03*
X0470183Y0298308D03*
X0419558Y0259558D03*
X0462058Y0227683D03*
X0372058Y0228933D03*
X0340808Y0202683D03*
X0332683Y0190808D03*
X0308933Y0197058D03*
X0301433Y0202683D03*
X0298933Y0199558D03*
X0283933Y0194558D03*
X0271433Y0193308D03*
X0251433Y0202058D03*
X0247683Y0213308D03*
X0223933Y0220808D03*
X0217683Y0223308D03*
X0210183Y0235183D03*
X0195183Y0245808D03*
X0195183Y0253933D03*
X0210808Y0262683D03*
X0237683Y0256433D03*
X0256433Y0238308D03*
X0266433Y0250808D03*
X0276433Y0250808D03*
X0286433Y0250808D03*
X0293933Y0255183D03*
X0274558Y0273933D03*
X0274558Y0280183D03*
X0277058Y0285183D03*
X0282683Y0290183D03*
X0279558Y0292058D03*
X0286433Y0290808D03*
X0295808Y0292058D03*
X0303308Y0290808D03*
X0295808Y0302058D03*
X0289558Y0302058D03*
X0285808Y0302058D03*
X0275183Y0302058D03*
X0290808Y0314558D03*
X0288308Y0320808D03*
X0284558Y0320808D03*
X0280808Y0330808D03*
X0295808Y0320808D03*
X0301433Y0328308D03*
X0300183Y0345808D03*
X0295808Y0349558D03*
X0223933Y0304558D03*
X0197683Y0336433D03*
X0268933Y0280183D03*
X0266433Y0275183D03*
X0262683Y0275183D03*
X0256433Y0277683D03*
X0306433Y0227683D03*
X0305183Y0218308D03*
X0318933Y0216433D03*
X0333933Y0223308D03*
X0346433Y0284558D03*
X0240183Y0188308D03*
X0202683Y0175183D03*
X0187683Y0192058D03*
X0180183Y0194558D03*
X0172683Y0190808D03*
X0172683Y0180808D03*
X0142058Y0215183D03*
X0142058Y0220183D03*
X0150183Y0225183D03*
X0138308Y0232683D03*
X0123308Y0217683D03*
X0143308Y0263308D03*
X0124558Y0271433D03*
X0126433Y0170808D03*
X0122683Y0167058D03*
X0121433Y0147058D03*
X0117683Y0147058D03*
X0120183Y0140808D03*
X0123933Y0135808D03*
X0162058Y0106433D03*
X0129558Y0062683D03*
X0272058Y0097058D03*
X0275808Y0097058D03*
X0278308Y0094558D03*
X0283308Y0111433D03*
X0278308Y0114558D03*
X0280808Y0117058D03*
X0275808Y0120808D03*
X0278308Y0123308D03*
X0280808Y0125808D03*
X0282058Y0135808D03*
X0284558Y0138308D03*
X0287058Y0140808D03*
X0380808Y0074558D03*
M02*
